<?xml version="1.0" encoding="utf-8"?>
<!-- Generator: Adobe Illustrator 24.2.0, SVG Export Plug-In . SVG Version: 6.00 Build 0)  -->
<svg version="1.1" id="Layer_1" xmlns="http://www.w3.org/2000/svg" xmlns:xlink="http://www.w3.org/1999/xlink" x="0px" y="0px"
	 viewBox="0 0 9.1 9.2" style="enable-background:new 0 0 9.1 9.2;" xml:space="preserve">
<style type="text/css">
	.st0{fill:#F8B133;}
	.st1{fill:#FFFFFF;}
	.st2{fill:#1D1D1B;}
</style>
<g>
	<g>
		<g>
			<g>
				<path d="M9.1,5.3L9.1,5.3H7.9V3.9V0.2H0.2v3.6h1.7v1.4H0.2v3.9h8.9V5.3L9.1,5.3z M8,8H1.3V6.3H3V2.8H1.3V1.4h5.5v5H7l0,0h1
					C8,6.3,8,8,8,8z"/>
			</g>
		</g>
	</g>
	<g>
		<g>
			<g>
				<g>
					<path class="st0" d="M0.1,8.8V5.1h1.7V3.5H0.1V0.1h7.4v5h1.2v3.6H0.1z M0.9,7.9h6.9V7.8C7.9,6,7.9,6,7.7,6h-1V1H0.9v1.6h1.7V6
						H0.9V7.9z"/>
					<path d="M7.4,0.3v3.4V5v0.2h0.2h0.9v3.4H0.2V5.2h1.4h0.2V5V3.6V3.4H1.7H0.2V0.3H7.4 M0.8,2.8h0.2h1.4v3.1H1.1H0.8v0.2v1.7V8
						h0.2h6.7H8V7.8c0-1.9,0-1.9-0.3-1.9H6.8V1.1V0.9H6.6H1.1H0.8v0.2v1.4V2.8 M7.7,0H0v3.6h1.7V5H0v3.9h8.9V5H7.7V3.6V0L7.7,0z
						 M1.1,2.5V1.1h5.5v5h0.2h1c0,0,0,1.7,0,1.7H1.1V6.1h1.7V2.5H1.1L1.1,2.5z"/>
				</g>
			</g>
		</g>
	</g>
</g>
</svg>
