<?xml version="1.0" encoding="utf-8"?>
<!-- Generator: Adobe Illustrator 24.2.0, SVG Export Plug-In . SVG Version: 6.00 Build 0)  -->
<svg version="1.1" id="Layer_1" xmlns="http://www.w3.org/2000/svg" xmlns:xlink="http://www.w3.org/1999/xlink" x="0px" y="0px"
	 viewBox="0 0 181.3 182" style="enable-background:new 0 0 181.3 182;" xml:space="preserve">
<style type="text/css">
	.st0{fill:#FFFFFF;}
	.st1{enable-background:new    ;}
	.st2{fill:#1D1D1B;}
	.st3{fill:#F8B133;}
	.st4{fill:none;stroke:#000000;stroke-miterlimit:10;}
</style>
<g>
	<polygon class="st0" points="145.4,19.9 149.2,38.6 167.5,44.2 164.2,63 179.3,74.8 169.4,91.2 179.2,107.7 164.1,119.4 
		167.3,138.3 148.9,143.7 145.1,162.5 126,161 115.7,177.1 98.4,168.7 82.9,180 69.9,166 51.4,170.9 44.3,153.2 25.2,151.1 
		25,131.9 8,123.1 14.7,105.2 2,90.8 14.8,76.5 8.2,58.6 25.2,49.8 25.5,30.7 44.6,28.7 51.8,11 70.3,16 83.4,2 98.8,13.4 
		116.1,5.2 126.4,21.3 	"/>
	<path d="M82.8,182l-13.4-14.3l-18.9,5l-7.3-18.2l-19.5-2.1l-0.2-19.6l-17.4-9l6.8-18.3L0,90.8l13-14.6L6.3,57.8l17.4-8.9L24,29.3
		l19.5-2l7.4-18.1l18.9,5.1L83.2,0L99,11.6l17.7-8.4l10.5,16.5l19.5-1.5l3.8,19.2l18.7,5.7l-3.4,19.3l15.4,12.1l-10.1,16.8l10,16.8
		l-15.5,12l3.3,19.3l-18.8,5.6l-3.9,19.2l-19.5-1.6L116.2,179l-17.6-8.5L82.8,182z M70.4,164.3L83.1,178l15.1-11l16.8,8.1l10.1-15.7
		l18.6,1.5l3.8-18.3l17.9-5.3l-3.1-18.4l14.8-11.5l-9.6-16.1l9.7-16l-14.7-11.5l3.2-18.4L147.8,40l-3.7-18.3l-18.6,1.4l-10-15.8
		l-16.9,8l-15-11.2L70.7,17.7l-18.1-4.9l-7.1,17.3l-18.6,2l-0.3,18.7L10,59.3l6.5,17.6l-12.4,14l12.4,14L10,122.4l16.6,8.6l0.2,18.7
		l18.6,2l7,17.4L70.4,164.3z"/>
</g>
<g class="st1">
	<path d="M63.8,133.5c-0.1,0.3-0.2,0.4-0.4,0.3c-0.3,0-0.6-0.2-0.8-0.3c-0.2-0.1-0.3-0.3-0.2-0.7c0.1-1.2,0.6-3.5,1-5.4
		c-0.1-0.2-0.3-0.4-0.4-0.6c-0.2-0.3-0.1-0.5,0.1-0.6c1.2-0.8,3.6-1.7,4.4-0.8c0.3,0.4,0.7,0.8,0.8,1.5c0.2,0.7-0.2,1.3-0.6,1.9
		c-0.7,0.9-2.2,1.9-3.5,2.4C64.1,132,64,132.8,63.8,133.5z M66.9,126.9c-0.1-0.3-0.8-0.2-1.6,0.2c-0.2,0.6-0.4,1.4-0.6,2.2
		C66.3,128.6,67.1,127.4,66.9,126.9z"/>
	<path d="M74,126.2c0.2,1.7-0.2,4.6-1.6,6.2c-0.4,0.5-1,0.7-1.6,0.7c-0.4,0-0.9-0.1-1.3-0.3c-0.3-0.2-0.6-0.5-0.7-0.9
		c-0.7-1.8,0.1-5.2,1.8-6.8c0.3-0.3,0.9-0.5,1.3-0.5c0.5,0,1.1,0.2,1.4,0.5C73.7,125.4,73.9,125.8,74,126.2z M70.6,128.7
		c-0.3,1.2-0.4,2.9,0,3c0.5,0.2,1.1-1,1.5-2.6c0.3-1.2,0.4-3,0-3.1C71.7,125.9,70.9,127.4,70.6,128.7z"/>
	<path d="M79.2,132.4c-0.9-0.2-1.1-0.3-1.2-0.9c0-0.5,0-2.3,0-3.4c-0.6,1.4-1.5,3.6-1.7,4.3c-0.1,0.3-0.3,0.4-0.7,0.3
		c-0.2,0-0.5-0.1-0.7-0.2c-0.2-0.1-0.3-0.2-0.3-0.5c-0.1-1.2,0.1-4.9,0.4-7.3c0-0.3,0.1-0.4,0.3-0.4c0.2,0,0.8,0.1,1,0.3
		c0.2,0.1,0.3,0.3,0.3,0.7c-0.1,0.7-0.3,3.2-0.5,4.7c0.6-1.7,1.7-4.3,2-4.9c0.1-0.3,0.3-0.3,0.6-0.3c0.2,0,0.5,0.1,0.6,0.2
		c0.2,0.1,0.3,0.3,0.3,0.6c0,0.4-0.1,2.7-0.2,4.2c0.6-2.1,1.7-5.1,2-5.8c0.1-0.3,0.3-0.4,0.6-0.3c0.2,0.1,0.5,0.2,0.7,0.4
		c0.2,0.2,0.2,0.5,0,0.8c-0.7,1.7-2,5.2-2.7,7.1C79.8,132.4,79.7,132.5,79.2,132.4z"/>
	<path d="M83,124.4c-0.1-0.3,0-0.3,0.2-0.4c0.9-0.3,2.5-0.7,3.7-0.8c0.3,0,0.4,0.1,0.5,0.3c0.1,0.3,0.2,0.5,0.2,0.7
		c0,0.3,0,0.4-0.3,0.4c-0.6,0.1-1.3,0.3-2,0.4c-0.1,0.5-0.3,1.2-0.5,1.8c0.3-0.1,0.6-0.1,1-0.2c0.3,0,0.4,0,0.6,0.2
		c0.1,0.2,0.2,0.5,0.2,0.7c0.1,0.3,0,0.4-0.3,0.5c-0.6,0.2-1.4,0.4-2,0.6c-0.1,0.4-0.2,0.8-0.3,1.2c0.5-0.2,1-0.3,1.5-0.3
		c0.3,0,0.5,0,0.6,0.2c0.1,0.3,0.2,0.5,0.3,0.7c0.1,0.3,0,0.4-0.3,0.5c-0.7,0.2-1.5,0.5-2.2,0.7c-0.4,0.1-0.6,0.1-0.8-0.1
		c-0.2-0.1-0.4-0.3-0.6-0.5c-0.2-0.2-0.3-0.5-0.2-0.8c0.2-1.2,0.7-3.5,1.1-5.2C83.2,125,83.1,124.6,83,124.4z"/>
	<path d="M88.7,131.2c-0.1,0.3-0.1,0.3-0.4,0.3c-0.3-0.1-0.5-0.1-0.7-0.2c-0.2-0.1-0.3-0.3-0.3-0.7c0.1-1.2,0.6-3.5,1.1-5.4
		c-0.1-0.2-0.3-0.4-0.4-0.6c-0.1-0.3-0.1-0.5,0.1-0.6c1.2-0.8,3.6-1.6,4.4-0.8c0.4,0.4,0.7,0.9,0.8,1.5c0.2,0.7-0.1,1.3-0.6,1.9
		c-0.5,0.5-1.2,1.1-2,1.6c0.5,0.7,1.2,1.5,1.8,2.1c0.2,0.2,0.2,0.3,0,0.5c-0.2,0.2-0.3,0.2-0.5,0.3c-0.2,0.1-0.5,0.1-0.9-0.2
		c-0.5-0.4-1.3-1.3-1.9-2.1C89,129.6,88.8,130.5,88.7,131.2z M89.7,127.1c1.5-0.7,2.4-2,2.2-2.4c-0.1-0.3-0.8-0.3-1.6,0.2
		C90.1,125.5,89.9,126.2,89.7,127.1z"/>
	<path d="M93.9,123.4c-0.1-0.3,0-0.3,0.2-0.4c0.9-0.3,2.5-0.7,3.7-0.8c0.3,0,0.4,0.1,0.5,0.3c0.1,0.3,0.2,0.5,0.2,0.7
		c0,0.3,0,0.4-0.3,0.4c-0.6,0.1-1.3,0.3-2,0.4c-0.1,0.5-0.3,1.2-0.5,1.8c0.3-0.1,0.6-0.1,1-0.2c0.3,0,0.4,0,0.6,0.2
		c0.1,0.2,0.2,0.5,0.2,0.7c0.1,0.3,0,0.4-0.3,0.5c-0.6,0.2-1.4,0.4-2,0.6c-0.1,0.4-0.2,0.8-0.3,1.2c0.5-0.2,1-0.3,1.5-0.3
		c0.3-0.1,0.5,0,0.6,0.2c0.1,0.3,0.2,0.5,0.3,0.7c0.1,0.3,0,0.4-0.3,0.5c-0.7,0.2-1.5,0.5-2.2,0.7c-0.4,0.1-0.6,0.1-0.8-0.1
		c-0.2-0.1-0.4-0.3-0.6-0.5c-0.2-0.2-0.3-0.5-0.2-0.8c0.2-1.2,0.7-3.5,1.1-5.2C94.1,124,94,123.7,93.9,123.4z"/>
	<path d="M98.9,123.4c-0.2-0.3-0.2-0.5,0.1-0.6c1.2-0.8,3.9-1.5,4.9,0.7c0.9,1.9-0.2,5.5-3.7,7.2c-0.3,0.2-0.6,0.2-0.9,0
		c-0.3-0.2-0.5-0.4-0.8-0.6c-0.3-0.2-0.4-0.4-0.3-1.1c0.2-1.4,0.6-3.3,1-4.8C99.1,123.8,99,123.6,98.9,123.4z M102.4,124.1
		c-0.2-0.4-0.7-0.6-1.3-0.3c-0.4,1.6-0.8,3.3-1.2,5.1C102.2,127.4,102.7,124.9,102.4,124.1z"/>
	<path d="M112.5,126.6c0.1,0.6-0.1,1-0.6,1.5c-0.6,0.7-1.7,1.4-2.5,1.7c-0.4,0.2-0.6,0.2-0.9,0c-0.3-0.2-0.5-0.4-0.9-0.7
		c-0.3-0.3-0.4-0.4-0.3-0.9c0.2-1.3,0.7-3.3,1-4.9c-0.1-0.2-0.2-0.4-0.3-0.6c-0.1-0.3-0.1-0.5,0.1-0.6c1.2-0.8,3.6-1.5,4.5-0.7
		c0.3,0.4,0.6,0.8,0.7,1.4c0.1,0.7-0.3,1.3-0.7,1.8c-0.2,0.3-0.5,0.5-0.9,0.8C112.1,125.6,112.4,126.1,112.5,126.6z M108.9,128.1
		c1.2-0.5,2-1.2,1.9-1.7c0-0.3-0.7-0.4-1.6,0C109.1,127,109,127.6,108.9,128.1z M111.7,122.8c-0.1-0.3-0.8-0.2-1.6,0.3
		c-0.1,0.5-0.3,1.1-0.5,1.8C111,124.2,111.8,123.1,111.7,122.8z"/>
	<path d="M116.2,126.4c-0.2,0.9-0.4,1.8-0.5,2.6c-0.1,0.3-0.2,0.3-0.4,0.3c-0.3-0.1-0.6-0.2-0.8-0.3c-0.2-0.2-0.3-0.3-0.2-0.7
		c0.1-0.6,0.2-1.4,0.4-2.3c-0.3-1.5-0.8-3.3-1.1-4.6c-0.1-0.3,0-0.4,0.3-0.4c0.3-0.1,0.6-0.1,0.9-0.1c0.3,0,0.4,0.2,0.5,0.5
		c0.2,0.6,0.4,1.7,0.7,2.7c0.6-1.1,1.2-2.3,1.7-3.4c0.1-0.3,0.3-0.3,0.5-0.2c0.3,0.1,0.5,0.3,0.6,0.5c0.2,0.2,0.2,0.4,0,0.7
		C118.3,122.6,117.2,124.7,116.2,126.4z"/>
</g>
<g class="st1">
	<path d="M64.6,64.2c0.1,0.5-0.1,0.9-0.5,1.3c-0.5,0.6-1.6,1.3-2.3,1.5c-0.4,0.2-0.6,0.2-0.9,0c-0.3-0.2-0.5-0.3-0.8-0.6
		c-0.3-0.3-0.3-0.4-0.3-0.9c0.2-1.2,0.6-3,0.9-4.4c-0.1-0.1-0.2-0.3-0.3-0.5c-0.1-0.3-0.1-0.4,0.1-0.6c1.1-0.7,3.3-1.4,4-0.6
		c0.3,0.3,0.6,0.7,0.7,1.3c0.1,0.6-0.2,1.2-0.6,1.7c-0.2,0.2-0.5,0.5-0.8,0.7C64.3,63.3,64.5,63.8,64.6,64.2z M61.3,65.6
		c1.1-0.4,1.8-1.1,1.7-1.5c0-0.2-0.6-0.4-1.4,0C61.5,64.7,61.4,65.2,61.3,65.6z M63.9,60.8c-0.1-0.3-0.7-0.2-1.5,0.3
		c-0.1,0.5-0.3,1-0.4,1.6C63.2,62.1,64,61.1,63.9,60.8z"/>
	<path d="M66.3,66.4c0,0.3-0.1,0.3-0.4,0.3c-0.2,0-0.5-0.1-0.7-0.2c-0.2-0.1-0.3-0.3-0.2-0.6c0.1-1.1,0.6-3.2,1-4.9
		c-0.1-0.2-0.2-0.4-0.3-0.6c-0.1-0.3-0.1-0.4,0.1-0.6c1.1-0.7,3.2-1.5,4-0.7c0.3,0.3,0.6,0.8,0.7,1.4c0.1,0.6-0.1,1.2-0.5,1.7
		c-0.4,0.5-1,1-1.8,1.4c0.4,0.6,1.1,1.4,1.6,1.9c0.2,0.2,0.2,0.3,0,0.5c-0.2,0.2-0.3,0.2-0.5,0.3c-0.2,0.1-0.5,0.1-0.8-0.1
		c-0.5-0.4-1.2-1.2-1.7-1.9C66.6,64.9,66.5,65.7,66.3,66.4z M67.2,62.6c1.3-0.6,2.1-1.8,2-2.1c-0.1-0.3-0.8-0.3-1.5,0.2
		C67.6,61.2,67.4,61.9,67.2,62.6z"/>
	<path d="M73.3,59.5c-0.4,1.5-1.1,4.7-1.4,6.4c0,0.3-0.1,0.3-0.4,0.3c-0.2,0-0.5-0.2-0.8-0.3c-0.2-0.1-0.3-0.3-0.2-0.6
		c0.2-1.4,0.8-4.9,1.2-6.4c0.1-0.3,0.2-0.3,0.5-0.3c0.3,0.1,0.6,0.2,0.9,0.4C73.3,59.1,73.3,59.2,73.3,59.5z"/>
	<path d="M77.4,58.4c0.1-0.3,0.2-0.4,0.5-0.3c0.2,0,0.4,0.1,0.5,0.2c0.3,0.1,0.4,0.3,0.3,0.7c-0.4,1.7-1,4.6-1.3,6.4
		c0,0.3-0.2,0.4-0.5,0.3c-0.2,0-0.5-0.1-0.7-0.2c-0.2-0.1-0.4-0.3-0.5-0.6c-0.3-0.9-0.5-2-0.7-3.5c-0.2,0.9-0.6,2.6-0.9,4.3
		c0,0.3-0.2,0.3-0.4,0.3c-0.2,0-0.4-0.1-0.5-0.2c-0.3-0.1-0.4-0.2-0.3-0.8c0.2-1.2,0.9-4.6,1.3-6.3c0.1-0.2,0.2-0.3,0.3-0.3
		c0.2,0,0.7,0.1,1,0.3c0.3,0.1,0.3,0.2,0.4,0.6c0.2,1.1,0.4,2.4,0.6,3.7C76.7,61.5,77.1,59.5,77.4,58.4z"/>
	<path d="M83.1,60.9c-0.7,0-1-0.4-1-0.9c0-0.4,0-1-0.2-1c-0.4-0.1-1.1,1.2-1.5,2.6c-0.4,1.2-0.4,2.6,0,2.8c0.4,0.1,0.8-0.6,1.2-1.4
		c-0.6,0.1-0.9-0.2-1-0.8c0-0.2,0.1-0.3,0.3-0.3c0.4-0.1,1-0.3,1.4-0.4c0.3-0.1,0.5,0,0.7,0.2c0.1,0.1,0.2,0.3,0.3,0.4
		c0.2,0.3,0.2,0.4,0.1,0.8c-0.3,1.1-0.9,2-1.4,2.5c-0.4,0.3-0.8,0.4-1.3,0.4c-0.4,0-0.8-0.2-1.1-0.3c-0.3-0.2-0.5-0.5-0.7-0.8
		c-0.6-1.6,0.3-5,2-6.4c0.3-0.3,0.8-0.4,1.1-0.3c0.4,0,1,0.2,1.3,0.5c0.3,0.3,0.4,0.6,0.5,1c0,0.4,0,1.2-0.1,1.6
		C83.4,60.8,83.3,60.9,83.1,60.9z"/>
	<path d="M86.4,58.3c-0.4,1.5-1.1,4.7-1.4,6.4c0,0.3-0.1,0.3-0.4,0.3c-0.2,0-0.5-0.2-0.8-0.3c-0.2-0.1-0.3-0.3-0.2-0.6
		c0.2-1.4,0.8-4.9,1.2-6.4c0.1-0.3,0.2-0.3,0.5-0.3c0.3,0.1,0.6,0.2,0.9,0.4C86.4,58,86.4,58.1,86.4,58.3z"/>
	<path d="M90.5,57.2c0.1-0.3,0.2-0.4,0.5-0.3c0.2,0,0.4,0.1,0.5,0.2c0.3,0.1,0.4,0.3,0.3,0.7c-0.4,1.7-1,4.6-1.3,6.4
		c0,0.3-0.2,0.4-0.5,0.3c-0.2,0-0.5-0.1-0.7-0.2c-0.2-0.1-0.3-0.3-0.5-0.6c-0.3-0.9-0.5-2-0.7-3.5c-0.2,0.9-0.6,2.6-0.9,4.3
		c0,0.3-0.2,0.3-0.4,0.3c-0.2,0-0.4-0.1-0.5-0.2c-0.3-0.1-0.4-0.2-0.3-0.8c0.2-1.2,0.9-4.6,1.3-6.3c0.1-0.2,0.2-0.3,0.3-0.3
		c0.2,0,0.7,0.1,1,0.3c0.3,0.1,0.3,0.2,0.4,0.6c0.2,1.1,0.4,2.4,0.6,3.7C89.8,60.4,90.2,58.4,90.5,57.2z"/>
	<path d="M96.2,59.7c-0.7,0-1-0.4-1-0.9c0-0.4,0-1-0.2-1c-0.4-0.1-1.1,1.2-1.5,2.6c-0.4,1.2-0.4,2.6,0,2.8c0.4,0.1,0.8-0.6,1.2-1.4
		c-0.6,0.1-0.9-0.2-1-0.8c0-0.2,0.1-0.3,0.3-0.3c0.4-0.1,1-0.3,1.4-0.4c0.3-0.1,0.5,0,0.7,0.2c0.1,0.1,0.2,0.3,0.3,0.4
		c0.2,0.3,0.2,0.4,0.1,0.8c-0.3,1.1-0.9,2-1.4,2.5c-0.4,0.3-0.8,0.4-1.3,0.4c-0.4,0-0.8-0.2-1.1-0.3c-0.3-0.2-0.5-0.5-0.7-0.8
		c-0.6-1.6,0.3-5,2-6.4c0.3-0.3,0.8-0.4,1.1-0.3c0.4,0,1,0.2,1.3,0.5c0.3,0.3,0.4,0.6,0.5,1c0,0.4,0,1.2-0.1,1.6
		C96.5,59.6,96.4,59.7,96.2,59.7z"/>
	<path d="M102.3,61.1c-0.2,0.8-0.4,1.6-0.5,2.3c0,0.3-0.1,0.3-0.4,0.3c-0.2,0-0.5-0.1-0.7-0.3c-0.2-0.1-0.3-0.3-0.2-0.6
		c0.1-0.5,0.2-1.3,0.4-2.1c-0.3-1.4-0.7-3-1-4.2c-0.1-0.3,0-0.3,0.2-0.4c0.3-0.1,0.5-0.1,0.8-0.1c0.2,0,0.4,0.2,0.5,0.5
		c0.2,0.6,0.4,1.5,0.6,2.4c0.5-1,1.1-2.1,1.5-3c0.1-0.2,0.2-0.3,0.5-0.2c0.2,0.1,0.4,0.2,0.6,0.4c0.2,0.2,0.2,0.3,0,0.7
		C104.2,57.6,103.2,59.5,102.3,61.1z"/>
	<path d="M109,56.9c0.2,1.6-0.2,4.2-1.4,5.6c-0.4,0.5-0.9,0.6-1.4,0.6c-0.4,0-0.8-0.1-1.2-0.3c-0.2-0.1-0.5-0.4-0.7-0.8
		c-0.6-1.6,0.1-4.7,1.6-6.1c0.3-0.3,0.8-0.5,1.2-0.5c0.5,0,1,0.2,1.3,0.4C108.8,56.1,109,56.5,109,56.9z M105.9,59.1
		c-0.3,1.1-0.4,2.6,0,2.8c0.4,0.1,1-0.9,1.4-2.4c0.3-1.1,0.4-2.7,0-2.8C107,56.6,106.3,58,105.9,59.1z"/>
	<path d="M110.4,55.5c0.1-0.3,0.2-0.3,0.5-0.3c0.3,0.1,0.5,0.2,0.7,0.4c0.3,0.2,0.3,0.4,0.2,0.8c-0.5,1.7-1.4,4.9-0.7,5.1
		c0.8,0.2,1.6-4.2,2-6.2c0.1-0.3,0.2-0.4,0.5-0.3c0.3,0.1,0.6,0.2,0.8,0.4c0.2,0.2,0.3,0.3,0.2,0.5c-0.6,3.2-1.1,5.6-2.1,6.5
		c-0.4,0.3-0.7,0.4-1.2,0.4c-0.4,0-0.8-0.1-1.1-0.3c-0.2-0.1-0.5-0.4-0.6-0.7C109,60.4,109.8,57.6,110.4,55.5z"/>
	<path d="M113.9,61.3c0.1-0.5,0.6-0.8,1.1-0.7c0.5,0.1,0.6,0.6,0.5,1c-0.1,0.6-0.6,0.9-1.1,0.8C114,62.4,113.7,61.9,113.9,61.3z"/>
	<path d="M116.5,61.1c0.1-0.5,0.6-0.8,1.1-0.7c0.5,0.1,0.6,0.6,0.5,1c-0.1,0.6-0.6,0.9-1.1,0.8C116.6,62.1,116.3,61.7,116.5,61.1z"
		/>
	<path d="M119.1,60.9c0.1-0.5,0.6-0.8,1.1-0.7c0.5,0.1,0.6,0.6,0.5,1c-0.1,0.6-0.6,0.9-1.1,0.8C119.2,61.9,118.9,61.4,119.1,60.9z"
		/>
</g>
<g class="st1">
	<path d="M75.6,25c-0.3,1.2-0.6,2.8-0.9,4c0,0.2-0.1,0.2-0.2,0.2c-0.2,0-0.3-0.1-0.5-0.2c-0.1-0.1-0.2-0.2-0.1-0.4
		c0.1-0.8,0.4-2.3,0.6-3.3c-0.2,0-0.4,0.1-0.5,0.1c-0.2,0-0.2,0-0.3-0.1c-0.1-0.1-0.2-0.4-0.3-0.5c0-0.1,0-0.2,0.1-0.2
		c0.7-0.2,1.8-0.4,2.5-0.5c0.2,0,0.2,0,0.3,0.1c0.1,0.1,0.2,0.3,0.2,0.5c0,0.2,0,0.2-0.2,0.2C76.2,24.9,75.9,24.9,75.6,25z"/>
	<path d="M78.8,28.6c0,0.2-0.1,0.2-0.2,0.2c-0.2,0-0.3-0.1-0.5-0.2c-0.1-0.1-0.2-0.2-0.1-0.4c0-0.3,0.1-0.7,0.2-1.2
		c-0.2,0.1-0.5,0.1-0.8,0.2c-0.1,0.6-0.2,1.1-0.3,1.5c0,0.2-0.1,0.2-0.3,0.2c-0.2,0-0.3-0.1-0.5-0.2c-0.1-0.1-0.2-0.2-0.1-0.4
		c0-0.3,0.1-0.7,0.2-1.2c-0.1-0.1-0.1-0.2-0.1-0.3c0-0.1,0-0.2,0.1-0.2c0.1,0,0.1,0,0.2-0.1c0.2-0.9,0.4-1.8,0.5-2.3
		C77,24,77.1,24,77.3,24c0.2,0,0.4,0.1,0.6,0.2c0.2,0.1,0.2,0.2,0.1,0.4c-0.1,0.4-0.3,1-0.4,1.6c0.3-0.1,0.6-0.1,0.8-0.1
		c0.2-0.8,0.3-1.6,0.5-2.1c0-0.2,0.1-0.2,0.3-0.2c0.2,0,0.4,0.1,0.5,0.2c0.1,0.1,0.2,0.2,0.1,0.4C79.5,25.4,79.1,27.2,78.8,28.6z"/>
	<path d="M80,24.2c0-0.1,0-0.2,0.1-0.2c0.5-0.2,1.5-0.4,2.1-0.5c0.2,0,0.3,0,0.3,0.2c0.1,0.2,0.1,0.3,0.1,0.4c0,0.2,0,0.2-0.2,0.3
		c-0.3,0.1-0.8,0.2-1.2,0.3c-0.1,0.3-0.2,0.7-0.3,1.1c0.2,0,0.4-0.1,0.6-0.1c0.2,0,0.3,0,0.3,0.1c0.1,0.1,0.1,0.3,0.1,0.4
		c0,0.2,0,0.2-0.2,0.3c-0.4,0.1-0.8,0.2-1.2,0.4c-0.1,0.2-0.1,0.5-0.2,0.7c0.3-0.1,0.6-0.1,0.9-0.2c0.2,0,0.3,0,0.3,0.1
		c0.1,0.2,0.1,0.3,0.2,0.4c0,0.2,0,0.2-0.2,0.3c-0.4,0.1-0.9,0.3-1.3,0.4c-0.2,0.1-0.3,0.1-0.5,0c-0.1-0.1-0.2-0.2-0.3-0.3
		c-0.1-0.1-0.2-0.3-0.1-0.5c0.1-0.7,0.4-2,0.6-3.1C80.1,24.5,80,24.3,80,24.2z"/>
	<path d="M85,27.2c-0.1,0.3-0.3,0.6-0.4,0.9c-0.1,0.2-0.1,0.2-0.3,0.1c-0.1,0-0.3-0.1-0.4-0.2c-0.1-0.1-0.1-0.2-0.1-0.4
		c0.4-1.1,1.2-3.1,1.8-4.1c0.1-0.2,0.2-0.3,0.5-0.3c0.3,0,0.7,0.1,1,0.1c0.2,0.1,0.2,0.2,0.2,0.4c-0.1,1-0.1,2.8,0,4.2
		c0,0.2,0,0.2-0.2,0.2s-0.4,0-0.5,0c-0.2,0-0.2-0.1-0.2-0.4c0-0.2,0-0.5,0-0.9C85.9,26.9,85.4,27,85,27.2z M86.4,25.8
		c0-0.6,0-1.2,0-1.8c-0.2,0.5-0.6,1.2-0.9,2C85.8,26,86.1,25.9,86.4,25.8z"/>
	<path d="M88.6,27.8c-0.2,0.1-0.4,0.1-0.5,0c-0.1-0.1-0.2-0.2-0.3-0.3c-0.1-0.1-0.2-0.3-0.1-0.5c0.1-1,0.6-2.9,0.9-4
		c0.1-0.2,0.2-0.2,0.3-0.2c0.2,0,0.4,0.1,0.6,0.2c0.2,0.1,0.2,0.2,0.1,0.4c-0.2,0.9-0.6,2.1-0.8,3.2c0.3-0.1,0.5-0.1,0.8-0.2
		c0.2,0,0.3,0,0.3,0.1C90,26.8,90,27,90,27.1c0,0.2,0,0.2-0.2,0.3C89.5,27.5,89,27.7,88.6,27.8z"/>
	<path d="M91.2,27.6c-0.2,0.1-0.4,0.1-0.5,0c-0.1-0.1-0.2-0.2-0.3-0.3c-0.1-0.1-0.2-0.3-0.1-0.5c0.1-1,0.6-2.9,0.9-4
		c0.1-0.2,0.2-0.2,0.3-0.2c0.2,0,0.4,0.1,0.6,0.2c0.2,0.1,0.2,0.2,0.1,0.4c-0.2,0.9-0.6,2.1-0.8,3.2c0.3-0.1,0.5-0.1,0.8-0.2
		c0.2,0,0.3,0,0.3,0.1c0.1,0.1,0.1,0.3,0.2,0.4c0,0.2,0,0.2-0.2,0.3C92,27.3,91.6,27.4,91.2,27.6z"/>
	<path d="M97.4,22.4c0.1-0.2,0.1-0.2,0.3-0.2c0.1,0,0.2,0.1,0.4,0.1c0.2,0.1,0.2,0.2,0.2,0.4c-0.2,1.1-0.6,2.9-0.8,4.1
		c0,0.2-0.1,0.2-0.3,0.2c-0.1,0-0.3-0.1-0.4-0.1c-0.1-0.1-0.2-0.2-0.3-0.4c-0.2-0.6-0.3-1.3-0.5-2.3c-0.1,0.6-0.4,1.7-0.6,2.8
		c0,0.2-0.1,0.2-0.3,0.2c-0.1,0-0.2-0.1-0.3-0.1c-0.2-0.1-0.2-0.2-0.2-0.5c0.1-0.8,0.6-3,0.8-4.1c0-0.1,0.1-0.2,0.2-0.2
		c0.1,0,0.4,0.1,0.7,0.2c0.2,0.1,0.2,0.2,0.3,0.4c0.1,0.7,0.2,1.6,0.4,2.4C97,24.4,97.2,23.1,97.4,22.4z"/>
	<path d="M98.6,22.5c0-0.1,0-0.2,0.1-0.2c0.5-0.2,1.5-0.4,2.1-0.5c0.2,0,0.3,0,0.3,0.2c0.1,0.2,0.1,0.3,0.1,0.4c0,0.2,0,0.2-0.2,0.3
		c-0.3,0.1-0.8,0.2-1.2,0.3c-0.1,0.3-0.2,0.7-0.3,1.1c0.2,0,0.4-0.1,0.6-0.1c0.2,0,0.3,0,0.3,0.1c0.1,0.1,0.1,0.3,0.1,0.4
		c0,0.2,0,0.2-0.2,0.3c-0.4,0.1-0.8,0.2-1.2,0.4c-0.1,0.2-0.1,0.5-0.2,0.7c0.3-0.1,0.6-0.1,0.9-0.2c0.2,0,0.3,0,0.3,0.1
		c0.1,0.2,0.1,0.3,0.2,0.4c0,0.2,0,0.2-0.2,0.3c-0.4,0.1-0.9,0.3-1.3,0.4c-0.2,0.1-0.3,0.1-0.5,0c-0.1-0.1-0.2-0.2-0.3-0.3
		c-0.1-0.1-0.2-0.3-0.1-0.5c0.1-0.7,0.4-2,0.6-3.1C98.7,22.9,98.6,22.7,98.6,22.5z"/>
	<path d="M104,26.5c-0.5-0.1-0.7-0.2-0.7-0.5c0-0.3,0-1.3,0-2c-0.3,0.8-0.9,2.1-1,2.5c-0.1,0.2-0.2,0.2-0.4,0.2
		c-0.1,0-0.3-0.1-0.4-0.1c-0.1-0.1-0.2-0.1-0.2-0.3c-0.1-0.7,0.1-2.9,0.2-4.2c0-0.2,0.1-0.2,0.2-0.2c0.1,0,0.5,0.1,0.6,0.2
		c0.1,0.1,0.2,0.2,0.1,0.4c0,0.4-0.2,1.9-0.3,2.7c0.4-1,1-2.5,1.1-2.9c0.1-0.2,0.1-0.2,0.4-0.2c0.1,0,0.3,0.1,0.4,0.1
		c0.1,0.1,0.2,0.2,0.2,0.4c0,0.2-0.1,1.6-0.1,2.5c0.4-1.2,1-3,1.2-3.4c0.1-0.2,0.2-0.2,0.4-0.2c0.1,0,0.3,0.1,0.4,0.3
		c0.1,0.1,0.1,0.3,0,0.5c-0.4,1-1.2,3.1-1.6,4.1C104.4,26.6,104.3,26.6,104,26.5z"/>
	<path d="M105.9,25.7c0.1-0.3,0.4-0.5,0.7-0.4c0.3,0.1,0.4,0.4,0.3,0.7c-0.1,0.4-0.4,0.6-0.7,0.5C105.9,26.4,105.8,26.1,105.9,25.7z
		 M107.9,21.7c-0.3,1.1-0.7,2.3-0.9,3.2c0,0.2-0.1,0.2-0.2,0.2c-0.2,0-0.3-0.1-0.5-0.1c-0.1-0.1-0.2-0.2-0.1-0.4
		c0.2-0.9,0.5-2.4,0.7-3.3c0.1-0.2,0.1-0.2,0.3-0.2c0.2,0,0.4,0.1,0.5,0.2C107.9,21.4,108,21.5,107.9,21.7z"/>
</g>
<g class="st1">
	<path d="M67.2,157.2c1.1,1,2.2,1.3,2.7,0.9c0.6-0.5-1.5-1.7-2.5-2.9c-0.7-0.8-1.1-2.1-0.4-3.5c0.5-1.3,1.7-2.7,2.9-3.5
		c0.4-0.3,1.2-0.6,2-0.3c0.6,0.2,1.3,0.7,1.7,1.1c0.5,0.6,0.5,1.3,0.4,1.8c-0.1,0.9-0.6,2.4-1,3.2c-0.2,0.4-0.4,0.4-0.7,0.3
		c-1-0.4-1.4-1-1.3-1.8c0.2-0.7,0.7-2.2,0.5-2.3c-0.4-0.2-2.9,2.3-1.9,3.7c1.1,1.5,3.6,2.5,2.7,4.3c-0.7,1.3-1.7,2.2-3.3,2.2
		c-1.3,0-2.5-0.6-3.6-2.2c-0.6-0.8-0.5-1.1-0.1-1.3C66,156.8,66.8,156.9,67.2,157.2z"/>
	<path d="M80.9,160.5c-1.3-0.4-1.6-0.6-1.6-1.5c0-0.7,0.3-3.5,0.4-5.1c-1.1,2-2.7,5.2-3.2,6.2c-0.3,0.5-0.5,0.5-1.1,0.4
		c-0.3-0.1-0.8-0.2-1.1-0.4c-0.3-0.2-0.4-0.4-0.4-0.7c0-1.9,0.8-7.3,1.5-10.8c0.1-0.4,0.2-0.6,0.5-0.6c0.4,0,1.1,0.3,1.5,0.5
		c0.3,0.2,0.4,0.5,0.3,1c-0.2,1-0.9,4.7-1.4,6.9c1.2-2.5,3.1-6.3,3.6-7.1c0.3-0.4,0.4-0.5,1-0.3c0.3,0.1,0.7,0.2,0.9,0.4
		c0.3,0.2,0.4,0.5,0.3,1c-0.1,0.5-0.5,4-0.8,6.3c1.2-3,3.2-7.4,3.8-8.4c0.3-0.4,0.4-0.5,0.9-0.3c0.3,0.2,0.8,0.4,1,0.7
		c0.3,0.3,0.2,0.7,0,1.2c-1.3,2.5-3.7,7.6-4.9,10.2C81.9,160.7,81.6,160.7,80.9,160.5z"/>
	<path d="M87.2,157.9c-0.4,0.8-0.8,1.6-1.1,2.2c-0.2,0.4-0.4,0.4-0.7,0.3c-0.3-0.1-0.7-0.3-0.9-0.6s-0.3-0.6,0-1.1
		c1.3-2.9,3.8-7.6,5.5-10.2c0.3-0.5,0.7-0.7,1.3-0.7c0.8,0,1.8,0.3,2.5,0.5c0.5,0.2,0.5,0.5,0.4,1c-0.3,2.4-0.8,7.1-1,10.7
		c0,0.4-0.1,0.6-0.6,0.6s-0.9-0.1-1.2-0.2c-0.4-0.1-0.5-0.4-0.5-1c0-0.6,0-1.4,0.1-2.2C89.5,157.4,88.1,157.6,87.2,157.9z
		 M90.9,154.8c0.1-1.5,0.3-3.1,0.4-4.5c-0.8,1.3-1.7,3-2.7,4.8C89.4,155,90.2,154.9,90.9,154.8z"/>
	<path d="M95.9,160.1c-0.1,0.4-0.3,0.5-0.7,0.4c-0.4-0.1-0.8-0.3-1-0.4c-0.3-0.3-0.4-0.5-0.3-1.1c0.4-1.8,1.4-5.2,2.3-8
		c-0.2-0.3-0.3-0.7-0.5-1c-0.2-0.5-0.2-0.7,0.3-1c1.9-1.1,5.5-2,6.7-0.6c0.5,0.6,0.9,1.4,1,2.4c0.1,1.1-0.4,2-1.1,2.7
		c-0.8,0.8-1.9,1.5-3.1,2.1c0.6,1,1.6,2.5,2.4,3.3c0.3,0.3,0.2,0.5-0.1,0.8c-0.3,0.3-0.5,0.3-0.8,0.4c-0.4,0.1-0.8,0.1-1.4-0.4
		c-0.7-0.7-1.8-2.1-2.6-3.4C96.6,157.7,96.2,158.9,95.9,160.1z M97.9,153.9c2.3-0.9,3.8-2.6,3.6-3.3c-0.1-0.4-1.2-0.5-2.4,0.1
		C98.7,151.7,98.4,152.8,97.9,153.9z"/>
	<path d="M107.1,152.2c-0.6,1.9-1.7,5.6-2.3,7.9c-0.1,0.5-0.3,0.6-0.8,0.4c-0.2-0.1-0.5-0.2-0.8-0.4c-0.5-0.3-0.6-0.6-0.4-1.4
		c0.5-2.6,2.2-7.8,3-10.1c0.2-0.4,0.4-0.6,0.7-0.6c0.5,0,1.5,0.3,1.9,0.5c0.6,0.3,0.7,0.5,0.7,1.2l0,1l0,2.6v1.2
		c1-1.9,2.7-4.9,3.5-6.1c0.3-0.4,0.6-0.5,1.1-0.5c0.4,0.1,1.3,0.3,2,0.7c0.4,0.2,0.5,0.5,0.3,1.1c-0.8,2.6-2.4,8-3.1,10.4
		c-0.1,0.3-0.3,0.5-0.5,0.5c-0.3,0-0.8-0.2-1.1-0.4c-0.5-0.3-0.6-0.6-0.4-1.5c0.3-1.5,1.2-4.5,2-6.9c-1,1.9-2.7,4.9-3.9,7.2
		c-0.2,0.3-0.3,0.5-0.5,0.5c-0.2,0-0.6-0.1-1-0.3c-0.4-0.2-0.6-0.4-0.6-1.1C107,157,107,153.8,107.1,152.2z"/>
</g>
<g class="st1">
	<path d="M69.9,140.2c0.2,0,0.3,0.1,0.3,0.2c0.1,0.2,0.1,0.3,0.1,0.5c0,0.2,0,0.2-0.2,0.2c-0.6,0-1.4,0.1-2,0.2
		c-0.2,0-0.3,0-0.4-0.2c-0.1-0.2-0.2-0.3-0.2-0.5c-0.1-0.2,0-0.3,0.2-0.3C68.3,140.3,69.2,140.2,69.9,140.2z"/>
	<path d="M76,138.8c-0.5,1.4-1,3.2-1.4,4.5c-0.1,0.2-0.1,0.2-0.3,0.2c-0.2-0.1-0.4-0.1-0.5-0.3c-0.2-0.1-0.2-0.2-0.1-0.5
		c0.2-0.9,0.7-2.7,1.1-3.8c-0.2,0-0.4,0.1-0.6,0.1c-0.2,0-0.3,0-0.4-0.1c-0.1-0.2-0.2-0.5-0.2-0.6c0-0.2,0-0.2,0.2-0.3
		c0.8-0.2,2.1-0.3,2.9-0.3c0.2,0,0.3,0.1,0.3,0.1c0.1,0.2,0.2,0.4,0.2,0.6c0,0.2,0,0.2-0.2,0.3C76.7,138.8,76.3,138.8,76,138.8z"/>
	<path d="M79.3,143.4c-0.1,0.2-0.1,0.2-0.3,0.2s-0.4-0.1-0.5-0.2c-0.1-0.1-0.2-0.2-0.1-0.5c0.1-0.3,0.2-0.8,0.3-1.3
		c-0.3,0-0.6,0.1-0.9,0.2c-0.2,0.6-0.4,1.2-0.5,1.7c-0.1,0.2-0.1,0.2-0.3,0.2c-0.2-0.1-0.4-0.1-0.5-0.3c-0.2-0.1-0.2-0.2-0.1-0.5
		c0.1-0.3,0.2-0.8,0.3-1.4c-0.1-0.1-0.1-0.3-0.1-0.4c0-0.2,0-0.2,0.1-0.3c0.1,0,0.1,0,0.2-0.1c0.3-1,0.6-2.1,0.8-2.6
		c0.1-0.2,0.2-0.3,0.4-0.2c0.2,0.1,0.5,0.2,0.6,0.3c0.2,0.1,0.2,0.2,0.1,0.4c-0.2,0.4-0.4,1.1-0.6,1.8c0.3,0,0.7-0.1,0.9-0.1
		c0.3-0.9,0.5-1.8,0.8-2.4c0.1-0.2,0.2-0.2,0.4-0.2c0.2,0.1,0.4,0.2,0.6,0.3c0.2,0.1,0.2,0.2,0.1,0.4
		C80.4,139.7,79.7,141.8,79.3,143.4z"/>
	<path d="M81.1,138.4c0-0.2,0-0.2,0.1-0.2c0.6-0.2,1.7-0.3,2.5-0.3c0.2,0,0.3,0.1,0.3,0.2c0.1,0.2,0.1,0.3,0.1,0.5
		c0,0.2,0,0.3-0.2,0.3c-0.4,0-0.9,0.1-1.4,0.2c-0.1,0.4-0.3,0.8-0.4,1.2c0.2,0,0.4-0.1,0.7-0.1c0.2,0,0.3,0,0.4,0.2
		c0.1,0.2,0.1,0.3,0.1,0.5c0,0.2,0,0.2-0.2,0.3c-0.4,0.1-1,0.2-1.4,0.3c-0.1,0.3-0.2,0.5-0.3,0.8c0.4-0.1,0.7-0.1,1.1-0.1
		c0.2,0,0.3,0,0.4,0.2c0.1,0.2,0.1,0.3,0.1,0.5c0,0.2,0,0.3-0.2,0.3c-0.5,0.1-1.1,0.2-1.5,0.4c-0.3,0.1-0.4,0-0.6-0.1
		c-0.1-0.1-0.2-0.2-0.4-0.4c-0.1-0.1-0.2-0.3-0.1-0.6c0.2-0.8,0.7-2.3,1.1-3.5C81.2,138.8,81.1,138.5,81.1,138.4z"/>
	<path d="M87.4,139.8c-0.3,0.9-0.8,2.6-1,3.6c-0.1,0.2-0.1,0.3-0.4,0.2c-0.1,0-0.2-0.1-0.4-0.2c-0.2-0.1-0.3-0.3-0.2-0.6
		c0.2-1.2,1-3.5,1.4-4.6c0.1-0.2,0.2-0.3,0.3-0.3c0.2,0,0.7,0.1,0.9,0.2c0.3,0.1,0.3,0.2,0.3,0.5l0,0.5l0,1.2v0.5
		c0.4-0.9,1.2-2.2,1.6-2.8c0.1-0.2,0.3-0.2,0.5-0.2c0.2,0,0.6,0.2,0.9,0.3c0.2,0.1,0.2,0.2,0.1,0.5c-0.3,1.2-1.1,3.6-1.4,4.7
		c0,0.1-0.1,0.2-0.2,0.2c-0.1,0-0.4-0.1-0.5-0.2c-0.2-0.1-0.3-0.3-0.2-0.7c0.1-0.7,0.5-2,0.9-3.1c-0.5,0.8-1.2,2.2-1.8,3.3
		c-0.1,0.2-0.1,0.2-0.2,0.2c-0.1,0-0.3-0.1-0.4-0.1c-0.2-0.1-0.3-0.2-0.3-0.5C87.3,141.9,87.3,140.5,87.4,139.8z"/>
	<path d="M93.3,138.6c-0.4,1.1-1.1,3.4-1.5,4.7c-0.1,0.2-0.1,0.2-0.3,0.2c-0.2-0.1-0.4-0.1-0.5-0.3c-0.2-0.1-0.2-0.2-0.1-0.5
		c0.2-1,1-3.6,1.3-4.7c0.1-0.2,0.2-0.2,0.4-0.2c0.2,0.1,0.5,0.2,0.6,0.3C93.4,138.4,93.4,138.4,93.3,138.6z"/>
	<path d="M96.4,140.3c-0.5-0.1-0.7-0.4-0.7-0.8c0-0.3,0.1-0.7-0.1-0.8c-0.3-0.1-0.9,0.8-1.3,1.8c-0.4,0.9-0.5,1.9-0.2,2.1
		c0.3,0.1,0.7-0.4,1-1c-0.4,0-0.7-0.2-0.7-0.7c0-0.2,0.1-0.2,0.2-0.2c0.3-0.1,0.8-0.2,1.1-0.2c0.3,0,0.4,0,0.5,0.2
		c0.1,0.1,0.1,0.2,0.2,0.4c0.1,0.2,0.1,0.3,0,0.6c-0.3,0.8-0.8,1.4-1.2,1.8c-0.3,0.2-0.6,0.3-1,0.2c-0.3-0.1-0.6-0.2-0.8-0.3
		c-0.2-0.1-0.4-0.4-0.4-0.7c-0.3-1.3,0.6-3.7,1.9-4.7c0.3-0.2,0.6-0.2,0.9-0.2c0.3,0,0.7,0.2,1,0.4c0.2,0.2,0.3,0.4,0.3,0.8
		c0,0.3-0.1,0.9-0.2,1.2C96.7,140.3,96.6,140.3,96.4,140.3z"/>
	<path d="M99.7,143.4c-0.1,0.2-0.1,0.2-0.3,0.2c-0.2-0.1-0.4-0.1-0.5-0.2c-0.1-0.1-0.2-0.2-0.1-0.5c0.1-0.3,0.2-0.8,0.3-1.3
		c-0.3,0-0.6,0.1-0.9,0.2c-0.2,0.6-0.4,1.2-0.5,1.7c-0.1,0.2-0.1,0.2-0.3,0.2c-0.2-0.1-0.4-0.1-0.5-0.3c-0.2-0.1-0.2-0.2-0.1-0.5
		c0.1-0.3,0.2-0.8,0.3-1.4c-0.1-0.1-0.1-0.3-0.1-0.4c0-0.2,0-0.2,0.1-0.3c0.1,0,0.1,0,0.2-0.1c0.3-1,0.6-2.1,0.8-2.6
		c0.1-0.2,0.2-0.3,0.4-0.2c0.2,0.1,0.5,0.2,0.6,0.3c0.2,0.1,0.2,0.2,0.1,0.4c-0.2,0.4-0.4,1.1-0.6,1.8c0.3,0,0.7-0.1,0.9-0.1
		c0.3-0.9,0.5-1.8,0.8-2.4c0.1-0.2,0.2-0.2,0.4-0.2c0.2,0.1,0.4,0.2,0.6,0.3c0.2,0.1,0.2,0.2,0.1,0.4
		C100.8,139.7,100.2,141.8,99.7,143.4z"/>
	<path d="M104,138.8c-0.5,1.4-1,3.2-1.4,4.5c-0.1,0.2-0.1,0.2-0.3,0.2c-0.2-0.1-0.4-0.1-0.5-0.3c-0.2-0.1-0.2-0.2-0.1-0.5
		c0.2-0.9,0.7-2.7,1.1-3.8c-0.2,0-0.4,0.1-0.6,0.1c-0.2,0-0.3,0-0.4-0.1c-0.1-0.2-0.2-0.5-0.2-0.6c0-0.2,0-0.2,0.2-0.3
		c0.8-0.2,2.1-0.3,3-0.3c0.2,0,0.3,0.1,0.3,0.1c0.1,0.2,0.2,0.4,0.2,0.6c0,0.2,0,0.2-0.2,0.3C104.7,138.8,104.3,138.8,104,138.8z"/>
	<path d="M106.9,141.7c-0.2,0.6-0.4,1.2-0.5,1.7c-0.1,0.2-0.1,0.2-0.3,0.2c-0.2-0.1-0.4-0.1-0.5-0.3c-0.2-0.1-0.2-0.2-0.1-0.5
		c0.1-0.4,0.2-1,0.4-1.6c-0.1-1-0.3-2.3-0.5-3.2c0-0.2,0-0.3,0.2-0.3c0.2,0,0.4,0,0.6,0s0.3,0.1,0.3,0.4c0.1,0.4,0.2,1.2,0.3,1.8
		c0.4-0.7,0.9-1.5,1.4-2.2c0.1-0.2,0.2-0.2,0.4-0.1s0.3,0.2,0.4,0.4c0.1,0.2,0.1,0.3,0,0.5C108.6,139.3,107.7,140.6,106.9,141.7z"/>
	<path d="M113,140.2c0.2,0,0.3,0.1,0.3,0.2c0.1,0.2,0.1,0.3,0.1,0.5c0,0.2,0,0.2-0.2,0.2c-0.6,0-1.4,0.1-2,0.2c-0.2,0-0.3,0-0.4-0.2
		c-0.1-0.2-0.2-0.3-0.2-0.5c-0.1-0.2,0-0.3,0.2-0.3C111.4,140.3,112.3,140.2,113,140.2z"/>
</g>
<g class="st1">
	<path class="st2" d="M28.3,75.6c0.2-0.7,0.6-0.7,1.2-0.5c0.6,0.2,1.2,0.5,1.6,1c0.5,0.5,0.6,1.1,0.3,1.8
		c-1.5,3.9-4.3,11.2-2.7,11.7c1.9,0.6,4.7-9.6,5.9-14.2c0.2-0.7,0.6-0.8,1.2-0.6c0.6,0.2,1.3,0.6,1.8,1c0.5,0.4,0.5,0.7,0.4,1.3
		c-2,7.5-3.8,13-6.4,14.8c-0.9,0.6-1.7,0.7-2.8,0.7c-1-0.1-1.9-0.4-2.6-0.9c-0.5-0.4-1-1-1.3-1.8C23.9,86.8,26.4,80.4,28.3,75.6z"/>
	<path class="st2" d="M48,75.5c0.2-0.7,0.6-0.8,1.2-0.6c0.4,0.1,0.9,0.4,1.2,0.6c0.6,0.4,0.8,0.7,0.5,1.6
		c-1.2,3.9-3.3,10.5-4.4,14.7c-0.2,0.7-0.6,0.8-1.3,0.6c-0.5-0.1-1.1-0.4-1.5-0.6c-0.5-0.3-0.8-0.7-1-1.4c-0.5-2.1-0.8-4.8-1-8.4
		c-0.7,2.2-1.9,6-3,9.9c-0.2,0.6-0.4,0.7-1,0.5c-0.4-0.1-0.9-0.4-1.2-0.6c-0.6-0.4-0.8-0.7-0.5-1.8c0.6-2.8,3-10.6,4.3-14.5
		c0.2-0.5,0.5-0.7,0.9-0.7c0.4,0,1.5,0.4,2.3,0.8c0.6,0.3,0.8,0.6,0.8,1.4c0.2,2.6,0.4,5.7,0.6,8.7C45.7,82.8,47.1,78.2,48,75.5z"/>
	<path class="st2" d="M51.7,88c1.6,1.4,3.2,1.9,3.9,1.3c0.8-0.7-2.1-2.4-3.5-4.1c-1-1.2-1.5-3-0.6-5c0.8-1.8,2.5-3.8,4.1-4.9
		c0.6-0.4,1.7-0.8,2.8-0.4c0.9,0.3,1.9,1,2.4,1.6c0.8,0.9,0.7,1.8,0.6,2.5c-0.2,1.3-0.9,3.4-1.5,4.5c-0.3,0.5-0.5,0.6-1,0.4
		c-1.4-0.6-2-1.5-1.8-2.6c0.2-1,1-3.1,0.7-3.2c-0.6-0.3-4.1,3.3-2.6,5.3c1.6,2.1,5.2,3.5,3.9,6c-0.9,1.8-2.4,3.2-4.7,3.2
		c-1.8,0-3.6-0.9-5.1-3.1c-0.8-1.1-0.7-1.5-0.2-1.8C50,87.4,51.1,87.5,51.7,88z"/>
	<path class="st2" d="M69.7,78c-1.5,4.3-3.2,9.8-4.4,14.2c-0.2,0.6-0.4,0.7-0.9,0.5c-0.6-0.2-1.2-0.4-1.7-0.8s-0.5-0.8-0.4-1.5
		c0.6-2.9,2.1-8.3,3.3-11.8c-0.7,0.1-1.3,0.2-1.7,0.3c-0.6,0.1-0.9,0.1-1.2-0.4c-0.3-0.5-0.7-1.5-0.8-2c-0.1-0.5,0.1-0.7,0.5-0.8
		c2.6-0.6,6.7-1,9.2-1c0.6,0,0.9,0.2,1,0.4c0.4,0.5,0.6,1.3,0.7,1.8c0.1,0.6,0,0.7-0.6,0.8C71.9,77.8,70.7,77.9,69.7,78z"/>
	<path class="st2" d="M83,78.7c0.2,3.7-1.3,9.7-4.5,12.8c-1,1-2.2,1.3-3.5,1.1c-0.9-0.1-1.9-0.4-2.6-0.9c-0.5-0.4-1.2-1.1-1.4-2
		c-1.2-3.9,1.2-10.9,5-14.1c0.8-0.7,2-1,2.9-0.9c1.2,0.2,2.3,0.7,3,1.3C82.7,76.8,83,77.7,83,78.7z M75.4,83.2c-1,2.6-1.5,6-0.5,6.5
		c1,0.4,2.6-2,3.7-5.2c0.9-2.5,1.5-6.3,0.6-6.6C78.3,77.6,76.4,80.7,75.4,83.2z"/>
	<path class="st2" d="M85.2,92.2c-0.2,0.6-0.4,0.7-1,0.5c-0.5-0.1-1.2-0.4-1.6-0.8c-0.5-0.4-0.5-0.7-0.4-1.5c0.5-2.5,2-7.3,3.2-11.3
		c-0.2-0.4-0.5-0.9-0.6-1.4c-0.3-0.7-0.2-1,0.4-1.3c2.7-1.5,7.9-2.8,9.5-0.8c0.7,0.8,1.3,1.9,1.5,3.4c0.2,1.5-0.6,2.7-1.6,3.8
		c-1.6,1.8-5,3.6-7.9,4.5C86.2,89,85.7,90.7,85.2,92.2z M93,78.7c-0.1-0.6-1.7-0.6-3.4,0.2c-0.5,1.3-1,2.9-1.6,4.6
		C91.4,82.2,93.2,79.8,93,78.7z"/>
	<path class="st2" d="M97.5,92.2c-0.2,0.6-0.4,0.7-1,0.5c-0.5-0.1-1.2-0.4-1.6-0.8c-0.5-0.4-0.5-0.7-0.4-1.5c0.5-2.5,2-7.3,3.2-11.3
		c-0.2-0.4-0.5-0.9-0.6-1.4c-0.3-0.7-0.2-1,0.4-1.3c2.7-1.5,7.9-2.8,9.5-0.8c0.7,0.8,1.3,1.9,1.5,3.4c0.2,1.5-0.6,2.7-1.6,3.8
		c-1.6,1.8-5,3.6-7.9,4.5C98.5,89,97.9,90.7,97.5,92.2z M105.3,78.7c-0.1-0.6-1.7-0.6-3.4,0.2c-0.5,1.3-1,2.9-1.6,4.6
		C103.7,82.2,105.5,79.8,105.3,78.7z"/>
	<path class="st2" d="M109.1,89c-0.6,1.1-1.2,2.2-1.6,3.1c-0.3,0.6-0.5,0.6-1,0.4c-0.5-0.2-0.9-0.5-1.3-0.9s-0.4-0.8-0.1-1.6
		c1.8-4,5.4-10.7,7.7-14.4c0.4-0.7,0.9-1,1.9-1c1.1,0,2.6,0.4,3.5,0.8c0.7,0.3,0.7,0.7,0.6,1.4c-0.5,3.5-1.1,10.1-1.5,15.2
		c0,0.6-0.2,0.8-0.8,0.8c-0.6,0-1.3-0.1-1.7-0.2c-0.5-0.2-0.7-0.5-0.7-1.4c0-0.9,0.1-1.9,0.1-3.1C112.5,88.2,110.5,88.6,109.1,89z
		 M114.4,84.6c0.2-2.2,0.4-4.4,0.6-6.4c-1.1,1.8-2.5,4.3-3.8,6.8C112.3,84.8,113.4,84.6,114.4,84.6z"/>
	<path class="st2" d="M130.1,86.6c0,1.3-0.5,2.1-1.5,3c-1.4,1.3-3.9,2.6-5.7,3.1c-1,0.3-1.3,0.3-2-0.2c-0.7-0.5-1-0.9-1.7-1.6
		c-0.6-0.7-0.7-1-0.5-2.1c0.6-2.7,2-6.8,3-10.1c-0.2-0.4-0.4-0.8-0.6-1.2c-0.2-0.7-0.2-1,0.4-1.3c2.7-1.5,8-2.5,9.6-0.6
		c0.7,0.8,1.2,1.8,1.3,3.1c0.1,1.5-0.8,2.8-1.8,3.7c-0.5,0.5-1.2,1-2,1.5C129.6,84.4,130.1,85.5,130.1,86.6z M122.2,89.3
		c2.6-0.8,4.5-2.2,4.4-3.2c-0.1-0.6-1.4-1-3.3-0.2C122.9,87,122.5,88.1,122.2,89.3z M129.2,78.4c-0.1-0.6-1.6-0.7-3.5,0.3
		c-0.4,1.1-0.8,2.3-1.3,3.7C127.4,81.3,129.4,79.2,129.2,78.4z"/>
	<path class="st2" d="M134.1,92.4c-0.9,0.3-1.4,0.2-1.9-0.2c-0.4-0.3-0.7-0.7-1.1-1.2c-0.4-0.5-0.5-1-0.3-1.7c0.8-3.4,3-10.4,4.5-14
		c0.3-0.7,0.6-0.7,1.2-0.5c0.6,0.2,1.5,0.6,2,1c0.5,0.4,0.6,0.7,0.3,1.3c-1.2,3-2.7,7.6-4,11.5c1.1-0.2,2-0.3,3.1-0.4
		c0.6-0.1,0.9,0.1,1.2,0.6c0.2,0.5,0.4,1.1,0.4,1.6c0.1,0.6,0.1,0.8-0.7,0.9C137.2,91.6,135.6,92,134.1,92.4z"/>
	<path class="st2" d="M143.1,76.5c-0.1-0.5,0-0.7,0.5-0.8c1.9-0.5,5.4-1,7.9-1c0.6,0,0.9,0.2,1.1,0.8c0.2,0.6,0.3,1,0.3,1.5
		c0,0.6-0.1,0.8-0.7,0.9c-1.3,0.1-2.8,0.3-4.3,0.6c-0.4,1.1-0.9,2.4-1.4,3.8c0.7-0.1,1.4-0.2,2.1-0.2c0.6,0,0.9,0.1,1.1,0.6
		c0.2,0.5,0.3,1,0.4,1.6c0.1,0.6-0.1,0.8-0.7,0.9c-1.4,0.3-3,0.6-4.3,0.9c-0.3,0.9-0.6,1.7-0.9,2.5c1.1-0.2,2.1-0.4,3.3-0.4
		c0.6-0.1,1,0.1,1.2,0.6c0.2,0.6,0.4,1.1,0.4,1.6c0.1,0.6-0.1,0.8-0.7,0.9c-1.6,0.4-3.3,0.7-4.8,1.2c-0.8,0.2-1.2,0.1-1.7-0.3
		c-0.4-0.3-0.7-0.7-1.1-1.2c-0.3-0.4-0.5-1-0.3-1.8c0.5-2.4,2.1-7.3,3.3-10.9C143.4,77.8,143.2,77,143.1,76.5z"/>
</g>
<g class="st1">
	<path class="st2" d="M37.3,117.2c-0.2,0.6-0.4,0.7-1,0.5c-0.5-0.1-1.2-0.4-1.6-0.8c-0.5-0.4-0.5-0.7-0.4-1.5
		c0.5-2.5,2-7.3,3.2-11.3c-0.2-0.4-0.5-0.9-0.6-1.4c-0.3-0.7-0.2-1,0.4-1.3c2.7-1.5,7.9-2.8,9.5-0.8c0.7,0.8,1.3,1.9,1.5,3.4
		c0.2,1.5-0.6,2.7-1.6,3.8c-1.6,1.8-5,3.6-7.9,4.5C38.2,114,37.7,115.7,37.3,117.2z M45,103.7c-0.1-0.6-1.7-0.6-3.4,0.2
		c-0.5,1.3-1,2.9-1.6,4.6C43.4,107.2,45.2,104.8,45,103.7z"/>
	<path class="st2" d="M51.1,100.6c0.2-0.7,0.6-0.7,1.2-0.5c0.6,0.2,1.2,0.5,1.6,1c0.5,0.5,0.6,1.1,0.3,1.8
		c-1.5,3.9-4.3,11.2-2.7,11.7c1.9,0.6,4.7-9.6,5.9-14.2c0.2-0.7,0.6-0.8,1.2-0.6c0.6,0.2,1.3,0.6,1.8,1c0.5,0.4,0.5,0.7,0.4,1.3
		c-2,7.5-3.8,13-6.4,14.8c-0.9,0.6-1.7,0.7-2.8,0.7c-1-0.1-1.9-0.4-2.6-0.9c-0.5-0.4-1-1-1.3-1.8C46.8,111.8,49.3,105.4,51.1,100.6z
		"/>
	<path class="st2" d="M70.8,111.6c0,1.3-0.5,2.1-1.5,3c-1.4,1.3-3.9,2.6-5.7,3.1c-1,0.3-1.3,0.3-2-0.2c-0.7-0.5-1-0.9-1.7-1.6
		c-0.6-0.7-0.7-1-0.5-2.1c0.6-2.7,2-6.8,3.1-10.1c-0.2-0.4-0.4-0.8-0.6-1.2c-0.2-0.7-0.2-1,0.4-1.3c2.7-1.5,8-2.5,9.6-0.6
		c0.7,0.8,1.2,1.8,1.3,3.1c0.1,1.5-0.8,2.8-1.8,3.7c-0.5,0.5-1.2,1-2,1.5C70.2,109.4,70.7,110.5,70.8,111.6z M62.8,114.3
		c2.6-0.8,4.5-2.2,4.4-3.2c-0.1-0.6-1.4-1-3.3-0.2C63.5,112,63.2,113.1,62.8,114.3z M69.9,103.4c-0.1-0.6-1.6-0.7-3.5,0.3
		c-0.4,1.1-0.8,2.3-1.3,3.7C68.1,106.3,70,104.2,69.9,103.4z"/>
	<path class="st2" d="M74.8,117.4c-0.9,0.3-1.4,0.2-1.9-0.2c-0.4-0.3-0.7-0.7-1.1-1.2c-0.4-0.5-0.5-1-0.3-1.7c0.8-3.4,3-10.4,4.5-14
		c0.3-0.7,0.6-0.7,1.2-0.5c0.6,0.2,1.5,0.6,2,1c0.5,0.4,0.6,0.7,0.3,1.3c-1.2,3-2.7,7.6-4,11.5c1.1-0.2,2-0.3,3.1-0.4
		c0.6-0.1,0.9,0.1,1.2,0.6c0.2,0.5,0.4,1.1,0.4,1.6c0.1,0.6,0.1,0.8-0.7,0.9C77.9,116.6,76.2,117,74.8,117.4z"/>
	<path class="st2" d="M88.7,102.3c-1.3,3.4-3.5,10.7-4.7,14.7c-0.2,0.6-0.4,0.7-1,0.5s-1.2-0.5-1.7-0.8c-0.5-0.4-0.6-0.7-0.4-1.5
		c0.7-3.1,3-11.3,4.2-14.8c0.2-0.7,0.6-0.8,1.2-0.6s1.5,0.7,2,1C88.8,101.4,88.9,101.7,88.7,102.3z"/>
	<path class="st2" d="M89.3,113c1.6,1.4,3.2,1.9,3.9,1.3c0.8-0.7-2.1-2.4-3.5-4.1c-1-1.2-1.5-3-0.6-5c0.8-1.8,2.5-3.8,4.1-4.9
		c0.6-0.4,1.7-0.8,2.8-0.4c0.9,0.3,1.9,1,2.4,1.6c0.8,0.9,0.7,1.8,0.6,2.5c-0.2,1.3-0.9,3.4-1.5,4.5c-0.3,0.5-0.5,0.6-1,0.4
		c-1.4-0.6-2-1.5-1.8-2.6c0.2-1,1-3.1,0.7-3.2c-0.6-0.3-4.1,3.3-2.6,5.3c1.6,2.1,5.2,3.5,3.9,6c-0.9,1.8-2.4,3.2-4.7,3.2
		c-1.8,0-3.6-0.9-5.1-3.1c-0.8-1.1-0.7-1.5-0.2-1.8C87.5,112.4,88.7,112.5,89.3,113z"/>
	<path class="st2" d="M107.2,117.1c-0.2,0.6-0.4,0.7-0.9,0.5s-1.2-0.4-1.7-0.8c-0.5-0.4-0.5-0.7-0.4-1.5c0.2-1.1,0.6-2.5,1-4.1
		c-0.9,0.1-2,0.3-2.9,0.5c-0.6,2-1.2,3.8-1.6,5.3c-0.2,0.6-0.4,0.7-1,0.5c-0.5-0.2-1.2-0.5-1.7-0.8c-0.5-0.4-0.6-0.7-0.4-1.5
		c0.2-1,0.6-2.6,1.1-4.3c-0.2-0.4-0.4-0.9-0.4-1.2c-0.1-0.5,0-0.7,0.4-0.8c0.2-0.1,0.4-0.1,0.6-0.2c0.9-3.1,1.9-6.4,2.6-8.3
		c0.3-0.7,0.6-0.8,1.2-0.6c0.6,0.2,1.5,0.7,2,1c0.5,0.4,0.6,0.7,0.4,1.3c-0.5,1.4-1.2,3.5-2,5.7c0.9-0.1,2.1-0.2,2.8-0.3
		c0.8-2.7,1.7-5.6,2.4-7.5c0.2-0.7,0.6-0.8,1.2-0.6c0.6,0.2,1.3,0.5,1.8,1c0.5,0.4,0.6,0.7,0.4,1.3
		C110.7,105.7,108.7,112.2,107.2,117.1z"/>
	<path class="st2" d="M117.6,102.3c-1.3,3.4-3.5,10.7-4.7,14.7c-0.2,0.6-0.4,0.7-1,0.5s-1.2-0.5-1.7-0.8c-0.5-0.4-0.6-0.7-0.4-1.5
		c0.7-3.1,3-11.3,4.2-14.8c0.2-0.7,0.6-0.8,1.2-0.6s1.5,0.7,2,1C117.8,101.4,117.8,101.7,117.6,102.3z"/>
	<path class="st2" d="M127.6,100.5c0.2-0.7,0.6-0.8,1.2-0.6c0.4,0.1,0.9,0.4,1.2,0.6c0.6,0.4,0.8,0.7,0.5,1.6
		c-1.2,3.9-3.3,10.5-4.4,14.7c-0.2,0.7-0.6,0.8-1.3,0.6c-0.5-0.1-1.1-0.4-1.5-0.6c-0.5-0.3-0.8-0.7-1-1.4c-0.5-2.1-0.8-4.8-1-8.4
		c-0.7,2.2-1.9,6-3,9.9c-0.2,0.6-0.4,0.7-1,0.5c-0.4-0.1-0.9-0.4-1.2-0.6c-0.6-0.4-0.8-0.7-0.5-1.8c0.6-2.8,3-10.6,4.3-14.5
		c0.2-0.5,0.5-0.7,0.9-0.7c0.4,0,1.5,0.4,2.3,0.8c0.6,0.3,0.8,0.6,0.8,1.4c0.2,2.6,0.4,5.7,0.6,8.7
		C125.3,107.8,126.6,103.2,127.6,100.5z"/>
	<path class="st2" d="M140.3,107.5c-1.5-0.2-2.1-1.1-2.1-2.4c0-1,0.2-2.3-0.2-2.4c-0.8-0.3-2.8,2.6-4.1,5.7c-1.1,2.7-1.5,6-0.6,6.5
		c0.8,0.4,2.1-1.2,3-3.1c-1.4,0.1-2.1-0.6-2.2-2.1c-0.1-0.5,0.2-0.6,0.7-0.7c0.9-0.2,2.5-0.5,3.4-0.6c0.8-0.1,1.2,0,1.6,0.5
		c0.2,0.4,0.5,0.8,0.6,1.1c0.3,0.7,0.3,1.1,0,1.8c-1,2.5-2.4,4.5-3.9,5.5c-0.9,0.7-2,0.9-3,0.7c-1-0.2-1.8-0.5-2.6-1
		c-0.6-0.4-1.2-1.2-1.4-2c-1.1-4,1.8-11.5,5.9-14.6c0.9-0.6,1.9-0.7,2.7-0.6c1,0.1,2.3,0.7,3,1.3c0.7,0.7,0.9,1.4,0.9,2.4
		c0,1-0.3,2.8-0.5,3.6C141.1,107.4,140.9,107.6,140.3,107.5z"/>
</g>
<g class="st1">
	<path d="M47.6,50.7c-0.2,0.6-0.4,0.7-1,0.5c-0.5-0.1-1.2-0.4-1.6-0.8c-0.5-0.4-0.5-0.7-0.4-1.5c0.5-2.5,2-7.3,3.2-11.3
		c-0.2-0.4-0.5-0.9-0.6-1.4c-0.3-0.7-0.2-1,0.4-1.3c2.7-1.5,7.9-2.8,9.5-0.8c0.7,0.8,1.3,1.9,1.5,3.4c0.2,1.5-0.6,2.7-1.6,3.8
		c-1.6,1.8-5,3.6-7.9,4.5C48.5,47.5,48,49.2,47.6,50.7z M55.4,37.2c-0.1-0.6-1.7-0.6-3.4,0.2c-0.5,1.3-1,2.9-1.6,4.6
		C53.7,40.7,55.6,38.3,55.4,37.2z"/>
	<path d="M59.2,47.5c-0.6,1.1-1.2,2.2-1.6,3.1c-0.3,0.6-0.5,0.6-1,0.4c-0.5-0.2-0.9-0.5-1.3-0.9s-0.4-0.8-0.1-1.6
		c1.8-4,5.4-10.7,7.7-14.4c0.4-0.7,0.9-1,1.9-1c1.1,0,2.6,0.4,3.5,0.8c0.7,0.3,0.7,0.7,0.6,1.4c-0.5,3.5-1.1,10.1-1.5,15.2
		c0,0.6-0.2,0.8-0.8,0.8c-0.6,0-1.3-0.1-1.7-0.2c-0.5-0.2-0.7-0.5-0.7-1.4c0-0.9,0.1-1.9,0.1-3.1C62.6,46.7,60.6,47.1,59.2,47.5z
		 M64.5,43.1c0.2-2.2,0.4-4.4,0.6-6.4c-1.1,1.8-2.5,4.3-3.8,6.8C62.4,43.3,63.5,43.1,64.5,43.1z"/>
	<path d="M71.2,46.5c1.6,1.4,3.2,1.9,3.9,1.3c0.8-0.7-2.1-2.4-3.5-4.1c-1-1.2-1.5-3-0.6-5c0.8-1.8,2.5-3.8,4.1-4.9
		c0.6-0.4,1.7-0.8,2.8-0.4c0.9,0.3,1.9,1,2.4,1.6c0.8,0.9,0.7,1.8,0.6,2.5c-0.2,1.3-0.9,3.4-1.5,4.5c-0.3,0.5-0.5,0.6-1,0.4
		c-1.4-0.6-2-1.5-1.8-2.6c0.2-1,1-3.1,0.7-3.2c-0.6-0.3-4.1,3.3-2.6,5.3c1.6,2.1,5.2,3.5,3.9,6c-0.9,1.8-2.4,3.2-4.7,3.2
		c-1.8,0-3.6-0.9-5.1-3.1c-0.8-1.1-0.7-1.5-0.2-1.8C69.5,45.9,70.7,46,71.2,46.5z"/>
	<path d="M89.3,36.5c-1.5,4.3-3.2,9.8-4.4,14.2c-0.2,0.6-0.4,0.7-0.9,0.5c-0.6-0.2-1.2-0.4-1.7-0.8s-0.5-0.8-0.4-1.5
		c0.6-2.9,2.1-8.3,3.3-11.8c-0.7,0.1-1.3,0.2-1.7,0.3c-0.6,0.1-0.9,0.1-1.2-0.4c-0.3-0.5-0.7-1.5-0.8-2c-0.1-0.5,0.1-0.7,0.5-0.8
		c2.6-0.6,6.7-1,9.2-1c0.6,0,0.9,0.2,1,0.4c0.4,0.5,0.6,1.3,0.7,1.8c0.1,0.6,0,0.7-0.6,0.8C91.4,36.3,90.2,36.4,89.3,36.5z"/>
	<path d="M93.4,35c-0.1-0.5,0-0.7,0.5-0.8c1.9-0.5,5.4-1,7.9-1c0.6,0,0.9,0.2,1.1,0.8c0.2,0.6,0.3,1,0.3,1.5c0,0.6-0.1,0.8-0.7,0.9
		c-1.3,0.1-2.8,0.3-4.3,0.6c-0.4,1.1-0.9,2.4-1.4,3.8c0.7-0.1,1.4-0.2,2.1-0.2c0.6,0,0.9,0.1,1.1,0.6c0.2,0.5,0.3,1,0.4,1.6
		c0.1,0.6-0.1,0.8-0.7,0.9c-1.4,0.3-3,0.6-4.3,0.9c-0.3,0.9-0.6,1.7-0.9,2.5c1.1-0.2,2.1-0.4,3.3-0.4c0.6-0.1,1,0.1,1.2,0.6
		c0.2,0.6,0.4,1.1,0.4,1.6c0.1,0.6-0.1,0.8-0.7,0.9c-1.6,0.4-3.3,0.7-4.8,1.2c-0.8,0.2-1.2,0.1-1.7-0.3c-0.4-0.3-0.7-0.7-1.1-1.2
		c-0.3-0.4-0.5-1-0.3-1.8c0.5-2.4,2.1-7.3,3.3-10.9C93.8,36.3,93.6,35.5,93.4,35z"/>
	<path d="M112.9,45.1c0,1.3-0.5,2.1-1.5,3c-1.4,1.3-3.9,2.6-5.7,3.1c-1,0.3-1.3,0.3-2-0.2c-0.7-0.5-1-0.9-1.7-1.6
		c-0.6-0.7-0.7-1-0.5-2.1c0.6-2.7,2-6.8,3-10.1c-0.2-0.4-0.4-0.8-0.6-1.2c-0.2-0.7-0.2-1,0.4-1.3c2.7-1.5,8-2.5,9.6-0.6
		c0.7,0.8,1.2,1.8,1.3,3.1c0.1,1.5-0.8,2.8-1.8,3.7c-0.5,0.5-1.2,1-2,1.5C112.4,42.9,112.9,44,112.9,45.1z M105,47.8
		c2.6-0.8,4.5-2.2,4.4-3.2c-0.1-0.6-1.4-1-3.3-0.2C105.7,45.5,105.3,46.6,105,47.8z M112,36.9c-0.1-0.6-1.6-0.7-3.5,0.3
		c-0.4,1.1-0.8,2.3-1.3,3.7C110.2,39.8,112.2,37.7,112,36.9z"/>
	<path d="M116.4,35c-0.1-0.5,0-0.7,0.5-0.8c1.9-0.5,5.4-1,7.9-1c0.6,0,0.9,0.2,1.1,0.8c0.2,0.6,0.3,1,0.3,1.5c0,0.6-0.1,0.8-0.7,0.9
		c-1.3,0.1-2.8,0.3-4.3,0.6c-0.4,1.1-0.9,2.4-1.4,3.8c0.7-0.1,1.4-0.2,2.1-0.2c0.6,0,0.9,0.1,1.1,0.6c0.2,0.5,0.3,1,0.4,1.6
		c0.1,0.6-0.1,0.8-0.7,0.9c-1.4,0.3-3,0.6-4.3,0.9c-0.3,0.9-0.6,1.7-0.9,2.5c1.1-0.2,2.1-0.4,3.3-0.4c0.6-0.1,1,0.1,1.2,0.6
		c0.2,0.6,0.4,1.1,0.4,1.6c0.1,0.6-0.1,0.8-0.7,0.9c-1.6,0.4-3.3,0.7-4.8,1.2c-0.8,0.2-1.2,0.1-1.7-0.3c-0.4-0.3-0.7-0.7-1.1-1.2
		c-0.3-0.4-0.5-1-0.3-1.8c0.5-2.4,2.1-7.3,3.3-10.9C116.7,36.3,116.5,35.5,116.4,35z"/>
	<path d="M127,35c-0.1-0.5,0-0.7,0.5-0.8c1.9-0.5,5.4-1,7.9-1c0.6,0,0.9,0.2,1.1,0.8c0.2,0.6,0.3,1,0.3,1.5c0,0.6-0.1,0.8-0.7,0.9
		c-1.3,0.1-2.8,0.3-4.3,0.6c-0.4,1.1-0.9,2.4-1.4,3.8c0.7-0.1,1.4-0.2,2.1-0.2c0.6,0,0.9,0.1,1.1,0.6c0.2,0.5,0.3,1,0.4,1.6
		c0.1,0.6-0.1,0.8-0.7,0.9c-1.4,0.3-3,0.6-4.3,0.9c-0.3,0.9-0.6,1.7-0.9,2.5c1.1-0.2,2.1-0.4,3.3-0.4c0.6-0.1,1,0.1,1.2,0.6
		c0.2,0.6,0.4,1.1,0.4,1.6c0.1,0.6-0.1,0.8-0.7,0.9c-1.6,0.4-3.3,0.7-4.8,1.2c-0.8,0.2-1.2,0.1-1.7-0.3c-0.4-0.3-0.7-0.7-1.1-1.2
		c-0.3-0.4-0.5-1-0.3-1.8c0.5-2.4,2.1-7.3,3.3-10.9C127.3,36.3,127.1,35.5,127,35z"/>
</g>
<g class="st1">
	<path class="st3" d="M26.8,73.1c0.2-0.7,0.6-0.7,1.2-0.5c0.6,0.2,1.2,0.5,1.6,1c0.5,0.5,0.6,1.1,0.3,1.8
		c-1.5,3.9-4.3,11.2-2.7,11.7c1.9,0.6,4.7-9.6,5.9-14.2c0.2-0.7,0.6-0.8,1.2-0.6c0.6,0.2,1.3,0.6,1.8,1c0.5,0.4,0.5,0.7,0.4,1.3
		c-2,7.5-3.8,13-6.4,14.8c-0.9,0.6-1.7,0.7-2.8,0.7c-1-0.1-1.9-0.4-2.6-0.9c-0.5-0.4-1-1-1.3-1.8C22.4,84.3,24.9,77.9,26.8,73.1z"/>
	<path class="st3" d="M46.5,73c0.2-0.7,0.6-0.8,1.2-0.6c0.4,0.1,0.9,0.4,1.2,0.6c0.6,0.4,0.8,0.7,0.5,1.6
		c-1.2,3.9-3.3,10.5-4.4,14.7c-0.2,0.7-0.6,0.8-1.3,0.6c-0.5-0.1-1.1-0.4-1.5-0.6c-0.5-0.3-0.8-0.7-1-1.4c-0.5-2.1-0.8-4.8-1-8.4
		c-0.7,2.2-1.9,6-3,9.9c-0.2,0.6-0.4,0.7-1,0.5c-0.4-0.1-0.9-0.4-1.2-0.6c-0.6-0.4-0.8-0.7-0.5-1.8c0.6-2.8,3-10.6,4.3-14.5
		c0.2-0.5,0.5-0.7,0.9-0.7c0.4,0,1.5,0.4,2.3,0.8c0.6,0.3,0.8,0.6,0.8,1.4c0.2,2.6,0.4,5.7,0.6,8.7C44.2,80.3,45.6,75.7,46.5,73z"/>
	<path class="st3" d="M50.2,85.5c1.6,1.4,3.2,1.9,3.9,1.3c0.8-0.7-2.1-2.4-3.5-4.1c-1-1.2-1.5-3-0.6-5c0.8-1.8,2.5-3.8,4.1-4.9
		c0.6-0.4,1.7-0.8,2.8-0.4c0.9,0.3,1.9,1,2.4,1.6c0.8,0.9,0.7,1.8,0.6,2.5c-0.2,1.3-0.9,3.4-1.5,4.5c-0.3,0.5-0.5,0.6-1,0.4
		c-1.4-0.6-2-1.5-1.8-2.6c0.2-1,1-3.1,0.7-3.2c-0.6-0.3-4.1,3.3-2.6,5.3c1.6,2.1,5.2,3.5,3.9,6c-0.9,1.8-2.4,3.2-4.7,3.2
		c-1.8,0-3.6-0.9-5.1-3.1c-0.8-1.1-0.7-1.5-0.2-1.8C48.5,84.9,49.6,85,50.2,85.5z"/>
	<path class="st3" d="M68.2,75.5c-1.5,4.3-3.2,9.8-4.4,14.2c-0.2,0.6-0.4,0.7-0.9,0.5c-0.6-0.2-1.2-0.4-1.7-0.8s-0.5-0.8-0.4-1.5
		c0.6-2.9,2.1-8.3,3.3-11.8c-0.7,0.1-1.3,0.2-1.7,0.3c-0.6,0.1-0.9,0.1-1.2-0.4c-0.3-0.5-0.7-1.5-0.8-2c-0.1-0.5,0.1-0.7,0.5-0.8
		c2.6-0.6,6.7-1,9.2-1c0.6,0,0.9,0.2,1,0.4c0.4,0.5,0.6,1.3,0.7,1.8c0.1,0.6,0,0.7-0.6,0.8C70.4,75.3,69.2,75.4,68.2,75.5z"/>
	<path class="st3" d="M81.5,76.2c0.2,3.7-1.3,9.7-4.5,12.8c-1,1-2.2,1.3-3.5,1.1c-0.9-0.1-1.9-0.4-2.6-0.9c-0.5-0.4-1.2-1.1-1.4-2
		c-1.2-3.9,1.2-10.9,5-14.1c0.8-0.7,2-1,2.9-0.9c1.2,0.2,2.3,0.7,3,1.3C81.2,74.3,81.5,75.2,81.5,76.2z M73.9,80.7
		c-1,2.6-1.5,6-0.5,6.5c1,0.4,2.6-2,3.7-5.2c0.9-2.5,1.5-6.3,0.6-6.6C76.8,75.1,74.9,78.2,73.9,80.7z"/>
	<path class="st3" d="M83.7,89.7c-0.2,0.6-0.4,0.7-1,0.5c-0.5-0.1-1.2-0.4-1.6-0.8c-0.5-0.4-0.5-0.7-0.4-1.5c0.5-2.5,2-7.3,3.2-11.3
		c-0.2-0.4-0.5-0.9-0.6-1.4c-0.3-0.7-0.2-1,0.4-1.3c2.7-1.5,7.9-2.8,9.5-0.8c0.7,0.8,1.3,1.9,1.5,3.4c0.2,1.5-0.6,2.7-1.6,3.8
		c-1.6,1.8-5,3.6-7.9,4.5C84.7,86.5,84.2,88.2,83.7,89.7z M91.5,76.2c-0.1-0.6-1.7-0.6-3.4,0.2c-0.5,1.3-1,2.9-1.6,4.6
		C89.9,79.7,91.7,77.3,91.5,76.2z"/>
	<path class="st3" d="M96,89.7c-0.2,0.6-0.4,0.7-1,0.5c-0.5-0.1-1.2-0.4-1.6-0.8c-0.5-0.4-0.5-0.7-0.4-1.5c0.5-2.5,2-7.3,3.2-11.3
		c-0.2-0.4-0.5-0.9-0.6-1.4c-0.3-0.7-0.2-1,0.4-1.3c2.7-1.5,7.9-2.8,9.5-0.8c0.7,0.8,1.3,1.9,1.5,3.4c0.2,1.5-0.6,2.7-1.6,3.8
		c-1.6,1.8-5,3.6-7.9,4.5C97,86.5,96.4,88.2,96,89.7z M103.8,76.2c-0.1-0.6-1.7-0.6-3.4,0.2c-0.5,1.3-1,2.9-1.6,4.6
		C102.2,79.7,104,77.3,103.8,76.2z"/>
	<path class="st3" d="M107.6,86.5c-0.6,1.1-1.2,2.2-1.6,3.1c-0.3,0.6-0.5,0.6-1,0.4c-0.5-0.2-0.9-0.5-1.3-0.9s-0.4-0.8-0.1-1.6
		c1.8-4,5.4-10.7,7.8-14.4c0.4-0.7,0.9-1,1.9-1c1.1,0,2.6,0.4,3.5,0.8c0.7,0.3,0.7,0.7,0.6,1.4c-0.5,3.5-1.1,10.1-1.5,15.2
		c0,0.6-0.2,0.8-0.8,0.8s-1.3-0.1-1.7-0.2c-0.5-0.2-0.7-0.5-0.7-1.4c0-0.9,0.1-1.9,0.1-3.1C111,85.7,109,86.1,107.6,86.5z
		 M112.9,82.1c0.2-2.2,0.4-4.4,0.6-6.4c-1.1,1.8-2.5,4.3-3.8,6.8C110.8,82.3,111.9,82.1,112.9,82.1z"/>
	<path class="st3" d="M128.6,84.1c0,1.3-0.5,2.1-1.5,3c-1.4,1.3-3.9,2.6-5.7,3.1c-1,0.3-1.3,0.3-2-0.2c-0.7-0.5-1-0.9-1.7-1.6
		c-0.6-0.7-0.7-1-0.5-2.1c0.6-2.7,2-6.8,3.1-10.1c-0.2-0.4-0.4-0.8-0.6-1.2c-0.2-0.7-0.2-1,0.4-1.3c2.7-1.5,8-2.5,9.6-0.6
		c0.7,0.8,1.2,1.8,1.3,3.1c0.1,1.5-0.8,2.8-1.8,3.7c-0.5,0.5-1.2,1-2,1.5C128.1,81.9,128.6,83,128.6,84.1z M120.7,86.8
		c2.6-0.8,4.5-2.2,4.4-3.2c-0.1-0.6-1.4-1-3.3-0.2C121.4,84.5,121,85.6,120.7,86.8z M127.7,75.9c-0.1-0.6-1.6-0.7-3.5,0.3
		c-0.4,1.1-0.8,2.3-1.3,3.7C125.9,78.8,127.9,76.7,127.7,75.9z"/>
	<path class="st3" d="M132.6,89.9c-0.9,0.3-1.4,0.2-1.9-0.2c-0.4-0.3-0.7-0.7-1.1-1.2c-0.4-0.5-0.5-1-0.3-1.7c0.8-3.4,3-10.4,4.5-14
		c0.3-0.7,0.6-0.7,1.2-0.5c0.6,0.2,1.5,0.6,2,1c0.5,0.4,0.6,0.7,0.3,1.3c-1.2,3-2.7,7.6-4,11.5c1.1-0.2,2-0.3,3.1-0.4
		c0.6-0.1,0.9,0.1,1.2,0.6s0.4,1.1,0.4,1.6c0.1,0.6,0.1,0.8-0.7,0.9C135.7,89.1,134.1,89.5,132.6,89.9z"/>
	<path class="st3" d="M141.6,74c-0.1-0.5,0-0.7,0.5-0.8c1.9-0.5,5.4-1,7.9-1c0.6,0,0.9,0.2,1.1,0.8c0.2,0.6,0.3,1,0.3,1.5
		c0,0.6-0.1,0.8-0.7,0.9c-1.3,0.1-2.8,0.3-4.3,0.6c-0.4,1.1-0.9,2.4-1.4,3.8c0.7-0.1,1.4-0.2,2.1-0.2c0.6,0,0.9,0.1,1.1,0.6
		c0.2,0.5,0.3,1,0.4,1.6c0.1,0.6-0.1,0.8-0.7,0.9c-1.4,0.3-3,0.6-4.3,0.9c-0.3,0.9-0.6,1.7-0.9,2.5c1.1-0.2,2.1-0.4,3.3-0.4
		c0.6-0.1,1,0.1,1.2,0.6c0.2,0.6,0.4,1.1,0.4,1.6c0.1,0.6-0.1,0.8-0.7,0.9c-1.6,0.4-3.3,0.7-4.8,1.2c-0.8,0.2-1.2,0.1-1.7-0.3
		c-0.4-0.3-0.7-0.7-1.1-1.2c-0.3-0.4-0.5-1-0.3-1.8c0.5-2.4,2.1-7.3,3.3-10.9C141.9,75.3,141.7,74.5,141.6,74z"/>
</g>
<g class="st1">
	<path class="st4" d="M26.8,73.1c0.2-0.7,0.6-0.7,1.2-0.5c0.6,0.2,1.2,0.5,1.6,1c0.5,0.5,0.6,1.1,0.3,1.8
		c-1.5,3.9-4.3,11.2-2.7,11.7c1.9,0.6,4.7-9.6,5.9-14.2c0.2-0.7,0.6-0.8,1.2-0.6c0.6,0.2,1.3,0.6,1.8,1c0.5,0.4,0.5,0.7,0.4,1.3
		c-2,7.5-3.8,13-6.4,14.8c-0.9,0.6-1.7,0.7-2.8,0.7c-1-0.1-1.9-0.4-2.6-0.9c-0.5-0.4-1-1-1.3-1.8C22.4,84.3,24.9,77.9,26.8,73.1z"/>
	<path class="st4" d="M46.5,73c0.2-0.7,0.6-0.8,1.2-0.6c0.4,0.1,0.9,0.4,1.2,0.6c0.6,0.4,0.8,0.7,0.5,1.6
		c-1.2,3.9-3.3,10.5-4.4,14.7c-0.2,0.7-0.6,0.8-1.3,0.6c-0.5-0.1-1.1-0.4-1.5-0.6c-0.5-0.3-0.8-0.7-1-1.4c-0.5-2.1-0.8-4.8-1-8.4
		c-0.7,2.2-1.9,6-3,9.9c-0.2,0.6-0.4,0.7-1,0.5c-0.4-0.1-0.9-0.4-1.2-0.6c-0.6-0.4-0.8-0.7-0.5-1.8c0.6-2.8,3-10.6,4.3-14.5
		c0.2-0.5,0.5-0.7,0.9-0.7c0.4,0,1.5,0.4,2.3,0.8c0.6,0.3,0.8,0.6,0.8,1.4c0.2,2.6,0.4,5.7,0.6,8.7C44.2,80.3,45.6,75.7,46.5,73z"/>
	<path class="st4" d="M50.2,85.5c1.6,1.4,3.2,1.9,3.9,1.3c0.8-0.7-2.1-2.4-3.5-4.1c-1-1.2-1.5-3-0.6-5c0.8-1.8,2.5-3.8,4.1-4.9
		c0.6-0.4,1.7-0.8,2.8-0.4c0.9,0.3,1.9,1,2.4,1.6c0.8,0.9,0.7,1.8,0.6,2.5c-0.2,1.3-0.9,3.4-1.5,4.5c-0.3,0.5-0.5,0.6-1,0.4
		c-1.4-0.6-2-1.5-1.8-2.6c0.2-1,1-3.1,0.7-3.2c-0.6-0.3-4.1,3.3-2.6,5.3c1.6,2.1,5.2,3.5,3.9,6c-0.9,1.8-2.4,3.2-4.7,3.2
		c-1.8,0-3.6-0.9-5.1-3.1c-0.8-1.1-0.7-1.5-0.2-1.8C48.5,84.9,49.6,85,50.2,85.5z"/>
	<path class="st4" d="M68.2,75.5c-1.5,4.3-3.2,9.8-4.4,14.2c-0.2,0.6-0.4,0.7-0.9,0.5c-0.6-0.2-1.2-0.4-1.7-0.8s-0.5-0.8-0.4-1.5
		c0.6-2.9,2.1-8.3,3.3-11.8c-0.7,0.1-1.3,0.2-1.7,0.3c-0.6,0.1-0.9,0.1-1.2-0.4c-0.3-0.5-0.7-1.5-0.8-2c-0.1-0.5,0.1-0.7,0.5-0.8
		c2.6-0.6,6.7-1,9.2-1c0.6,0,0.9,0.2,1,0.4c0.4,0.5,0.6,1.3,0.7,1.8c0.1,0.6,0,0.7-0.6,0.8C70.4,75.3,69.2,75.4,68.2,75.5z"/>
	<path class="st4" d="M81.5,76.2c0.2,3.7-1.3,9.7-4.5,12.8c-1,1-2.2,1.3-3.5,1.1c-0.9-0.1-1.9-0.4-2.6-0.9c-0.5-0.4-1.2-1.1-1.4-2
		c-1.2-3.9,1.2-10.9,5-14.1c0.8-0.7,2-1,2.9-0.9c1.2,0.2,2.3,0.7,3,1.3C81.2,74.3,81.5,75.2,81.5,76.2z M73.9,80.7
		c-1,2.6-1.5,6-0.5,6.5c1,0.4,2.6-2,3.7-5.2c0.9-2.5,1.5-6.3,0.6-6.6C76.8,75.1,74.9,78.2,73.9,80.7z"/>
	<path class="st4" d="M83.7,89.7c-0.2,0.6-0.4,0.7-1,0.5c-0.5-0.1-1.2-0.4-1.6-0.8c-0.5-0.4-0.5-0.7-0.4-1.5c0.5-2.5,2-7.3,3.2-11.3
		c-0.2-0.4-0.5-0.9-0.6-1.4c-0.3-0.7-0.2-1,0.4-1.3c2.7-1.5,7.9-2.8,9.5-0.8c0.7,0.8,1.3,1.9,1.5,3.4c0.2,1.5-0.6,2.7-1.6,3.8
		c-1.6,1.8-5,3.6-7.9,4.5C84.7,86.5,84.2,88.2,83.7,89.7z M91.5,76.2c-0.1-0.6-1.7-0.6-3.4,0.2c-0.5,1.3-1,2.9-1.6,4.6
		C89.9,79.7,91.7,77.3,91.5,76.2z"/>
	<path class="st4" d="M96,89.7c-0.2,0.6-0.4,0.7-1,0.5c-0.5-0.1-1.2-0.4-1.6-0.8c-0.5-0.4-0.5-0.7-0.4-1.5c0.5-2.5,2-7.3,3.2-11.3
		c-0.2-0.4-0.5-0.9-0.6-1.4c-0.3-0.7-0.2-1,0.4-1.3c2.7-1.5,7.9-2.8,9.5-0.8c0.7,0.8,1.3,1.9,1.5,3.4c0.2,1.5-0.6,2.7-1.6,3.8
		c-1.6,1.8-5,3.6-7.9,4.5C97,86.5,96.4,88.2,96,89.7z M103.8,76.2c-0.1-0.6-1.7-0.6-3.4,0.2c-0.5,1.3-1,2.9-1.6,4.6
		C102.2,79.7,104,77.3,103.8,76.2z"/>
	<path class="st4" d="M107.6,86.5c-0.6,1.1-1.2,2.2-1.6,3.1c-0.3,0.6-0.5,0.6-1,0.4c-0.5-0.2-0.9-0.5-1.3-0.9s-0.4-0.8-0.1-1.6
		c1.8-4,5.4-10.7,7.8-14.4c0.4-0.7,0.9-1,1.9-1c1.1,0,2.6,0.4,3.5,0.8c0.7,0.3,0.7,0.7,0.6,1.4c-0.5,3.5-1.1,10.1-1.5,15.2
		c0,0.6-0.2,0.8-0.8,0.8s-1.3-0.1-1.7-0.2c-0.5-0.2-0.7-0.5-0.7-1.4c0-0.9,0.1-1.9,0.1-3.1C111,85.7,109,86.1,107.6,86.5z
		 M112.9,82.1c0.2-2.2,0.4-4.4,0.6-6.4c-1.1,1.8-2.5,4.3-3.8,6.8C110.8,82.3,111.9,82.1,112.9,82.1z"/>
	<path class="st4" d="M128.6,84.1c0,1.3-0.5,2.1-1.5,3c-1.4,1.3-3.9,2.6-5.7,3.1c-1,0.3-1.3,0.3-2-0.2c-0.7-0.5-1-0.9-1.7-1.6
		c-0.6-0.7-0.7-1-0.5-2.1c0.6-2.7,2-6.8,3.1-10.1c-0.2-0.4-0.4-0.8-0.6-1.2c-0.2-0.7-0.2-1,0.4-1.3c2.7-1.5,8-2.5,9.6-0.6
		c0.7,0.8,1.2,1.8,1.3,3.1c0.1,1.5-0.8,2.8-1.8,3.7c-0.5,0.5-1.2,1-2,1.5C128.1,81.9,128.6,83,128.6,84.1z M120.7,86.8
		c2.6-0.8,4.5-2.2,4.4-3.2c-0.1-0.6-1.4-1-3.3-0.2C121.4,84.5,121,85.6,120.7,86.8z M127.7,75.9c-0.1-0.6-1.6-0.7-3.5,0.3
		c-0.4,1.1-0.8,2.3-1.3,3.7C125.9,78.8,127.9,76.7,127.7,75.9z"/>
	<path class="st4" d="M132.6,89.9c-0.9,0.3-1.4,0.2-1.9-0.2c-0.4-0.3-0.7-0.7-1.1-1.2c-0.4-0.5-0.5-1-0.3-1.7c0.8-3.4,3-10.4,4.5-14
		c0.3-0.7,0.6-0.7,1.2-0.5c0.6,0.2,1.5,0.6,2,1c0.5,0.4,0.6,0.7,0.3,1.3c-1.2,3-2.7,7.6-4,11.5c1.1-0.2,2-0.3,3.1-0.4
		c0.6-0.1,0.9,0.1,1.2,0.6s0.4,1.1,0.4,1.6c0.1,0.6,0.1,0.8-0.7,0.9C135.7,89.1,134.1,89.5,132.6,89.9z"/>
	<path class="st4" d="M141.6,74c-0.1-0.5,0-0.7,0.5-0.8c1.9-0.5,5.4-1,7.9-1c0.6,0,0.9,0.2,1.1,0.8c0.2,0.6,0.3,1,0.3,1.5
		c0,0.6-0.1,0.8-0.7,0.9c-1.3,0.1-2.8,0.3-4.3,0.6c-0.4,1.1-0.9,2.4-1.4,3.8c0.7-0.1,1.4-0.2,2.1-0.2c0.6,0,0.9,0.1,1.1,0.6
		c0.2,0.5,0.3,1,0.4,1.6c0.1,0.6-0.1,0.8-0.7,0.9c-1.4,0.3-3,0.6-4.3,0.9c-0.3,0.9-0.6,1.7-0.9,2.5c1.1-0.2,2.1-0.4,3.3-0.4
		c0.6-0.1,1,0.1,1.2,0.6c0.2,0.6,0.4,1.1,0.4,1.6c0.1,0.6-0.1,0.8-0.7,0.9c-1.6,0.4-3.3,0.7-4.8,1.2c-0.8,0.2-1.2,0.1-1.7-0.3
		c-0.4-0.3-0.7-0.7-1.1-1.2c-0.3-0.4-0.5-1-0.3-1.8c0.5-2.4,2.1-7.3,3.3-10.9C141.9,75.3,141.7,74.5,141.6,74z"/>
</g>
<g class="st1">
	<path class="st3" d="M35.8,114.7c-0.2,0.6-0.4,0.7-1,0.5c-0.5-0.1-1.2-0.4-1.6-0.8c-0.5-0.4-0.5-0.7-0.4-1.5
		c0.5-2.5,2-7.3,3.2-11.3c-0.2-0.4-0.5-0.9-0.6-1.4c-0.3-0.7-0.2-1,0.4-1.3c2.7-1.5,7.9-2.8,9.5-0.8c0.7,0.8,1.3,1.9,1.5,3.4
		c0.2,1.5-0.6,2.7-1.6,3.8c-1.6,1.8-5,3.6-7.9,4.5C36.7,111.5,36.2,113.2,35.8,114.7z M43.5,101.2c-0.1-0.6-1.7-0.6-3.4,0.2
		c-0.5,1.3-1,2.9-1.6,4.6C41.9,104.7,43.7,102.3,43.5,101.2z"/>
	<path class="st3" d="M49.6,98.1c0.2-0.7,0.6-0.7,1.2-0.5c0.6,0.2,1.2,0.5,1.6,1c0.5,0.5,0.6,1.1,0.3,1.8
		c-1.5,3.9-4.3,11.2-2.7,11.7c1.9,0.6,4.7-9.6,5.9-14.2c0.2-0.7,0.6-0.8,1.2-0.6c0.6,0.2,1.3,0.6,1.8,1c0.5,0.4,0.5,0.7,0.4,1.3
		c-2,7.5-3.8,13-6.4,14.8c-0.9,0.6-1.7,0.7-2.8,0.7c-1-0.1-1.9-0.4-2.6-0.9c-0.5-0.4-1-1-1.3-1.8C45.3,109.3,47.8,102.9,49.6,98.1z"
		/>
	<path class="st3" d="M69.3,109.1c0,1.3-0.5,2.1-1.5,3c-1.4,1.3-3.9,2.6-5.7,3.1c-1,0.3-1.3,0.3-2-0.2c-0.7-0.5-1-0.9-1.7-1.6
		c-0.6-0.7-0.7-1-0.5-2.1c0.6-2.7,2-6.8,3.1-10.1c-0.2-0.4-0.4-0.8-0.6-1.2c-0.2-0.7-0.2-1,0.4-1.3c2.7-1.5,8-2.5,9.6-0.6
		c0.7,0.8,1.2,1.8,1.3,3.1c0.1,1.5-0.8,2.8-1.8,3.7c-0.5,0.5-1.2,1-2,1.5C68.7,106.9,69.2,108,69.3,109.1z M61.3,111.8
		c2.6-0.8,4.5-2.2,4.4-3.2c-0.1-0.6-1.4-1-3.3-0.2C62,109.5,61.7,110.6,61.3,111.8z M68.4,100.9c-0.1-0.6-1.6-0.7-3.5,0.3
		c-0.4,1.1-0.8,2.3-1.3,3.7C66.6,103.8,68.5,101.7,68.4,100.9z"/>
	<path class="st3" d="M73.3,114.9c-0.9,0.3-1.4,0.2-1.9-0.2c-0.4-0.3-0.7-0.7-1.1-1.2c-0.4-0.5-0.5-1-0.3-1.7c0.8-3.4,3-10.4,4.5-14
		c0.3-0.7,0.6-0.7,1.2-0.5c0.6,0.2,1.5,0.6,2,1c0.5,0.4,0.6,0.7,0.3,1.3c-1.2,3-2.7,7.6-4,11.5c1.1-0.2,2-0.3,3.1-0.4
		c0.6-0.1,0.9,0.1,1.2,0.6c0.2,0.5,0.4,1.1,0.4,1.6c0.1,0.6,0.1,0.8-0.7,0.9C76.4,114.1,74.7,114.5,73.3,114.9z"/>
	<path class="st3" d="M87.2,99.8c-1.3,3.4-3.5,10.7-4.7,14.7c-0.2,0.6-0.4,0.7-1,0.5s-1.2-0.5-1.7-0.8c-0.5-0.4-0.6-0.7-0.4-1.5
		c0.7-3.1,3-11.3,4.2-14.8c0.2-0.7,0.6-0.8,1.2-0.6s1.5,0.7,2,1C87.3,98.9,87.4,99.2,87.2,99.8z"/>
	<path class="st3" d="M87.8,110.5c1.6,1.4,3.2,1.9,3.9,1.3c0.8-0.7-2.1-2.4-3.5-4.1c-1-1.2-1.5-3-0.6-5c0.8-1.8,2.5-3.8,4.1-4.9
		c0.6-0.4,1.7-0.8,2.8-0.4c0.9,0.3,1.9,1,2.4,1.6c0.8,0.9,0.7,1.8,0.6,2.5c-0.2,1.3-0.9,3.4-1.5,4.5c-0.3,0.5-0.5,0.6-1,0.4
		c-1.4-0.6-2-1.5-1.8-2.6c0.2-1,1-3.1,0.7-3.2c-0.6-0.3-4.1,3.3-2.6,5.3c1.6,2.1,5.2,3.5,3.9,6c-0.9,1.8-2.4,3.2-4.7,3.2
		c-1.8,0-3.6-0.9-5.1-3.1c-0.8-1.1-0.7-1.5-0.2-1.8C86,109.9,87.2,110,87.8,110.5z"/>
	<path class="st3" d="M105.7,114.6c-0.2,0.6-0.4,0.7-0.9,0.5s-1.2-0.4-1.7-0.8c-0.5-0.4-0.5-0.7-0.4-1.5c0.2-1.1,0.6-2.5,1-4.1
		c-0.9,0.1-2,0.3-2.9,0.5c-0.6,2-1.2,3.8-1.6,5.3c-0.2,0.6-0.4,0.7-1,0.5c-0.5-0.2-1.2-0.5-1.7-0.8c-0.5-0.4-0.6-0.7-0.4-1.5
		c0.2-1,0.6-2.6,1.1-4.3c-0.2-0.4-0.4-0.9-0.4-1.2c-0.1-0.5,0-0.7,0.4-0.8c0.2-0.1,0.4-0.1,0.6-0.2c0.9-3.1,1.9-6.4,2.6-8.3
		c0.3-0.7,0.6-0.8,1.2-0.6c0.6,0.2,1.5,0.7,2,1c0.5,0.4,0.6,0.7,0.4,1.3c-0.5,1.4-1.2,3.5-2,5.7c0.9-0.1,2.1-0.2,2.8-0.3
		c0.8-2.7,1.7-5.6,2.4-7.5c0.2-0.7,0.6-0.8,1.2-0.6c0.6,0.2,1.3,0.5,1.8,1c0.5,0.4,0.6,0.7,0.4,1.3
		C109.2,103.2,107.2,109.7,105.7,114.6z"/>
	<path class="st3" d="M116.1,99.8c-1.3,3.4-3.5,10.7-4.7,14.7c-0.2,0.6-0.4,0.7-1,0.5s-1.2-0.5-1.7-0.8c-0.5-0.4-0.6-0.7-0.4-1.5
		c0.7-3.1,3-11.3,4.2-14.8c0.2-0.7,0.6-0.8,1.2-0.6s1.5,0.7,2,1C116.3,98.9,116.3,99.2,116.1,99.8z"/>
	<path class="st3" d="M126.1,98c0.2-0.7,0.6-0.8,1.2-0.6c0.4,0.1,0.9,0.4,1.2,0.6c0.6,0.4,0.8,0.7,0.5,1.6
		c-1.2,3.9-3.3,10.5-4.4,14.7c-0.2,0.7-0.6,0.8-1.3,0.6c-0.5-0.1-1.1-0.4-1.5-0.6c-0.5-0.3-0.8-0.7-1-1.4c-0.5-2.1-0.8-4.8-1-8.4
		c-0.7,2.2-1.9,6-3,9.9c-0.2,0.6-0.4,0.7-1,0.5c-0.4-0.1-0.9-0.4-1.2-0.6c-0.6-0.4-0.8-0.7-0.5-1.8c0.6-2.8,3-10.6,4.3-14.5
		c0.2-0.5,0.5-0.7,0.9-0.7c0.4,0,1.5,0.4,2.3,0.8c0.6,0.3,0.8,0.6,0.8,1.4c0.2,2.6,0.4,5.7,0.6,8.7
		C123.8,105.3,125.1,100.7,126.1,98z"/>
	<path class="st3" d="M138.8,105c-1.5-0.2-2.1-1.1-2.1-2.4c0-1,0.2-2.3-0.2-2.4c-0.8-0.3-2.8,2.6-4.1,5.7c-1.1,2.7-1.5,6-0.6,6.5
		c0.8,0.4,2.1-1.2,3-3.1c-1.4,0.1-2.1-0.6-2.2-2.1c-0.1-0.5,0.2-0.6,0.7-0.7c0.9-0.2,2.5-0.5,3.4-0.6c0.8-0.1,1.2,0,1.6,0.5
		c0.2,0.4,0.5,0.8,0.6,1.1c0.3,0.7,0.3,1.1,0,1.8c-1,2.5-2.4,4.5-3.9,5.5c-0.9,0.7-2,0.9-3,0.7c-1-0.2-1.8-0.5-2.6-1
		c-0.6-0.4-1.2-1.2-1.4-2c-1.1-4,1.8-11.5,5.9-14.6c0.9-0.6,1.9-0.7,2.7-0.6c1,0.1,2.3,0.7,3,1.3c0.7,0.7,0.9,1.4,0.9,2.4
		c0,1-0.3,2.8-0.5,3.6C139.6,104.9,139.4,105.1,138.8,105z"/>
</g>
<g class="st1">
	<path class="st4" d="M35.8,114.7c-0.2,0.6-0.4,0.7-1,0.5c-0.5-0.1-1.2-0.4-1.6-0.8c-0.5-0.4-0.5-0.7-0.4-1.5
		c0.5-2.5,2-7.3,3.2-11.3c-0.2-0.4-0.5-0.9-0.6-1.4c-0.3-0.7-0.2-1,0.4-1.3c2.7-1.5,7.9-2.8,9.5-0.8c0.7,0.8,1.3,1.9,1.5,3.4
		c0.2,1.5-0.6,2.7-1.6,3.8c-1.6,1.8-5,3.6-7.9,4.5C36.7,111.5,36.2,113.2,35.8,114.7z M43.5,101.2c-0.1-0.6-1.7-0.6-3.4,0.2
		c-0.5,1.3-1,2.9-1.6,4.6C41.9,104.7,43.7,102.3,43.5,101.2z"/>
	<path class="st4" d="M49.6,98.1c0.2-0.7,0.6-0.7,1.2-0.5c0.6,0.2,1.2,0.5,1.6,1c0.5,0.5,0.6,1.1,0.3,1.8
		c-1.5,3.9-4.3,11.2-2.7,11.7c1.9,0.6,4.7-9.6,5.9-14.2c0.2-0.7,0.6-0.8,1.2-0.6c0.6,0.2,1.3,0.6,1.8,1c0.5,0.4,0.5,0.7,0.4,1.3
		c-2,7.5-3.8,13-6.4,14.8c-0.9,0.6-1.7,0.7-2.8,0.7c-1-0.1-1.9-0.4-2.6-0.9c-0.5-0.4-1-1-1.3-1.8C45.3,109.3,47.8,102.9,49.6,98.1z"
		/>
	<path class="st4" d="M69.3,109.1c0,1.3-0.5,2.1-1.5,3c-1.4,1.3-3.9,2.6-5.7,3.1c-1,0.3-1.3,0.3-2-0.2c-0.7-0.5-1-0.9-1.7-1.6
		c-0.6-0.7-0.7-1-0.5-2.1c0.6-2.7,2-6.8,3.1-10.1c-0.2-0.4-0.4-0.8-0.6-1.2c-0.2-0.7-0.2-1,0.4-1.3c2.7-1.5,8-2.5,9.6-0.6
		c0.7,0.8,1.2,1.8,1.3,3.1c0.1,1.5-0.8,2.8-1.8,3.7c-0.5,0.5-1.2,1-2,1.5C68.7,106.9,69.2,108,69.3,109.1z M61.3,111.8
		c2.6-0.8,4.5-2.2,4.4-3.2c-0.1-0.6-1.4-1-3.3-0.2C62,109.5,61.7,110.6,61.3,111.8z M68.4,100.9c-0.1-0.6-1.6-0.7-3.5,0.3
		c-0.4,1.1-0.8,2.3-1.3,3.7C66.6,103.8,68.5,101.7,68.4,100.9z"/>
	<path class="st4" d="M73.3,114.9c-0.9,0.3-1.4,0.2-1.9-0.2c-0.4-0.3-0.7-0.7-1.1-1.2c-0.4-0.5-0.5-1-0.3-1.7c0.8-3.4,3-10.4,4.5-14
		c0.3-0.7,0.6-0.7,1.2-0.5c0.6,0.2,1.5,0.6,2,1c0.5,0.4,0.6,0.7,0.3,1.3c-1.2,3-2.7,7.6-4,11.5c1.1-0.2,2-0.3,3.1-0.4
		c0.6-0.1,0.9,0.1,1.2,0.6c0.2,0.5,0.4,1.1,0.4,1.6c0.1,0.6,0.1,0.8-0.7,0.9C76.4,114.1,74.7,114.5,73.3,114.9z"/>
	<path class="st4" d="M87.2,99.8c-1.3,3.4-3.5,10.7-4.7,14.7c-0.2,0.6-0.4,0.7-1,0.5s-1.2-0.5-1.7-0.8c-0.5-0.4-0.6-0.7-0.4-1.5
		c0.7-3.1,3-11.3,4.2-14.8c0.2-0.7,0.6-0.8,1.2-0.6s1.5,0.7,2,1C87.3,98.9,87.4,99.2,87.2,99.8z"/>
	<path class="st4" d="M87.8,110.5c1.6,1.4,3.2,1.9,3.9,1.3c0.8-0.7-2.1-2.4-3.5-4.1c-1-1.2-1.5-3-0.6-5c0.8-1.8,2.5-3.8,4.1-4.9
		c0.6-0.4,1.7-0.8,2.8-0.4c0.9,0.3,1.9,1,2.4,1.6c0.8,0.9,0.7,1.8,0.6,2.5c-0.2,1.3-0.9,3.4-1.5,4.5c-0.3,0.5-0.5,0.6-1,0.4
		c-1.4-0.6-2-1.5-1.8-2.6c0.2-1,1-3.1,0.7-3.2c-0.6-0.3-4.1,3.3-2.6,5.3c1.6,2.1,5.2,3.5,3.9,6c-0.9,1.8-2.4,3.2-4.7,3.2
		c-1.8,0-3.6-0.9-5.1-3.1c-0.8-1.1-0.7-1.5-0.2-1.8C86,109.9,87.2,110,87.8,110.5z"/>
	<path class="st4" d="M105.7,114.6c-0.2,0.6-0.4,0.7-0.9,0.5s-1.2-0.4-1.7-0.8c-0.5-0.4-0.5-0.7-0.4-1.5c0.2-1.1,0.6-2.5,1-4.1
		c-0.9,0.1-2,0.3-2.9,0.5c-0.6,2-1.2,3.8-1.6,5.3c-0.2,0.6-0.4,0.7-1,0.5c-0.5-0.2-1.2-0.5-1.7-0.8c-0.5-0.4-0.6-0.7-0.4-1.5
		c0.2-1,0.6-2.6,1.1-4.3c-0.2-0.4-0.4-0.9-0.4-1.2c-0.1-0.5,0-0.7,0.4-0.8c0.2-0.1,0.4-0.1,0.6-0.2c0.9-3.1,1.9-6.4,2.6-8.3
		c0.3-0.7,0.6-0.8,1.2-0.6c0.6,0.2,1.5,0.7,2,1c0.5,0.4,0.6,0.7,0.4,1.3c-0.5,1.4-1.2,3.5-2,5.7c0.9-0.1,2.1-0.2,2.8-0.3
		c0.8-2.7,1.7-5.6,2.4-7.5c0.2-0.7,0.6-0.8,1.2-0.6c0.6,0.2,1.3,0.5,1.8,1c0.5,0.4,0.6,0.7,0.4,1.3
		C109.2,103.2,107.2,109.7,105.7,114.6z"/>
	<path class="st4" d="M116.1,99.8c-1.3,3.4-3.5,10.7-4.7,14.7c-0.2,0.6-0.4,0.7-1,0.5s-1.2-0.5-1.7-0.8c-0.5-0.4-0.6-0.7-0.4-1.5
		c0.7-3.1,3-11.3,4.2-14.8c0.2-0.7,0.6-0.8,1.2-0.6s1.5,0.7,2,1C116.3,98.9,116.3,99.2,116.1,99.8z"/>
	<path class="st4" d="M126.1,98c0.2-0.7,0.6-0.8,1.2-0.6c0.4,0.1,0.9,0.4,1.2,0.6c0.6,0.4,0.8,0.7,0.5,1.6
		c-1.2,3.9-3.3,10.5-4.4,14.7c-0.2,0.7-0.6,0.8-1.3,0.6c-0.5-0.1-1.1-0.4-1.5-0.6c-0.5-0.3-0.8-0.7-1-1.4c-0.5-2.1-0.8-4.8-1-8.4
		c-0.7,2.2-1.9,6-3,9.9c-0.2,0.6-0.4,0.7-1,0.5c-0.4-0.1-0.9-0.4-1.2-0.6c-0.6-0.4-0.8-0.7-0.5-1.8c0.6-2.8,3-10.6,4.3-14.5
		c0.2-0.5,0.5-0.7,0.9-0.7c0.4,0,1.5,0.4,2.3,0.8c0.6,0.3,0.8,0.6,0.8,1.4c0.2,2.6,0.4,5.7,0.6,8.7
		C123.8,105.3,125.1,100.7,126.1,98z"/>
	<path class="st4" d="M138.8,105c-1.5-0.2-2.1-1.1-2.1-2.4c0-1,0.2-2.3-0.2-2.4c-0.8-0.3-2.8,2.6-4.1,5.7c-1.1,2.7-1.5,6-0.6,6.5
		c0.8,0.4,2.1-1.2,3-3.1c-1.4,0.1-2.1-0.6-2.2-2.1c-0.1-0.5,0.2-0.6,0.7-0.7c0.9-0.2,2.5-0.5,3.4-0.6c0.8-0.1,1.2,0,1.6,0.5
		c0.2,0.4,0.5,0.8,0.6,1.1c0.3,0.7,0.3,1.1,0,1.8c-1,2.5-2.4,4.5-3.9,5.5c-0.9,0.7-2,0.9-3,0.7c-1-0.2-1.8-0.5-2.6-1
		c-0.6-0.4-1.2-1.2-1.4-2c-1.1-4,1.8-11.5,5.9-14.6c0.9-0.6,1.9-0.7,2.7-0.6c1,0.1,2.3,0.7,3,1.3c0.7,0.7,0.9,1.4,0.9,2.4
		c0,1-0.3,2.8-0.5,3.6C139.6,104.9,139.4,105.1,138.8,105z"/>
</g>
</svg>
