<?xml version="1.0" encoding="utf-8"?>
<!-- Generator: Adobe Illustrator 24.2.0, SVG Export Plug-In . SVG Version: 6.00 Build 0)  -->
<svg version="1.1" id="Layer_1" xmlns="http://www.w3.org/2000/svg" xmlns:xlink="http://www.w3.org/1999/xlink" x="0px" y="0px"
	 viewBox="0 0 27.8 27.8" style="enable-background:new 0 0 27.8 27.8;" xml:space="preserve">
<style type="text/css">
	.st0{enable-background:new    ;}
</style>
<g class="st0">
	<path d="M12.4,18.2c1,0.4,1,1.3,0.8,1.8c-0.2,0.7-0.9,1.1-1.7,1c-0.7-0.1-1.3-0.7-1.1-1.7C10.5,18.4,11.3,17.8,12.4,18.2z M11.5,16
		c0.4-2.1,2.2-3.2,3.2-3.8c1.3-0.8,1.7-1.6,1.7-2.1c0-0.3-0.3-0.5-0.5-0.5c-0.7,0-1.5,0.8-2.4,1.5c-0.7,0.5-1.6,0.6-2.3,0.2
		c-0.4-0.2-0.5-0.5,0.1-1.3c1-1.3,2.2-2.2,3.4-2.5c1.5-0.3,2.6,0.5,3.1,1.3c1.1,1.8,0.5,3.3-0.4,4.2c-1.2,1.4-3.4,1.7-4.1,4.2
		c-0.1,0.4-0.3,0.5-0.6,0.4c-0.4-0.1-0.8-0.3-1.1-0.5C11.4,16.8,11.4,16.5,11.5,16z"/>
</g>
</svg>
