<?xml version="1.0" encoding="utf-8"?>
<!-- Generator: Adobe Illustrator 24.2.0, SVG Export Plug-In . SVG Version: 6.00 Build 0)  -->
<svg version="1.1" id="Layer_1" xmlns="http://www.w3.org/2000/svg" xmlns:xlink="http://www.w3.org/1999/xlink" x="0px" y="0px"
	 viewBox="0 0 61.5 29.7" style="enable-background:new 0 0 61.5 29.7;" xml:space="preserve">
<style type="text/css">
	.st0{fill:#F9B233;}
	.st1{fill:#FFFFFF;stroke:#000000;stroke-width:2;stroke-miterlimit:10;}
	.st2{fill:#FFFFFF;stroke:#000000;stroke-miterlimit:10;}
	.st3{fill:none;stroke:#000000;stroke-miterlimit:10;}
	.st4{fill:none;stroke:#000000;stroke-miterlimit:10;stroke-dasharray:5.0122,5.0122;}
	.st5{enable-background:new    ;}
	.st6{fill:none;}
</style>
<rect x="-29.5" y="178.9" class="st0" width="595.3" height="841.9"/>
<circle class="st1" cx="447" cy="225" r="12.9"/>
<text transform="matrix(0.9924 -0.123 0.123 0.9924 116.6885 301.8353)" style="font-family:'HouseSlant-Regular'; font-size:61.4036px;">PASTEBEE.COM</text>
<path class="st2" d="M-55.2,240.9"/>
<g>
	<g>
		<path class="st3" d="M-43.8,225c0,0,0.4,0.8,1.3,2.2"/>
		<path class="st4" d="M-39.8,231.4c12.1,17.9,52.5,67.9,131.5,76.5c96.6,10.5,178.8-15.3,188.5,11.9c7.9,23.7-3.1,28.1-12.1,28.1
			s-23.9-13.2-11.6-26.3c12.3-13.2,89.6-58,189.7-38.6c98,18.9,169,76.5,245.3,65.8"/>
		<path class="st3" d="M693.9,348.4c0.8-0.1,1.6-0.3,2.5-0.4"/>
	</g>
</g>
<text transform="matrix(0.9924 -0.123 0.123 0.9924 114.8425 298.5788)" style="fill:#FFFFFF; font-family:'HouseSlant-Regular'; font-size:61.4036px;">PASTEBEE.COM</text>
<text transform="matrix(0.9924 -0.123 0.123 0.9924 114.8425 298.5788)" style="fill:none;stroke:#000000;stroke-width:1;stroke-miterlimit:9.9999; font-family:'HouseSlant-Regular'; font-size:61.4036px;">PASTEBEE.COM</text>
<g>
	<polygon class="st2" points="405.1,275.1 406.3,281.3 412.3,283.1 411.2,289.2 416.1,293.1 412.9,298.4 416.1,303.7 411.2,307.6 
		412.2,313.7 406.2,315.5 405,321.6 398.8,321.1 395.4,326.3 389.8,323.6 384.7,327.3 380.5,322.8 374.5,324.4 372.1,318.6 
		365.9,317.9 365.9,311.7 360.3,308.8 362.5,302.9 358.4,298.3 362.5,293.6 360.4,287.7 365.9,284.9 366,278.7 372.2,278 
		374.6,272.2 380.6,273.9 384.9,269.3 389.9,273 395.5,270.4 398.9,275.6 	"/>
	
		<text transform="matrix(0.9961 -8.795000e-02 8.795000e-02 0.9961 368.6568 292.8212)" style="font-family:'HouseSlant-Regular'; font-size:8.5679px;">powered by</text>
	<text transform="matrix(1 0 0 1 364.4444 307.9437)" style="font-family:'HouseSlant-Regular'; font-size:17.8076px;">Swarm</text>
</g>
<rect x="75.7" y="409.9" class="st1" width="374.9" height="500.5"/>
<rect x="374.4" y="917.7" class="st1" width="76.3" height="27.7"/>
<text transform="matrix(1 0 0 1 391.7462 937.3116)" style="font-family:'HouseSlant-Regular'; font-size:20.0418px;">PASTe</text>
<rect x="76.7" y="211.2" class="st1" width="48" height="27.7"/>
<text transform="matrix(1 0 0 1 86.1903 231.4327)" style="font-family:'HouseSlant-Regular'; font-size:20.0418px;">NEW</text>
<rect x="1" y="1" class="st1" width="59.5" height="27.7"/>
<g class="st5">
	<path d="M17.3,19.1c-0.4,0.8-1,1.5-1.5,1.9c-0.6,0.5-1.5,0.8-2.3,0.7c-0.8-0.1-1.5-0.4-2-0.7c-0.4-0.3-0.9-0.8-1.1-1.4
		c-0.9-2.8,1.1-8.3,3.9-10.7c0.7-0.6,1.4-0.8,2-0.7c0.9,0.1,1.9,0.5,2.4,1c0.6,0.5,0.7,1.1,0.6,1.8c0,0.8-0.2,1.9-0.5,2.6
		c-0.1,0.3-0.2,0.5-0.7,0.4c-1-0.2-1.4-0.8-1.4-1.7c0-0.7,0.3-1.6-0.1-1.8c-0.6-0.2-2.2,2.4-2.9,4.3c-0.7,2-1.1,4.3-0.4,4.5
		c0.4,0.1,0.9-0.2,1.7-1.1c0.6-0.6,1.3-0.8,2.1-0.5C17.7,18,17.6,18.5,17.3,19.1z"/>
	<path d="M20.8,21.4c-0.7,0.2-1,0.1-1.4-0.2c-0.3-0.2-0.5-0.5-0.8-0.9c-0.3-0.4-0.4-0.7-0.2-1.2c0.6-2.5,2.2-7.6,3.2-10.2
		c0.2-0.5,0.5-0.5,0.9-0.4c0.4,0.1,1.1,0.4,1.4,0.7c0.4,0.3,0.4,0.5,0.2,1c-0.8,2.2-2,5.5-2.9,8.4c0.8-0.2,1.5-0.2,2.3-0.3
		c0.4,0,0.7,0,0.8,0.4c0.2,0.4,0.3,0.8,0.3,1.2c0.1,0.4,0.1,0.6-0.5,0.7C23.1,20.8,21.9,21.1,20.8,21.4z"/>
	<path d="M34.2,11.4c0.1,2.7-1,7.1-3.2,9.3c-0.8,0.7-1.6,0.9-2.6,0.8c-0.6-0.1-1.4-0.3-1.9-0.7c-0.4-0.3-0.8-0.8-1-1.4
		c-0.9-2.9,0.9-8,3.7-10.3c0.6-0.5,1.5-0.7,2.1-0.6c0.8,0.1,1.7,0.5,2.2,0.9C33.9,10,34.1,10.6,34.2,11.4z M28.6,14.7
		c-0.7,1.9-1.1,4.4-0.3,4.7c0.7,0.3,1.9-1.4,2.7-3.8c0.6-1.8,1.1-4.6,0.4-4.8C30.7,10.6,29.3,12.8,28.6,14.7z"/>
	<path d="M35.6,18.2c1.2,1,2.3,1.4,2.8,0.9c0.6-0.5-1.5-1.7-2.6-3c-0.7-0.9-1.1-2.2-0.4-3.6c0.6-1.3,1.8-2.8,3-3.6
		c0.5-0.3,1.2-0.6,2.1-0.3c0.6,0.2,1.4,0.7,1.7,1.1c0.6,0.6,0.5,1.3,0.4,1.8c-0.1,0.9-0.6,2.5-1.1,3.3c-0.2,0.4-0.4,0.5-0.8,0.3
		c-1-0.4-1.5-1.1-1.3-1.9c0.2-0.7,0.8-2.2,0.5-2.4c-0.4-0.2-3,2.4-1.9,3.9c1.2,1.6,3.8,2.6,2.8,4.4c-0.7,1.3-1.8,2.3-3.4,2.3
		c-1.3,0-2.6-0.6-3.7-2.2c-0.6-0.8-0.5-1.1-0.1-1.3C34.3,17.7,35.2,17.8,35.6,18.2z"/>
	<path d="M43.8,9.8c-0.1-0.4,0-0.5,0.3-0.6c1.4-0.4,3.9-0.7,5.8-0.8c0.4,0,0.7,0.2,0.8,0.6c0.1,0.4,0.2,0.7,0.2,1.1
		c0,0.4-0.1,0.6-0.5,0.6c-0.9,0.1-2.1,0.2-3.1,0.4c-0.3,0.8-0.7,1.8-1,2.7c0.5-0.1,1-0.1,1.5-0.1c0.4,0,0.7,0.1,0.8,0.5
		c0.1,0.4,0.2,0.8,0.3,1.2c0.1,0.4-0.1,0.6-0.5,0.7c-1,0.2-2.2,0.4-3.2,0.7c-0.2,0.6-0.4,1.2-0.6,1.8c0.8-0.2,1.5-0.3,2.4-0.3
		c0.4,0,0.7,0.1,0.8,0.4c0.2,0.4,0.3,0.8,0.3,1.2c0.1,0.4,0,0.6-0.5,0.7c-1.1,0.3-2.4,0.5-3.5,0.8c-0.6,0.2-0.9,0.1-1.3-0.2
		c-0.3-0.2-0.5-0.5-0.8-0.9c-0.2-0.3-0.4-0.7-0.2-1.3c0.4-1.8,1.5-5.3,2.4-7.9C44.1,10.7,43.9,10.1,43.8,9.8z"/>
</g>
<text transform="matrix(1 0 0 1 442.6221 231.2702)" style="font-family:'HouseSlant-Regular'; font-size:20.0418px;">?</text>
<rect x="75.7" y="374.3" class="st1" width="298.7" height="27.7"/>
<rect x="387.3" y="374.3" class="st1" width="63.2" height="27.7"/>
<text transform="matrix(1 0 0 1 401.2372 393.9457)" style="font-family:'HouseSlant-Regular'; font-size:20.0418px;">copy</text>
<text transform="matrix(1 0 0 1 84.6815 391.527)" style="font-family:'HelveticaNeue'; font-size:12px;">http://localhost:8082/bzz/fe6d2fbafbd17913681496b</text>
<rect x="83.5" y="416.6" class="st6" width="363.5" height="477.1"/>
<text transform="matrix(1 0 0 1 83.4583 422.9537)" style="font-family:'Courier'; font-size:10px;">Lorem ipsum dolor sit amet, consectetuer adipisc</text>
<text transform="matrix(1 0 0 1 83.4583 458.9537)" style="font-family:'Courier'; font-size:10px;">Prism renderer</text>
</svg>
