<?xml version="1.0" encoding="utf-8"?>
<!-- Generator: Adobe Illustrator 24.2.0, SVG Export Plug-In . SVG Version: 6.00 Build 0)  -->
<svg version="1.1" id="Layer_1" xmlns="http://www.w3.org/2000/svg" xmlns:xlink="http://www.w3.org/1999/xlink" x="0px" y="0px"
	 viewBox="0 0 29.7 29.7" style="enable-background:new 0 0 29.7 29.7;" xml:space="preserve">
<style type="text/css">
	.st0{enable-background:new    ;}
</style>
<g class="st0">
	<path d="M12.2,9.7C12.1,9.3,12,9.2,12,9c0-0.4,0.3-0.5,1.1-0.5c1.3,0,1.5,0.2,1.8,1.4c0.2,0.9,0.4,1.7,0.5,2.2
		c0.5-0.6,1-1.2,1.4-1.7c1.5-1.9,1.7-2.1,2-2.1c0.7,0,1.3,1.2,1.3,1.6c0,0.3-0.1,0.5-0.3,0.8c-0.9,1.1-2.3,2.7-3.7,4.4
		c0.5,2,1,4.1,1.4,5.5c0,0.2,0.1,0.3,0.1,0.4c0,0.4-0.5,0.4-1.1,0.4c-1.2,0-1.4-0.2-1.7-1.3c-0.2-0.6-0.4-1.5-0.7-2.6
		c-1,1.2-2.2,2.9-2.8,3.7c-0.2,0.2-0.3,0.3-0.5,0.3c-0.2,0-0.4-0.2-0.7-0.4c-0.4-0.5-0.6-0.8-0.6-1c0-0.2,0-0.3,0.3-0.7
		c0.7-1.1,2.3-3.1,3.6-4.8C12.8,12.6,12.3,10.5,12.2,9.7z"/>
</g>
</svg>
