<?xml version="1.0" encoding="utf-8"?>
<!-- Generator: Adobe Illustrator 24.2.0, SVG Export Plug-In . SVG Version: 6.00 Build 0)  -->
<svg version="1.1" id="Layer_1" xmlns="http://www.w3.org/2000/svg" xmlns:xlink="http://www.w3.org/1999/xlink" x="0px" y="0px"
	 viewBox="0 0 61.5 29.7" style="enable-background:new 0 0 61.5 29.7;" xml:space="preserve">
<style type="text/css">
	.st0{fill:#F9B233;}
	.st1{fill:#FFFFFF;stroke:#000000;stroke-width:2;stroke-miterlimit:10;}
	.st2{fill:#FFFFFF;stroke:#000000;stroke-miterlimit:10;}
	.st3{fill:none;stroke:#000000;stroke-miterlimit:10;}
	.st4{fill:none;stroke:#000000;stroke-miterlimit:10;stroke-dasharray:5.0122,5.0122;}
</style>
<rect x="1" y="1" class="st1" width="59.5" height="27.7"/>
<g>
	<path d="M17.3,19.1c-0.4,0.8-1,1.5-1.5,1.9c-0.6,0.5-1.5,0.8-2.3,0.7c-0.8-0.1-1.5-0.4-2-0.7c-0.4-0.3-0.9-0.8-1.1-1.4
		c-0.9-2.8,1.1-8.3,3.9-10.7c0.7-0.6,1.4-0.8,2-0.7c0.9,0.1,1.9,0.5,2.4,1c0.6,0.5,0.7,1.1,0.6,1.8c0,0.8-0.2,1.9-0.5,2.6
		c-0.1,0.3-0.2,0.5-0.7,0.4c-1-0.2-1.4-0.8-1.4-1.7c0-0.7,0.3-1.6-0.1-1.8c-0.6-0.2-2.2,2.4-2.9,4.3c-0.7,2-1.1,4.3-0.4,4.5
		c0.4,0.1,0.9-0.2,1.7-1.1c0.6-0.6,1.3-0.8,2.1-0.5C17.7,18,17.6,18.5,17.3,19.1z"/>
	<path d="M20.8,21.4c-0.7,0.2-1,0.1-1.4-0.2c-0.3-0.2-0.5-0.5-0.8-0.9c-0.3-0.4-0.4-0.7-0.2-1.2c0.6-2.5,2.2-7.6,3.2-10.2
		c0.2-0.5,0.5-0.5,0.9-0.4c0.4,0.1,1.1,0.4,1.4,0.7s0.4,0.5,0.2,1c-0.8,2.2-2,5.5-2.9,8.4c0.8-0.2,1.5-0.2,2.3-0.3
		c0.4,0,0.7,0,0.8,0.4c0.2,0.4,0.3,0.8,0.3,1.2c0.1,0.4,0.1,0.6-0.5,0.7C23.1,20.8,21.9,21.1,20.8,21.4z"/>
	<path d="M34.2,11.4c0.1,2.7-1,7.1-3.2,9.3c-0.8,0.7-1.6,0.9-2.6,0.8c-0.6-0.1-1.4-0.3-1.9-0.7c-0.4-0.3-0.8-0.8-1-1.4
		c-0.9-2.9,0.9-8,3.7-10.3c0.6-0.5,1.5-0.7,2.1-0.6c0.8,0.1,1.7,0.5,2.2,0.9C33.9,10,34.1,10.6,34.2,11.4z M28.6,14.7
		c-0.7,1.9-1.1,4.4-0.3,4.7c0.7,0.3,1.9-1.4,2.7-3.8c0.6-1.8,1.1-4.6,0.4-4.8C30.7,10.6,29.3,12.8,28.6,14.7z"/>
	<path d="M35.6,18.2c1.2,1,2.3,1.4,2.8,0.9c0.6-0.5-1.5-1.7-2.6-3c-0.7-0.9-1.1-2.2-0.4-3.6c0.6-1.3,1.8-2.8,3-3.6
		c0.5-0.3,1.2-0.6,2.1-0.3c0.6,0.2,1.4,0.7,1.7,1.1c0.6,0.6,0.5,1.3,0.4,1.8c-0.1,0.9-0.6,2.5-1.1,3.3c-0.2,0.4-0.4,0.5-0.8,0.3
		c-1-0.4-1.5-1.1-1.3-1.9c0.2-0.7,0.8-2.2,0.5-2.4c-0.4-0.2-3,2.4-1.9,3.9c1.2,1.6,3.8,2.6,2.8,4.4c-0.7,1.3-1.8,2.3-3.4,2.3
		c-1.3,0-2.6-0.6-3.7-2.2c-0.6-0.8-0.5-1.1-0.1-1.3C34.3,17.7,35.2,17.8,35.6,18.2z"/>
	<path d="M43.8,9.8c-0.1-0.4,0-0.5,0.3-0.6c1.4-0.4,3.9-0.7,5.8-0.8c0.4,0,0.7,0.2,0.8,0.6c0.1,0.4,0.2,0.7,0.2,1.1
		c0,0.4-0.1,0.6-0.5,0.6c-0.9,0.1-2.1,0.2-3.1,0.4c-0.3,0.8-0.7,1.8-1,2.7c0.5-0.1,1-0.1,1.5-0.1c0.4,0,0.7,0.1,0.8,0.5
		c0.1,0.4,0.2,0.8,0.3,1.2c0.1,0.4-0.1,0.6-0.5,0.7c-1,0.2-2.2,0.4-3.2,0.7c-0.2,0.6-0.4,1.2-0.6,1.8c0.8-0.2,1.5-0.3,2.4-0.3
		c0.4,0,0.7,0.1,0.8,0.4c0.2,0.4,0.3,0.8,0.3,1.2c0.1,0.4,0,0.6-0.5,0.7c-1.1,0.3-2.4,0.5-3.5,0.8c-0.6,0.2-0.9,0.1-1.3-0.2
		c-0.3-0.2-0.5-0.5-0.8-0.9c-0.2-0.3-0.4-0.7-0.2-1.3c0.4-1.8,1.5-5.3,2.4-7.9C44.1,10.7,43.9,10.1,43.8,9.8z"/>
</g>
</svg>
