<?xml version="1.0" encoding="utf-8"?>
<!-- Generator: Adobe Illustrator 24.2.0, SVG Export Plug-In . SVG Version: 6.00 Build 0)  -->
<svg version="1.1" id="Layer_1" xmlns="http://www.w3.org/2000/svg" xmlns:xlink="http://www.w3.org/1999/xlink" x="0px" y="0px"
	 viewBox="0 0 595.3 841.9" style="enable-background:new 0 0 595.3 841.9;" xml:space="preserve">
<style type="text/css">
	.st0{fill:#F9B233;}
	.st1{fill:#FFFFFF;stroke:#000000;stroke-width:2;stroke-miterlimit:10;}
	.st2{fill:#FFFFFF;stroke:#000000;stroke-miterlimit:10;}
	.st3{fill:none;stroke:#000000;stroke-miterlimit:10;}
	.st4{fill:none;stroke:#000000;stroke-miterlimit:10;stroke-dasharray:5.0122,5.0122;}
</style>
<rect class="st0" width="595.3" height="841.9"/>
<circle class="st1" cx="476.5" cy="46.1" r="12.9"/>
<g>
	<path d="M152,122.1c-0.3,1.3-0.7,1.7-2,1.5c-1.2-0.2-2.8-0.6-3.9-1.3c-1.1-0.7-1.4-1.5-1.3-3.2c0.5-5.8,2.4-16.8,4-25.9
		c-0.5-0.8-1.3-1.9-1.8-2.9c-0.8-1.4-0.8-2.2,0.4-3.1c5.6-4.1,16.7-8.4,20.9-4.4c1.7,1.6,3.3,3.8,4.2,7.2c0.8,3.4-0.6,6.3-2.5,9
		c-3.1,4.5-10,9.4-16.2,12.1C153.3,114.9,152.5,118.7,152,122.1z M165.6,90.2c-0.3-1.3-3.9-0.9-7.5,1.3c-0.7,3.1-1.5,6.7-2.3,10.6
		C162.9,98.4,166.3,92.6,165.6,90.2z"/>
	<path d="M176.8,111.8c-1,2.7-2,5.2-2.7,7.4c-0.5,1.4-1,1.5-2.2,1.1c-1.1-0.3-2.2-0.8-3.2-1.6c-1-0.9-1.1-1.7-0.6-3.5
		c2.9-9.5,9.1-25.3,13.2-34.1c0.8-1.6,1.8-2.6,3.9-2.8c2.5-0.2,5.9,0.2,8,0.7c1.5,0.4,1.8,1.3,1.8,2.9c-0.1,7.8,0.3,22.7,0.9,34
		c0.1,1.4-0.2,1.8-1.5,2c-1.3,0.2-3,0.1-3.8-0.1c-1.3-0.3-1.7-1-2-2.9c-0.2-2-0.4-4.3-0.6-6.9C184.1,109.3,179.8,110.6,176.8,111.8z
		 M187.4,100.6c-0.2-4.9-0.4-9.9-0.4-14.3c-1.9,4.3-4.3,10.2-6.7,16.1C182.7,101.7,185.1,101.1,187.4,100.6z"/>
	<path d="M203.3,106.4c4,2.7,7.6,3.3,8.9,1.8c1.6-1.7-5.2-4.7-8.9-8.1c-2.6-2.3-4.2-6.2-2.7-10.9c1.2-4.2,4.4-9.2,7.8-12
		c1.3-1,3.5-2.2,6.2-1.6c2,0.5,4.4,1.6,5.7,2.8c1.9,1.7,2,3.8,2,5.4c-0.1,2.9-1,7.8-2,10.5c-0.5,1.2-1,1.6-2.2,1.2
		c-3.3-1-4.9-2.7-4.7-5.2c0.2-2.3,1.5-7.1,0.7-7.4c-1.4-0.6-8.2,8.4-4.4,12.5c4.2,4.3,12.4,6.4,10.3,12.3c-1.6,4.3-4.6,7.7-9.6,8.3
		c-4,0.5-8.2-0.9-12.2-5.4c-2.1-2.3-1.9-3.2-0.9-4C199.2,105.6,201.9,105.5,203.3,106.4z"/>
	<path d="M240.5,79.2c-2.1,9.9-4.4,22.7-5.9,32.6c-0.2,1.3-0.6,1.6-1.9,1.4s-2.8-0.6-4-1.3c-1.2-0.7-1.4-1.6-1.3-3.3
		c0.5-6.6,2.5-18.9,4.1-27c-1.4,0.4-2.9,0.9-3.7,1.2c-1.2,0.4-1.9,0.4-2.7-0.7c-0.9-1.1-1.9-3-2.2-4.2c-0.4-1.2,0-1.5,0.9-1.9
		c5.6-2,14.5-4,20.1-4.8c1.4-0.2,1.9,0.1,2.4,0.7c0.9,1.1,1.7,2.7,2,3.8c0.3,1.3,0.3,1.6-1.2,1.9C245.2,78.2,242.6,78.7,240.5,79.2z
		"/>
	<path d="M249.4,74.7c-0.4-1.2-0.1-1.5,0.8-1.8c4.1-1.7,11.7-3.6,17.3-4.5c1.3-0.2,2.1,0.3,2.6,1.4c0.6,1.2,0.9,2.1,1.2,3.3
		c0.2,1.3-0.1,1.9-1.4,2.2c-2.8,0.7-6.2,1.5-9.4,2.5c-0.6,2.6-1.3,5.6-2.1,8.7c1.5-0.4,3-0.7,4.6-1c1.3-0.2,2.1,0,2.7,1.1
		c0.6,1.2,1,2.2,1.3,3.4c0.3,1.3,0,1.7-1.3,2.2c-3,1-6.4,2.1-9.4,3.3c-0.4,2-0.9,3.9-1.2,5.8c2.4-0.8,4.6-1.4,7.2-1.9
		c1.3-0.3,2.2-0.1,2.7,1c0.6,1.2,1.1,2.3,1.4,3.5c0.3,1.3,0.1,1.8-1.2,2.3c-3.4,1.2-7.2,2.6-10.3,3.9c-1.8,0.7-2.7,0.6-3.9-0.2
		c-0.9-0.6-1.8-1.3-2.8-2.3c-0.8-0.8-1.4-2.1-1.2-3.9c0.5-5.6,2.7-16.7,4.4-25C250.5,77.5,249.8,75.8,249.4,74.7z"/>
	<path d="M295.4,91.7c0.4,2.9-0.5,4.9-2.4,7.1c-2.7,3.2-8,6.9-11.7,8.5c-2.1,1-2.9,1-4.5,0.1c-1.7-1-2.6-1.7-4.1-3
		c-1.6-1.4-1.9-2-1.6-4.4c0.7-6.2,2.6-15.7,4-23.3c-0.5-0.7-1.1-1.7-1.6-2.6c-0.7-1.5-0.8-2.3,0.5-3.1c5.6-4,17-7.7,21-4
		c1.7,1.6,3,3.6,3.6,6.5c0.6,3.2-1,6.4-3.1,8.8c-1.1,1.2-2.4,2.5-4,3.8C293.5,87.1,295,89.4,295.4,91.7z M278.5,99.9
		c5.6-2.5,9.3-6.2,8.8-8.3c-0.3-1.3-3.3-1.8-7.4,0.4C279.4,94.6,278.9,97.3,278.5,99.9z M291.2,73.9c-0.3-1.3-3.7-1-7.8,1.7
		c-0.6,2.5-1.2,5.3-1.9,8.5C287.9,80.9,291.7,75.7,291.2,73.9z"/>
	<path d="M300.3,68.4c-0.4-1.2-0.1-1.5,0.8-1.8c4.1-1.7,11.7-3.6,17.3-4.5c1.3-0.2,2.1,0.3,2.6,1.4c0.6,1.2,0.9,2.1,1.2,3.3
		c0.2,1.3-0.1,1.9-1.4,2.2c-2.8,0.7-6.2,1.5-9.4,2.5c-0.6,2.6-1.3,5.6-2.1,8.7c1.5-0.4,3-0.7,4.6-1c1.3-0.2,2.1,0,2.7,1.1
		c0.6,1.2,1,2.2,1.3,3.4c0.3,1.3,0,1.7-1.3,2.2c-3,1-6.4,2.1-9.4,3.3c-0.4,2-0.9,3.9-1.2,5.8c2.4-0.8,4.6-1.4,7.2-1.9
		c1.3-0.3,2.2-0.1,2.7,1c0.6,1.2,1.1,2.3,1.4,3.5c0.3,1.3,0.1,1.8-1.2,2.3c-3.4,1.2-7.2,2.6-10.3,3.9c-1.8,0.7-2.7,0.6-3.9-0.2
		c-0.9-0.6-1.8-1.3-2.8-2.3c-0.8-0.8-1.4-2.1-1.2-3.9c0.5-5.6,2.7-16.7,4.4-25C301.4,71.2,300.6,69.5,300.3,68.4z"/>
	<path d="M323.7,65.5c-0.4-1.2-0.1-1.5,0.8-1.8c4.1-1.7,11.7-3.6,17.3-4.5c1.3-0.2,2.1,0.3,2.6,1.4c0.6,1.2,0.9,2.1,1.2,3.3
		c0.2,1.3-0.1,1.9-1.4,2.2c-2.8,0.7-6.2,1.5-9.4,2.5c-0.6,2.6-1.3,5.6-2.1,8.7c1.5-0.4,3-0.7,4.6-1c1.3-0.2,2.1,0,2.7,1.1
		c0.6,1.2,1,2.2,1.3,3.4c0.3,1.3,0,1.7-1.3,2.2c-3,1-6.4,2.1-9.4,3.3c-0.4,2-0.9,3.9-1.2,5.8c2.4-0.8,4.6-1.4,7.2-1.9
		c1.3-0.3,2.2-0.1,2.7,1c0.6,1.2,1.1,2.3,1.4,3.5c0.4,1.3,0.1,1.8-1.2,2.3c-3.4,1.2-7.2,2.6-10.3,3.9c-1.8,0.7-2.7,0.6-3.9-0.2
		c-0.9-0.6-1.8-1.3-2.8-2.3c-0.8-0.8-1.4-2.1-1.2-3.9c0.5-5.6,2.7-16.7,4.4-25C324.9,68.3,324.1,66.6,323.7,65.5z"/>
	<path d="M343.8,93.5c0.7-2.5,2.7-4.3,5.5-3.7c2.7,0.6,3.4,2.9,3,5.2c-0.6,3.1-3,4.7-5.5,4.3C344.6,98.9,343,96.5,343.8,93.5z"/>
	<path d="M376.6,87.9c-0.9,2.5-2.6,4.8-4,6.4c-1.5,1.7-4.3,2.9-6.7,2.9c-2.5,0.1-4.7-0.6-6.2-1.3c-1.4-0.6-3.1-2-3.9-3.7
		c-3.7-8.1,0.4-25.5,8-33.9c2-2.2,4.1-2.9,5.9-2.9c2.7-0.1,5.9,0.9,7.6,2.1c1.9,1.4,2.4,3,2.6,5.2c0.2,2.4,0,6-0.5,8
		c-0.2,1-0.5,1.7-2.1,1.6c-3.3-0.3-4.6-1.8-5-4.6c-0.3-2.1,0.3-5-1.1-5.4c-1.9-0.5-5.8,8.3-7.2,14.1c-1.5,6.3-1.6,13.4,0.6,14
		c1.2,0.3,2.7-1,4.8-4.1c1.5-2.1,3.7-2.9,6.1-2.4C377.5,84.3,377.4,85.7,376.6,87.9z"/>
	<path d="M406,60.3c1.5,8.2-0.3,21.9-6.4,29.6c-2,2.5-4.5,3.5-7.5,3.5c-2,0-4.4-0.4-6.1-1.3c-1.3-0.7-2.9-2.2-3.7-4
		c-3.7-8.4-0.3-24.5,7.3-32.6c1.6-1.7,4.2-2.8,6.2-2.7c2.6,0,5.4,0.8,6.9,2C404.7,56.2,405.6,58,406,60.3z M390.3,72.5
		c-1.4,5.9-1.6,13.8,0.7,14.4c2.3,0.6,5.1-5.1,6.7-12.6c1.2-5.8,1.5-14.4-0.5-14.7C395.2,59.2,391.7,66.5,390.3,72.5z"/>
	<path d="M418.6,63.5c-1.1,6.3-3.2,18.4-4.1,25.6c-0.2,1.6-0.8,2-2.3,1.6c-0.8-0.2-1.8-0.5-2.6-0.9c-1.6-0.7-2-1.7-1.8-4.3
		c0.7-8.3,3.8-25.4,5.4-33c0.4-1.5,0.9-2,2.1-2.2c1.6-0.2,4.7,0.4,6.2,1c2,0.7,2.5,1.4,2.8,3.4l0.3,3.3l1,8.2l0.5,3.8
		c2.2-6.5,6.5-16.3,8.6-20.7c0.7-1.5,1.7-1.9,3.3-1.9c1.4,0.1,4.3,0.6,6.7,1.5c1.4,0.5,1.7,1.3,1.4,3.3c-1.3,8.6-4.6,26-5.6,33.8
		c-0.2,1-0.6,1.6-1.3,1.6c-0.9,0.1-2.5-0.4-3.5-0.8c-1.6-0.7-2.2-1.5-1.9-4.5c0.4-4.9,1.9-14.5,3.5-22.3c-2.6,6.3-6.7,16.6-9.4,24.2
		c-0.4,1.2-0.7,1.6-1.4,1.7c-0.7,0.1-1.9-0.1-3.2-0.5c-1.3-0.4-1.9-1.1-2.3-3.1C420.1,78.6,419,68.7,418.6,63.5z"/>
</g>
<g>
	<g>
		<path class="st4" d="M-10.3,52.5C1.8,70.4,42.2,120.4,121.2,129c96.6,10.5,178.8-15.3,188.5,11.9c7.9,23.7-3.1,28.1-12.1,28.1
			c-9,0-23.9-13.2-11.6-26.3c12.3-13.2,89.6-58,189.7-38.6c98,18.9,169,76.5,245.3,65.8"/>
	</g>
</g>
<g>
	<path class="st2" d="M150.2,118.9c-0.3,1.3-0.7,1.7-2,1.5c-1.2-0.2-2.8-0.6-3.9-1.3c-1.1-0.7-1.4-1.5-1.3-3.2
		c0.5-5.8,2.4-16.8,4-25.9c-0.5-0.8-1.3-1.9-1.8-2.9c-0.8-1.4-0.8-2.2,0.4-3.1c5.6-4.1,16.7-8.4,20.9-4.4c1.7,1.6,3.3,3.8,4.2,7.2
		c0.8,3.4-0.6,6.3-2.5,9c-3.1,4.5-10,9.4-16.2,12.1C151.4,111.7,150.7,115.4,150.2,118.9z M163.8,86.9c-0.3-1.3-3.9-0.9-7.5,1.3
		c-0.7,3.1-1.5,6.7-2.3,10.6C161.1,95.1,164.5,89.3,163.8,86.9z"/>
	<path class="st2" d="M175,108.6c-1,2.7-2,5.2-2.7,7.4c-0.5,1.4-1,1.5-2.2,1.1c-1.1-0.3-2.2-0.8-3.2-1.6c-1-0.9-1.1-1.7-0.6-3.5
		c2.9-9.5,9.1-25.3,13.2-34.1c0.8-1.6,1.8-2.6,3.9-2.8c2.5-0.2,5.9,0.2,8,0.7c1.5,0.4,1.8,1.3,1.8,2.9c-0.1,7.8,0.3,22.7,0.9,34
		c0.1,1.4-0.2,1.8-1.5,2c-1.3,0.2-3,0.1-3.8-0.1c-1.3-0.3-1.7-1-2-2.9c-0.2-2-0.4-4.3-0.6-6.9C182.3,106,178,107.3,175,108.6z
		 M185.6,97.3c-0.2-4.9-0.4-9.9-0.4-14.3c-1.9,4.3-4.3,10.2-6.7,16.1C180.9,98.5,183.3,97.8,185.6,97.3z"/>
	<path class="st2" d="M201.5,103.2c4,2.7,7.6,3.3,8.9,1.8c1.6-1.7-5.2-4.7-8.9-8.1c-2.6-2.3-4.2-6.2-2.7-10.9
		c1.2-4.2,4.4-9.2,7.8-12c1.3-1,3.5-2.2,6.2-1.6c2,0.5,4.4,1.6,5.7,2.8c1.9,1.7,2,3.8,2,5.4c-0.1,2.9-1,7.8-2,10.5
		c-0.5,1.2-1,1.6-2.2,1.2c-3.3-1-4.9-2.7-4.7-5.2c0.2-2.3,1.5-7.1,0.7-7.4c-1.4-0.6-8.2,8.4-4.4,12.5c4.2,4.3,12.4,6.4,10.3,12.3
		c-1.6,4.3-4.6,7.7-9.6,8.3c-4,0.5-8.2-0.9-12.2-5.4c-2.1-2.3-1.9-3.2-0.9-4C197.4,102.3,200.1,102.2,201.5,103.2z"/>
	<path class="st2" d="M238.7,76c-2.1,9.9-4.4,22.7-5.9,32.6c-0.2,1.3-0.6,1.6-1.9,1.4s-2.8-0.6-4-1.3c-1.2-0.7-1.4-1.6-1.3-3.3
		c0.5-6.6,2.5-18.9,4.1-27c-1.4,0.4-2.9,0.9-3.7,1.2c-1.2,0.4-1.9,0.4-2.7-0.7c-0.9-1.1-1.9-3-2.2-4.2c-0.4-1.2,0-1.5,0.9-1.9
		c5.6-2,14.5-4,20.1-4.8c1.4-0.2,1.9,0.1,2.4,0.7c0.9,1.1,1.7,2.7,2,3.8c0.3,1.3,0.3,1.6-1.2,1.9C243.3,74.9,240.8,75.5,238.7,76z"
		/>
	<path class="st2" d="M247.5,71.5c-0.4-1.2-0.1-1.5,0.8-1.8c4.1-1.7,11.7-3.6,17.3-4.5c1.3-0.2,2.1,0.3,2.6,1.4
		c0.6,1.2,0.9,2.1,1.2,3.3c0.2,1.3-0.1,1.9-1.4,2.2c-2.8,0.7-6.2,1.5-9.4,2.5c-0.6,2.6-1.3,5.6-2.1,8.7c1.5-0.4,3-0.7,4.6-1
		c1.3-0.2,2.1,0,2.7,1.1c0.6,1.2,1,2.2,1.3,3.4c0.3,1.3,0,1.7-1.3,2.2c-3,1-6.4,2.1-9.4,3.3c-0.4,2-0.9,3.9-1.2,5.8
		c2.4-0.8,4.6-1.4,7.2-1.9c1.3-0.3,2.2-0.1,2.7,1c0.6,1.2,1.1,2.3,1.4,3.5c0.3,1.3,0.1,1.8-1.2,2.3c-3.4,1.2-7.2,2.6-10.3,3.9
		c-1.8,0.7-2.7,0.6-3.9-0.2c-0.9-0.6-1.8-1.3-2.8-2.3c-0.8-0.8-1.4-2.1-1.2-3.9c0.5-5.6,2.7-16.7,4.4-25
		C248.7,74.2,247.9,72.5,247.5,71.5z"/>
	<path class="st2" d="M293.5,88.5c0.4,2.9-0.5,4.9-2.4,7.1c-2.7,3.2-8,6.9-11.7,8.5c-2.1,1-2.9,1-4.5,0.1c-1.7-1-2.6-1.7-4.1-3
		c-1.6-1.4-1.9-2-1.6-4.4c0.7-6.2,2.6-15.7,4-23.3c-0.5-0.7-1.1-1.7-1.6-2.6c-0.7-1.5-0.8-2.3,0.5-3.1c5.6-4,17-7.7,21-4
		c1.7,1.6,3,3.6,3.6,6.5c0.6,3.2-1,6.4-3.1,8.8c-1.1,1.2-2.4,2.5-4,3.8C291.7,83.9,293.2,86.1,293.5,88.5z M276.6,96.6
		c5.6-2.5,9.3-6.2,8.8-8.3c-0.3-1.3-3.3-1.8-7.4,0.4C277.6,91.4,277.1,94.1,276.6,96.6z M289.3,70.7c-0.3-1.3-3.7-1-7.8,1.7
		c-0.6,2.5-1.2,5.3-1.9,8.5C286,77.6,289.8,72.4,289.3,70.7z"/>
	<path class="st2" d="M298.4,65.2c-0.4-1.2-0.1-1.5,0.8-1.8c4.1-1.7,11.7-3.6,17.3-4.5c1.3-0.2,2.1,0.3,2.6,1.4
		c0.6,1.2,0.9,2.1,1.2,3.3c0.2,1.3-0.1,1.9-1.4,2.2c-2.8,0.7-6.2,1.5-9.4,2.5c-0.6,2.6-1.3,5.6-2.1,8.7c1.5-0.4,3-0.7,4.6-1
		c1.3-0.2,2.1,0,2.7,1.1c0.6,1.2,1,2.2,1.3,3.4c0.3,1.3,0,1.7-1.3,2.2c-3,1-6.4,2.1-9.4,3.3c-0.4,2-0.9,3.9-1.2,5.8
		c2.4-0.8,4.6-1.4,7.2-1.9c1.3-0.3,2.2-0.1,2.7,1c0.6,1.2,1.1,2.3,1.4,3.5c0.3,1.3,0.1,1.8-1.2,2.3c-3.4,1.2-7.2,2.6-10.3,3.9
		c-1.8,0.7-2.7,0.6-3.9-0.2c-0.9-0.6-1.8-1.3-2.8-2.3c-0.8-0.8-1.4-2.1-1.2-3.9c0.5-5.6,2.7-16.7,4.4-25
		C299.6,67.9,298.8,66.2,298.4,65.2z"/>
	<path class="st2" d="M321.9,62.3c-0.4-1.2-0.1-1.5,0.8-1.8c4.1-1.7,11.7-3.6,17.3-4.5c1.3-0.2,2.1,0.3,2.6,1.4
		c0.6,1.2,0.9,2.1,1.2,3.3c0.2,1.3-0.1,1.9-1.4,2.2c-2.8,0.7-6.2,1.5-9.4,2.5c-0.6,2.6-1.3,5.6-2.1,8.7c1.5-0.4,3-0.7,4.6-1
		c1.3-0.2,2.1,0,2.7,1.1c0.6,1.2,1,2.2,1.3,3.4c0.3,1.3,0,1.7-1.3,2.2c-3,1-6.4,2.1-9.4,3.3c-0.4,2-0.9,3.9-1.2,5.8
		c2.4-0.8,4.6-1.4,7.2-1.9c1.3-0.3,2.2-0.1,2.7,1c0.6,1.2,1.1,2.3,1.4,3.5c0.4,1.3,0.1,1.8-1.2,2.3c-3.4,1.2-7.2,2.6-10.3,3.9
		c-1.8,0.7-2.7,0.6-3.9-0.2c-0.9-0.6-1.8-1.3-2.8-2.3c-0.8-0.8-1.4-2.1-1.2-3.9c0.5-5.6,2.7-16.7,4.4-25
		C323,65,322.3,63.3,321.9,62.3z"/>
	<path class="st2" d="M342,90.2c0.7-2.5,2.7-4.3,5.5-3.7c2.7,0.6,3.4,2.9,3,5.2c-0.6,3.1-3,4.7-5.5,4.3
		C342.7,95.6,341.2,93.2,342,90.2z"/>
	<path class="st2" d="M374.8,84.6c-0.9,2.5-2.6,4.8-4,6.4c-1.5,1.7-4.3,2.9-6.7,2.9c-2.5,0.1-4.7-0.6-6.2-1.3
		c-1.4-0.6-3.1-2-3.9-3.7c-3.7-8.1,0.4-25.5,8-33.9c2-2.2,4.1-2.9,5.9-2.9c2.7-0.1,5.9,0.9,7.6,2.1c1.9,1.4,2.4,3,2.6,5.2
		c0.2,2.4,0,6-0.5,8c-0.2,1-0.5,1.7-2.1,1.6c-3.3-0.3-4.6-1.8-5-4.6c-0.3-2.1,0.3-5-1.1-5.4c-1.9-0.5-5.8,8.3-7.2,14.1
		c-1.5,6.3-1.6,13.4,0.6,14c1.2,0.3,2.7-1,4.8-4.1c1.5-2.1,3.7-2.9,6.1-2.4C375.7,81,375.5,82.5,374.8,84.6z"/>
	<path class="st2" d="M404.1,57.1c1.5,8.2-0.3,21.9-6.4,29.6c-2,2.5-4.5,3.5-7.5,3.5c-2,0-4.4-0.4-6.1-1.3c-1.3-0.7-2.9-2.2-3.7-4
		c-3.7-8.4-0.3-24.5,7.3-32.6c1.6-1.7,4.2-2.8,6.2-2.7c2.6,0,5.4,0.8,6.9,2C402.8,53,403.7,54.8,404.1,57.1z M388.5,69.2
		c-1.4,5.9-1.6,13.8,0.7,14.4c2.3,0.6,5.1-5.1,6.7-12.6c1.2-5.8,1.5-14.4-0.5-14.7C393.4,55.9,389.9,63.2,388.5,69.2z"/>
	<path class="st2" d="M416.7,60.3c-1.1,6.3-3.2,18.4-4.1,25.6c-0.2,1.6-0.8,2-2.3,1.6c-0.8-0.2-1.8-0.5-2.6-0.9
		c-1.6-0.7-2-1.7-1.8-4.3c0.7-8.3,3.8-25.4,5.4-33c0.4-1.5,0.9-2,2.1-2.2c1.6-0.2,4.7,0.4,6.2,1c2,0.7,2.5,1.4,2.8,3.4l0.3,3.3
		l1,8.2l0.5,3.8c2.2-6.5,6.5-16.3,8.6-20.7c0.7-1.5,1.7-1.9,3.3-1.9c1.4,0.1,4.3,0.6,6.7,1.5c1.4,0.5,1.7,1.3,1.4,3.3
		c-1.3,8.6-4.6,26-5.6,33.8c-0.2,1-0.6,1.6-1.3,1.6c-0.9,0.1-2.5-0.4-3.5-0.8c-1.6-0.7-2.2-1.5-1.9-4.5c0.4-4.9,1.9-14.5,3.5-22.3
		c-2.6,6.3-6.7,16.6-9.4,24.2c-0.4,1.2-0.7,1.6-1.4,1.7c-0.7,0.1-1.9-0.1-3.2-0.5c-1.3-0.4-1.9-1.1-2.3-3.1
		C418.3,75.4,417.2,65.4,416.7,60.3z"/>
</g>
<g>
	<polygon class="st2" points="434.6,96.2 435.8,102.3 441.8,104.1 440.7,110.3 445.6,114.1 442.4,119.5 445.6,124.8 440.7,128.6 
		441.7,134.8 435.8,136.6 434.5,142.7 428.3,142.2 424.9,147.4 419.3,144.7 414.3,148.4 410,143.8 404,145.4 401.7,139.6 395.5,139 
		395.4,132.7 389.9,129.9 392,124 387.9,119.3 392.1,114.7 389.9,108.8 395.5,106 395.6,99.7 401.8,99.1 404.1,93.3 410.1,94.9 
		414.4,90.4 419.4,94.1 425.1,91.4 428.4,96.7 	"/>
	<g>
		<path d="M399,113.8c0,0.2-0.1,0.2-0.3,0.2c-0.2,0-0.4-0.1-0.5-0.2c-0.2-0.1-0.2-0.2-0.2-0.5c0.1-0.8,0.4-2.3,0.7-3.6
			c-0.1-0.1-0.2-0.3-0.2-0.4c-0.1-0.2-0.1-0.3,0.1-0.4c0.8-0.5,2.4-1.1,2.9-0.5c0.2,0.2,0.4,0.5,0.5,1c0.1,0.5-0.1,0.9-0.4,1.2
			c-0.5,0.6-1.4,1.3-2.3,1.6C399.2,112.8,399.1,113.3,399,113.8z M401,109.4c0-0.2-0.5-0.2-1.1,0.1c-0.1,0.4-0.2,0.9-0.4,1.5
			C400.6,110.6,401.1,109.8,401,109.4z"/>
		<path d="M405.7,109c0.2,1.2-0.2,3.1-1,4.1c-0.3,0.3-0.6,0.5-1.1,0.4c-0.3,0-0.6-0.1-0.8-0.2c-0.2-0.1-0.4-0.3-0.5-0.6
			c-0.5-1.2,0.1-3.4,1.2-4.5c0.2-0.2,0.6-0.4,0.9-0.3c0.4,0,0.7,0.1,1,0.3C405.5,108.4,405.7,108.7,405.7,109z M403.5,110.6
			c-0.2,0.8-0.3,1.9,0,2c0.3,0.1,0.7-0.7,1-1.7c0.2-0.8,0.3-2,0-2.1C404.2,108.8,403.7,109.8,403.5,110.6z"/>
		<path d="M409.2,113.1c-0.6-0.1-0.7-0.2-0.8-0.6c0-0.3,0-1.5,0-2.3c-0.4,0.9-1,2.4-1.2,2.9c-0.1,0.2-0.2,0.2-0.5,0.2
			c-0.1,0-0.3-0.1-0.5-0.1c-0.2-0.1-0.2-0.2-0.2-0.3c-0.1-0.8,0.1-3.2,0.2-4.8c0-0.2,0.1-0.3,0.2-0.3c0.2,0,0.5,0.1,0.7,0.2
			c0.1,0.1,0.2,0.2,0.2,0.5c0,0.4-0.2,2.1-0.3,3.1c0.4-1.1,1.1-2.9,1.3-3.3c0.1-0.2,0.2-0.2,0.4-0.2c0.1,0,0.3,0.1,0.4,0.1
			c0.2,0.1,0.2,0.2,0.2,0.4c0,0.2-0.1,1.8-0.1,2.8c0.4-1.4,1.1-3.4,1.3-3.9c0.1-0.2,0.2-0.2,0.4-0.2c0.2,0.1,0.4,0.2,0.5,0.3
			c0.1,0.1,0.1,0.3,0,0.5c-0.5,1.2-1.4,3.5-1.8,4.7C409.6,113.1,409.5,113.1,409.2,113.1z"/>
		<path d="M411.7,107.8c0-0.2,0-0.2,0.1-0.3c0.6-0.2,1.7-0.4,2.4-0.5c0.2,0,0.3,0.1,0.4,0.2c0.1,0.2,0.1,0.3,0.1,0.5
			c0,0.2,0,0.3-0.2,0.3c-0.4,0.1-0.9,0.2-1.3,0.3c-0.1,0.4-0.2,0.8-0.3,1.2c0.2-0.1,0.4-0.1,0.7-0.1c0.2,0,0.3,0,0.4,0.2
			c0.1,0.2,0.1,0.3,0.2,0.5c0,0.2,0,0.2-0.2,0.3c-0.4,0.1-0.9,0.3-1.3,0.4c-0.1,0.3-0.1,0.5-0.2,0.8c0.3-0.1,0.6-0.2,1-0.2
			c0.2,0,0.3,0,0.4,0.2c0.1,0.2,0.1,0.3,0.2,0.5c0,0.2,0,0.2-0.2,0.3c-0.5,0.2-1,0.3-1.5,0.5c-0.2,0.1-0.4,0.1-0.5,0
			c-0.1-0.1-0.2-0.2-0.4-0.3c-0.1-0.1-0.2-0.3-0.2-0.5c0.1-0.8,0.5-2.3,0.7-3.5C411.8,108.2,411.7,107.9,411.7,107.8z"/>
		<path d="M415.5,112.3c0,0.2-0.1,0.2-0.3,0.2c-0.2,0-0.4-0.1-0.5-0.2c-0.2-0.1-0.2-0.2-0.2-0.5c0.1-0.8,0.4-2.3,0.7-3.6
			c-0.1-0.1-0.2-0.3-0.2-0.4c-0.1-0.2-0.1-0.3,0.1-0.4c0.8-0.5,2.4-1.1,2.9-0.5c0.2,0.2,0.4,0.6,0.5,1c0.1,0.5-0.1,0.9-0.4,1.2
			c-0.3,0.4-0.8,0.7-1.3,1.1c0.3,0.4,0.8,1,1.2,1.4c0.2,0.1,0.1,0.2,0,0.3c-0.1,0.1-0.2,0.2-0.4,0.2c-0.2,0.1-0.4,0.1-0.6-0.1
			c-0.4-0.3-0.9-0.9-1.3-1.4C415.7,111.3,415.6,111.8,415.5,112.3z M416.1,109.5c1-0.5,1.6-1.3,1.5-1.6c-0.1-0.2-0.6-0.2-1.1,0.1
			C416.4,108.5,416.3,109,416.1,109.5z"/>
		<path d="M418.9,107.1c0-0.2,0-0.2,0.1-0.3c0.6-0.2,1.7-0.4,2.4-0.5c0.2,0,0.3,0.1,0.4,0.2c0.1,0.2,0.1,0.3,0.1,0.5
			c0,0.2,0,0.3-0.2,0.3c-0.4,0.1-0.9,0.2-1.3,0.3c-0.1,0.4-0.2,0.8-0.3,1.2c0.2-0.1,0.4-0.1,0.7-0.1c0.2,0,0.3,0,0.4,0.2
			c0.1,0.2,0.1,0.3,0.2,0.5c0,0.2,0,0.2-0.2,0.3c-0.4,0.1-0.9,0.3-1.3,0.4c-0.1,0.3-0.1,0.5-0.2,0.8c0.3-0.1,0.6-0.2,1-0.2
			c0.2,0,0.3,0,0.4,0.2c0.1,0.2,0.1,0.3,0.2,0.5c0,0.2,0,0.2-0.2,0.3c-0.5,0.2-1,0.3-1.5,0.5c-0.3,0.1-0.4,0.1-0.5,0
			c-0.1-0.1-0.2-0.2-0.4-0.3c-0.1-0.1-0.2-0.3-0.2-0.5c0.1-0.8,0.5-2.3,0.7-3.5C419.1,107.5,419,107.3,418.9,107.1z"/>
		<path d="M422.2,107.1c-0.1-0.2-0.1-0.3,0.1-0.4c0.8-0.6,2.6-1,3.3,0.4c0.6,1.3-0.1,3.7-2.4,4.8c-0.2,0.1-0.4,0.1-0.6,0
			c-0.2-0.1-0.3-0.2-0.5-0.4c-0.2-0.2-0.3-0.3-0.2-0.7c0.2-0.9,0.4-2.2,0.7-3.2C422.4,107.4,422.3,107.2,422.2,107.1z M424.5,107.6
			c-0.1-0.2-0.4-0.4-0.9-0.2c-0.3,1-0.5,2.2-0.8,3.4C424.5,109.8,424.8,108.1,424.5,107.6z"/>
		<path d="M431.3,109.2c0,0.4-0.1,0.7-0.4,1c-0.4,0.4-1.1,0.9-1.7,1.1c-0.3,0.1-0.4,0.1-0.6,0c-0.2-0.1-0.3-0.2-0.6-0.4
			c-0.2-0.2-0.2-0.3-0.2-0.6c0.1-0.9,0.4-2.2,0.7-3.2c-0.1-0.1-0.2-0.2-0.2-0.4c-0.1-0.2-0.1-0.3,0.1-0.4c0.8-0.5,2.4-1,3-0.5
			c0.2,0.2,0.4,0.5,0.5,0.9c0.1,0.5-0.2,0.9-0.5,1.2c-0.2,0.2-0.3,0.3-0.6,0.5C431,108.6,431.2,108.9,431.3,109.2z M428.9,110.3
			c0.8-0.3,1.3-0.8,1.3-1.1c0-0.2-0.5-0.3-1,0C429,109.5,428.9,109.9,428.9,110.3z M430.8,106.7c0-0.2-0.5-0.2-1.1,0.2
			c-0.1,0.3-0.2,0.7-0.3,1.2C430.3,107.7,430.8,106.9,430.8,106.7z"/>
		<path d="M433.7,109.1c-0.1,0.6-0.3,1.2-0.4,1.7c0,0.2-0.1,0.2-0.3,0.2c-0.2,0-0.4-0.1-0.5-0.2c-0.2-0.1-0.2-0.2-0.2-0.5
			c0.1-0.4,0.1-1,0.3-1.6c-0.2-1-0.5-2.2-0.7-3.1c0-0.2,0-0.2,0.2-0.3c0.2,0,0.4-0.1,0.6,0c0.2,0,0.3,0.1,0.3,0.4
			c0.1,0.4,0.3,1.1,0.4,1.8c0.4-0.7,0.8-1.5,1.1-2.2c0.1-0.2,0.2-0.2,0.4-0.1c0.2,0.1,0.3,0.2,0.4,0.3c0.1,0.1,0.1,0.3,0,0.5
			C435.1,106.6,434.4,108,433.7,109.1z"/>
	</g>
	<g>
		<path d="M395.1,126.3c1.1,0.9,2.1,1.2,2.5,0.8c0.5-0.4-1.3-1.5-2.3-2.6c-0.7-0.8-1-1.9-0.4-3.2c0.5-1.2,1.6-2.5,2.7-3.2
			c0.4-0.2,1.1-0.5,1.8-0.2c0.6,0.2,1.2,0.6,1.5,1c0.5,0.6,0.4,1.2,0.4,1.6c-0.1,0.8-0.6,2.2-0.9,2.9c-0.2,0.3-0.4,0.4-0.7,0.3
			c-0.9-0.4-1.3-0.9-1.2-1.7c0.1-0.6,0.7-2,0.5-2.1c-0.4-0.2-2.7,2.1-1.7,3.4c1,1.4,3.3,2.3,2.5,3.9c-0.6,1.2-1.6,2-3,2
			c-1.2,0-2.3-0.6-3.3-2c-0.5-0.7-0.4-1-0.1-1.2C393.9,125.9,394.7,126,395.1,126.3z"/>
		<path d="M407.7,129.3c-1.2-0.3-1.5-0.5-1.5-1.4c0-0.7,0.2-3.2,0.4-4.7c-1,1.9-2.5,4.8-2.9,5.7c-0.2,0.5-0.4,0.5-1,0.3
			c-0.3-0.1-0.7-0.2-1-0.4c-0.3-0.2-0.4-0.4-0.4-0.7c0-1.7,0.7-6.7,1.4-9.9c0.1-0.4,0.2-0.5,0.4-0.5c0.3,0,1.1,0.2,1.4,0.5
			c0.3,0.2,0.4,0.4,0.3,1c-0.2,0.9-0.9,4.3-1.3,6.4c1.1-2.3,2.8-5.8,3.3-6.5c0.2-0.4,0.4-0.4,0.9-0.3c0.3,0.1,0.6,0.2,0.8,0.4
			c0.3,0.2,0.4,0.4,0.3,0.9c-0.1,0.5-0.4,3.6-0.7,5.8c1.1-2.8,2.9-6.8,3.5-7.7c0.2-0.4,0.4-0.5,0.9-0.3c0.3,0.1,0.7,0.4,0.9,0.7
			c0.2,0.3,0.2,0.6,0,1.1c-1.2,2.3-3.4,6.9-4.5,9.4C408.5,129.5,408.3,129.5,407.7,129.3z"/>
		<path d="M413.4,126.9c-0.4,0.7-0.7,1.4-1.1,2c-0.2,0.4-0.3,0.4-0.7,0.2c-0.3-0.1-0.6-0.3-0.9-0.6c-0.2-0.3-0.2-0.5,0-1
			c1.2-2.6,3.5-7,5-9.3c0.3-0.4,0.6-0.7,1.2-0.7c0.7,0,1.7,0.3,2.3,0.5c0.4,0.2,0.5,0.4,0.4,0.9c-0.3,2.2-0.7,6.5-1,9.8
			c0,0.4-0.1,0.5-0.5,0.5s-0.9-0.1-1.1-0.2c-0.4-0.1-0.5-0.4-0.5-0.9c0-0.6,0-1.2,0.1-2C415.6,126.5,414.3,126.7,413.4,126.9z
			 M416.8,124.1c0.1-1.4,0.2-2.9,0.4-4.1c-0.7,1.2-1.6,2.8-2.5,4.4C415.5,124.2,416.2,124.1,416.8,124.1z"/>
		<path d="M421.4,128.9c-0.1,0.4-0.2,0.4-0.6,0.4c-0.4-0.1-0.7-0.2-1-0.4c-0.3-0.2-0.4-0.5-0.3-1c0.3-1.6,1.3-4.8,2.1-7.3
			c-0.1-0.3-0.3-0.6-0.4-0.9c-0.2-0.4-0.1-0.7,0.2-0.9c1.7-1,5.1-1.8,6.2-0.5c0.4,0.5,0.8,1.3,0.9,2.2c0.1,1-0.3,1.8-1,2.5
			c-0.7,0.7-1.7,1.4-2.9,2c0.6,1,1.5,2.3,2.2,3.1c0.3,0.3,0.2,0.5-0.1,0.7c-0.3,0.2-0.5,0.3-0.8,0.4c-0.3,0.1-0.8,0.1-1.2-0.3
			c-0.7-0.6-1.7-2-2.4-3.1C422.1,126.8,421.7,127.9,421.4,128.9z M423.3,123.3c2.1-0.8,3.5-2.4,3.3-3c-0.1-0.4-1.1-0.5-2.2,0.1
			C424,121.2,423.7,122.2,423.3,123.3z"/>
		<path d="M431.7,121.6c-0.6,1.8-1.6,5.2-2.1,7.2c-0.1,0.4-0.3,0.5-0.7,0.4c-0.2-0.1-0.5-0.2-0.7-0.4c-0.4-0.3-0.5-0.6-0.4-1.3
			c0.5-2.4,2-7.2,2.7-9.3c0.2-0.4,0.3-0.6,0.7-0.6c0.5,0,1.3,0.3,1.8,0.5c0.6,0.3,0.7,0.5,0.7,1.1l0,1l0,2.4v1.1
			c0.9-1.8,2.4-4.5,3.2-5.6c0.3-0.4,0.6-0.5,1-0.4c0.4,0.1,1.2,0.3,1.9,0.7c0.4,0.2,0.4,0.4,0.3,1c-0.7,2.4-2.2,7.3-2.8,9.5
			c-0.1,0.3-0.2,0.4-0.4,0.4c-0.2,0-0.7-0.2-1-0.4c-0.4-0.3-0.6-0.5-0.4-1.4c0.3-1.4,1.1-4.1,1.8-6.3c-1,1.7-2.5,4.5-3.6,6.6
			c-0.2,0.3-0.3,0.4-0.5,0.4c-0.2,0-0.6-0.1-0.9-0.3c-0.4-0.2-0.5-0.4-0.6-1C431.6,126,431.7,123.1,431.7,121.6z"/>
	</g>
</g>
<rect x="105.2" y="231" class="st1" width="374.9" height="500.5"/>
<rect x="403.9" y="738.7" class="st1" width="76.3" height="27.7"/>
<g>
	<path d="M423.2,758.4c-0.1,0.4-0.3,0.5-0.7,0.4c-0.4-0.1-0.9-0.3-1.2-0.6c-0.3-0.3-0.4-0.5-0.3-1.1c0.4-1.8,1.4-5.3,2.3-8.2
		c-0.1-0.3-0.3-0.7-0.5-1c-0.2-0.5-0.2-0.7,0.3-1c2-1.1,5.8-2.1,7-0.6c0.5,0.6,0.9,1.4,1.1,2.5c0.1,1.1-0.4,2-1.2,2.8
		c-1.2,1.3-3.6,2.6-5.7,3.3C423.9,756.1,423.5,757.3,423.2,758.4z M428.9,748.6c-0.1-0.4-1.2-0.5-2.5,0.1c-0.4,1-0.8,2.1-1.2,3.3
		C427.7,751.1,429,749.4,428.9,748.6z"/>
	<path d="M431.6,756c-0.4,0.8-0.8,1.6-1.2,2.3c-0.2,0.4-0.4,0.4-0.8,0.3c-0.3-0.1-0.7-0.3-1-0.7s-0.3-0.6,0-1.2
		c1.3-2.9,3.9-7.8,5.6-10.5c0.3-0.5,0.7-0.8,1.4-0.7c0.8,0,1.9,0.3,2.5,0.6c0.5,0.2,0.5,0.5,0.5,1c-0.4,2.5-0.8,7.4-1.1,11.1
		c0,0.5-0.1,0.6-0.6,0.6c-0.4,0-1-0.1-1.2-0.2c-0.4-0.1-0.5-0.4-0.5-1c0-0.6,0-1.4,0.1-2.3C434.1,755.5,432.6,755.7,431.6,756z
		 M435.5,752.8c0.1-1.6,0.3-3.2,0.5-4.6c-0.8,1.3-1.8,3.1-2.8,4.9C434,753,434.8,752.9,435.5,752.8z"/>
	<path d="M440.4,755.3c1.2,1,2.3,1.4,2.8,0.9c0.6-0.5-1.5-1.7-2.6-3c-0.7-0.9-1.1-2.2-0.4-3.6c0.6-1.3,1.8-2.8,3-3.6
		c0.5-0.3,1.2-0.6,2.1-0.3c0.6,0.2,1.4,0.7,1.7,1.1c0.6,0.6,0.5,1.3,0.4,1.8c-0.1,0.9-0.6,2.5-1.1,3.3c-0.2,0.4-0.4,0.5-0.8,0.3
		c-1-0.4-1.5-1.1-1.3-1.9c0.2-0.7,0.8-2.2,0.5-2.4c-0.4-0.2-3,2.4-1.9,3.9c1.2,1.6,3.8,2.6,2.8,4.4c-0.7,1.3-1.8,2.3-3.4,2.3
		c-1.3,0-2.6-0.6-3.7-2.2c-0.6-0.8-0.5-1.1-0.1-1.3C439.1,754.9,440,755,440.4,755.3z"/>
	<path d="M453.6,748c-1.1,3.1-2.3,7.2-3.2,10.3c-0.1,0.4-0.3,0.5-0.7,0.4c-0.4-0.1-0.9-0.3-1.2-0.6c-0.4-0.3-0.4-0.6-0.3-1.1
		c0.4-2.1,1.6-6,2.4-8.6c-0.5,0.1-1,0.2-1.3,0.2c-0.4,0.1-0.6,0-0.9-0.3c-0.2-0.4-0.5-1.1-0.6-1.4c-0.1-0.4,0.1-0.5,0.4-0.6
		c1.9-0.4,4.8-0.7,6.7-0.8c0.5,0,0.6,0.1,0.8,0.3c0.3,0.4,0.4,0.9,0.5,1.3c0.1,0.4,0,0.5-0.5,0.6C455.1,747.9,454.3,747.9,453.6,748
		z"/>
	<path d="M456.6,746.9c-0.1-0.4,0-0.5,0.3-0.6c1.4-0.4,3.9-0.7,5.8-0.8c0.4,0,0.7,0.2,0.8,0.6c0.1,0.4,0.2,0.7,0.2,1.1
		c0,0.4-0.1,0.6-0.5,0.6c-0.9,0.1-2.1,0.2-3.1,0.4c-0.3,0.8-0.7,1.8-1,2.7c0.5-0.1,1-0.1,1.5-0.1c0.4,0,0.7,0.1,0.8,0.5
		c0.1,0.4,0.2,0.8,0.3,1.2c0.1,0.4-0.1,0.6-0.5,0.7c-1,0.2-2.2,0.4-3.2,0.7c-0.2,0.6-0.4,1.2-0.6,1.8c0.8-0.2,1.5-0.3,2.4-0.3
		c0.4,0,0.7,0.1,0.8,0.4c0.2,0.4,0.3,0.8,0.3,1.2c0.1,0.4,0,0.6-0.5,0.7c-1.1,0.3-2.4,0.5-3.5,0.8c-0.6,0.2-0.9,0.1-1.3-0.2
		c-0.3-0.2-0.5-0.5-0.8-0.9c-0.2-0.3-0.4-0.7-0.2-1.3c0.4-1.8,1.5-5.3,2.4-7.9C456.9,747.9,456.7,747.3,456.6,746.9z"/>
</g>
<rect x="106.3" y="32.3" class="st1" width="48" height="27.7"/>
<g>
	<path d="M123.8,40.4c0.2-0.5,0.4-0.6,0.9-0.4c0.3,0.1,0.6,0.3,0.9,0.4c0.4,0.3,0.6,0.5,0.4,1.2c-0.9,2.9-2.4,7.6-3.2,10.7
		c-0.1,0.5-0.4,0.6-0.9,0.5c-0.4-0.1-0.8-0.3-1.1-0.5c-0.4-0.2-0.6-0.5-0.7-1c-0.3-1.5-0.6-3.5-0.7-6.1c-0.5,1.6-1.4,4.4-2.2,7.2
		c-0.1,0.4-0.3,0.5-0.8,0.4c-0.3-0.1-0.6-0.3-0.9-0.4c-0.4-0.3-0.6-0.5-0.4-1.3c0.4-2,2.2-7.7,3.1-10.6c0.1-0.4,0.3-0.5,0.6-0.5
		c0.3,0,1.1,0.3,1.7,0.6c0.5,0.2,0.6,0.5,0.6,1c0.1,1.9,0.3,4.2,0.4,6.3C122.1,45.7,123.1,42.3,123.8,40.4z"/>
	<path d="M126.8,41c-0.1-0.4,0-0.5,0.3-0.6c1.4-0.4,3.9-0.7,5.8-0.8c0.4,0,0.7,0.2,0.8,0.6c0.1,0.4,0.2,0.7,0.2,1.1
		c0,0.4-0.1,0.6-0.5,0.6c-0.9,0.1-2.1,0.2-3.1,0.4c-0.3,0.8-0.7,1.8-1,2.7c0.5-0.1,1-0.1,1.5-0.1c0.4,0,0.7,0.1,0.8,0.5
		c0.1,0.4,0.2,0.8,0.3,1.2c0.1,0.4-0.1,0.6-0.5,0.7c-1,0.2-2.2,0.4-3.2,0.7c-0.2,0.6-0.4,1.2-0.6,1.8c0.8-0.2,1.5-0.3,2.4-0.3
		c0.4,0,0.7,0.1,0.8,0.4c0.2,0.4,0.3,0.8,0.3,1.2c0.1,0.4,0,0.6-0.5,0.7c-1.1,0.3-2.4,0.5-3.5,0.8c-0.6,0.2-0.9,0.1-1.3-0.2
		c-0.3-0.2-0.5-0.5-0.8-0.9c-0.2-0.3-0.4-0.7-0.2-1.3c0.4-1.8,1.5-5.3,2.4-7.9C127.1,42,126.9,41.4,126.8,41z"/>
	<path d="M140.3,52.9c-1.3-0.4-1.7-0.6-1.7-1.5c0-0.8,0.3-3.6,0.4-5.3c-1.1,2.1-2.8,5.4-3.3,6.4c-0.3,0.5-0.5,0.5-1.1,0.4
		c-0.3-0.1-0.8-0.2-1.1-0.4c-0.3-0.2-0.4-0.4-0.4-0.8c0-1.9,0.8-7.5,1.5-11.2c0.1-0.4,0.2-0.6,0.5-0.6c0.4,0,1.2,0.3,1.6,0.5
		c0.3,0.2,0.4,0.5,0.3,1.1c-0.2,1-1,4.8-1.4,7.2c1.2-2.5,3.2-6.5,3.7-7.3c0.3-0.4,0.4-0.5,1-0.3c0.3,0.1,0.7,0.2,0.9,0.4
		c0.3,0.2,0.4,0.5,0.3,1c-0.1,0.5-0.5,4.1-0.8,6.5c1.2-3.1,3.3-7.6,3.9-8.7c0.3-0.5,0.5-0.5,1-0.3c0.4,0.2,0.8,0.5,1,0.8
		c0.3,0.4,0.2,0.7,0,1.2c-1.3,2.6-3.9,7.8-5.1,10.6C141.3,53,141,53.1,140.3,52.9z"/>
</g>
<g>
	<path d="M475,50.1c1,0.4,1,1.3,0.8,1.8c-0.2,0.7-0.9,1.1-1.7,1c-0.7-0.1-1.3-0.7-1.1-1.7C473.1,50.4,473.9,49.8,475,50.1z
		 M474.1,48c0.4-2.1,2.2-3.2,3.2-3.8c1.3-0.8,1.7-1.6,1.7-2.1c0-0.3-0.3-0.5-0.5-0.5c-0.7,0-1.5,0.8-2.4,1.5
		c-0.7,0.5-1.6,0.6-2.3,0.2c-0.4-0.2-0.5-0.5,0.1-1.3c1-1.3,2.2-2.2,3.4-2.5c1.5-0.3,2.6,0.5,3.1,1.3c1.1,1.8,0.5,3.3-0.4,4.2
		c-1.2,1.4-3.4,1.7-4.1,4.2c-0.1,0.4-0.3,0.5-0.6,0.4c-0.4-0.1-0.8-0.3-1.1-0.5C474,48.8,474,48.5,474.1,48z"/>
</g>
<rect x="105.2" y="195.4" class="st1" width="298.7" height="27.7"/>
<rect x="416.8" y="195.4" class="st1" width="63.2" height="27.7"/>
<g>
	<path d="M437.6,212.9c-0.4,0.8-1,1.5-1.5,1.9c-0.6,0.5-1.5,0.8-2.3,0.7c-0.8-0.1-1.5-0.4-2-0.7c-0.4-0.3-0.9-0.8-1.1-1.4
		c-0.9-2.8,1.1-8.3,3.9-10.7c0.7-0.6,1.4-0.8,2-0.7c0.9,0.1,1.9,0.5,2.4,1c0.6,0.5,0.7,1.1,0.6,1.8c0,0.8-0.2,1.9-0.5,2.6
		c-0.1,0.3-0.2,0.5-0.7,0.4c-1-0.2-1.4-0.8-1.4-1.7c0-0.7,0.3-1.6-0.1-1.8c-0.6-0.2-2.2,2.4-2.9,4.3c-0.7,2-1.1,4.3-0.4,4.5
		c0.4,0.1,0.9-0.2,1.7-1.1c0.6-0.6,1.3-0.8,2.1-0.5C438,211.8,437.9,212.3,437.6,212.9z"/>
	<path d="M448.2,205.2c0.1,2.7-1,7.1-3.2,9.3c-0.8,0.7-1.6,0.9-2.6,0.8c-0.6-0.1-1.4-0.3-1.9-0.7c-0.4-0.3-0.8-0.8-1-1.4
		c-0.9-2.9,0.9-8,3.7-10.3c0.6-0.5,1.5-0.7,2.1-0.6c0.8,0.1,1.7,0.5,2.2,0.9C448,203.8,448.2,204.4,448.2,205.2z M442.7,208.5
		c-0.7,1.9-1.1,4.4-0.3,4.7c0.7,0.3,1.9-1.4,2.7-3.8c0.6-1.8,1.1-4.6,0.4-4.8C444.8,204.4,443.4,206.6,442.7,208.5z"/>
	<path d="M449.8,215c-0.1,0.4-0.3,0.5-0.7,0.4c-0.4-0.1-0.9-0.3-1.2-0.6c-0.3-0.3-0.4-0.5-0.3-1.1c0.4-1.8,1.4-5.3,2.3-8.2
		c-0.1-0.3-0.3-0.7-0.5-1c-0.2-0.5-0.2-0.7,0.3-1c2-1.1,5.8-2.1,7-0.6c0.5,0.6,0.9,1.4,1.1,2.5c0.1,1.1-0.4,2-1.2,2.8
		c-1.2,1.3-3.6,2.6-5.7,3.3C450.5,212.7,450.1,213.9,449.8,215z M455.5,205.2c-0.1-0.4-1.2-0.5-2.5,0.1c-0.4,1-0.8,2.1-1.2,3.3
		C454.3,207.7,455.6,206,455.5,205.2z"/>
	<path d="M461.8,211.2c-0.4,1.4-0.8,2.7-1.2,3.9c-0.1,0.4-0.3,0.5-0.7,0.4c-0.4-0.1-0.9-0.3-1.2-0.6c-0.3-0.3-0.4-0.5-0.3-1.1
		c0.2-0.9,0.5-2.2,0.9-3.6c-0.3-2.4-0.7-5.3-1-7.3c-0.1-0.4,0-0.6,0.5-0.6c0.4-0.1,0.9-0.1,1.4,0c0.4,0.1,0.6,0.3,0.7,0.9
		c0.2,1,0.4,2.6,0.6,4.2c1-1.6,2.1-3.4,3.1-5c0.2-0.4,0.5-0.4,0.8-0.2c0.4,0.2,0.7,0.5,0.9,0.8c0.3,0.4,0.2,0.6,0,1.2
		C465.6,205.6,463.6,208.7,461.8,211.2z"/>
</g>
<g>
	<path d="M116,204v3.3h0c0.1-0.2,0.2-0.4,0.3-0.5c0.1-0.1,0.3-0.2,0.5-0.3c0.2-0.1,0.4-0.1,0.6-0.2c0.2,0,0.4-0.1,0.6-0.1
		c0.4,0,0.7,0.1,1,0.2c0.3,0.1,0.5,0.3,0.7,0.5s0.3,0.4,0.4,0.7c0.1,0.3,0.1,0.6,0.1,0.9v4.1h-1v-4.2c0-0.4-0.1-0.7-0.3-0.9
		s-0.5-0.3-0.9-0.3c-0.3,0-0.6,0-0.8,0.1c-0.2,0.1-0.4,0.2-0.6,0.4c-0.2,0.2-0.3,0.4-0.3,0.6c-0.1,0.2-0.1,0.5-0.1,0.8v3.5h-1V204
		H116z"/>
	<path d="M124.3,206.4v0.9h-1.2v3.9c0,0.1,0,0.2,0,0.3c0,0.1,0.1,0.1,0.1,0.2c0.1,0,0.1,0.1,0.2,0.1c0.1,0,0.2,0,0.4,0h0.5v0.9h-0.8
		c-0.3,0-0.5,0-0.7-0.1c-0.2,0-0.3-0.1-0.5-0.2s-0.2-0.2-0.3-0.4c-0.1-0.2-0.1-0.4-0.1-0.7v-3.9H121v-0.9h1.1v-1.9h1v1.9H124.3z"/>
	<path d="M128.1,206.4v0.9h-1.2v3.9c0,0.1,0,0.2,0,0.3c0,0.1,0.1,0.1,0.1,0.2c0.1,0,0.1,0.1,0.2,0.1c0.1,0,0.2,0,0.4,0h0.5v0.9h-0.8
		c-0.3,0-0.5,0-0.7-0.1c-0.2,0-0.3-0.1-0.5-0.2s-0.2-0.2-0.3-0.4c-0.1-0.2-0.1-0.4-0.1-0.7v-3.9h-1.1v-0.9h1.1v-1.9h1v1.9H128.1z"/>
	<path d="M130.3,206.4v0.8h0c0.2-0.3,0.4-0.6,0.8-0.8c0.4-0.2,0.8-0.2,1.2-0.2c0.5,0,0.9,0.1,1.3,0.3c0.4,0.2,0.7,0.4,0.9,0.7
		c0.2,0.3,0.4,0.6,0.5,1c0.1,0.4,0.2,0.8,0.2,1.2s-0.1,0.9-0.2,1.2s-0.3,0.7-0.5,1c-0.2,0.3-0.5,0.5-0.9,0.7
		c-0.4,0.2-0.8,0.3-1.2,0.3c-0.2,0-0.3,0-0.5,0c-0.2,0-0.4-0.1-0.6-0.2c-0.2-0.1-0.4-0.2-0.5-0.3c-0.2-0.1-0.3-0.3-0.4-0.5h0v3.2h-1
		v-8.6H130.3z M133.9,208.6c-0.1-0.3-0.2-0.5-0.3-0.7c-0.2-0.2-0.4-0.4-0.6-0.5s-0.5-0.2-0.9-0.2c-0.3,0-0.6,0.1-0.9,0.2
		c-0.2,0.1-0.4,0.3-0.6,0.5c-0.2,0.2-0.3,0.5-0.3,0.8c-0.1,0.3-0.1,0.6-0.1,0.9c0,0.3,0,0.6,0.1,0.9c0.1,0.3,0.2,0.5,0.3,0.8
		c0.2,0.2,0.4,0.4,0.6,0.5c0.2,0.1,0.5,0.2,0.9,0.2c0.4,0,0.6-0.1,0.9-0.2c0.2-0.1,0.4-0.3,0.6-0.5c0.1-0.2,0.2-0.5,0.3-0.8
		c0.1-0.3,0.1-0.6,0.1-0.9C134,209.2,134,208.9,133.9,208.6z"/>
	<path d="M136.5,207.7v-1.3h1.3v1.3H136.5z M137.9,211.3v1.3h-1.3v-1.3H137.9z"/>
	<path d="M143.1,203.8l-3.6,9h-0.9l3.5-9H143.1z"/>
	<path d="M147.1,203.8l-3.6,9h-0.9l3.5-9H147.1z"/>
	<path d="M148.7,204v8.6h-1V204H148.7z"/>
	<path d="M150.2,208.2c0.1-0.4,0.3-0.7,0.6-1s0.6-0.5,0.9-0.7c0.4-0.2,0.8-0.3,1.3-0.3c0.5,0,0.9,0.1,1.3,0.3s0.7,0.4,0.9,0.7
		c0.3,0.3,0.4,0.6,0.6,1s0.2,0.8,0.2,1.3c0,0.5-0.1,0.9-0.2,1.3c-0.1,0.4-0.3,0.7-0.6,1c-0.3,0.3-0.6,0.5-0.9,0.7
		c-0.4,0.2-0.8,0.2-1.3,0.2c-0.5,0-0.9-0.1-1.3-0.2c-0.4-0.2-0.7-0.4-0.9-0.7s-0.4-0.6-0.6-1c-0.1-0.4-0.2-0.8-0.2-1.3
		C150,209,150,208.6,150.2,208.2z M151.2,210.5c0.1,0.3,0.2,0.5,0.4,0.7c0.2,0.2,0.4,0.3,0.6,0.4c0.2,0.1,0.5,0.2,0.8,0.2
		c0.3,0,0.5-0.1,0.8-0.2c0.2-0.1,0.4-0.3,0.6-0.4c0.2-0.2,0.3-0.4,0.4-0.7c0.1-0.3,0.2-0.6,0.2-1c0-0.4,0-0.7-0.2-1
		c-0.1-0.3-0.2-0.5-0.4-0.7c-0.2-0.2-0.4-0.4-0.6-0.5c-0.2-0.1-0.5-0.2-0.8-0.2c-0.3,0-0.5,0.1-0.8,0.2c-0.2,0.1-0.4,0.3-0.6,0.5
		c-0.2,0.2-0.3,0.4-0.4,0.7c-0.1,0.3-0.2,0.6-0.2,1C151.1,209.9,151.1,210.2,151.2,210.5z"/>
	<path d="M160.9,207.5c-0.3-0.2-0.6-0.3-1-0.3c-0.4,0-0.7,0.1-0.9,0.2c-0.2,0.1-0.4,0.3-0.6,0.5c-0.1,0.2-0.3,0.5-0.3,0.8
		c-0.1,0.3-0.1,0.6-0.1,0.9c0,0.3,0,0.6,0.1,0.8c0.1,0.3,0.2,0.5,0.3,0.7c0.1,0.2,0.3,0.4,0.6,0.5c0.2,0.1,0.5,0.2,0.8,0.2
		c0.5,0,0.9-0.1,1.2-0.4c0.3-0.3,0.5-0.6,0.5-1.1h1c-0.1,0.8-0.4,1.4-0.9,1.8c-0.5,0.4-1.1,0.6-1.9,0.6c-0.5,0-0.9-0.1-1.3-0.2
		s-0.7-0.4-0.9-0.6c-0.2-0.3-0.4-0.6-0.6-1c-0.1-0.4-0.2-0.8-0.2-1.3s0.1-0.9,0.2-1.3c0.1-0.4,0.3-0.8,0.5-1.1
		c0.2-0.3,0.5-0.5,0.9-0.7s0.8-0.3,1.3-0.3c0.4,0,0.7,0,1,0.1c0.3,0.1,0.6,0.2,0.8,0.4c0.2,0.2,0.4,0.4,0.6,0.7
		c0.2,0.3,0.2,0.6,0.3,1h-1.1C161.3,208,161.2,207.7,160.9,207.5z"/>
	<path d="M169.1,212.6c-0.2,0.1-0.4,0.2-0.7,0.2c-0.3,0-0.5-0.1-0.6-0.2c-0.2-0.1-0.2-0.4-0.2-0.7c-0.3,0.3-0.6,0.6-1,0.7
		c-0.4,0.1-0.8,0.2-1.2,0.2c-0.3,0-0.5,0-0.8-0.1c-0.3-0.1-0.5-0.2-0.7-0.3c-0.2-0.1-0.3-0.3-0.4-0.5c-0.1-0.2-0.2-0.5-0.2-0.8
		c0-0.4,0.1-0.6,0.2-0.9s0.3-0.4,0.5-0.5s0.4-0.2,0.7-0.3c0.3-0.1,0.5-0.1,0.8-0.2c0.3-0.1,0.5-0.1,0.8-0.1s0.5-0.1,0.7-0.1
		c0.2-0.1,0.3-0.1,0.5-0.2c0.1-0.1,0.2-0.2,0.2-0.4c0-0.2,0-0.4-0.1-0.5c-0.1-0.1-0.2-0.2-0.3-0.3c-0.1-0.1-0.3-0.1-0.4-0.1
		s-0.3,0-0.5,0c-0.4,0-0.8,0.1-1.1,0.2c-0.3,0.2-0.4,0.5-0.5,0.9h-1c0-0.4,0.1-0.7,0.2-1c0.1-0.3,0.3-0.5,0.6-0.6
		c0.2-0.2,0.5-0.3,0.8-0.4c0.3-0.1,0.6-0.1,1-0.1c0.3,0,0.6,0,0.8,0.1c0.3,0,0.5,0.1,0.8,0.2c0.2,0.1,0.4,0.3,0.5,0.5
		c0.1,0.2,0.2,0.5,0.2,0.9v3.2c0,0.2,0,0.4,0,0.5s0.1,0.2,0.3,0.2c0.1,0,0.2,0,0.3-0.1V212.6z M167.5,209.4
		c-0.1,0.1-0.3,0.2-0.5,0.2s-0.4,0.1-0.7,0.1c-0.2,0-0.5,0.1-0.7,0.1c-0.2,0-0.4,0.1-0.6,0.2c-0.2,0.1-0.3,0.2-0.5,0.3
		c-0.1,0.1-0.2,0.4-0.2,0.6c0,0.2,0,0.3,0.1,0.4c0.1,0.1,0.2,0.2,0.3,0.3c0.1,0.1,0.2,0.1,0.4,0.2c0.1,0,0.3,0,0.5,0
		c0.3,0,0.6,0,0.9-0.1c0.2-0.1,0.4-0.2,0.6-0.3c0.2-0.1,0.3-0.3,0.3-0.5s0.1-0.3,0.1-0.5V209.4z"/>
	<path d="M171.2,204v8.6h-1V204H171.2z"/>
	<path d="M173.8,204v3.3h0c0.1-0.2,0.2-0.4,0.3-0.5c0.1-0.1,0.3-0.2,0.5-0.3c0.2-0.1,0.4-0.1,0.6-0.2c0.2,0,0.4-0.1,0.6-0.1
		c0.4,0,0.7,0.1,1,0.2c0.3,0.1,0.5,0.3,0.7,0.5s0.3,0.4,0.4,0.7c0.1,0.3,0.1,0.6,0.1,0.9v4.1h-1v-4.2c0-0.4-0.1-0.7-0.3-0.9
		s-0.5-0.3-0.9-0.3c-0.3,0-0.6,0-0.8,0.1c-0.2,0.1-0.4,0.2-0.6,0.4c-0.2,0.2-0.3,0.4-0.3,0.6c-0.1,0.2-0.1,0.5-0.1,0.8v3.5h-1V204
		H173.8z"/>
	<path d="M179.3,208.2c0.1-0.4,0.3-0.7,0.6-1s0.6-0.5,0.9-0.7c0.4-0.2,0.8-0.3,1.3-0.3c0.5,0,0.9,0.1,1.3,0.3s0.7,0.4,0.9,0.7
		c0.3,0.3,0.4,0.6,0.6,1s0.2,0.8,0.2,1.3c0,0.5-0.1,0.9-0.2,1.3c-0.1,0.4-0.3,0.7-0.6,1c-0.3,0.3-0.6,0.5-0.9,0.7
		c-0.4,0.2-0.8,0.2-1.3,0.2c-0.5,0-0.9-0.1-1.3-0.2c-0.4-0.2-0.7-0.4-0.9-0.7s-0.4-0.6-0.6-1c-0.1-0.4-0.2-0.8-0.2-1.3
		C179.1,209,179.1,208.6,179.3,208.2z M180.3,210.5c0.1,0.3,0.2,0.5,0.4,0.7c0.2,0.2,0.4,0.3,0.6,0.4c0.2,0.1,0.5,0.2,0.8,0.2
		c0.3,0,0.5-0.1,0.8-0.2c0.2-0.1,0.4-0.3,0.6-0.4c0.2-0.2,0.3-0.4,0.4-0.7c0.1-0.3,0.2-0.6,0.2-1c0-0.4,0-0.7-0.2-1
		c-0.1-0.3-0.2-0.5-0.4-0.7c-0.2-0.2-0.4-0.4-0.6-0.5c-0.2-0.1-0.5-0.2-0.8-0.2c-0.3,0-0.5,0.1-0.8,0.2c-0.2,0.1-0.4,0.3-0.6,0.5
		c-0.2,0.2-0.3,0.4-0.4,0.7c-0.1,0.3-0.2,0.6-0.2,1C180.2,209.9,180.2,210.2,180.3,210.5z"/>
	<path d="M187.1,211.2c0.1,0.2,0.2,0.3,0.4,0.4c0.2,0.1,0.3,0.2,0.5,0.2s0.4,0.1,0.6,0.1c0.2,0,0.3,0,0.5,0c0.2,0,0.3-0.1,0.5-0.1
		c0.1-0.1,0.3-0.2,0.4-0.3s0.1-0.3,0.1-0.5c0-0.3-0.1-0.5-0.3-0.6c-0.2-0.1-0.5-0.2-0.8-0.3s-0.6-0.2-1-0.2c-0.4-0.1-0.7-0.2-1-0.3
		s-0.5-0.3-0.8-0.5s-0.3-0.5-0.3-0.9c0-0.3,0.1-0.6,0.2-0.8c0.1-0.2,0.3-0.4,0.5-0.5c0.2-0.1,0.5-0.2,0.7-0.3
		c0.3-0.1,0.5-0.1,0.8-0.1c0.4,0,0.7,0,1,0.1c0.3,0.1,0.6,0.2,0.8,0.3c0.2,0.1,0.4,0.3,0.5,0.6s0.2,0.6,0.2,0.9h-1
		c0-0.2-0.1-0.4-0.2-0.5c-0.1-0.1-0.2-0.2-0.3-0.3c-0.1-0.1-0.3-0.1-0.4-0.2c-0.2,0-0.3-0.1-0.5-0.1c-0.2,0-0.3,0-0.5,0
		c-0.2,0-0.3,0.1-0.4,0.1s-0.2,0.1-0.3,0.2s-0.1,0.2-0.1,0.4c0,0.2,0.1,0.3,0.2,0.4c0.1,0.1,0.3,0.2,0.5,0.3
		c0.2,0.1,0.4,0.1,0.6,0.2c0.2,0.1,0.5,0.1,0.7,0.2c0.3,0.1,0.5,0.1,0.8,0.2c0.2,0.1,0.5,0.2,0.6,0.3c0.2,0.1,0.3,0.3,0.5,0.5
		c0.1,0.2,0.2,0.4,0.2,0.7c0,0.4-0.1,0.7-0.2,0.9c-0.2,0.2-0.4,0.4-0.6,0.6s-0.5,0.3-0.9,0.3c-0.3,0.1-0.6,0.1-0.9,0.1
		c-0.3,0-0.7,0-1-0.1c-0.3-0.1-0.6-0.2-0.8-0.4c-0.2-0.2-0.4-0.4-0.6-0.6c-0.1-0.3-0.2-0.6-0.2-1h1
		C186.9,210.9,187,211.1,187.1,211.2z"/>
	<path d="M195,206.4v0.9h-1.2v3.9c0,0.1,0,0.2,0,0.3c0,0.1,0.1,0.1,0.1,0.2c0.1,0,0.1,0.1,0.2,0.1c0.1,0,0.2,0,0.4,0h0.5v0.9h-0.8
		c-0.3,0-0.5,0-0.7-0.1c-0.2,0-0.3-0.1-0.5-0.2s-0.2-0.2-0.3-0.4c-0.1-0.2-0.1-0.4-0.1-0.7v-3.9h-1.1v-0.9h1.1v-1.9h1v1.9H195z"/>
	<path d="M196.3,207.7v-1.3h1.3v1.3H196.3z M197.6,211.3v1.3h-1.3v-1.3H197.6z"/>
	<path d="M199.6,205.3c0.1-0.3,0.3-0.5,0.6-0.7c0.2-0.2,0.5-0.3,0.8-0.4c0.3-0.1,0.6-0.1,0.9-0.1c0.5,0,0.9,0.1,1.2,0.2
		s0.6,0.3,0.8,0.5s0.4,0.4,0.5,0.7c0.1,0.3,0.1,0.5,0.1,0.8c0,0.4-0.1,0.7-0.3,1c-0.2,0.3-0.5,0.6-0.9,0.7c0.5,0.2,0.9,0.4,1.1,0.8
		c0.2,0.4,0.4,0.8,0.4,1.3c0,0.4-0.1,0.8-0.2,1.1c-0.1,0.3-0.3,0.6-0.6,0.8c-0.3,0.2-0.5,0.4-0.9,0.5c-0.3,0.1-0.7,0.2-1.1,0.2
		c-0.4,0-0.8-0.1-1.1-0.2c-0.4-0.1-0.7-0.3-0.9-0.5c-0.3-0.2-0.5-0.5-0.6-0.8c-0.1-0.3-0.2-0.7-0.2-1.1c0-0.5,0.1-0.9,0.4-1.3
		c0.3-0.4,0.6-0.6,1.1-0.8c-0.4-0.1-0.6-0.4-0.9-0.7c-0.2-0.3-0.3-0.7-0.3-1.1C199.4,205.9,199.5,205.6,199.6,205.3z M200.7,211.4
		c0.3,0.3,0.8,0.4,1.3,0.4c0.3,0,0.5,0,0.7-0.1s0.4-0.2,0.6-0.3s0.3-0.3,0.4-0.5c0.1-0.2,0.1-0.4,0.1-0.7c0-0.2,0-0.4-0.1-0.6
		c-0.1-0.2-0.2-0.4-0.4-0.5s-0.3-0.3-0.6-0.3c-0.2-0.1-0.4-0.1-0.7-0.1c-0.2,0-0.5,0-0.7,0.1c-0.2,0.1-0.4,0.2-0.6,0.3
		s-0.3,0.3-0.4,0.5c-0.1,0.2-0.1,0.4-0.1,0.7C200.2,210.7,200.4,211.1,200.7,211.4z M200.6,206.9c0.1,0.2,0.2,0.3,0.3,0.4
		c0.1,0.1,0.3,0.2,0.5,0.3c0.2,0.1,0.4,0.1,0.6,0.1c0.4,0,0.7-0.1,1-0.4s0.4-0.6,0.4-1c0-0.4-0.1-0.8-0.4-1c-0.3-0.2-0.6-0.3-1-0.3
		c-0.2,0-0.4,0-0.6,0.1c-0.2,0.1-0.3,0.1-0.5,0.3c-0.1,0.1-0.2,0.2-0.3,0.4c-0.1,0.2-0.1,0.3-0.1,0.6
		C200.5,206.5,200.6,206.7,200.6,206.9z"/>
	<path d="M205.9,207.5c0-0.3,0.1-0.7,0.1-1c0.1-0.3,0.2-0.6,0.3-0.9s0.3-0.5,0.5-0.8c0.2-0.2,0.5-0.4,0.8-0.5
		c0.3-0.1,0.7-0.2,1.1-0.2c0.4,0,0.8,0.1,1.1,0.2c0.3,0.1,0.6,0.3,0.8,0.5c0.2,0.2,0.4,0.5,0.5,0.8s0.2,0.6,0.3,0.9
		c0.1,0.3,0.1,0.6,0.1,1c0,0.3,0,0.7,0,1s0,0.6,0,1c0,0.3-0.1,0.7-0.1,1c-0.1,0.3-0.2,0.6-0.3,0.9c-0.1,0.3-0.3,0.5-0.5,0.8
		s-0.5,0.4-0.8,0.5c-0.3,0.1-0.7,0.2-1.1,0.2c-0.4,0-0.8-0.1-1.1-0.2c-0.3-0.1-0.6-0.3-0.8-0.5s-0.4-0.5-0.5-0.8
		c-0.1-0.3-0.2-0.6-0.3-0.9c-0.1-0.3-0.1-0.6-0.1-1c0-0.3,0-0.7,0-1S205.8,207.8,205.9,207.5z M206.9,209.5c0,0.4,0.1,0.8,0.2,1.1
		c0.1,0.3,0.3,0.6,0.5,0.9c0.2,0.2,0.6,0.4,1,0.4s0.8-0.1,1-0.4c0.2-0.2,0.4-0.5,0.5-0.9c0.1-0.3,0.2-0.7,0.2-1.1c0-0.4,0-0.8,0-1.1
		c0-0.2,0-0.4,0-0.7s0-0.5-0.1-0.8c0-0.3-0.1-0.5-0.2-0.7c-0.1-0.2-0.2-0.4-0.3-0.6c-0.1-0.2-0.3-0.3-0.5-0.4
		c-0.2-0.1-0.4-0.2-0.7-0.2s-0.5,0.1-0.7,0.2c-0.2,0.1-0.4,0.3-0.5,0.4c-0.1,0.2-0.2,0.4-0.3,0.6c-0.1,0.2-0.1,0.5-0.2,0.7
		c0,0.3-0.1,0.5-0.1,0.8s0,0.5,0,0.7C206.9,208.7,206.9,209.1,206.9,209.5z"/>
	<path d="M213,205.3c0.1-0.3,0.3-0.5,0.6-0.7c0.2-0.2,0.5-0.3,0.8-0.4c0.3-0.1,0.6-0.1,0.9-0.1c0.5,0,0.9,0.1,1.2,0.2
		s0.6,0.3,0.8,0.5s0.4,0.4,0.5,0.7c0.1,0.3,0.1,0.5,0.1,0.8c0,0.4-0.1,0.7-0.3,1c-0.2,0.3-0.5,0.6-0.9,0.7c0.5,0.2,0.9,0.4,1.1,0.8
		c0.2,0.4,0.4,0.8,0.4,1.3c0,0.4-0.1,0.8-0.2,1.1c-0.1,0.3-0.3,0.6-0.6,0.8c-0.3,0.2-0.5,0.4-0.9,0.5c-0.3,0.1-0.7,0.2-1.1,0.2
		c-0.4,0-0.8-0.1-1.1-0.2c-0.4-0.1-0.7-0.3-0.9-0.5c-0.3-0.2-0.5-0.5-0.6-0.8c-0.1-0.3-0.2-0.7-0.2-1.1c0-0.5,0.1-0.9,0.4-1.3
		c0.3-0.4,0.6-0.6,1.1-0.8c-0.4-0.1-0.6-0.4-0.9-0.7c-0.2-0.3-0.3-0.7-0.3-1.1C212.8,205.9,212.8,205.6,213,205.3z M214.1,211.4
		c0.3,0.3,0.8,0.4,1.3,0.4c0.3,0,0.5,0,0.7-0.1s0.4-0.2,0.6-0.3s0.3-0.3,0.4-0.5c0.1-0.2,0.1-0.4,0.1-0.7c0-0.2,0-0.4-0.1-0.6
		c-0.1-0.2-0.2-0.4-0.4-0.5s-0.3-0.3-0.6-0.3c-0.2-0.1-0.4-0.1-0.7-0.1c-0.2,0-0.5,0-0.7,0.1c-0.2,0.1-0.4,0.2-0.6,0.3
		s-0.3,0.3-0.4,0.5c-0.1,0.2-0.1,0.4-0.1,0.7C213.6,210.7,213.7,211.1,214.1,211.4z M214,206.9c0.1,0.2,0.2,0.3,0.3,0.4
		c0.1,0.1,0.3,0.2,0.5,0.3c0.2,0.1,0.4,0.1,0.6,0.1c0.4,0,0.7-0.1,1-0.4s0.4-0.6,0.4-1c0-0.4-0.1-0.8-0.4-1c-0.3-0.2-0.6-0.3-1-0.3
		c-0.2,0-0.4,0-0.6,0.1c-0.2,0.1-0.3,0.1-0.5,0.3c-0.1,0.1-0.2,0.2-0.3,0.4c-0.1,0.2-0.1,0.3-0.1,0.6
		C213.9,206.5,213.9,206.7,214,206.9z"/>
	<path d="M219.3,205.9c0.1-0.4,0.3-0.7,0.5-1c0.2-0.3,0.5-0.5,0.9-0.6c0.4-0.2,0.8-0.2,1.2-0.2c0.4,0,0.7,0.1,1,0.2
		c0.3,0.1,0.6,0.3,0.8,0.5c0.2,0.2,0.4,0.5,0.6,0.8c0.1,0.3,0.2,0.7,0.2,1.1c0,0.4-0.1,0.7-0.2,1s-0.3,0.5-0.5,0.8s-0.4,0.4-0.7,0.6
		s-0.5,0.4-0.8,0.5c-0.3,0.2-0.5,0.3-0.8,0.5c-0.3,0.2-0.5,0.3-0.7,0.5c-0.2,0.2-0.4,0.4-0.6,0.6s-0.3,0.4-0.3,0.7h4.4v0.9H219
		c0-0.5,0.1-0.9,0.3-1.3c0.1-0.4,0.3-0.7,0.5-0.9c0.2-0.3,0.5-0.5,0.7-0.7c0.3-0.2,0.6-0.4,0.9-0.6c0.4-0.2,0.7-0.4,0.9-0.6
		c0.3-0.2,0.5-0.4,0.7-0.6c0.2-0.2,0.3-0.4,0.4-0.6s0.1-0.5,0.1-0.8c0-0.2,0-0.4-0.1-0.6c-0.1-0.2-0.2-0.3-0.4-0.5
		c-0.1-0.1-0.3-0.2-0.5-0.3s-0.4-0.1-0.6-0.1c-0.3,0-0.5,0.1-0.8,0.2c-0.2,0.1-0.4,0.3-0.5,0.5c-0.1,0.2-0.2,0.4-0.3,0.7
		s-0.1,0.5-0.1,0.8h-1C219.2,206.7,219.2,206.3,219.3,205.9z"/>
	<path d="M229.6,203.8l-3.6,9h-0.9l3.5-9H229.6z"/>
	<path d="M231.2,204v3.2h0c0.2-0.3,0.4-0.6,0.8-0.8c0.4-0.2,0.8-0.2,1.2-0.2c0.5,0,0.9,0.1,1.3,0.3c0.4,0.2,0.7,0.4,0.9,0.7
		c0.2,0.3,0.4,0.6,0.5,1c0.1,0.4,0.2,0.8,0.2,1.2s-0.1,0.9-0.2,1.2s-0.3,0.7-0.5,1c-0.2,0.3-0.5,0.5-0.9,0.7
		c-0.4,0.2-0.8,0.3-1.2,0.3c-0.2,0-0.3,0-0.5,0c-0.2,0-0.4-0.1-0.6-0.2c-0.2-0.1-0.4-0.2-0.5-0.3c-0.2-0.1-0.3-0.3-0.4-0.5h0v0.8h-1
		V204H231.2z M234.8,208.6c-0.1-0.3-0.2-0.5-0.3-0.7c-0.2-0.2-0.4-0.4-0.6-0.5s-0.5-0.2-0.9-0.2c-0.3,0-0.6,0.1-0.9,0.2
		c-0.2,0.1-0.4,0.3-0.6,0.5c-0.2,0.2-0.3,0.5-0.3,0.8c-0.1,0.3-0.1,0.6-0.1,0.9c0,0.3,0,0.6,0.1,0.9c0.1,0.3,0.2,0.5,0.3,0.8
		c0.2,0.2,0.4,0.4,0.6,0.5c0.2,0.1,0.5,0.2,0.9,0.2c0.4,0,0.6-0.1,0.9-0.2c0.2-0.1,0.4-0.3,0.6-0.5c0.1-0.2,0.2-0.5,0.3-0.8
		c0.1-0.3,0.1-0.6,0.1-0.9C234.9,209.2,234.9,208.9,234.8,208.6z"/>
	<path d="M240.5,207.3H237v-0.9h4.8v0.7l-3.8,4.6h4v0.9h-5.2v-0.8L240.5,207.3z"/>
	<path d="M246.2,207.3h-3.5v-0.9h4.8v0.7l-3.8,4.6h4v0.9h-5.2v-0.8L246.2,207.3z"/>
	<path d="M252.2,203.8l-3.6,9h-0.9l3.5-9H252.2z"/>
	<path d="M252.1,207.3v-0.9h1v-0.9c0-0.5,0.1-0.9,0.4-1.1s0.7-0.4,1.3-0.4c0.1,0,0.2,0,0.3,0c0.1,0,0.2,0,0.3,0.1v0.9
		c-0.1,0-0.2-0.1-0.3-0.1c-0.1,0-0.2,0-0.3,0c-0.2,0-0.4,0-0.6,0.1c-0.1,0.1-0.2,0.3-0.2,0.6v0.9h1.2v0.9h-1.2v5.3h-1v-5.3H252.1z"
		/>
	<path d="M260.7,212.2c-0.5,0.4-1,0.5-1.8,0.5c-0.5,0-0.9-0.1-1.3-0.2c-0.4-0.2-0.7-0.4-0.9-0.7c-0.2-0.3-0.4-0.6-0.6-1
		s-0.2-0.8-0.2-1.3c0-0.5,0.1-0.9,0.2-1.3c0.1-0.4,0.3-0.7,0.6-1s0.6-0.5,0.9-0.7c0.4-0.2,0.7-0.2,1.2-0.2c0.6,0,1,0.1,1.4,0.3
		s0.7,0.5,0.9,0.9c0.2,0.4,0.4,0.7,0.5,1.2s0.1,0.8,0.1,1.2H257c0,0.3,0,0.5,0.1,0.8c0.1,0.2,0.2,0.5,0.3,0.6s0.4,0.3,0.6,0.5
		c0.2,0.1,0.5,0.2,0.9,0.2c0.4,0,0.8-0.1,1.1-0.3c0.3-0.2,0.5-0.5,0.5-0.9h1C261.4,211.3,261.1,211.9,260.7,212.2z M260.4,208.2
		c-0.1-0.2-0.2-0.4-0.4-0.6c-0.2-0.2-0.3-0.3-0.6-0.4c-0.2-0.1-0.4-0.1-0.7-0.1c-0.3,0-0.5,0-0.7,0.1c-0.2,0.1-0.4,0.2-0.5,0.4
		c-0.2,0.2-0.3,0.3-0.4,0.6s-0.1,0.4-0.2,0.7h3.6C260.6,208.7,260.5,208.4,260.4,208.2z"/>
	<path d="M266.5,205.3c-0.2-0.2-0.6-0.3-1-0.3c-0.4,0-0.8,0.1-1,0.3s-0.5,0.5-0.6,0.8c-0.1,0.3-0.2,0.7-0.3,1
		c-0.1,0.4-0.1,0.7-0.1,1.1l0,0c0.2-0.4,0.5-0.7,0.9-0.9c0.4-0.2,0.8-0.3,1.2-0.3c0.4,0,0.8,0.1,1.1,0.2c0.3,0.1,0.6,0.3,0.8,0.6
		c0.2,0.2,0.4,0.5,0.5,0.9c0.1,0.3,0.2,0.7,0.2,1.1c0,0.3,0,0.6-0.1,1c-0.1,0.3-0.3,0.6-0.5,0.9c-0.2,0.3-0.5,0.5-0.9,0.7
		c-0.4,0.2-0.8,0.3-1.4,0.3c-0.6,0-1.1-0.1-1.5-0.4c-0.4-0.3-0.7-0.6-0.9-1s-0.3-0.8-0.4-1.3c-0.1-0.5-0.1-0.9-0.1-1.4
		c0-0.6,0-1.1,0.2-1.7c0.1-0.5,0.3-1,0.5-1.5c0.2-0.4,0.6-0.8,1-1c0.4-0.3,0.9-0.4,1.5-0.4c0.7,0,1.3,0.2,1.7,0.6
		c0.4,0.4,0.7,0.9,0.7,1.6h-1C266.9,205.9,266.7,205.6,266.5,205.3z M264.6,208.2c-0.2,0.1-0.4,0.2-0.6,0.4
		c-0.2,0.2-0.3,0.4-0.3,0.6s-0.1,0.5-0.1,0.8c0,0.3,0,0.5,0.1,0.7c0.1,0.2,0.2,0.4,0.3,0.6s0.3,0.3,0.6,0.4c0.2,0.1,0.5,0.1,0.8,0.1
		c0.3,0,0.5,0,0.7-0.1s0.4-0.2,0.5-0.4c0.1-0.2,0.3-0.4,0.3-0.6c0.1-0.2,0.1-0.5,0.1-0.7c0-0.3,0-0.5-0.1-0.8
		c-0.1-0.2-0.2-0.4-0.3-0.6c-0.1-0.2-0.3-0.3-0.5-0.4c-0.2-0.1-0.5-0.2-0.8-0.2S264.9,208.1,264.6,208.2z"/>
	<path d="M273.9,212.6v-0.8h0c-0.2,0.3-0.4,0.6-0.8,0.7c-0.4,0.2-0.8,0.2-1.2,0.2c-0.5,0-0.9-0.1-1.3-0.3c-0.4-0.2-0.7-0.4-0.9-0.7
		c-0.2-0.3-0.4-0.6-0.5-1c-0.1-0.4-0.2-0.8-0.2-1.2s0.1-0.9,0.2-1.2c0.1-0.4,0.3-0.7,0.5-1s0.5-0.5,0.9-0.7c0.4-0.2,0.8-0.3,1.2-0.3
		c0.2,0,0.3,0,0.5,0c0.2,0,0.4,0.1,0.6,0.2c0.2,0.1,0.4,0.2,0.5,0.3s0.3,0.3,0.4,0.5h0V204h1v8.6H273.9z M270.3,210.4
		c0.1,0.3,0.2,0.5,0.3,0.7c0.2,0.2,0.4,0.4,0.6,0.5c0.2,0.1,0.5,0.2,0.9,0.2c0.3,0,0.6-0.1,0.9-0.2c0.2-0.1,0.4-0.3,0.6-0.5
		c0.2-0.2,0.3-0.5,0.3-0.8c0.1-0.3,0.1-0.6,0.1-0.9c0-0.3,0-0.6-0.1-0.9c-0.1-0.3-0.2-0.5-0.3-0.8s-0.4-0.4-0.6-0.5
		c-0.2-0.1-0.5-0.2-0.9-0.2c-0.3,0-0.6,0.1-0.9,0.2c-0.2,0.1-0.4,0.3-0.6,0.5c-0.1,0.2-0.2,0.5-0.3,0.8c-0.1,0.3-0.1,0.6-0.1,0.9
		C270.1,209.8,270.2,210.1,270.3,210.4z"/>
	<path d="M276.4,205.9c0.1-0.4,0.3-0.7,0.5-1c0.2-0.3,0.5-0.5,0.9-0.6c0.4-0.2,0.8-0.2,1.2-0.2c0.4,0,0.7,0.1,1,0.2
		c0.3,0.1,0.6,0.3,0.8,0.5c0.2,0.2,0.4,0.5,0.6,0.8c0.1,0.3,0.2,0.7,0.2,1.1c0,0.4-0.1,0.7-0.2,1s-0.3,0.5-0.5,0.8s-0.4,0.4-0.7,0.6
		s-0.5,0.4-0.8,0.5c-0.3,0.2-0.5,0.3-0.8,0.5c-0.3,0.2-0.5,0.3-0.7,0.5c-0.2,0.2-0.4,0.4-0.6,0.6s-0.3,0.4-0.3,0.7h4.4v0.9H276
		c0-0.5,0.1-0.9,0.3-1.3c0.1-0.4,0.3-0.7,0.5-0.9c0.2-0.3,0.5-0.5,0.7-0.7c0.3-0.2,0.6-0.4,0.9-0.6c0.4-0.2,0.7-0.4,0.9-0.6
		c0.3-0.2,0.5-0.4,0.7-0.6c0.2-0.2,0.3-0.4,0.4-0.6s0.1-0.5,0.1-0.8c0-0.2,0-0.4-0.1-0.6c-0.1-0.2-0.2-0.3-0.4-0.5
		c-0.1-0.1-0.3-0.2-0.5-0.3s-0.4-0.1-0.6-0.1c-0.3,0-0.5,0.1-0.8,0.2c-0.2,0.1-0.4,0.3-0.5,0.5c-0.1,0.2-0.2,0.4-0.3,0.7
		s-0.1,0.5-0.1,0.8h-1C276.3,206.7,276.3,206.3,276.4,205.9z"/>
	<path d="M282.6,207.3v-0.9h1v-0.9c0-0.5,0.1-0.9,0.4-1.1s0.7-0.4,1.3-0.4c0.1,0,0.2,0,0.3,0c0.1,0,0.2,0,0.3,0.1v0.9
		c-0.1,0-0.2-0.1-0.3-0.1c-0.1,0-0.2,0-0.3,0c-0.2,0-0.4,0-0.6,0.1c-0.1,0.1-0.2,0.3-0.2,0.6v0.9h1.2v0.9h-1.2v5.3h-1v-5.3H282.6z"
		/>
	<path d="M287.8,204v3.2h0c0.2-0.3,0.4-0.6,0.8-0.8c0.4-0.2,0.8-0.2,1.2-0.2c0.5,0,0.9,0.1,1.3,0.3c0.4,0.2,0.7,0.4,0.9,0.7
		c0.2,0.3,0.4,0.6,0.5,1c0.1,0.4,0.2,0.8,0.2,1.2s-0.1,0.9-0.2,1.2s-0.3,0.7-0.5,1c-0.2,0.3-0.5,0.5-0.9,0.7
		c-0.4,0.2-0.8,0.3-1.2,0.3c-0.2,0-0.3,0-0.5,0c-0.2,0-0.4-0.1-0.6-0.2c-0.2-0.1-0.4-0.2-0.5-0.3c-0.2-0.1-0.3-0.3-0.4-0.5h0v0.8h-1
		V204H287.8z M291.5,208.6c-0.1-0.3-0.2-0.5-0.3-0.7c-0.2-0.2-0.4-0.4-0.6-0.5s-0.5-0.2-0.9-0.2c-0.3,0-0.6,0.1-0.9,0.2
		c-0.2,0.1-0.4,0.3-0.6,0.5c-0.2,0.2-0.3,0.5-0.3,0.8c-0.1,0.3-0.1,0.6-0.1,0.9c0,0.3,0,0.6,0.1,0.9c0.1,0.3,0.2,0.5,0.3,0.8
		c0.2,0.2,0.4,0.4,0.6,0.5c0.2,0.1,0.5,0.2,0.9,0.2c0.4,0,0.6-0.1,0.9-0.2c0.2-0.1,0.4-0.3,0.6-0.5c0.1-0.2,0.2-0.5,0.3-0.8
		c0.1-0.3,0.1-0.6,0.1-0.9C291.6,209.2,291.5,208.9,291.5,208.6z"/>
	<path d="M299.4,212.6c-0.2,0.1-0.4,0.2-0.7,0.2c-0.3,0-0.5-0.1-0.6-0.2c-0.2-0.1-0.2-0.4-0.2-0.7c-0.3,0.3-0.6,0.6-1,0.7
		c-0.4,0.1-0.8,0.2-1.2,0.2c-0.3,0-0.5,0-0.8-0.1c-0.3-0.1-0.5-0.2-0.7-0.3c-0.2-0.1-0.3-0.3-0.4-0.5c-0.1-0.2-0.2-0.5-0.2-0.8
		c0-0.4,0.1-0.6,0.2-0.9s0.3-0.4,0.5-0.5s0.4-0.2,0.7-0.3c0.3-0.1,0.5-0.1,0.8-0.2c0.3-0.1,0.5-0.1,0.8-0.1s0.5-0.1,0.7-0.1
		c0.2-0.1,0.3-0.1,0.5-0.2c0.1-0.1,0.2-0.2,0.2-0.4c0-0.2,0-0.4-0.1-0.5c-0.1-0.1-0.2-0.2-0.3-0.3c-0.1-0.1-0.3-0.1-0.4-0.1
		s-0.3,0-0.5,0c-0.4,0-0.8,0.1-1.1,0.2c-0.3,0.2-0.4,0.5-0.5,0.9h-1c0-0.4,0.1-0.7,0.2-1c0.1-0.3,0.3-0.5,0.6-0.6
		c0.2-0.2,0.5-0.3,0.8-0.4c0.3-0.1,0.6-0.1,1-0.1c0.3,0,0.6,0,0.8,0.1c0.3,0,0.5,0.1,0.8,0.2c0.2,0.1,0.4,0.3,0.5,0.5
		c0.1,0.2,0.2,0.5,0.2,0.9v3.2c0,0.2,0,0.4,0,0.5s0.1,0.2,0.3,0.2c0.1,0,0.2,0,0.3-0.1V212.6z M297.7,209.4
		c-0.1,0.1-0.3,0.2-0.5,0.2s-0.4,0.1-0.7,0.1c-0.2,0-0.5,0.1-0.7,0.1c-0.2,0-0.4,0.1-0.6,0.2c-0.2,0.1-0.3,0.2-0.5,0.3
		c-0.1,0.1-0.2,0.4-0.2,0.6c0,0.2,0,0.3,0.1,0.4c0.1,0.1,0.2,0.2,0.3,0.3c0.1,0.1,0.2,0.1,0.4,0.2c0.1,0,0.3,0,0.5,0
		c0.3,0,0.6,0,0.9-0.1c0.2-0.1,0.4-0.2,0.6-0.3c0.2-0.1,0.3-0.3,0.3-0.5s0.1-0.3,0.1-0.5V209.4z"/>
	<path d="M299.7,207.3v-0.9h1v-0.9c0-0.5,0.1-0.9,0.4-1.1s0.7-0.4,1.3-0.4c0.1,0,0.2,0,0.3,0c0.1,0,0.2,0,0.3,0.1v0.9
		c-0.1,0-0.2-0.1-0.3-0.1c-0.1,0-0.2,0-0.3,0c-0.2,0-0.4,0-0.6,0.1c-0.1,0.1-0.2,0.3-0.2,0.6v0.9h1.2v0.9h-1.2v5.3h-1v-5.3H299.7z"
		/>
	<path d="M304.9,204v3.2h0c0.2-0.3,0.4-0.6,0.8-0.8c0.4-0.2,0.8-0.2,1.2-0.2c0.5,0,0.9,0.1,1.3,0.3c0.4,0.2,0.7,0.4,0.9,0.7
		c0.2,0.3,0.4,0.6,0.5,1c0.1,0.4,0.2,0.8,0.2,1.2s-0.1,0.9-0.2,1.2s-0.3,0.7-0.5,1c-0.2,0.3-0.5,0.5-0.9,0.7
		c-0.4,0.2-0.8,0.3-1.2,0.3c-0.2,0-0.3,0-0.5,0c-0.2,0-0.4-0.1-0.6-0.2c-0.2-0.1-0.4-0.2-0.5-0.3c-0.2-0.1-0.3-0.3-0.4-0.5h0v0.8h-1
		V204H304.9z M308.6,208.6c-0.1-0.3-0.2-0.5-0.3-0.7c-0.2-0.2-0.4-0.4-0.6-0.5s-0.5-0.2-0.9-0.2c-0.3,0-0.6,0.1-0.9,0.2
		c-0.2,0.1-0.4,0.3-0.6,0.5c-0.2,0.2-0.3,0.5-0.3,0.8c-0.1,0.3-0.1,0.6-0.1,0.9c0,0.3,0,0.6,0.1,0.9c0.1,0.3,0.2,0.5,0.3,0.8
		c0.2,0.2,0.4,0.4,0.6,0.5c0.2,0.1,0.5,0.2,0.9,0.2c0.4,0,0.6-0.1,0.9-0.2c0.2-0.1,0.4-0.3,0.6-0.5c0.1-0.2,0.2-0.5,0.3-0.8
		c0.1-0.3,0.1-0.6,0.1-0.9C308.7,209.2,308.7,208.9,308.6,208.6z"/>
	<path d="M315.5,212.6v-0.8h0c-0.2,0.3-0.4,0.6-0.8,0.7c-0.4,0.2-0.8,0.2-1.2,0.2c-0.5,0-0.9-0.1-1.3-0.3c-0.4-0.2-0.7-0.4-0.9-0.7
		c-0.2-0.3-0.4-0.6-0.5-1c-0.1-0.4-0.2-0.8-0.2-1.2s0.1-0.9,0.2-1.2c0.1-0.4,0.3-0.7,0.5-1s0.5-0.5,0.9-0.7c0.4-0.2,0.8-0.3,1.2-0.3
		c0.2,0,0.3,0,0.5,0c0.2,0,0.4,0.1,0.6,0.2c0.2,0.1,0.4,0.2,0.5,0.3s0.3,0.3,0.4,0.5h0V204h1v8.6H315.5z M311.8,210.4
		c0.1,0.3,0.2,0.5,0.3,0.7c0.2,0.2,0.4,0.4,0.6,0.5c0.2,0.1,0.5,0.2,0.9,0.2c0.3,0,0.6-0.1,0.9-0.2c0.2-0.1,0.4-0.3,0.6-0.5
		c0.2-0.2,0.3-0.5,0.3-0.8c0.1-0.3,0.1-0.6,0.1-0.9c0-0.3,0-0.6-0.1-0.9c-0.1-0.3-0.2-0.5-0.3-0.8s-0.4-0.4-0.6-0.5
		c-0.2-0.1-0.5-0.2-0.9-0.2c-0.3,0-0.6,0.1-0.9,0.2c-0.2,0.1-0.4,0.3-0.6,0.5c-0.1,0.2-0.2,0.5-0.3,0.8c-0.1,0.3-0.1,0.6-0.1,0.9
		C311.7,209.8,311.8,210.1,311.8,210.4z"/>
	<path d="M320.6,212.6v-6.1h-2.2v-0.8c0.3,0,0.6,0,0.8-0.1c0.3,0,0.5-0.1,0.7-0.2s0.4-0.3,0.6-0.5c0.2-0.2,0.3-0.5,0.3-0.8h0.8v8.5
		H320.6z"/>
	<path d="M328.9,206.6c-0.4,0.6-0.7,1.2-1,1.9s-0.5,1.3-0.7,2.1c-0.2,0.7-0.3,1.4-0.3,2.1h-1.1c0-0.7,0.2-1.4,0.4-2.1
		c0.2-0.7,0.4-1.3,0.7-2c0.3-0.6,0.6-1.2,1-1.8c0.4-0.6,0.8-1.1,1.3-1.5h-4.5v-1h5.5v0.9C329.7,205.5,329.3,206,328.9,206.6z"/>
	<path d="M332.8,211.5c0.3,0.2,0.6,0.3,1.1,0.3c0.6,0,1.1-0.3,1.4-0.8c0.3-0.5,0.5-1.4,0.5-2.5l0,0c-0.2,0.4-0.5,0.6-0.8,0.9
		c-0.4,0.2-0.7,0.3-1.2,0.3c-0.4,0-0.8-0.1-1.2-0.2c-0.3-0.1-0.6-0.3-0.8-0.6c-0.2-0.2-0.4-0.5-0.5-0.9s-0.2-0.7-0.2-1.2
		c0-0.4,0.1-0.8,0.2-1.1c0.1-0.3,0.3-0.6,0.6-0.9c0.2-0.2,0.5-0.4,0.9-0.6c0.3-0.1,0.7-0.2,1.1-0.2c0.4,0,0.8,0.1,1.1,0.2
		c0.4,0.1,0.7,0.3,0.9,0.6c0.3,0.3,0.5,0.7,0.6,1.2c0.2,0.5,0.2,1.2,0.2,2c0,1.5-0.2,2.6-0.7,3.4s-1.2,1.2-2.2,1.2
		c-0.7,0-1.3-0.2-1.8-0.5c-0.5-0.4-0.7-0.9-0.8-1.6h1C332.3,211,332.5,211.3,332.8,211.5z M335.5,206.2c-0.1-0.2-0.2-0.4-0.3-0.6
		c-0.1-0.2-0.3-0.3-0.5-0.4c-0.2-0.1-0.5-0.2-0.8-0.2c-0.3,0-0.6,0.1-0.8,0.2c-0.2,0.1-0.4,0.3-0.5,0.4c-0.1,0.2-0.2,0.4-0.3,0.6
		c-0.1,0.2-0.1,0.5-0.1,0.8c0,0.2,0,0.5,0.1,0.7c0.1,0.2,0.2,0.4,0.3,0.6c0.1,0.2,0.3,0.3,0.5,0.4s0.4,0.1,0.7,0.1
		c0.3,0,0.5,0,0.7-0.1s0.4-0.2,0.6-0.4c0.2-0.2,0.3-0.4,0.3-0.6s0.1-0.5,0.1-0.7C335.6,206.7,335.5,206.4,335.5,206.2z"/>
	<path d="M340.6,212.6v-6.1h-2.2v-0.8c0.3,0,0.6,0,0.8-0.1c0.3,0,0.5-0.1,0.7-0.2s0.4-0.3,0.6-0.5c0.2-0.2,0.3-0.5,0.3-0.8h0.8v8.5
		H340.6z"/>
	<path d="M346.7,207.8c0,0,0.1,0,0.1,0h0.2c0.2,0,0.4,0,0.6-0.1s0.4-0.1,0.5-0.3c0.1-0.1,0.3-0.3,0.4-0.4c0.1-0.2,0.1-0.4,0.1-0.6
		c0-0.5-0.1-0.8-0.4-1s-0.6-0.3-1.1-0.3c-0.3,0-0.5,0-0.7,0.1s-0.4,0.2-0.5,0.4s-0.2,0.4-0.3,0.6c-0.1,0.2-0.1,0.5-0.1,0.7h-1
		c0-0.4,0.1-0.8,0.2-1.1c0.1-0.3,0.3-0.6,0.5-0.9c0.2-0.2,0.5-0.4,0.8-0.6c0.3-0.1,0.7-0.2,1.1-0.2c0.4,0,0.7,0,1,0.1
		c0.3,0.1,0.6,0.2,0.8,0.4c0.2,0.2,0.4,0.4,0.5,0.7c0.1,0.3,0.2,0.6,0.2,1c0,0.4-0.1,0.7-0.3,1s-0.5,0.5-0.8,0.7v0
		c0.5,0.1,0.9,0.4,1.2,0.7s0.4,0.8,0.4,1.3c0,0.4-0.1,0.8-0.2,1.1c-0.2,0.3-0.4,0.6-0.6,0.8c-0.3,0.2-0.6,0.4-0.9,0.5
		c-0.4,0.1-0.7,0.2-1.1,0.2c-0.4,0-0.8-0.1-1.2-0.2c-0.4-0.1-0.7-0.3-0.9-0.5c-0.2-0.2-0.4-0.5-0.6-0.9c-0.1-0.3-0.2-0.7-0.2-1.2h1
		c0,0.6,0.2,1,0.5,1.4c0.3,0.3,0.7,0.5,1.3,0.5c0.2,0,0.5,0,0.7-0.1c0.2-0.1,0.4-0.2,0.6-0.3s0.3-0.3,0.4-0.5
		c0.1-0.2,0.2-0.4,0.2-0.7c0-0.3,0-0.5-0.1-0.7c-0.1-0.2-0.2-0.4-0.4-0.5c-0.2-0.1-0.3-0.2-0.6-0.3c-0.2-0.1-0.5-0.1-0.7-0.1
		c-0.2,0-0.4,0-0.6,0v-0.9C346.7,207.7,346.7,207.8,346.7,207.8z"/>
	<path d="M355.2,205.3c-0.2-0.2-0.6-0.3-1-0.3c-0.4,0-0.8,0.1-1,0.3s-0.5,0.5-0.6,0.8c-0.1,0.3-0.2,0.7-0.3,1
		c-0.1,0.4-0.1,0.7-0.1,1.1l0,0c0.2-0.4,0.5-0.7,0.9-0.9c0.4-0.2,0.8-0.3,1.2-0.3c0.4,0,0.8,0.1,1.1,0.2c0.3,0.1,0.6,0.3,0.8,0.6
		c0.2,0.2,0.4,0.5,0.5,0.9c0.1,0.3,0.2,0.7,0.2,1.1c0,0.3,0,0.6-0.1,1c-0.1,0.3-0.3,0.6-0.5,0.9c-0.2,0.3-0.5,0.5-0.9,0.7
		c-0.4,0.2-0.8,0.3-1.4,0.3c-0.6,0-1.1-0.1-1.5-0.4c-0.4-0.3-0.7-0.6-0.9-1s-0.3-0.8-0.4-1.3c-0.1-0.5-0.1-0.9-0.1-1.4
		c0-0.6,0-1.1,0.2-1.7c0.1-0.5,0.3-1,0.5-1.5c0.2-0.4,0.6-0.8,1-1c0.4-0.3,0.9-0.4,1.5-0.4c0.7,0,1.3,0.2,1.7,0.6
		c0.4,0.4,0.7,0.9,0.7,1.6h-1C355.6,205.9,355.5,205.6,355.2,205.3z M353.4,208.2c-0.2,0.1-0.4,0.2-0.6,0.4
		c-0.2,0.2-0.3,0.4-0.3,0.6s-0.1,0.5-0.1,0.8c0,0.3,0,0.5,0.1,0.7c0.1,0.2,0.2,0.4,0.3,0.6s0.3,0.3,0.6,0.4c0.2,0.1,0.5,0.1,0.8,0.1
		c0.3,0,0.5,0,0.7-0.1s0.4-0.2,0.5-0.4c0.1-0.2,0.3-0.4,0.3-0.6c0.1-0.2,0.1-0.5,0.1-0.7c0-0.3,0-0.5-0.1-0.8
		c-0.1-0.2-0.2-0.4-0.3-0.6c-0.1-0.2-0.3-0.3-0.5-0.4c-0.2-0.1-0.5-0.2-0.8-0.2S353.6,208.1,353.4,208.2z"/>
	<path d="M358.3,205.3c0.1-0.3,0.3-0.5,0.6-0.7c0.2-0.2,0.5-0.3,0.8-0.4c0.3-0.1,0.6-0.1,0.9-0.1c0.5,0,0.9,0.1,1.2,0.2
		s0.6,0.3,0.8,0.5s0.4,0.4,0.5,0.7c0.1,0.3,0.1,0.5,0.1,0.8c0,0.4-0.1,0.7-0.3,1c-0.2,0.3-0.5,0.6-0.9,0.7c0.5,0.2,0.9,0.4,1.1,0.8
		c0.2,0.4,0.4,0.8,0.4,1.3c0,0.4-0.1,0.8-0.2,1.1c-0.1,0.3-0.3,0.6-0.6,0.8c-0.3,0.2-0.5,0.4-0.9,0.5c-0.3,0.1-0.7,0.2-1.1,0.2
		c-0.4,0-0.8-0.1-1.1-0.2c-0.4-0.1-0.7-0.3-0.9-0.5c-0.3-0.2-0.5-0.5-0.6-0.8c-0.1-0.3-0.2-0.7-0.2-1.1c0-0.5,0.1-0.9,0.4-1.3
		c0.3-0.4,0.6-0.6,1.1-0.8c-0.4-0.1-0.6-0.4-0.9-0.7c-0.2-0.3-0.3-0.7-0.3-1.1C358.1,205.9,358.2,205.6,358.3,205.3z M359.4,211.4
		c0.3,0.3,0.8,0.4,1.3,0.4c0.3,0,0.5,0,0.7-0.1s0.4-0.2,0.6-0.3s0.3-0.3,0.4-0.5c0.1-0.2,0.1-0.4,0.1-0.7c0-0.2,0-0.4-0.1-0.6
		c-0.1-0.2-0.2-0.4-0.4-0.5s-0.3-0.3-0.6-0.3c-0.2-0.1-0.4-0.1-0.7-0.1c-0.2,0-0.5,0-0.7,0.1c-0.2,0.1-0.4,0.2-0.6,0.3
		s-0.3,0.3-0.4,0.5c-0.1,0.2-0.1,0.4-0.1,0.7C358.9,210.7,359.1,211.1,359.4,211.4z M359.3,206.9c0.1,0.2,0.2,0.3,0.3,0.4
		c0.1,0.1,0.3,0.2,0.5,0.3c0.2,0.1,0.4,0.1,0.6,0.1c0.4,0,0.7-0.1,1-0.4s0.4-0.6,0.4-1c0-0.4-0.1-0.8-0.4-1c-0.3-0.2-0.6-0.3-1-0.3
		c-0.2,0-0.4,0-0.6,0.1c-0.2,0.1-0.3,0.1-0.5,0.3c-0.1,0.1-0.2,0.2-0.3,0.4c-0.1,0.2-0.1,0.3-0.1,0.6
		C359.2,206.5,359.3,206.7,359.3,206.9z"/>
	<path d="M367.3,212.6v-6.1h-2.2v-0.8c0.3,0,0.6,0,0.8-0.1c0.3,0,0.5-0.1,0.7-0.2s0.4-0.3,0.6-0.5c0.2-0.2,0.3-0.5,0.3-0.8h0.8v8.5
		H367.3z"/>
	<path d="M376.9,209.7v0.9h-1.2v2h-1v-2H371v-1l3.9-5.5h0.8v5.6H376.9z M374.8,205.5L374.8,205.5l-2.9,4.2h2.9V205.5z"/>
	<path d="M379.5,211.5c0.3,0.2,0.6,0.3,1.1,0.3c0.6,0,1.1-0.3,1.4-0.8c0.3-0.5,0.5-1.4,0.5-2.5l0,0c-0.2,0.4-0.5,0.6-0.8,0.9
		c-0.4,0.2-0.7,0.3-1.2,0.3c-0.4,0-0.8-0.1-1.2-0.2c-0.3-0.1-0.6-0.3-0.8-0.6c-0.2-0.2-0.4-0.5-0.5-0.9s-0.2-0.7-0.2-1.2
		c0-0.4,0.1-0.8,0.2-1.1c0.1-0.3,0.3-0.6,0.6-0.9c0.2-0.2,0.5-0.4,0.9-0.6c0.3-0.1,0.7-0.2,1.1-0.2c0.4,0,0.8,0.1,1.1,0.2
		c0.4,0.1,0.7,0.3,0.9,0.6c0.3,0.3,0.5,0.7,0.6,1.2c0.2,0.5,0.2,1.2,0.2,2c0,1.5-0.2,2.6-0.7,3.4s-1.2,1.2-2.2,1.2
		c-0.7,0-1.3-0.2-1.8-0.5c-0.5-0.4-0.7-0.9-0.8-1.6h1C379,211,379.2,211.3,379.5,211.5z M382.2,206.2c-0.1-0.2-0.2-0.4-0.3-0.6
		c-0.1-0.2-0.3-0.3-0.5-0.4c-0.2-0.1-0.5-0.2-0.8-0.2c-0.3,0-0.6,0.1-0.8,0.2c-0.2,0.1-0.4,0.3-0.5,0.4c-0.1,0.2-0.2,0.4-0.3,0.6
		c-0.1,0.2-0.1,0.5-0.1,0.8c0,0.2,0,0.5,0.1,0.7c0.1,0.2,0.2,0.4,0.3,0.6c0.1,0.2,0.3,0.3,0.5,0.4s0.4,0.1,0.7,0.1
		c0.3,0,0.5,0,0.7-0.1s0.4-0.2,0.6-0.4c0.2-0.2,0.3-0.4,0.3-0.6s0.1-0.5,0.1-0.7C382.3,206.7,382.2,206.4,382.2,206.2z"/>
	<path d="M388.6,205.3c-0.2-0.2-0.6-0.3-1-0.3c-0.4,0-0.8,0.1-1,0.3s-0.5,0.5-0.6,0.8c-0.1,0.3-0.2,0.7-0.3,1
		c-0.1,0.4-0.1,0.7-0.1,1.1l0,0c0.2-0.4,0.5-0.7,0.9-0.9c0.4-0.2,0.8-0.3,1.2-0.3c0.4,0,0.8,0.1,1.1,0.2c0.3,0.1,0.6,0.3,0.8,0.6
		c0.2,0.2,0.4,0.5,0.5,0.9c0.1,0.3,0.2,0.7,0.2,1.1c0,0.3,0,0.6-0.1,1c-0.1,0.3-0.3,0.6-0.5,0.9c-0.2,0.3-0.5,0.5-0.9,0.7
		c-0.4,0.2-0.8,0.3-1.4,0.3c-0.6,0-1.1-0.1-1.5-0.4c-0.4-0.3-0.7-0.6-0.9-1s-0.3-0.8-0.4-1.3c-0.1-0.5-0.1-0.9-0.1-1.4
		c0-0.6,0-1.1,0.2-1.7c0.1-0.5,0.3-1,0.5-1.5c0.2-0.4,0.6-0.8,1-1c0.4-0.3,0.9-0.4,1.5-0.4c0.7,0,1.3,0.2,1.7,0.6
		c0.4,0.4,0.7,0.9,0.7,1.6h-1C389,205.9,388.8,205.6,388.6,205.3z M386.7,208.2c-0.2,0.1-0.4,0.2-0.6,0.4c-0.2,0.2-0.3,0.4-0.3,0.6
		s-0.1,0.5-0.1,0.8c0,0.3,0,0.5,0.1,0.7c0.1,0.2,0.2,0.4,0.3,0.6s0.3,0.3,0.6,0.4c0.2,0.1,0.5,0.1,0.8,0.1c0.3,0,0.5,0,0.7-0.1
		s0.4-0.2,0.5-0.4c0.1-0.2,0.3-0.4,0.3-0.6c0.1-0.2,0.1-0.5,0.1-0.7c0-0.3,0-0.5-0.1-0.8c-0.1-0.2-0.2-0.4-0.3-0.6
		c-0.1-0.2-0.3-0.3-0.5-0.4c-0.2-0.1-0.5-0.2-0.8-0.2S386.9,208.1,386.7,208.2z"/>
	<path d="M392.5,204v3.2h0c0.2-0.3,0.4-0.6,0.8-0.8c0.4-0.2,0.8-0.2,1.2-0.2c0.5,0,0.9,0.1,1.3,0.3c0.4,0.2,0.7,0.4,0.9,0.7
		c0.2,0.3,0.4,0.6,0.5,1c0.1,0.4,0.2,0.8,0.2,1.2s-0.1,0.9-0.2,1.2s-0.3,0.7-0.5,1c-0.2,0.3-0.5,0.5-0.9,0.7
		c-0.4,0.2-0.8,0.3-1.2,0.3c-0.2,0-0.3,0-0.5,0c-0.2,0-0.4-0.1-0.6-0.2c-0.2-0.1-0.4-0.2-0.5-0.3c-0.2-0.1-0.3-0.3-0.4-0.5h0v0.8h-1
		V204H392.5z M396.2,208.6c-0.1-0.3-0.2-0.5-0.3-0.7c-0.2-0.2-0.4-0.4-0.6-0.5s-0.5-0.2-0.9-0.2c-0.3,0-0.6,0.1-0.9,0.2
		c-0.2,0.1-0.4,0.3-0.6,0.5c-0.2,0.2-0.3,0.5-0.3,0.8c-0.1,0.3-0.1,0.6-0.1,0.9c0,0.3,0,0.6,0.1,0.9c0.1,0.3,0.2,0.5,0.3,0.8
		c0.2,0.2,0.4,0.4,0.6,0.5c0.2,0.1,0.5,0.2,0.9,0.2c0.4,0,0.6-0.1,0.9-0.2c0.2-0.1,0.4-0.3,0.6-0.5c0.1-0.2,0.2-0.5,0.3-0.8
		c0.1-0.3,0.1-0.6,0.1-0.9C396.3,209.2,396.3,208.9,396.2,208.6z"/>
</g>
<g>
	<path d="M117.8,242.1c0-0.2,0-0.4,0.1-0.5s0.1-0.1,0.3-0.1c0.1,0,0.2,0,0.3,0.1s0.1,0.2,0.1,0.3v0.2v1.6c0,0.1,0,0.2-0.1,0.3
		s-0.1,0.1-0.3,0.1h-4.3h-0.2c-0.1,0-0.2,0-0.3-0.1s-0.1-0.1-0.1-0.3c0-0.1,0-0.2,0.1-0.3s0.2-0.1,0.5-0.1h0.6v-4.4h-0.6
		c-0.2,0-0.4,0-0.5-0.1s-0.1-0.1-0.1-0.3c0-0.1,0-0.2,0.1-0.3s0.2-0.1,0.3-0.1h0.2h2.2h0.2c0.1,0,0.2,0,0.3,0.1s0.1,0.1,0.1,0.3
		c0,0.1,0,0.2-0.1,0.3s-0.2,0.1-0.5,0.1h-0.8v4.4h2.6V242.1z"/>
	<path d="M124.5,241.8c0,0.7-0.2,1.3-0.7,1.7s-1.1,0.7-1.9,0.7c-0.8,0-1.4-0.2-1.8-0.7s-0.7-1-0.7-1.7s0.2-1.3,0.7-1.7
		s1.1-0.7,1.8-0.7s1.4,0.2,1.8,0.7S124.5,241.1,124.5,241.8z M122,243.5c0.5,0,0.9-0.2,1.2-0.5s0.5-0.7,0.5-1.2s-0.2-0.9-0.5-1.2
		c-0.3-0.3-0.7-0.5-1.2-0.5s-0.9,0.2-1.2,0.5c-0.3,0.3-0.5,0.7-0.5,1.2c0,0.5,0.2,0.9,0.5,1.2C121.1,243.3,121.5,243.5,122,243.5z"
		/>
	<path d="M127.5,243.3h1.6c0.1,0,0.2,0,0.3,0.1s0.1,0.1,0.1,0.3c0,0.1,0,0.2-0.1,0.3s-0.2,0.1-0.3,0.1h-3.2c-0.1,0-0.2,0-0.3-0.1
		s-0.1-0.1-0.1-0.3c0-0.1,0-0.2,0.1-0.3s0.2-0.1,0.3-0.1h0.8v-3.1h-0.3c-0.3,0-0.5,0-0.6-0.1c-0.1,0-0.1-0.1-0.1-0.3
		c0-0.1,0-0.2,0.1-0.3s0.2-0.1,0.3-0.1h1.1c0.1,0,0.2,0,0.2,0.1s0.1,0.1,0.1,0.1v0.8c0.3-0.4,0.6-0.7,1-0.9s0.7-0.3,1.1-0.3
		c0.3,0,0.5,0.1,0.7,0.2c0.2,0.1,0.3,0.3,0.3,0.5c0,0.1,0,0.2-0.1,0.3s-0.2,0.1-0.3,0.1c-0.1,0-0.2,0-0.4-0.1s-0.3-0.1-0.5-0.1
		c-0.3,0-0.5,0.1-0.8,0.3s-0.6,0.5-0.9,0.9V243.3z"/>
	<path d="M132.3,242c0,0.5,0.2,0.8,0.5,1.1c0.3,0.3,0.7,0.4,1.2,0.4c0.4,0,0.8-0.1,1.2-0.3s0.7-0.3,0.8-0.3c0.1,0,0.2,0,0.2,0.1
		s0.1,0.1,0.1,0.2c0,0.1,0,0.2-0.1,0.3c-0.1,0.1-0.2,0.2-0.3,0.2c-0.3,0.2-0.7,0.3-1,0.4s-0.7,0.1-1,0.1c-0.7,0-1.3-0.2-1.8-0.6
		s-0.7-1-0.7-1.7c0-0.7,0.2-1.3,0.7-1.7s1.1-0.7,1.8-0.7c0.7,0,1.3,0.2,1.7,0.6s0.7,0.9,0.7,1.5c0,0.2,0,0.3-0.1,0.4
		s-0.3,0.1-0.6,0.1h-0.1H132.3z M132.4,241.3h3.2c0-0.4-0.2-0.7-0.5-0.9s-0.6-0.4-1-0.4c-0.4,0-0.8,0.1-1.1,0.3
		S132.4,240.9,132.4,241.3z"/>
	<path d="M141.8,241.3c0-0.5,0-0.8-0.1-0.9s-0.2-0.2-0.4-0.2c-0.2,0-0.4,0.1-0.6,0.3s-0.2,0.5-0.2,0.9v2h0.1c0.2,0,0.3,0,0.4,0.1
		c0.1,0,0.1,0.1,0.1,0.3c0,0.1,0,0.2-0.1,0.3s-0.1,0.1-0.3,0.1h-0.6c-0.1,0-0.2,0-0.3-0.1s-0.1-0.2-0.1-0.4v-0.1v-2.1v-0.4
		c0-0.2-0.1-0.4-0.2-0.6s-0.3-0.2-0.5-0.2c-0.1,0-0.3,0-0.4,0.1s-0.2,0.2-0.3,0.4v2.7h0.2c0.2,0,0.3,0,0.4,0.1s0.1,0.1,0.1,0.3
		c0,0.1,0,0.2-0.1,0.3s-0.2,0.1-0.3,0.1h-1.3c-0.1,0-0.2,0-0.3-0.1c-0.1-0.1-0.1-0.1-0.1-0.3c0-0.1,0-0.2,0.1-0.3
		c0.1,0,0.2-0.1,0.4-0.1h0.1v-3.1h-0.1c-0.2,0-0.4,0-0.5-0.1s-0.1-0.1-0.1-0.3c0-0.1,0-0.2,0.1-0.3s0.2-0.1,0.3-0.1h0.7
		c0.1,0,0.2,0,0.2,0.1s0.1,0.1,0.1,0.2c0.1-0.1,0.3-0.2,0.4-0.3c0.2-0.1,0.3-0.1,0.5-0.1c0.2,0,0.4,0,0.6,0.1
		c0.1,0.1,0.3,0.2,0.3,0.4c0.1-0.2,0.3-0.4,0.5-0.5c0.2-0.1,0.4-0.1,0.6-0.1c0.4,0,0.7,0.1,0.9,0.4c0.2,0.3,0.3,0.7,0.3,1.3v2.2h0.1
		c0.2,0,0.3,0,0.4,0.1c0.1,0,0.1,0.1,0.1,0.3c0,0.1,0,0.2-0.1,0.3s-0.1,0.1-0.3,0.1h-0.6c-0.1,0-0.2,0-0.3-0.1s-0.1-0.2-0.1-0.4
		V241.3z"/>
	<path d="M152.4,243.3h1.6c0.1,0,0.2,0,0.3,0.1s0.1,0.1,0.1,0.3c0,0.1,0,0.2-0.1,0.3s-0.2,0.1-0.3,0.1h-3.8c-0.1,0-0.2,0-0.3-0.1
		s-0.1-0.1-0.1-0.3c0-0.1,0-0.2,0.1-0.3s0.2-0.1,0.3-0.1h1.5v-3.1h-1c-0.1,0-0.2,0-0.3-0.1c-0.1-0.1-0.1-0.1-0.1-0.3s0-0.2,0.1-0.3
		s0.2-0.1,0.3-0.1h1.4c0.1,0,0.2,0,0.2,0.1s0.1,0.1,0.1,0.1V243.3z M151.5,238.1c0-0.4,0-0.6,0.1-0.7s0.2-0.1,0.4-0.1
		c0.2,0,0.3,0,0.4,0.1s0.1,0.3,0.1,0.5c0,0.3,0,0.5-0.1,0.5s-0.2,0.1-0.4,0.1c-0.2,0-0.3,0-0.4-0.1S151.5,238.3,151.5,238.1z"/>
	<path d="M156.7,245.3h1.2c0.1,0,0.2,0,0.3,0.1s0.1,0.1,0.1,0.3c0,0.1,0,0.2-0.1,0.3s-0.2,0.1-0.3,0.1h-2.2c-0.1,0-0.2,0-0.3-0.1
		s-0.1-0.1-0.1-0.3c0-0.1,0-0.2,0.1-0.3s0.2-0.1,0.5-0.1h0.1v-5.1h-0.1c-0.2,0-0.4,0-0.5-0.1s-0.1-0.1-0.1-0.3c0-0.1,0-0.2,0.1-0.3
		s0.2-0.1,0.3-0.1h0.7c0.1,0,0.2,0,0.2,0s0.1,0.1,0.1,0.2v0.5c0.2-0.2,0.5-0.4,0.7-0.5s0.6-0.2,0.9-0.2c0.7,0,1.2,0.2,1.6,0.7
		s0.7,1,0.7,1.7c0,0.6-0.2,1.2-0.6,1.6s-0.9,0.6-1.6,0.6c-0.3,0-0.7-0.1-1-0.2s-0.5-0.3-0.7-0.5V245.3z M158.2,243.3
		c0.5,0,0.8-0.1,1.1-0.4s0.4-0.7,0.4-1.1c0-0.4-0.1-0.8-0.4-1.1s-0.7-0.4-1.1-0.4s-0.8,0.1-1.1,0.4s-0.4,0.7-0.4,1.1
		c0,0.4,0.1,0.8,0.4,1.1S157.8,243.3,158.2,243.3z"/>
	<path d="M161.9,243.7v-0.9c0-0.1,0-0.2,0.1-0.3s0.1-0.1,0.3-0.1c0.1,0,0.2,0.1,0.3,0.3c0.1,0.1,0.1,0.2,0.1,0.2
		c0.1,0.2,0.3,0.3,0.6,0.4s0.6,0.2,0.9,0.2c0.3,0,0.6-0.1,0.8-0.2s0.3-0.3,0.3-0.6c0-0.2-0.1-0.4-0.3-0.5s-0.5-0.1-0.9-0.1h-0.3
		c-0.7,0-1.2-0.1-1.5-0.3s-0.5-0.6-0.5-1c0-0.4,0.2-0.8,0.5-1s0.8-0.4,1.4-0.4c0.3,0,0.5,0,0.8,0.1s0.4,0.1,0.4,0.1
		c0,0,0.1,0,0.2-0.1s0.2-0.1,0.3-0.1c0.1,0,0.2,0,0.2,0.1s0.1,0.2,0.1,0.4v0.6c0,0.2,0,0.3-0.1,0.4s-0.1,0.1-0.2,0.1
		c-0.1,0-0.2-0.1-0.4-0.2c-0.1-0.1-0.2-0.2-0.2-0.3c-0.2-0.2-0.4-0.3-0.6-0.3s-0.4-0.1-0.7-0.1c-0.3,0-0.6,0.1-0.7,0.2
		s-0.3,0.3-0.3,0.5c0,0.2,0.1,0.4,0.3,0.4s0.6,0.1,1.2,0.2c0.7,0,1.2,0.1,1.5,0.4s0.5,0.6,0.5,1c0,0.4-0.2,0.8-0.5,1.1
		s-0.8,0.4-1.4,0.4c-0.2,0-0.4,0-0.6-0.1s-0.5-0.1-0.9-0.2c-0.1,0.1-0.2,0.1-0.3,0.2s-0.1,0.1-0.2,0.1c-0.1,0-0.2,0-0.3-0.1
		S161.9,243.8,161.9,243.7z"/>
	<path d="M168.8,242.2c0,0.4,0.1,0.7,0.3,0.9s0.4,0.3,0.8,0.3c0.4,0,0.7-0.1,0.9-0.3s0.4-0.5,0.4-0.8v-2h-0.7c-0.1,0-0.2,0-0.3-0.1
		s-0.1-0.1-0.1-0.2c0-0.1,0-0.2,0.1-0.3s0.2-0.1,0.3-0.1h1c0.1,0,0.2,0,0.3,0.1s0.1,0.2,0.1,0.4v3.3h0.2c0.2,0,0.3,0,0.3,0.1
		s0.1,0.1,0.1,0.3c0,0.1,0,0.2-0.1,0.3s-0.2,0.1-0.3,0.1h-0.7c-0.1,0-0.2,0-0.2-0.1s-0.1-0.1-0.1-0.1v-0.3c-0.3,0.2-0.6,0.4-0.8,0.5
		s-0.5,0.1-0.7,0.1c-0.5,0-0.9-0.1-1.2-0.4s-0.4-0.7-0.4-1.3v-2.2h-0.1c-0.2,0-0.4,0-0.5-0.1s-0.1-0.1-0.1-0.3c0-0.1,0-0.2,0.1-0.3
		s0.2-0.1,0.3-0.1h0.7c0.1,0,0.2,0,0.2,0.1s0.1,0.1,0.1,0.3V242.2z"/>
	<path d="M177.8,241.3c0-0.5,0-0.8-0.1-0.9s-0.2-0.2-0.4-0.2c-0.2,0-0.4,0.1-0.6,0.3s-0.2,0.5-0.2,0.9v2h0.1c0.2,0,0.3,0,0.4,0.1
		c0.1,0,0.1,0.1,0.1,0.3c0,0.1,0,0.2-0.1,0.3s-0.1,0.1-0.3,0.1h-0.6c-0.1,0-0.2,0-0.3-0.1s-0.1-0.2-0.1-0.4v-0.1v-2.1v-0.4
		c0-0.2-0.1-0.4-0.2-0.6s-0.3-0.2-0.5-0.2c-0.1,0-0.3,0-0.4,0.1s-0.2,0.2-0.3,0.4v2.7h0.2c0.2,0,0.3,0,0.4,0.1s0.1,0.1,0.1,0.3
		c0,0.1,0,0.2-0.1,0.3s-0.2,0.1-0.3,0.1h-1.3c-0.1,0-0.2,0-0.3-0.1c-0.1-0.1-0.1-0.1-0.1-0.3c0-0.1,0-0.2,0.1-0.3
		c0.1,0,0.2-0.1,0.4-0.1h0.1v-3.1h-0.1c-0.2,0-0.4,0-0.5-0.1s-0.1-0.1-0.1-0.3c0-0.1,0-0.2,0.1-0.3s0.2-0.1,0.3-0.1h0.7
		c0.1,0,0.2,0,0.2,0.1s0.1,0.1,0.1,0.2c0.1-0.1,0.3-0.2,0.4-0.3c0.2-0.1,0.3-0.1,0.5-0.1c0.2,0,0.4,0,0.6,0.1
		c0.1,0.1,0.3,0.2,0.3,0.4c0.1-0.2,0.3-0.4,0.5-0.5c0.2-0.1,0.4-0.1,0.6-0.1c0.4,0,0.7,0.1,0.9,0.4c0.2,0.3,0.3,0.7,0.3,1.3v2.2h0.1
		c0.2,0,0.3,0,0.4,0.1c0.1,0,0.1,0.1,0.1,0.3c0,0.1,0,0.2-0.1,0.3s-0.1,0.1-0.3,0.1h-0.6c-0.1,0-0.2,0-0.3-0.1s-0.1-0.2-0.1-0.4
		V241.3z"/>
	<path d="M189.5,244c-0.1,0-0.1,0-0.1-0.1s0-0.1,0-0.2v-0.4c-0.2,0.2-0.4,0.4-0.7,0.6s-0.6,0.2-1,0.2c-0.6,0-1.1-0.2-1.5-0.7
		s-0.6-1-0.6-1.6c0-0.7,0.2-1.2,0.7-1.7s1-0.7,1.7-0.7c0.3,0,0.6,0.1,0.9,0.2s0.5,0.3,0.7,0.5v-1.9h-0.3c-0.3,0-0.5,0-0.5-0.1
		s-0.1-0.1-0.1-0.3c0-0.1,0-0.2,0.1-0.3s0.2-0.1,0.3-0.1h1c0.1,0,0.2,0,0.2,0s0.1,0.1,0.1,0.2v5.5h0.2c0.2,0,0.3,0,0.3,0.1
		s0.1,0.1,0.1,0.3c0,0.1,0,0.2-0.1,0.3s-0.1,0.1-0.2,0.1H189.5z M186.3,241.8c0,0.4,0.1,0.8,0.4,1.1s0.7,0.4,1.1,0.4
		c0.4,0,0.8-0.1,1.1-0.4s0.4-0.7,0.4-1.1c0-0.5-0.1-0.8-0.4-1.1s-0.7-0.4-1.1-0.4c-0.5,0-0.8,0.1-1.1,0.4S186.3,241.4,186.3,241.8z"
		/>
	<path d="M196.6,241.8c0,0.7-0.2,1.3-0.7,1.7s-1.1,0.7-1.9,0.7c-0.8,0-1.4-0.2-1.8-0.7s-0.7-1-0.7-1.7s0.2-1.3,0.7-1.7
		s1.1-0.7,1.8-0.7s1.4,0.2,1.8,0.7S196.6,241.1,196.6,241.8z M194,243.5c0.5,0,0.9-0.2,1.2-0.5s0.5-0.7,0.5-1.2s-0.2-0.9-0.5-1.2
		c-0.3-0.3-0.7-0.5-1.2-0.5s-0.9,0.2-1.2,0.5c-0.3,0.3-0.5,0.7-0.5,1.2c0,0.5,0.2,0.9,0.5,1.2C193.1,243.3,193.5,243.5,194,243.5z"
		/>
	<path d="M199.7,238.3h-0.8c-0.3,0-0.5,0-0.6-0.1s-0.1-0.1-0.1-0.3c0-0.1,0-0.2,0.1-0.3s0.2-0.1,0.3-0.1h1.6c0.1,0,0.2,0,0.2,0.1
		s0.1,0.1,0.1,0.1v5.5h1.5c0.1,0,0.2,0,0.3,0.1s0.1,0.1,0.1,0.3c0,0.1,0,0.2-0.1,0.3s-0.2,0.1-0.3,0.1h-3.6c-0.1,0-0.2,0-0.3-0.1
		s-0.1-0.1-0.1-0.3c0-0.1,0-0.2,0.1-0.3s0.2-0.1,0.3-0.1h1.4V238.3z"/>
	<path d="M208.6,241.8c0,0.7-0.2,1.3-0.7,1.7s-1.1,0.7-1.9,0.7c-0.8,0-1.4-0.2-1.8-0.7s-0.7-1-0.7-1.7s0.2-1.3,0.7-1.7
		s1.1-0.7,1.8-0.7s1.4,0.2,1.8,0.7S208.6,241.1,208.6,241.8z M206,243.5c0.5,0,0.9-0.2,1.2-0.5s0.5-0.7,0.5-1.2s-0.2-0.9-0.5-1.2
		c-0.3-0.3-0.7-0.5-1.2-0.5s-0.9,0.2-1.2,0.5c-0.3,0.3-0.5,0.7-0.5,1.2c0,0.5,0.2,0.9,0.5,1.2C205.1,243.3,205.5,243.5,206,243.5z"
		/>
	<path d="M211.5,243.3h1.6c0.1,0,0.2,0,0.3,0.1s0.1,0.1,0.1,0.3c0,0.1,0,0.2-0.1,0.3s-0.2,0.1-0.3,0.1h-3.2c-0.1,0-0.2,0-0.3-0.1
		s-0.1-0.1-0.1-0.3c0-0.1,0-0.2,0.1-0.3s0.2-0.1,0.3-0.1h0.8v-3.1h-0.3c-0.3,0-0.5,0-0.6-0.1c-0.1,0-0.1-0.1-0.1-0.3
		c0-0.1,0-0.2,0.1-0.3s0.2-0.1,0.3-0.1h1.1c0.1,0,0.2,0,0.2,0.1s0.1,0.1,0.1,0.1v0.8c0.3-0.4,0.6-0.7,1-0.9s0.7-0.3,1.1-0.3
		c0.3,0,0.5,0.1,0.7,0.2c0.2,0.1,0.3,0.3,0.3,0.5c0,0.1,0,0.2-0.1,0.3s-0.2,0.1-0.3,0.1c-0.1,0-0.2,0-0.4-0.1s-0.3-0.1-0.5-0.1
		c-0.3,0-0.5,0.1-0.8,0.3s-0.6,0.5-0.9,0.9V243.3z"/>
	<path d="M221.9,243.7v-0.9c0-0.1,0-0.2,0.1-0.3s0.1-0.1,0.3-0.1c0.1,0,0.2,0.1,0.3,0.3c0.1,0.1,0.1,0.2,0.1,0.2
		c0.1,0.2,0.3,0.3,0.6,0.4s0.6,0.2,0.9,0.2c0.3,0,0.6-0.1,0.8-0.2s0.3-0.3,0.3-0.6c0-0.2-0.1-0.4-0.3-0.5s-0.5-0.1-0.9-0.1h-0.3
		c-0.7,0-1.2-0.1-1.5-0.3s-0.5-0.6-0.5-1c0-0.4,0.2-0.8,0.5-1s0.8-0.4,1.4-0.4c0.3,0,0.5,0,0.8,0.1s0.4,0.1,0.4,0.1
		c0,0,0.1,0,0.2-0.1s0.2-0.1,0.3-0.1c0.1,0,0.2,0,0.2,0.1s0.1,0.2,0.1,0.4v0.6c0,0.2,0,0.3-0.1,0.4s-0.1,0.1-0.2,0.1
		c-0.1,0-0.2-0.1-0.4-0.2c-0.1-0.1-0.2-0.2-0.2-0.3c-0.2-0.2-0.4-0.3-0.6-0.3s-0.4-0.1-0.7-0.1c-0.3,0-0.6,0.1-0.7,0.2
		s-0.3,0.3-0.3,0.5c0,0.2,0.1,0.4,0.3,0.4s0.6,0.1,1.2,0.2c0.7,0,1.2,0.1,1.5,0.4s0.5,0.6,0.5,1c0,0.4-0.2,0.8-0.5,1.1
		s-0.8,0.4-1.4,0.4c-0.2,0-0.4,0-0.6-0.1s-0.5-0.1-0.9-0.2c-0.1,0.1-0.2,0.1-0.3,0.2s-0.1,0.1-0.2,0.1c-0.1,0-0.2,0-0.3-0.1
		S221.9,243.8,221.9,243.7z"/>
	<path d="M230.4,243.3h1.6c0.1,0,0.2,0,0.3,0.1s0.1,0.1,0.1,0.3c0,0.1,0,0.2-0.1,0.3s-0.2,0.1-0.3,0.1h-3.8c-0.1,0-0.2,0-0.3-0.1
		s-0.1-0.1-0.1-0.3c0-0.1,0-0.2,0.1-0.3s0.2-0.1,0.3-0.1h1.5v-3.1h-1c-0.1,0-0.2,0-0.3-0.1c-0.1-0.1-0.1-0.1-0.1-0.3s0-0.2,0.1-0.3
		s0.2-0.1,0.3-0.1h1.4c0.1,0,0.2,0,0.2,0.1s0.1,0.1,0.1,0.1V243.3z M229.5,238.1c0-0.4,0-0.6,0.1-0.7s0.2-0.1,0.4-0.1
		c0.2,0,0.3,0,0.4,0.1s0.1,0.3,0.1,0.5c0,0.3,0,0.5-0.1,0.5s-0.2,0.1-0.4,0.1c-0.2,0-0.3,0-0.4-0.1S229.5,238.3,229.5,238.1z"/>
	<path d="M237.3,239.8c0.2,0,0.3,0,0.3,0.1s0.1,0.1,0.1,0.3c0,0.1,0,0.2-0.1,0.3s-0.2,0.1-0.3,0.1h-2v1.6c0,0.5,0.1,0.9,0.2,1.1
		s0.4,0.3,0.7,0.3c0.3,0,0.7-0.1,1.1-0.3s0.7-0.3,0.8-0.3c0.1,0,0.2,0,0.2,0.1s0.1,0.1,0.1,0.2c0,0.1,0,0.2-0.1,0.3
		s-0.2,0.2-0.4,0.2c-0.3,0.1-0.6,0.2-0.9,0.3s-0.5,0.1-0.7,0.1c-0.4,0-0.7-0.1-1-0.2s-0.5-0.3-0.6-0.5c-0.1-0.1-0.1-0.2-0.1-0.4
		s0-0.4,0-0.7v-0.2v-1.6h-0.8c-0.1,0-0.2,0-0.3-0.1s-0.1-0.1-0.1-0.3c0-0.1,0-0.2,0.1-0.3s0.3-0.1,0.5-0.1h0.6v-1v-0.3
		c0-0.1,0-0.2,0.1-0.3s0.2-0.1,0.3-0.1c0.1,0,0.2,0,0.3,0.1s0.1,0.3,0.1,0.6v1H237.3z"/>
	<path d="M249.1,243.4c-0.3,0.2-0.6,0.4-0.9,0.6s-0.6,0.2-1,0.2c-0.5,0-0.9-0.1-1.2-0.4s-0.4-0.6-0.4-1.1c0-0.5,0.2-0.9,0.6-1.2
		s1-0.4,1.7-0.4c0.2,0,0.4,0,0.6,0s0.4,0.1,0.6,0.1v0c0-0.4-0.1-0.7-0.3-0.8s-0.5-0.3-0.8-0.3c-0.3,0-0.5,0.1-0.8,0.2
		s-0.5,0.2-0.6,0.2c-0.1,0-0.2,0-0.2-0.1s-0.1-0.2-0.1-0.3c0-0.2,0.2-0.4,0.5-0.5s0.8-0.2,1.4-0.2c0.6,0,1,0.1,1.3,0.4
		s0.4,0.7,0.4,1.3v2.2h0.2c0.2,0,0.4,0,0.5,0.1s0.1,0.1,0.1,0.3c0,0.1,0,0.2-0.1,0.3s-0.2,0.1-0.3,0.1h-0.8c-0.1,0-0.2,0-0.2-0.1
		s-0.1-0.1-0.1-0.2L249.1,243.4z M249.1,241.9c-0.2-0.1-0.4-0.1-0.5-0.1s-0.3,0-0.5,0c-0.5,0-0.9,0.1-1.2,0.3s-0.4,0.4-0.4,0.7
		c0,0.2,0.1,0.4,0.3,0.5s0.4,0.2,0.7,0.2c0.4,0,0.8-0.1,1.1-0.3s0.5-0.4,0.5-0.7V241.9z"/>
	<path d="M255.8,241.3c0-0.5,0-0.8-0.1-0.9s-0.2-0.2-0.4-0.2c-0.2,0-0.4,0.1-0.6,0.3s-0.2,0.5-0.2,0.9v2h0.1c0.2,0,0.3,0,0.4,0.1
		c0.1,0,0.1,0.1,0.1,0.3c0,0.1,0,0.2-0.1,0.3s-0.1,0.1-0.3,0.1h-0.6c-0.1,0-0.2,0-0.3-0.1s-0.1-0.2-0.1-0.4v-0.1v-2.1v-0.4
		c0-0.2-0.1-0.4-0.2-0.6s-0.3-0.2-0.5-0.2c-0.1,0-0.3,0-0.4,0.1s-0.2,0.2-0.3,0.4v2.7h0.2c0.2,0,0.3,0,0.4,0.1s0.1,0.1,0.1,0.3
		c0,0.1,0,0.2-0.1,0.3s-0.2,0.1-0.3,0.1h-1.3c-0.1,0-0.2,0-0.3-0.1c-0.1-0.1-0.1-0.1-0.1-0.3c0-0.1,0-0.2,0.1-0.3
		c0.1,0,0.2-0.1,0.4-0.1h0.1v-3.1h-0.1c-0.2,0-0.4,0-0.5-0.1s-0.1-0.1-0.1-0.3c0-0.1,0-0.2,0.1-0.3s0.2-0.1,0.3-0.1h0.7
		c0.1,0,0.2,0,0.2,0.1s0.1,0.1,0.1,0.2c0.1-0.1,0.3-0.2,0.4-0.3c0.2-0.1,0.3-0.1,0.5-0.1c0.2,0,0.4,0,0.6,0.1
		c0.1,0.1,0.3,0.2,0.3,0.4c0.1-0.2,0.3-0.4,0.5-0.5c0.2-0.1,0.4-0.1,0.6-0.1c0.4,0,0.7,0.1,0.9,0.4c0.2,0.3,0.3,0.7,0.3,1.3v2.2h0.1
		c0.2,0,0.3,0,0.4,0.1c0.1,0,0.1,0.1,0.1,0.3c0,0.1,0,0.2-0.1,0.3s-0.1,0.1-0.3,0.1h-0.6c-0.1,0-0.2,0-0.3-0.1s-0.1-0.2-0.1-0.4
		V241.3z"/>
	<path d="M258.3,242c0,0.5,0.2,0.8,0.5,1.1c0.3,0.3,0.7,0.4,1.2,0.4c0.4,0,0.8-0.1,1.2-0.3s0.7-0.3,0.8-0.3c0.1,0,0.2,0,0.2,0.1
		s0.1,0.1,0.1,0.2c0,0.1,0,0.2-0.1,0.3c-0.1,0.1-0.2,0.2-0.3,0.2c-0.3,0.2-0.7,0.3-1,0.4s-0.7,0.1-1,0.1c-0.7,0-1.3-0.2-1.8-0.6
		s-0.7-1-0.7-1.7c0-0.7,0.2-1.3,0.7-1.7s1.1-0.7,1.8-0.7c0.7,0,1.3,0.2,1.7,0.6s0.7,0.9,0.7,1.5c0,0.2,0,0.3-0.1,0.4
		s-0.3,0.1-0.6,0.1h-0.1H258.3z M258.4,241.3h3.2c0-0.4-0.2-0.7-0.5-0.9s-0.6-0.4-1-0.4c-0.4,0-0.8,0.1-1.1,0.3
		S258.5,240.9,258.4,241.3z"/>
	<path d="M267.3,239.8c0.2,0,0.3,0,0.3,0.1s0.1,0.1,0.1,0.3c0,0.1,0,0.2-0.1,0.3s-0.2,0.1-0.3,0.1h-2v1.6c0,0.5,0.1,0.9,0.2,1.1
		s0.4,0.3,0.7,0.3c0.3,0,0.7-0.1,1.1-0.3s0.7-0.3,0.8-0.3c0.1,0,0.2,0,0.2,0.1s0.1,0.1,0.1,0.2c0,0.1,0,0.2-0.1,0.3
		s-0.2,0.2-0.4,0.2c-0.3,0.1-0.6,0.2-0.9,0.3s-0.5,0.1-0.7,0.1c-0.4,0-0.7-0.1-1-0.2s-0.5-0.3-0.6-0.5c-0.1-0.1-0.1-0.2-0.1-0.4
		s0-0.4,0-0.7v-0.2v-1.6h-0.8c-0.1,0-0.2,0-0.3-0.1s-0.1-0.1-0.1-0.3c0-0.1,0-0.2,0.1-0.3s0.3-0.1,0.5-0.1h0.6v-1v-0.3
		c0-0.1,0-0.2,0.1-0.3s0.2-0.1,0.3-0.1c0.1,0,0.2,0,0.3,0.1s0.1,0.3,0.1,0.6v1H267.3z"/>
	<path d="M271.4,242.7c0-0.1,0.1-0.2,0.1-0.2s0.1,0,0.2,0h1.1c0,0,0.1,0,0.1,0s0,0,0,0.1c0,0,0,0,0,0.1s0,0.1,0,0.1l-1.3,2.8
		c0,0-0.1,0.1-0.1,0.1s-0.1,0-0.1,0c0,0,0,0,0,0s0,0-0.1,0l-0.3-0.1c-0.1,0-0.1,0-0.1-0.1s0-0.1,0-0.1c0,0,0-0.1,0-0.1s0,0,0,0
		L271.4,242.7z"/>
	<path d="M285.5,239.8L285.5,239.8c0-0.1,0-0.2,0.1-0.3s0.2-0.1,0.3-0.1c0.1,0,0.2,0,0.3,0.1s0.1,0.2,0.1,0.5v0.9
		c0,0.1,0,0.2-0.1,0.3s-0.2,0.1-0.3,0.1c-0.1,0-0.2,0-0.2-0.1s-0.1-0.2-0.2-0.3c-0.2-0.3-0.3-0.5-0.6-0.6s-0.5-0.2-0.8-0.2
		c-0.5,0-0.9,0.1-1.2,0.4s-0.5,0.7-0.5,1.2c0,0.5,0.2,0.9,0.5,1.2s0.7,0.5,1.2,0.5c0.2,0,0.4,0,0.6-0.1s0.4-0.2,0.6-0.3
		c0.1,0,0.1-0.1,0.2-0.2c0.2-0.2,0.4-0.3,0.5-0.3c0.1,0,0.2,0,0.2,0.1s0.1,0.1,0.1,0.2c0,0.3-0.2,0.5-0.7,0.8s-1,0.4-1.6,0.4
		c-0.7,0-1.3-0.2-1.8-0.7s-0.7-1-0.7-1.7s0.2-1.2,0.7-1.7s1.1-0.7,1.8-0.7c0.2,0,0.5,0,0.7,0.1S285.2,239.7,285.5,239.8z"/>
	<path d="M292.6,241.8c0,0.7-0.2,1.3-0.7,1.7s-1.1,0.7-1.9,0.7c-0.8,0-1.4-0.2-1.8-0.7s-0.7-1-0.7-1.7s0.2-1.3,0.7-1.7
		s1.1-0.7,1.8-0.7s1.4,0.2,1.8,0.7S292.6,241.1,292.6,241.8z M290,243.5c0.5,0,0.9-0.2,1.2-0.5s0.5-0.7,0.5-1.2s-0.2-0.9-0.5-1.2
		c-0.3-0.3-0.7-0.5-1.2-0.5s-0.9,0.2-1.2,0.5c-0.3,0.3-0.5,0.7-0.5,1.2c0,0.5,0.2,0.9,0.5,1.2C289.1,243.3,289.5,243.5,290,243.5z"
		/>
	<path d="M294.2,243.3v-3.1h-0.1c-0.2,0-0.4,0-0.5-0.1s-0.1-0.1-0.1-0.3c0-0.1,0-0.2,0.1-0.3s0.2-0.1,0.3-0.1h0.2h0.5
		c0.1,0,0.2,0,0.2,0.1s0.1,0.1,0.1,0.1v0.3c0.2-0.2,0.5-0.4,0.7-0.5s0.5-0.2,0.7-0.2c0.5,0,0.9,0.2,1.2,0.5s0.4,0.7,0.4,1.3v2.2h0.2
		c0.2,0,0.3,0,0.4,0.1c0.1,0.1,0.1,0.1,0.1,0.3c0,0.1,0,0.2-0.1,0.3s-0.2,0.1-0.4,0.1H297c-0.2,0-0.3,0-0.4-0.1
		c-0.1,0-0.1-0.1-0.1-0.3c0-0.1,0-0.2,0.1-0.3c0.1,0,0.2-0.1,0.4-0.1h0.2v-2c0-0.4-0.1-0.7-0.3-0.9s-0.4-0.3-0.8-0.3
		c-0.3,0-0.6,0.1-0.9,0.3c-0.3,0.2-0.4,0.5-0.4,0.8v2h0.2c0.2,0,0.3,0,0.4,0.1s0.1,0.1,0.1,0.3c0,0.1,0,0.2-0.1,0.3
		s-0.2,0.1-0.4,0.1h-0.9h-0.3c-0.1,0-0.2,0-0.3-0.1s-0.1-0.1-0.1-0.3c0-0.1,0-0.2,0.1-0.3s0.2-0.1,0.4-0.1H294.2z"/>
	<path d="M299.9,243.7v-0.9c0-0.1,0-0.2,0.1-0.3s0.1-0.1,0.3-0.1c0.1,0,0.2,0.1,0.3,0.3c0.1,0.1,0.1,0.2,0.1,0.2
		c0.1,0.2,0.3,0.3,0.6,0.4s0.6,0.2,0.9,0.2c0.3,0,0.6-0.1,0.8-0.2s0.3-0.3,0.3-0.6c0-0.2-0.1-0.4-0.3-0.5c-0.2-0.1-0.5-0.1-0.9-0.1
		h-0.3c-0.7,0-1.2-0.1-1.5-0.3s-0.5-0.6-0.5-1c0-0.4,0.2-0.8,0.5-1c0.3-0.2,0.8-0.4,1.4-0.4c0.3,0,0.5,0,0.8,0.1s0.4,0.1,0.4,0.1
		c0,0,0.1,0,0.2-0.1s0.2-0.1,0.3-0.1c0.1,0,0.2,0,0.2,0.1c0.1,0.1,0.1,0.2,0.1,0.4v0.6c0,0.2,0,0.3-0.1,0.4s-0.1,0.1-0.2,0.1
		c-0.1,0-0.2-0.1-0.4-0.2c-0.1-0.1-0.2-0.2-0.2-0.3c-0.2-0.2-0.4-0.3-0.6-0.3s-0.4-0.1-0.7-0.1c-0.3,0-0.6,0.1-0.7,0.2
		c-0.2,0.1-0.3,0.3-0.3,0.5c0,0.2,0.1,0.4,0.3,0.4s0.6,0.1,1.2,0.2c0.7,0,1.2,0.1,1.5,0.4s0.5,0.6,0.5,1c0,0.4-0.2,0.8-0.5,1.1
		s-0.8,0.4-1.4,0.4c-0.2,0-0.4,0-0.6-0.1s-0.5-0.1-0.9-0.2c-0.1,0.1-0.2,0.1-0.3,0.2c-0.1,0-0.2,0.1-0.2,0.1c-0.1,0-0.2,0-0.3-0.1
		C299.9,243.9,299.9,243.8,299.9,243.7z"/>
	<path d="M306.4,242c0,0.5,0.2,0.8,0.5,1.1c0.3,0.3,0.7,0.4,1.2,0.4c0.4,0,0.8-0.1,1.2-0.3s0.7-0.3,0.8-0.3c0.1,0,0.2,0,0.2,0.1
		s0.1,0.1,0.1,0.2c0,0.1,0,0.2-0.1,0.3c-0.1,0.1-0.2,0.2-0.3,0.2c-0.3,0.2-0.7,0.3-1,0.4c-0.3,0.1-0.7,0.1-1,0.1
		c-0.7,0-1.3-0.2-1.8-0.6s-0.7-1-0.7-1.7c0-0.7,0.2-1.3,0.7-1.7s1.1-0.7,1.8-0.7c0.7,0,1.3,0.2,1.7,0.6s0.7,0.9,0.7,1.5
		c0,0.2,0,0.3-0.1,0.4c-0.1,0.1-0.3,0.1-0.6,0.1h-0.1H306.4z M306.4,241.3h3.2c0-0.4-0.2-0.7-0.5-0.9c-0.3-0.2-0.6-0.4-1-0.4
		c-0.4,0-0.8,0.1-1.1,0.3S306.5,240.9,306.4,241.3z"/>
	<path d="M315.5,239.8L315.5,239.8c0-0.1,0-0.2,0.1-0.3s0.2-0.1,0.3-0.1c0.1,0,0.2,0,0.3,0.1c0,0.1,0.1,0.2,0.1,0.5v0.9
		c0,0.1,0,0.2-0.1,0.3s-0.2,0.1-0.3,0.1c-0.1,0-0.2,0-0.2-0.1c-0.1-0.1-0.1-0.2-0.2-0.3c-0.2-0.3-0.3-0.5-0.6-0.6
		c-0.2-0.1-0.5-0.2-0.8-0.2c-0.5,0-0.9,0.1-1.2,0.4c-0.3,0.3-0.5,0.7-0.5,1.2c0,0.5,0.2,0.9,0.5,1.2c0.3,0.3,0.7,0.5,1.2,0.5
		c0.2,0,0.4,0,0.6-0.1c0.2-0.1,0.4-0.2,0.6-0.3c0.1,0,0.1-0.1,0.2-0.2c0.2-0.2,0.4-0.3,0.5-0.3c0.1,0,0.2,0,0.2,0.1
		c0.1,0.1,0.1,0.1,0.1,0.2c0,0.3-0.2,0.5-0.7,0.8c-0.5,0.3-1,0.4-1.6,0.4c-0.7,0-1.3-0.2-1.8-0.7c-0.5-0.5-0.7-1-0.7-1.7
		s0.2-1.2,0.7-1.7s1.1-0.7,1.8-0.7c0.2,0,0.5,0,0.7,0.1C314.9,239.6,315.2,239.7,315.5,239.8z"/>
	<path d="M321.3,239.8c0.2,0,0.3,0,0.3,0.1c0.1,0.1,0.1,0.1,0.1,0.3c0,0.1,0,0.2-0.1,0.3s-0.2,0.1-0.3,0.1h-2v1.6
		c0,0.5,0.1,0.9,0.2,1.1c0.1,0.2,0.4,0.3,0.7,0.3c0.3,0,0.7-0.1,1.1-0.3s0.7-0.3,0.8-0.3c0.1,0,0.2,0,0.2,0.1
		c0.1,0.1,0.1,0.1,0.1,0.2c0,0.1,0,0.2-0.1,0.3c-0.1,0.1-0.2,0.2-0.4,0.2c-0.3,0.1-0.6,0.2-0.9,0.3c-0.3,0.1-0.5,0.1-0.7,0.1
		c-0.4,0-0.7-0.1-1-0.2c-0.3-0.1-0.5-0.3-0.6-0.5c-0.1-0.1-0.1-0.2-0.1-0.4c0-0.2,0-0.4,0-0.7v-0.2v-1.6h-0.8c-0.1,0-0.2,0-0.3-0.1
		s-0.1-0.1-0.1-0.3c0-0.1,0-0.2,0.1-0.3s0.3-0.1,0.5-0.1h0.6v-1v-0.3c0-0.1,0-0.2,0.1-0.3c0.1-0.1,0.2-0.1,0.3-0.1
		c0.1,0,0.2,0,0.3,0.1s0.1,0.3,0.1,0.6v1H321.3z"/>
	<path d="M324.4,242c0,0.5,0.2,0.8,0.5,1.1c0.3,0.3,0.7,0.4,1.2,0.4c0.4,0,0.8-0.1,1.2-0.3s0.7-0.3,0.8-0.3c0.1,0,0.2,0,0.2,0.1
		s0.1,0.1,0.1,0.2c0,0.1,0,0.2-0.1,0.3c-0.1,0.1-0.2,0.2-0.3,0.2c-0.3,0.2-0.7,0.3-1,0.4c-0.3,0.1-0.7,0.1-1,0.1
		c-0.7,0-1.3-0.2-1.8-0.6s-0.7-1-0.7-1.7c0-0.7,0.2-1.3,0.7-1.7s1.1-0.7,1.8-0.7c0.7,0,1.3,0.2,1.7,0.6s0.7,0.9,0.7,1.5
		c0,0.2,0,0.3-0.1,0.4c-0.1,0.1-0.3,0.1-0.6,0.1h-0.1H324.4z M324.4,241.3h3.2c0-0.4-0.2-0.7-0.5-0.9c-0.3-0.2-0.6-0.4-1-0.4
		c-0.4,0-0.8,0.1-1.1,0.3S324.5,240.9,324.4,241.3z"/>
	<path d="M333.3,239.8c0.2,0,0.3,0,0.3,0.1c0.1,0.1,0.1,0.1,0.1,0.3c0,0.1,0,0.2-0.1,0.3s-0.2,0.1-0.3,0.1h-2v1.6
		c0,0.5,0.1,0.9,0.2,1.1c0.1,0.2,0.4,0.3,0.7,0.3c0.3,0,0.7-0.1,1.1-0.3s0.7-0.3,0.8-0.3c0.1,0,0.2,0,0.2,0.1
		c0.1,0.1,0.1,0.1,0.1,0.2c0,0.1,0,0.2-0.1,0.3c-0.1,0.1-0.2,0.2-0.4,0.2c-0.3,0.1-0.6,0.2-0.9,0.3c-0.3,0.1-0.5,0.1-0.7,0.1
		c-0.4,0-0.7-0.1-1-0.2c-0.3-0.1-0.5-0.3-0.6-0.5c-0.1-0.1-0.1-0.2-0.1-0.4c0-0.2,0-0.4,0-0.7v-0.2v-1.6h-0.8c-0.1,0-0.2,0-0.3-0.1
		s-0.1-0.1-0.1-0.3c0-0.1,0-0.2,0.1-0.3s0.3-0.1,0.5-0.1h0.6v-1v-0.3c0-0.1,0-0.2,0.1-0.3c0.1-0.1,0.2-0.1,0.3-0.1
		c0.1,0,0.2,0,0.3,0.1s0.1,0.3,0.1,0.6v1H333.3z"/>
	<path d="M336.8,242.2c0,0.4,0.1,0.7,0.3,0.9s0.4,0.3,0.8,0.3c0.4,0,0.7-0.1,0.9-0.3c0.3-0.2,0.4-0.5,0.4-0.8v-2h-0.7
		c-0.1,0-0.2,0-0.3-0.1c-0.1-0.1-0.1-0.1-0.1-0.2c0-0.1,0-0.2,0.1-0.3s0.2-0.1,0.3-0.1h1c0.1,0,0.2,0,0.3,0.1c0,0.1,0.1,0.2,0.1,0.4
		v3.3h0.2c0.2,0,0.3,0,0.3,0.1c0.1,0.1,0.1,0.1,0.1,0.3c0,0.1,0,0.2-0.1,0.3c-0.1,0.1-0.2,0.1-0.3,0.1h-0.7c-0.1,0-0.2,0-0.2-0.1
		s-0.1-0.1-0.1-0.1v-0.3c-0.3,0.2-0.6,0.4-0.8,0.5c-0.2,0.1-0.5,0.1-0.7,0.1c-0.5,0-0.9-0.1-1.2-0.4c-0.3-0.3-0.4-0.7-0.4-1.3v-2.2
		h-0.1c-0.2,0-0.4,0-0.5-0.1s-0.1-0.1-0.1-0.3c0-0.1,0-0.2,0.1-0.3c0.1-0.1,0.2-0.1,0.3-0.1h0.7c0.1,0,0.2,0,0.2,0.1
		c0,0,0.1,0.1,0.1,0.3V242.2z"/>
	<path d="M342.4,242c0,0.5,0.2,0.8,0.5,1.1c0.3,0.3,0.7,0.4,1.2,0.4c0.4,0,0.8-0.1,1.2-0.3s0.7-0.3,0.8-0.3c0.1,0,0.2,0,0.2,0.1
		s0.1,0.1,0.1,0.2c0,0.1,0,0.2-0.1,0.3c-0.1,0.1-0.2,0.2-0.3,0.2c-0.3,0.2-0.7,0.3-1,0.4c-0.3,0.1-0.7,0.1-1,0.1
		c-0.7,0-1.3-0.2-1.8-0.6s-0.7-1-0.7-1.7c0-0.7,0.2-1.3,0.7-1.7s1.1-0.7,1.8-0.7c0.7,0,1.3,0.2,1.7,0.6s0.7,0.9,0.7,1.5
		c0,0.2,0,0.3-0.1,0.4c-0.1,0.1-0.3,0.1-0.6,0.1h-0.1H342.4z M342.4,241.3h3.2c0-0.4-0.2-0.7-0.5-0.9c-0.3-0.2-0.6-0.4-1-0.4
		c-0.4,0-0.8,0.1-1.1,0.3S342.5,240.9,342.4,241.3z"/>
	<path d="M349.5,243.3h1.6c0.1,0,0.2,0,0.3,0.1c0.1,0.1,0.1,0.1,0.1,0.3c0,0.1,0,0.2-0.1,0.3c-0.1,0.1-0.2,0.1-0.3,0.1h-3.2
		c-0.1,0-0.2,0-0.3-0.1s-0.1-0.1-0.1-0.3c0-0.1,0-0.2,0.1-0.3c0.1-0.1,0.2-0.1,0.3-0.1h0.8v-3.1h-0.3c-0.3,0-0.5,0-0.6-0.1
		c-0.1,0-0.1-0.1-0.1-0.3c0-0.1,0-0.2,0.1-0.3c0.1-0.1,0.2-0.1,0.3-0.1h1.1c0.1,0,0.2,0,0.2,0.1s0.1,0.1,0.1,0.1v0.8
		c0.3-0.4,0.6-0.7,1-0.9s0.7-0.3,1.1-0.3c0.3,0,0.5,0.1,0.7,0.2c0.2,0.1,0.3,0.3,0.3,0.5c0,0.1,0,0.2-0.1,0.3
		c-0.1,0.1-0.2,0.1-0.3,0.1c-0.1,0-0.2,0-0.4-0.1c-0.2-0.1-0.3-0.1-0.5-0.1c-0.3,0-0.5,0.1-0.8,0.3c-0.3,0.2-0.6,0.5-0.9,0.9V243.3z
		"/>
	<path d="M363.1,243.4c-0.3,0.2-0.6,0.4-0.9,0.6c-0.3,0.1-0.6,0.2-1,0.2c-0.5,0-0.9-0.1-1.2-0.4c-0.3-0.3-0.4-0.6-0.4-1.1
		c0-0.5,0.2-0.9,0.6-1.2c0.4-0.3,1-0.4,1.7-0.4c0.2,0,0.4,0,0.6,0s0.4,0.1,0.6,0.1v0c0-0.4-0.1-0.7-0.3-0.8s-0.5-0.3-0.8-0.3
		c-0.3,0-0.5,0.1-0.8,0.2s-0.5,0.2-0.6,0.2c-0.1,0-0.2,0-0.2-0.1s-0.1-0.2-0.1-0.3c0-0.2,0.2-0.4,0.5-0.5c0.4-0.1,0.8-0.2,1.4-0.2
		c0.6,0,1,0.1,1.3,0.4s0.4,0.7,0.4,1.3v2.2h0.2c0.2,0,0.4,0,0.5,0.1s0.1,0.1,0.1,0.3c0,0.1,0,0.2-0.1,0.3s-0.2,0.1-0.3,0.1h-0.8
		c-0.1,0-0.2,0-0.2-0.1s-0.1-0.1-0.1-0.2L363.1,243.4z M363.1,241.9c-0.2-0.1-0.4-0.1-0.5-0.1c-0.2,0-0.3,0-0.5,0
		c-0.5,0-0.9,0.1-1.2,0.3s-0.4,0.4-0.4,0.7c0,0.2,0.1,0.4,0.3,0.5c0.2,0.1,0.4,0.2,0.7,0.2c0.4,0,0.8-0.1,1.2-0.3
		c0.4-0.2,0.5-0.4,0.5-0.7V241.9z"/>
	<path d="M369.5,244c-0.1,0-0.1,0-0.1-0.1c0,0,0-0.1,0-0.2v-0.4c-0.2,0.2-0.4,0.4-0.7,0.6s-0.6,0.2-1,0.2c-0.6,0-1.1-0.2-1.5-0.7
		c-0.4-0.4-0.6-1-0.6-1.6c0-0.7,0.2-1.2,0.7-1.7s1-0.7,1.7-0.7c0.3,0,0.6,0.1,0.9,0.2s0.5,0.3,0.7,0.5v-1.9h-0.3
		c-0.3,0-0.5,0-0.5-0.1c-0.1-0.1-0.1-0.1-0.1-0.3c0-0.1,0-0.2,0.1-0.3c0.1-0.1,0.2-0.1,0.3-0.1h1c0.1,0,0.2,0,0.2,0
		c0,0,0.1,0.1,0.1,0.2v5.5h0.2c0.2,0,0.3,0,0.3,0.1s0.1,0.1,0.1,0.3c0,0.1,0,0.2-0.1,0.3s-0.1,0.1-0.2,0.1H369.5z M366.3,241.8
		c0,0.4,0.1,0.8,0.4,1.1s0.7,0.4,1.1,0.4c0.4,0,0.8-0.1,1.1-0.4s0.4-0.7,0.4-1.1c0-0.5-0.1-0.8-0.4-1.1c-0.3-0.3-0.7-0.4-1.1-0.4
		c-0.5,0-0.8,0.1-1.1,0.4S366.3,241.4,366.3,241.8z"/>
	<path d="M374.5,243.3h1.6c0.1,0,0.2,0,0.3,0.1c0.1,0.1,0.1,0.1,0.1,0.3c0,0.1,0,0.2-0.1,0.3c-0.1,0.1-0.2,0.1-0.3,0.1h-3.8
		c-0.1,0-0.2,0-0.3-0.1s-0.1-0.1-0.1-0.3c0-0.1,0-0.2,0.1-0.3s0.2-0.1,0.3-0.1h1.5v-3.1h-1c-0.1,0-0.2,0-0.3-0.1
		c-0.1-0.1-0.1-0.1-0.1-0.3s0-0.2,0.1-0.3s0.2-0.1,0.3-0.1h1.4c0.1,0,0.2,0,0.2,0.1c0,0,0.1,0.1,0.1,0.1V243.3z M373.6,238.1
		c0-0.4,0-0.6,0.1-0.7c0.1-0.1,0.2-0.1,0.4-0.1c0.2,0,0.3,0,0.4,0.1s0.1,0.3,0.1,0.5c0,0.3,0,0.5-0.1,0.5c-0.1,0.1-0.2,0.1-0.4,0.1
		c-0.2,0-0.3,0-0.4-0.1C373.6,238.4,373.6,238.3,373.6,238.1z"/>
	<path d="M378.8,245.3h1.2c0.1,0,0.2,0,0.3,0.1s0.1,0.1,0.1,0.3c0,0.1,0,0.2-0.1,0.3c-0.1,0.1-0.2,0.1-0.3,0.1h-2.2
		c-0.1,0-0.2,0-0.3-0.1c-0.1-0.1-0.1-0.1-0.1-0.3c0-0.1,0-0.2,0.1-0.3c0.1-0.1,0.2-0.1,0.5-0.1h0.1v-5.1h-0.1c-0.2,0-0.4,0-0.5-0.1
		c-0.1-0.1-0.1-0.1-0.1-0.3c0-0.1,0-0.2,0.1-0.3c0.1-0.1,0.2-0.1,0.3-0.1h0.7c0.1,0,0.2,0,0.2,0c0,0,0.1,0.1,0.1,0.2v0.5
		c0.2-0.2,0.5-0.4,0.7-0.5c0.3-0.1,0.6-0.2,0.9-0.2c0.7,0,1.2,0.2,1.6,0.7s0.7,1,0.7,1.7c0,0.6-0.2,1.2-0.6,1.6s-0.9,0.6-1.6,0.6
		c-0.3,0-0.7-0.1-1-0.2s-0.5-0.3-0.7-0.5V245.3z M380.3,243.3c0.5,0,0.8-0.1,1.1-0.4s0.4-0.7,0.4-1.1c0-0.4-0.1-0.8-0.4-1.1
		c-0.3-0.3-0.7-0.4-1.1-0.4s-0.8,0.1-1.1,0.4s-0.4,0.7-0.4,1.1c0,0.4,0.1,0.8,0.4,1.1C379.5,243.2,379.8,243.3,380.3,243.3z"/>
	<path d="M386.5,243.3h1.6c0.1,0,0.2,0,0.3,0.1c0.1,0.1,0.1,0.1,0.1,0.3c0,0.1,0,0.2-0.1,0.3c-0.1,0.1-0.2,0.1-0.3,0.1h-3.8
		c-0.1,0-0.2,0-0.3-0.1s-0.1-0.1-0.1-0.3c0-0.1,0-0.2,0.1-0.3s0.2-0.1,0.3-0.1h1.5v-3.1h-1c-0.1,0-0.2,0-0.3-0.1
		c-0.1-0.1-0.1-0.1-0.1-0.3s0-0.2,0.1-0.3s0.2-0.1,0.3-0.1h1.4c0.1,0,0.2,0,0.2,0.1c0,0,0.1,0.1,0.1,0.1V243.3z M385.6,238.1
		c0-0.4,0-0.6,0.1-0.7c0.1-0.1,0.2-0.1,0.4-0.1c0.2,0,0.3,0,0.4,0.1s0.1,0.3,0.1,0.5c0,0.3,0,0.5-0.1,0.5c-0.1,0.1-0.2,0.1-0.4,0.1
		c-0.2,0-0.3,0-0.4-0.1C385.6,238.4,385.6,238.3,385.6,238.1z"/>
	<path d="M389.9,243.7v-0.9c0-0.1,0-0.2,0.1-0.3c0.1-0.1,0.1-0.1,0.3-0.1c0.1,0,0.2,0.1,0.3,0.3c0.1,0.1,0.1,0.2,0.1,0.2
		c0.1,0.2,0.3,0.3,0.6,0.4s0.6,0.2,0.9,0.2c0.3,0,0.6-0.1,0.8-0.2s0.3-0.3,0.3-0.6c0-0.2-0.1-0.4-0.3-0.5c-0.2-0.1-0.5-0.1-0.9-0.1
		h-0.3c-0.7,0-1.2-0.1-1.5-0.3s-0.5-0.6-0.5-1c0-0.4,0.2-0.8,0.5-1c0.3-0.2,0.8-0.4,1.4-0.4c0.3,0,0.5,0,0.8,0.1s0.4,0.1,0.4,0.1
		c0,0,0.1,0,0.2-0.1s0.2-0.1,0.3-0.1c0.1,0,0.2,0,0.2,0.1c0.1,0.1,0.1,0.2,0.1,0.4v0.6c0,0.2,0,0.3-0.1,0.4s-0.1,0.1-0.2,0.1
		c-0.1,0-0.2-0.1-0.4-0.2c-0.1-0.1-0.2-0.2-0.2-0.3c-0.2-0.2-0.4-0.3-0.6-0.3s-0.4-0.1-0.7-0.1c-0.3,0-0.6,0.1-0.7,0.2
		c-0.2,0.1-0.3,0.3-0.3,0.5c0,0.2,0.1,0.4,0.3,0.4s0.6,0.1,1.2,0.2c0.7,0,1.2,0.1,1.5,0.4s0.5,0.6,0.5,1c0,0.4-0.2,0.8-0.5,1.1
		s-0.8,0.4-1.4,0.4c-0.2,0-0.4,0-0.6-0.1s-0.5-0.1-0.9-0.2c-0.1,0.1-0.2,0.1-0.3,0.2s-0.1,0.1-0.2,0.1c-0.1,0-0.2,0-0.3-0.1
		C389.9,243.9,389.9,243.8,389.9,243.7z"/>
	<path d="M399.5,239.8L399.5,239.8c0-0.1,0-0.2,0.1-0.3s0.2-0.1,0.3-0.1c0.1,0,0.2,0,0.3,0.1c0,0.1,0.1,0.2,0.1,0.5v0.9
		c0,0.1,0,0.2-0.1,0.3s-0.2,0.1-0.3,0.1c-0.1,0-0.2,0-0.2-0.1c-0.1-0.1-0.1-0.2-0.2-0.3c-0.2-0.3-0.3-0.5-0.6-0.6
		c-0.2-0.1-0.5-0.2-0.8-0.2c-0.5,0-0.9,0.1-1.2,0.4c-0.3,0.3-0.5,0.7-0.5,1.2c0,0.5,0.2,0.9,0.5,1.2c0.3,0.3,0.7,0.5,1.2,0.5
		c0.2,0,0.4,0,0.6-0.1c0.2-0.1,0.4-0.2,0.6-0.3c0.1,0,0.1-0.1,0.2-0.2c0.2-0.2,0.4-0.3,0.5-0.3c0.1,0,0.2,0,0.2,0.1
		c0.1,0.1,0.1,0.1,0.1,0.2c0,0.3-0.2,0.5-0.7,0.8c-0.5,0.3-1,0.4-1.6,0.4c-0.7,0-1.3-0.2-1.8-0.7c-0.5-0.5-0.7-1-0.7-1.7
		s0.2-1.2,0.7-1.7s1.1-0.7,1.8-0.7c0.2,0,0.5,0,0.7,0.1C398.9,239.6,399.2,239.7,399.5,239.8z"/>
	<path d="M116.2,279.3c0.2,0,0.3,0,0.3,0.1s0.1,0.1,0.1,0.3c0,0.1,0,0.2-0.1,0.3s-0.2,0.1-0.4,0.1h-2.4c-0.1,0-0.2,0-0.3-0.1
		s-0.1-0.1-0.1-0.3s0-0.2,0.1-0.3s0.1-0.1,0.3-0.1h0.6v-4.4H114c-0.3,0-0.5,0-0.5-0.1s-0.1-0.1-0.1-0.3c0-0.1,0-0.2,0.1-0.3
		s0.1-0.1,0.3-0.1h2.3c0.8,0,1.4,0.2,1.8,0.5s0.6,0.8,0.6,1.4s-0.2,1-0.6,1.3s-1,0.5-1.8,0.5h-0.9v1.5H116.2z M115.2,274.9v2.3h0.9
		c0.5,0,0.9-0.1,1.1-0.3s0.4-0.5,0.4-0.9c0-0.4-0.1-0.7-0.4-0.8s-0.6-0.3-1.1-0.3H115.2z"/>
	<path d="M121.5,279.3h1.6c0.1,0,0.2,0,0.3,0.1s0.1,0.1,0.1,0.3c0,0.1,0,0.2-0.1,0.3s-0.2,0.1-0.3,0.1h-3.2c-0.1,0-0.2,0-0.3-0.1
		s-0.1-0.1-0.1-0.3c0-0.1,0-0.2,0.1-0.3s0.2-0.1,0.3-0.1h0.8v-3.1h-0.3c-0.3,0-0.5,0-0.6-0.1c-0.1,0-0.1-0.1-0.1-0.3
		c0-0.1,0-0.2,0.1-0.3s0.2-0.1,0.3-0.1h1.1c0.1,0,0.2,0,0.2,0.1s0.1,0.1,0.1,0.1v0.8c0.3-0.4,0.6-0.7,1-0.9s0.7-0.3,1.1-0.3
		c0.3,0,0.5,0.1,0.7,0.2c0.2,0.1,0.3,0.3,0.3,0.5c0,0.1,0,0.2-0.1,0.3s-0.2,0.1-0.3,0.1c-0.1,0-0.2,0-0.4-0.1s-0.3-0.1-0.5-0.1
		c-0.3,0-0.5,0.1-0.8,0.3s-0.6,0.5-0.9,0.9V279.3z"/>
	<path d="M128.4,279.3h1.6c0.1,0,0.2,0,0.3,0.1s0.1,0.1,0.1,0.3c0,0.1,0,0.2-0.1,0.3s-0.2,0.1-0.3,0.1h-3.8c-0.1,0-0.2,0-0.3-0.1
		s-0.1-0.1-0.1-0.3c0-0.1,0-0.2,0.1-0.3s0.2-0.1,0.3-0.1h1.5v-3.1h-1c-0.1,0-0.2,0-0.3-0.1c-0.1-0.1-0.1-0.1-0.1-0.3s0-0.2,0.1-0.3
		s0.2-0.1,0.3-0.1h1.4c0.1,0,0.2,0,0.2,0.1s0.1,0.1,0.1,0.1V279.3z M127.5,274.1c0-0.4,0-0.6,0.1-0.7s0.2-0.1,0.4-0.1
		c0.2,0,0.3,0,0.4,0.1s0.1,0.3,0.1,0.5c0,0.3,0,0.5-0.1,0.5s-0.2,0.1-0.4,0.1c-0.2,0-0.3,0-0.4-0.1S127.5,274.3,127.5,274.1z"/>
	<path d="M131.8,279.7v-0.9c0-0.1,0-0.2,0.1-0.3s0.1-0.1,0.3-0.1c0.1,0,0.2,0.1,0.3,0.3c0.1,0.1,0.1,0.2,0.1,0.2
		c0.1,0.2,0.3,0.3,0.6,0.4s0.6,0.2,0.9,0.2c0.3,0,0.6-0.1,0.8-0.2s0.3-0.3,0.3-0.6c0-0.2-0.1-0.4-0.3-0.5s-0.5-0.1-0.9-0.1h-0.3
		c-0.7,0-1.2-0.1-1.5-0.3s-0.5-0.6-0.5-1c0-0.4,0.2-0.8,0.5-1s0.8-0.4,1.4-0.4c0.3,0,0.5,0,0.8,0.1s0.4,0.1,0.4,0.1
		c0,0,0.1,0,0.2-0.1s0.2-0.1,0.3-0.1c0.1,0,0.2,0,0.2,0.1s0.1,0.2,0.1,0.4v0.6c0,0.2,0,0.3-0.1,0.4s-0.1,0.1-0.2,0.1
		c-0.1,0-0.2-0.1-0.4-0.2c-0.1-0.1-0.2-0.2-0.2-0.3c-0.2-0.2-0.4-0.3-0.6-0.3s-0.4-0.1-0.7-0.1c-0.3,0-0.6,0.1-0.7,0.2
		s-0.3,0.3-0.3,0.5c0,0.2,0.1,0.4,0.3,0.4s0.6,0.1,1.2,0.2c0.7,0,1.2,0.1,1.5,0.4s0.5,0.6,0.5,1c0,0.4-0.2,0.8-0.5,1.1
		s-0.8,0.4-1.4,0.4c-0.2,0-0.4,0-0.6-0.1s-0.5-0.1-0.9-0.2c-0.1,0.1-0.2,0.1-0.3,0.2s-0.1,0.1-0.2,0.1c-0.1,0-0.2,0-0.3-0.1
		S131.8,279.8,131.8,279.7z"/>
	<path d="M141.8,277.3c0-0.5,0-0.8-0.1-0.9s-0.2-0.2-0.4-0.2c-0.2,0-0.4,0.1-0.6,0.3s-0.2,0.5-0.2,0.9v2h0.1c0.2,0,0.3,0,0.4,0.1
		c0.1,0,0.1,0.1,0.1,0.3c0,0.1,0,0.2-0.1,0.3s-0.1,0.1-0.3,0.1h-0.6c-0.1,0-0.2,0-0.3-0.1s-0.1-0.2-0.1-0.4v-0.1v-2.1v-0.4
		c0-0.2-0.1-0.4-0.2-0.6s-0.3-0.2-0.5-0.2c-0.1,0-0.3,0-0.4,0.1s-0.2,0.2-0.3,0.4v2.7h0.2c0.2,0,0.3,0,0.4,0.1s0.1,0.1,0.1,0.3
		c0,0.1,0,0.2-0.1,0.3s-0.2,0.1-0.3,0.1h-1.3c-0.1,0-0.2,0-0.3-0.1c-0.1-0.1-0.1-0.1-0.1-0.3c0-0.1,0-0.2,0.1-0.3
		c0.1,0,0.2-0.1,0.4-0.1h0.1v-3.1h-0.1c-0.2,0-0.4,0-0.5-0.1s-0.1-0.1-0.1-0.3c0-0.1,0-0.2,0.1-0.3s0.2-0.1,0.3-0.1h0.7
		c0.1,0,0.2,0,0.2,0.1s0.1,0.1,0.1,0.2c0.1-0.1,0.3-0.2,0.4-0.3c0.2-0.1,0.3-0.1,0.5-0.1c0.2,0,0.4,0,0.6,0.1
		c0.1,0.1,0.3,0.2,0.3,0.4c0.1-0.2,0.3-0.4,0.5-0.5c0.2-0.1,0.4-0.1,0.6-0.1c0.4,0,0.7,0.1,0.9,0.4c0.2,0.3,0.3,0.7,0.3,1.3v2.2h0.1
		c0.2,0,0.3,0,0.4,0.1c0.1,0,0.1,0.1,0.1,0.3c0,0.1,0,0.2-0.1,0.3s-0.1,0.1-0.3,0.1h-0.6c-0.1,0-0.2,0-0.3-0.1s-0.1-0.2-0.1-0.4
		V277.3z"/>
	<path d="M151.5,279.3h1.6c0.1,0,0.2,0,0.3,0.1s0.1,0.1,0.1,0.3c0,0.1,0,0.2-0.1,0.3s-0.2,0.1-0.3,0.1h-3.2c-0.1,0-0.2,0-0.3-0.1
		s-0.1-0.1-0.1-0.3c0-0.1,0-0.2,0.1-0.3s0.2-0.1,0.3-0.1h0.8v-3.1h-0.3c-0.3,0-0.5,0-0.6-0.1c-0.1,0-0.1-0.1-0.1-0.3
		c0-0.1,0-0.2,0.1-0.3s0.2-0.1,0.3-0.1h1.1c0.1,0,0.2,0,0.2,0.1s0.1,0.1,0.1,0.1v0.8c0.3-0.4,0.6-0.7,1-0.9s0.7-0.3,1.1-0.3
		c0.3,0,0.5,0.1,0.7,0.2c0.2,0.1,0.3,0.3,0.3,0.5c0,0.1,0,0.2-0.1,0.3s-0.2,0.1-0.3,0.1c-0.1,0-0.2,0-0.4-0.1s-0.3-0.1-0.5-0.1
		c-0.3,0-0.5,0.1-0.8,0.3s-0.6,0.5-0.9,0.9V279.3z"/>
	<path d="M156.3,278c0,0.5,0.2,0.8,0.5,1.1c0.3,0.3,0.7,0.4,1.2,0.4c0.4,0,0.8-0.1,1.2-0.3s0.7-0.3,0.8-0.3c0.1,0,0.2,0,0.2,0.1
		s0.1,0.1,0.1,0.2c0,0.1,0,0.2-0.1,0.3c-0.1,0.1-0.2,0.2-0.3,0.2c-0.3,0.2-0.7,0.3-1,0.4s-0.7,0.1-1,0.1c-0.7,0-1.3-0.2-1.8-0.6
		s-0.7-1-0.7-1.7c0-0.7,0.2-1.3,0.7-1.7s1.1-0.7,1.8-0.7c0.7,0,1.3,0.2,1.7,0.6s0.7,0.9,0.7,1.5c0,0.2,0,0.3-0.1,0.4
		s-0.3,0.1-0.6,0.1h-0.1H156.3z M156.4,277.3h3.2c0-0.4-0.2-0.7-0.5-0.9s-0.6-0.4-1-0.4c-0.4,0-0.8,0.1-1.1,0.3
		S156.5,276.9,156.4,277.3z"/>
	<path d="M162.2,279.3v-3.1h-0.1c-0.2,0-0.4,0-0.5-0.1s-0.1-0.1-0.1-0.3c0-0.1,0-0.2,0.1-0.3s0.2-0.1,0.3-0.1h0.2h0.5
		c0.1,0,0.2,0,0.2,0.1s0.1,0.1,0.1,0.1v0.3c0.2-0.2,0.5-0.4,0.7-0.5s0.5-0.2,0.7-0.2c0.5,0,0.9,0.2,1.2,0.5s0.4,0.7,0.4,1.3v2.2h0.2
		c0.2,0,0.3,0,0.4,0.1c0.1,0.1,0.1,0.1,0.1,0.3c0,0.1,0,0.2-0.1,0.3s-0.2,0.1-0.4,0.1H165c-0.2,0-0.3,0-0.4-0.1
		c-0.1,0-0.1-0.1-0.1-0.3c0-0.1,0-0.2,0.1-0.3c0.1,0,0.2-0.1,0.4-0.1h0.2v-2c0-0.4-0.1-0.7-0.3-0.9s-0.4-0.3-0.8-0.3
		c-0.3,0-0.6,0.1-0.9,0.3c-0.3,0.2-0.4,0.5-0.4,0.8v2h0.2c0.2,0,0.3,0,0.4,0.1s0.1,0.1,0.1,0.3c0,0.1,0,0.2-0.1,0.3
		s-0.2,0.1-0.4,0.1h-0.9h-0.3c-0.1,0-0.2,0-0.3-0.1s-0.1-0.1-0.1-0.3c0-0.1,0-0.2,0.1-0.3s0.2-0.1,0.4-0.1H162.2z"/>
	<path d="M171.5,280c-0.1,0-0.1,0-0.1-0.1s0-0.1,0-0.2v-0.4c-0.2,0.2-0.4,0.4-0.7,0.6s-0.6,0.2-1,0.2c-0.6,0-1.1-0.2-1.5-0.7
		s-0.6-1-0.6-1.6c0-0.7,0.2-1.2,0.7-1.7s1-0.7,1.7-0.7c0.3,0,0.6,0.1,0.9,0.2s0.5,0.3,0.7,0.5v-1.9h-0.3c-0.3,0-0.5,0-0.5-0.1
		s-0.1-0.1-0.1-0.3c0-0.1,0-0.2,0.1-0.3s0.2-0.1,0.3-0.1h1c0.1,0,0.2,0,0.2,0s0.1,0.1,0.1,0.2v5.5h0.2c0.2,0,0.3,0,0.3,0.1
		s0.1,0.1,0.1,0.3c0,0.1,0,0.2-0.1,0.3s-0.1,0.1-0.2,0.1H171.5z M168.3,277.8c0,0.4,0.1,0.8,0.4,1.1s0.7,0.4,1.1,0.4
		c0.4,0,0.8-0.1,1.1-0.4s0.4-0.7,0.4-1.1c0-0.5-0.1-0.8-0.4-1.1s-0.7-0.4-1.1-0.4c-0.5,0-0.8,0.1-1.1,0.4S168.3,277.4,168.3,277.8z"
		/>
	<path d="M174.3,278c0,0.5,0.2,0.8,0.5,1.1c0.3,0.3,0.7,0.4,1.2,0.4c0.4,0,0.8-0.1,1.2-0.3s0.7-0.3,0.8-0.3c0.1,0,0.2,0,0.2,0.1
		s0.1,0.1,0.1,0.2c0,0.1,0,0.2-0.1,0.3c-0.1,0.1-0.2,0.2-0.3,0.2c-0.3,0.2-0.7,0.3-1,0.4s-0.7,0.1-1,0.1c-0.7,0-1.3-0.2-1.8-0.6
		s-0.7-1-0.7-1.7c0-0.7,0.2-1.3,0.7-1.7s1.1-0.7,1.8-0.7c0.7,0,1.3,0.2,1.7,0.6s0.7,0.9,0.7,1.5c0,0.2,0,0.3-0.1,0.4
		s-0.3,0.1-0.6,0.1h-0.1H174.3z M174.4,277.3h3.2c0-0.4-0.2-0.7-0.5-0.9s-0.6-0.4-1-0.4c-0.4,0-0.8,0.1-1.1,0.3
		S174.5,276.9,174.4,277.3z"/>
	<path d="M181.5,279.3h1.6c0.1,0,0.2,0,0.3,0.1s0.1,0.1,0.1,0.3c0,0.1,0,0.2-0.1,0.3s-0.2,0.1-0.3,0.1h-3.2c-0.1,0-0.2,0-0.3-0.1
		s-0.1-0.1-0.1-0.3c0-0.1,0-0.2,0.1-0.3s0.2-0.1,0.3-0.1h0.8v-3.1h-0.3c-0.3,0-0.5,0-0.6-0.1c-0.1,0-0.1-0.1-0.1-0.3
		c0-0.1,0-0.2,0.1-0.3s0.2-0.1,0.3-0.1h1.1c0.1,0,0.2,0,0.2,0.1s0.1,0.1,0.1,0.1v0.8c0.3-0.4,0.6-0.7,1-0.9s0.7-0.3,1.1-0.3
		c0.3,0,0.5,0.1,0.7,0.2c0.2,0.1,0.3,0.3,0.3,0.5c0,0.1,0,0.2-0.1,0.3s-0.2,0.1-0.3,0.1c-0.1,0-0.2,0-0.4-0.1s-0.3-0.1-0.5-0.1
		c-0.3,0-0.5,0.1-0.8,0.3s-0.6,0.5-0.9,0.9V279.3z"/>
	<path d="M186.3,278c0,0.5,0.2,0.8,0.5,1.1c0.3,0.3,0.7,0.4,1.2,0.4c0.4,0,0.8-0.1,1.2-0.3s0.7-0.3,0.8-0.3c0.1,0,0.2,0,0.2,0.1
		s0.1,0.1,0.1,0.2c0,0.1,0,0.2-0.1,0.3c-0.1,0.1-0.2,0.2-0.3,0.2c-0.3,0.2-0.7,0.3-1,0.4s-0.7,0.1-1,0.1c-0.7,0-1.3-0.2-1.8-0.6
		s-0.7-1-0.7-1.7c0-0.7,0.2-1.3,0.7-1.7s1.1-0.7,1.8-0.7c0.7,0,1.3,0.2,1.7,0.6s0.7,0.9,0.7,1.5c0,0.2,0,0.3-0.1,0.4
		s-0.3,0.1-0.6,0.1h-0.1H186.3z M186.4,277.3h3.2c0-0.4-0.2-0.7-0.5-0.9s-0.6-0.4-1-0.4c-0.4,0-0.8,0.1-1.1,0.3
		S186.5,276.9,186.4,277.3z"/>
	<path d="M193.5,279.3h1.6c0.1,0,0.2,0,0.3,0.1s0.1,0.1,0.1,0.3c0,0.1,0,0.2-0.1,0.3s-0.2,0.1-0.3,0.1h-3.2c-0.1,0-0.2,0-0.3-0.1
		s-0.1-0.1-0.1-0.3c0-0.1,0-0.2,0.1-0.3s0.2-0.1,0.3-0.1h0.8v-3.1h-0.3c-0.3,0-0.5,0-0.6-0.1c-0.1,0-0.1-0.1-0.1-0.3
		c0-0.1,0-0.2,0.1-0.3s0.2-0.1,0.3-0.1h1.1c0.1,0,0.2,0,0.2,0.1s0.1,0.1,0.1,0.1v0.8c0.3-0.4,0.6-0.7,1-0.9s0.7-0.3,1.1-0.3
		c0.3,0,0.5,0.1,0.7,0.2c0.2,0.1,0.3,0.3,0.3,0.5c0,0.1,0,0.2-0.1,0.3s-0.2,0.1-0.3,0.1c-0.1,0-0.2,0-0.4-0.1s-0.3-0.1-0.5-0.1
		c-0.3,0-0.5,0.1-0.8,0.3s-0.6,0.5-0.9,0.9V279.3z"/>
</g>
</svg>
