<?xml version="1.0" encoding="utf-8"?>
<!-- Generator: Adobe Illustrator 24.2.0, SVG Export Plug-In . SVG Version: 6.00 Build 0)  -->
<svg version="1.1" id="Layer_1" xmlns="http://www.w3.org/2000/svg" xmlns:xlink="http://www.w3.org/1999/xlink" x="0px" y="0px"
	 viewBox="0 0 65.2 29.7" style="enable-background:new 0 0 65.2 29.7;" xml:space="preserve">
<style type="text/css">
	.st0{enable-background:new    ;}
</style>
<g class="st0">
	<path d="M21.8,18.5c-0.4,0.8-1,1.5-1.5,1.9c-0.6,0.5-1.5,0.8-2.3,0.7c-0.8-0.1-1.5-0.4-2-0.7c-0.4-0.3-0.9-0.8-1.1-1.4
		c-0.9-2.8,1.1-8.3,3.9-10.7c0.7-0.6,1.4-0.8,2-0.7c0.9,0.1,1.9,0.5,2.4,1c0.6,0.5,0.7,1.1,0.6,1.8c0,0.8-0.2,1.9-0.5,2.6
		c-0.1,0.3-0.2,0.5-0.7,0.4c-1-0.2-1.4-0.8-1.4-1.7c0-0.7,0.3-1.6-0.1-1.8c-0.6-0.2-2.2,2.4-2.9,4.3c-0.7,2-1.1,4.3-0.4,4.5
		c0.4,0.1,0.9-0.2,1.7-1.1c0.6-0.6,1.3-0.8,2.1-0.5C22.3,17.4,22.2,17.9,21.8,18.5z"/>
	<path d="M32.4,10.8c0.1,2.7-1,7.1-3.2,9.3c-0.8,0.7-1.6,0.9-2.6,0.8c-0.6-0.1-1.4-0.3-1.9-0.7c-0.4-0.3-0.8-0.8-1-1.4
		c-0.9-2.9,0.9-8,3.7-10.3c0.6-0.5,1.5-0.7,2.1-0.6c0.8,0.1,1.7,0.5,2.2,0.9C32.2,9.4,32.4,10.1,32.4,10.8z M26.9,14.1
		c-0.7,1.9-1.1,4.4-0.3,4.7c0.7,0.3,1.9-1.4,2.7-3.8c0.6-1.8,1.1-4.6,0.4-4.8C29,10,27.6,12.2,26.9,14.1z"/>
	<path d="M34.1,20.6c-0.1,0.4-0.3,0.5-0.7,0.4c-0.4-0.1-0.9-0.3-1.2-0.6c-0.3-0.3-0.4-0.5-0.3-1.1c0.4-1.8,1.4-5.3,2.3-8.2
		c-0.1-0.3-0.3-0.7-0.5-1c-0.2-0.5-0.2-0.7,0.3-1c2-1.1,5.8-2.1,7-0.6c0.5,0.6,0.9,1.4,1.1,2.5c0.1,1.1-0.4,2-1.2,2.8
		c-1.2,1.3-3.6,2.6-5.7,3.3C34.7,18.3,34.4,19.5,34.1,20.6z M39.7,10.8c-0.1-0.4-1.2-0.5-2.5,0.1c-0.4,1-0.8,2.1-1.2,3.3
		C38.5,13.4,39.9,11.6,39.7,10.8z"/>
	<path d="M46.1,16.9c-0.4,1.4-0.8,2.7-1.2,3.9c-0.1,0.4-0.3,0.5-0.7,0.4c-0.4-0.1-0.9-0.3-1.2-0.6s-0.4-0.5-0.3-1.1
		c0.2-0.9,0.5-2.2,0.9-3.6c-0.3-2.4-0.7-5.3-1-7.3c-0.1-0.4,0-0.6,0.5-0.6c0.4-0.1,0.9-0.1,1.4,0c0.4,0.1,0.6,0.3,0.7,0.9
		c0.2,1,0.4,2.6,0.6,4.2c1-1.6,2.1-3.4,3.1-5c0.2-0.4,0.5-0.4,0.8-0.2c0.4,0.2,0.7,0.5,0.9,0.8c0.3,0.4,0.2,0.6,0,1.2
		C49.8,11.3,47.8,14.3,46.1,16.9z"/>
</g>
</svg>
