<?xml version="1.0" encoding="utf-8"?>
<!-- Generator: Adobe Illustrator 24.2.0, SVG Export Plug-In . SVG Version: 6.00 Build 0)  -->
<svg version="1.1" id="Layer_1" xmlns="http://www.w3.org/2000/svg" xmlns:xlink="http://www.w3.org/1999/xlink" x="0px" y="0px"
	 viewBox="0 0 314.7 107.4" style="enable-background:new 0 0 314.7 107.4;" xml:space="preserve">
<style type="text/css">
	.st0{enable-background:new    ;}
	.st1{fill:#FFFFFF;}
	.st2{fill:none;stroke:#000000;stroke-width:1;stroke-miterlimit:9.9999;}
</style>
<g class="st0">
	<path d="M15.4,91c-0.3,1.3-0.7,1.7-2,1.5c-1.2-0.2-2.8-0.6-3.9-1.3c-1.1-0.7-1.4-1.5-1.3-3.2c0.5-5.7,2.4-16.8,4-25.9
		c-0.5-0.8-1.3-1.9-1.8-2.9C9.8,57.7,9.8,57,11,56.1c5.6-4.1,16.7-8.4,20.9-4.4c1.7,1.6,3.3,3.8,4.2,7.2c0.8,3.4-0.6,6.3-2.5,9
		c-3.2,4.5-10,9.4-16.2,12.1C16.7,83.8,15.9,87.5,15.4,91z M29,59.1c-0.3-1.3-3.9-0.9-7.5,1.3c-0.7,3.1-1.5,6.7-2.3,10.6
		C26.3,67.2,29.7,61.4,29,59.1z"/>
	<path d="M40.2,80.7c-1,2.7-2,5.2-2.7,7.4c-0.5,1.4-1,1.5-2.2,1.1c-1.1-0.3-2.2-0.8-3.2-1.6c-1-0.9-1.1-1.7-0.6-3.5
		c2.9-9.5,9.1-25.3,13.2-34.1c0.8-1.6,1.8-2.6,3.9-2.8c2.5-0.2,5.9,0.2,8,0.7c1.5,0.4,1.8,1.3,1.8,2.9c-0.1,7.8,0.3,22.7,0.9,34
		c0.1,1.4-0.2,1.8-1.5,2c-1.3,0.2-3,0.1-3.8-0.1c-1.3-0.3-1.7-1-2-2.9c-0.2-2-0.4-4.3-0.6-6.9C47.5,78.2,43.2,79.4,40.2,80.7z
		 M50.8,69.5c-0.2-4.9-0.4-9.9-0.4-14.3c-1.9,4.3-4.3,10.2-6.7,16.1C46.1,70.6,48.5,69.9,50.8,69.5z"/>
	<path d="M66.7,75.3c4,2.7,7.6,3.3,8.9,1.8c1.6-1.7-5.2-4.7-8.9-8.1c-2.6-2.3-4.2-6.2-2.7-10.9c1.2-4.2,4.4-9.2,7.8-12
		c1.3-1,3.5-2.2,6.2-1.6c2,0.5,4.4,1.6,5.7,2.8c1.9,1.7,2,3.8,2,5.4c-0.1,2.9-1,7.8-2,10.5c-0.5,1.2-1,1.6-2.2,1.2
		c-3.3-1-4.9-2.7-4.7-5.2c0.2-2.3,1.5-7.1,0.7-7.4c-1.4-0.6-8.2,8.4-4.4,12.5c4.2,4.3,12.4,6.4,10.3,12.3c-1.6,4.3-4.6,7.7-9.6,8.3
		c-4,0.5-8.2-0.9-12.2-5.4c-2.1-2.3-1.9-3.2-0.9-4C62.6,74.4,65.3,74.4,66.7,75.3z"/>
	<path d="M103.9,48.1c-2.1,9.9-4.4,22.7-5.9,32.6c-0.2,1.3-0.6,1.6-1.9,1.4c-1.3-0.2-2.8-0.6-4-1.3c-1.2-0.7-1.4-1.6-1.3-3.3
		c0.5-6.6,2.5-18.9,4.1-27c-1.4,0.4-2.9,0.9-3.7,1.2c-1.2,0.4-1.9,0.4-2.7-0.7c-0.9-1.1-1.9-3-2.2-4.2c-0.4-1.2,0-1.5,0.9-1.9
		c5.6-2,14.5-4,20.1-4.8c1.4-0.2,1.9,0.1,2.4,0.7c0.9,1.1,1.7,2.7,2,3.8c0.3,1.3,0.3,1.6-1.2,1.9C108.6,47,106,47.6,103.9,48.1z"/>
	<path d="M112.8,43.6c-0.4-1.2-0.1-1.5,0.8-1.8c4.1-1.7,11.7-3.6,17.3-4.5c1.3-0.2,2.1,0.3,2.6,1.4c0.6,1.2,0.9,2.1,1.2,3.3
		c0.2,1.3-0.1,1.9-1.4,2.2c-2.8,0.7-6.2,1.5-9.4,2.5c-0.6,2.6-1.3,5.6-2.1,8.7c1.5-0.4,3-0.7,4.6-1c1.3-0.2,2.1,0,2.7,1.1
		c0.6,1.2,1,2.2,1.3,3.4c0.3,1.3,0,1.7-1.3,2.2c-3,1-6.4,2.1-9.4,3.3c-0.4,2-0.9,3.9-1.2,5.8c2.4-0.8,4.6-1.4,7.2-1.9
		c1.3-0.3,2.2-0.1,2.7,1c0.6,1.2,1.1,2.3,1.4,3.5c0.3,1.3,0.1,1.8-1.2,2.3c-3.4,1.2-7.2,2.6-10.3,3.9c-1.8,0.7-2.7,0.6-3.9-0.2
		c-0.9-0.6-1.8-1.3-2.8-2.3c-0.8-0.8-1.4-2.1-1.2-3.9c0.5-5.6,2.7-16.7,4.4-25C113.9,46.4,113.1,44.7,112.8,43.6z"/>
	<path d="M158.7,60.6c0.4,2.9-0.5,4.9-2.4,7.1c-2.7,3.2-8,6.9-11.7,8.5c-2.1,1-2.9,1-4.5,0.1c-1.7-1-2.6-1.7-4.1-3
		c-1.6-1.4-1.9-2-1.6-4.4c0.7-6.2,2.6-15.7,4-23.3c-0.5-0.7-1.1-1.7-1.6-2.6c-0.7-1.5-0.8-2.3,0.5-3.1c5.6-4,17-7.7,21-4
		c1.7,1.6,3,3.6,3.6,6.5c0.6,3.2-1,6.4-3.1,8.8c-1.1,1.2-2.4,2.5-4,3.8C156.9,56,158.4,58.2,158.7,60.6z M141.9,68.8
		c5.6-2.5,9.3-6.2,8.8-8.3c-0.3-1.3-3.3-1.8-7.4,0.4C142.8,63.5,142.3,66.2,141.9,68.8z M154.6,42.8c-0.3-1.3-3.7-1-7.8,1.7
		c-0.6,2.5-1.2,5.3-1.9,8.5C151.3,49.7,155.1,44.5,154.6,42.8z"/>
	<path d="M163.7,37.3c-0.4-1.2-0.1-1.5,0.8-1.8c4.1-1.7,11.7-3.6,17.3-4.5c1.3-0.2,2.1,0.3,2.6,1.4c0.6,1.2,0.9,2.1,1.2,3.3
		c0.2,1.3-0.1,1.9-1.4,2.2c-2.8,0.7-6.2,1.5-9.4,2.5c-0.6,2.6-1.3,5.6-2.1,8.7c1.5-0.4,3-0.7,4.6-1c1.3-0.2,2.1,0,2.7,1.1
		c0.6,1.2,1,2.2,1.3,3.4c0.3,1.3,0,1.7-1.3,2.2c-3,1-6.4,2.1-9.4,3.3c-0.4,2-0.9,3.9-1.2,5.8c2.4-0.8,4.6-1.4,7.2-1.9
		c1.3-0.3,2.2-0.1,2.7,1c0.6,1.2,1.1,2.3,1.4,3.5c0.3,1.3,0.1,1.8-1.2,2.3c-3.4,1.2-7.2,2.6-10.3,3.9c-1.8,0.7-2.7,0.6-3.9-0.2
		c-0.9-0.6-1.8-1.3-2.8-2.3c-0.8-0.8-1.4-2.1-1.2-3.9c0.5-5.6,2.7-16.7,4.4-25C164.8,40.1,164,38.4,163.7,37.3z"/>
	<path d="M187.1,34.4c-0.4-1.2-0.1-1.5,0.8-1.8c4.1-1.7,11.7-3.6,17.3-4.5c1.3-0.2,2.1,0.3,2.6,1.4c0.6,1.2,0.9,2.1,1.2,3.3
		c0.2,1.3-0.1,1.9-1.4,2.2c-2.8,0.7-6.2,1.5-9.4,2.5c-0.6,2.6-1.3,5.6-2.1,8.7c1.5-0.4,3-0.7,4.6-1c1.3-0.2,2.1,0,2.7,1.1
		c0.6,1.2,1,2.2,1.3,3.4c0.3,1.3,0,1.7-1.3,2.2c-3,1-6.4,2.1-9.4,3.3c-0.4,2-0.9,3.9-1.2,5.8c2.4-0.8,4.6-1.4,7.2-1.9
		c1.3-0.3,2.2-0.1,2.7,1c0.6,1.2,1.1,2.3,1.4,3.5c0.3,1.3,0.1,1.8-1.2,2.3c-3.4,1.2-7.2,2.6-10.3,3.9c-1.8,0.7-2.7,0.6-3.9-0.2
		c-0.9-0.6-1.8-1.3-2.8-2.3c-0.8-0.8-1.4-2.1-1.2-3.9c0.5-5.6,2.7-16.7,4.4-25C188.3,37.2,187.5,35.5,187.1,34.4z"/>
	<path d="M207.2,62.3c0.7-2.5,2.7-4.3,5.5-3.7c2.7,0.6,3.4,2.9,3,5.2c-0.6,3.1-3,4.7-5.5,4.3C208,67.8,206.4,65.3,207.2,62.3z"/>
	<path d="M240,56.7c-0.9,2.5-2.6,4.8-4,6.4c-1.5,1.7-4.3,2.9-6.7,2.9c-2.5,0.1-4.7-0.6-6.2-1.3c-1.4-0.6-3.1-2-3.9-3.7
		c-3.7-8.1,0.4-25.5,8-33.9c2-2.2,4.1-2.9,5.9-2.9c2.7-0.1,5.9,0.9,7.6,2.1c1.9,1.4,2.4,3,2.6,5.2c0.2,2.4,0,6-0.5,8
		c-0.2,1-0.5,1.7-2.1,1.6c-3.3-0.3-4.6-1.8-5-4.6c-0.3-2.1,0.3-5-1.1-5.4c-1.9-0.5-5.8,8.3-7.2,14.1c-1.5,6.3-1.6,13.4,0.6,14
		c1.2,0.3,2.7-1,4.8-4.1c1.5-2.1,3.7-2.9,6.1-2.4C240.9,53.1,240.8,54.6,240,56.7z"/>
	<path d="M269.4,29.2c1.5,8.2-0.3,21.9-6.4,29.6c-2,2.5-4.5,3.5-7.5,3.5c-2,0-4.4-0.4-6.1-1.3c-1.3-0.7-2.9-2.2-3.7-4
		c-3.7-8.4-0.3-24.5,7.3-32.6c1.6-1.7,4.2-2.8,6.2-2.7c2.6,0,5.4,0.8,6.9,2C268.1,25.1,269,26.9,269.4,29.2z M253.7,41.4
		c-1.4,5.9-1.6,13.8,0.7,14.4c2.3,0.6,5.1-5.1,6.7-12.6c1.2-5.8,1.5-14.4-0.5-14.7C258.6,28.1,255.1,35.4,253.7,41.4z"/>
	<path d="M282,32.4c-1.1,6.3-3.2,18.4-4.1,25.6c-0.2,1.6-0.8,2-2.3,1.6c-0.8-0.2-1.8-0.5-2.6-0.9c-1.6-0.7-2-1.7-1.8-4.3
		c0.7-8.3,3.8-25.4,5.4-33c0.4-1.5,0.9-2,2.1-2.2c1.6-0.2,4.7,0.4,6.2,1c2,0.7,2.5,1.4,2.8,3.4L288,27l1,8.2l0.5,3.8
		c2.2-6.5,6.5-16.3,8.6-20.7c0.7-1.5,1.7-1.9,3.3-1.9c1.4,0.1,4.3,0.6,6.7,1.5c1.4,0.5,1.7,1.3,1.4,3.3c-1.3,8.6-4.6,26-5.6,33.8
		c-0.2,1-0.6,1.6-1.3,1.6c-0.9,0.1-2.5-0.4-3.5-0.8c-1.6-0.7-2.2-1.5-1.9-4.5c0.4-4.9,1.9-14.5,3.5-22.3c-2.6,6.3-6.7,16.6-9.4,24.2
		c-0.4,1.2-0.7,1.6-1.4,1.7c-0.7,0.1-1.9-0.1-3.2-0.5c-1.3-0.4-1.9-1.1-2.3-3.1C283.5,47.5,282.4,37.5,282,32.4z"/>
</g>
<g class="st0">
	<path class="st1" d="M13.6,87.7c-0.3,1.3-0.7,1.7-2,1.5c-1.2-0.2-2.8-0.6-3.9-1.3c-1.1-0.7-1.4-1.5-1.3-3.2
		c0.5-5.7,2.4-16.8,4-25.9C10,58,9.2,56.9,8.7,55.9c-0.8-1.4-0.8-2.2,0.4-3.1c5.6-4.1,16.7-8.4,20.9-4.4c1.7,1.6,3.3,3.8,4.2,7.2
		c0.8,3.4-0.6,6.3-2.5,9c-3.2,4.5-10,9.4-16.2,12.1C14.8,80.5,14.1,84.3,13.6,87.7z M27.1,55.8c-0.3-1.3-3.9-0.9-7.5,1.3
		c-0.7,3.1-1.5,6.7-2.3,10.6C24.4,64,27.9,58.2,27.1,55.8z"/>
	<path class="st1" d="M38.4,77.4c-1,2.7-2,5.2-2.7,7.4c-0.5,1.4-1,1.5-2.2,1.1c-1.1-0.3-2.2-0.8-3.2-1.6c-1-0.9-1.1-1.7-0.6-3.5
		c2.9-9.5,9.1-25.3,13.2-34.1c0.8-1.6,1.8-2.6,3.9-2.8c2.5-0.2,5.9,0.2,8,0.7c1.5,0.4,1.8,1.3,1.8,2.9c-0.1,7.8,0.3,22.7,0.9,34
		c0.1,1.4-0.2,1.8-1.5,2c-1.3,0.2-3,0.1-3.8-0.1c-1.3-0.3-1.7-1-2-2.9c-0.2-2-0.4-4.3-0.6-6.9C45.7,74.9,41.4,76.2,38.4,77.4z
		 M49,66.2c-0.2-4.9-0.4-9.9-0.4-14.3C46.7,56.2,44.3,62.1,42,68C44.3,67.3,46.7,66.7,49,66.2z"/>
	<path class="st1" d="M64.9,72c4,2.7,7.6,3.3,8.9,1.8c1.6-1.7-5.2-4.7-8.9-8.1c-2.6-2.3-4.2-6.2-2.7-10.9c1.2-4.2,4.4-9.2,7.8-12
		c1.3-1,3.5-2.2,6.2-1.6c2,0.5,4.4,1.6,5.7,2.8c1.9,1.7,2,3.8,2,5.4c-0.1,2.9-1,7.8-2,10.5c-0.5,1.2-1,1.6-2.2,1.2
		c-3.3-1-4.9-2.7-4.7-5.2c0.2-2.3,1.5-7.1,0.7-7.4c-1.4-0.6-8.2,8.4-4.4,12.5c4.2,4.3,12.4,6.4,10.3,12.3c-1.6,4.3-4.6,7.7-9.6,8.3
		c-4,0.5-8.2-0.9-12.2-5.4c-2.1-2.3-1.9-3.2-0.9-4C60.8,71.2,63.4,71.1,64.9,72z"/>
	<path class="st1" d="M102.1,44.8c-2.1,9.9-4.4,22.7-5.9,32.6c-0.2,1.3-0.6,1.6-1.9,1.4s-2.8-0.6-4-1.3C89,76.9,88.8,76,89,74.2
		c0.5-6.6,2.5-18.9,4.1-27c-1.4,0.4-2.9,0.9-3.7,1.2c-1.2,0.4-1.9,0.4-2.7-0.7c-0.9-1.1-1.9-3-2.2-4.2c-0.4-1.2,0-1.5,0.9-1.9
		c5.6-2,14.5-4,20.1-4.8c1.4-0.2,1.9,0.1,2.4,0.7c0.9,1.1,1.7,2.7,2,3.8c0.3,1.3,0.3,1.6-1.2,1.9C106.7,43.8,104.2,44.3,102.1,44.8z
		"/>
	<path class="st1" d="M110.9,40.3c-0.4-1.2-0.1-1.5,0.8-1.8c4.1-1.7,11.7-3.6,17.3-4.5c1.3-0.2,2.1,0.3,2.6,1.4
		c0.6,1.2,0.9,2.1,1.2,3.3c0.2,1.3-0.1,1.9-1.4,2.2c-2.8,0.7-6.2,1.5-9.4,2.5c-0.6,2.6-1.3,5.6-2.1,8.7c1.5-0.4,3-0.7,4.6-1
		c1.3-0.2,2.1,0,2.7,1.1c0.6,1.2,1,2.2,1.3,3.4c0.3,1.3,0,1.7-1.3,2.2c-3,1-6.4,2.1-9.4,3.3c-0.4,2-0.9,3.9-1.2,5.8
		c2.4-0.8,4.6-1.4,7.2-1.9c1.3-0.3,2.2-0.1,2.7,1c0.6,1.2,1.1,2.3,1.4,3.5c0.3,1.3,0.1,1.8-1.2,2.3c-3.4,1.2-7.2,2.6-10.3,3.9
		c-1.8,0.7-2.7,0.6-3.9-0.2c-0.9-0.6-1.8-1.3-2.8-2.3c-0.8-0.8-1.4-2.1-1.2-3.9c0.5-5.6,2.7-16.7,4.4-25
		C112.1,43.1,111.3,41.4,110.9,40.3z"/>
	<path class="st1" d="M156.9,57.4c0.4,2.9-0.5,4.9-2.4,7.1c-2.7,3.2-8,6.9-11.7,8.5c-2.1,1-2.9,1-4.5,0.1c-1.7-1-2.6-1.7-4.1-3
		c-1.6-1.4-1.9-2-1.6-4.4c0.7-6.2,2.6-15.7,4-23.3c-0.5-0.7-1.1-1.7-1.6-2.6c-0.7-1.5-0.8-2.3,0.5-3.1c5.6-4,17-7.7,21-4
		c1.7,1.6,3,3.6,3.6,6.5c0.6,3.2-1,6.4-3.1,8.8c-1.1,1.2-2.4,2.5-4,3.8C155.1,52.8,156.5,55,156.9,57.4z M140,65.5
		c5.6-2.5,9.3-6.2,8.8-8.3c-0.3-1.3-3.3-1.8-7.4,0.4C141,60.3,140.4,62.9,140,65.5z M152.7,39.6c-0.3-1.3-3.7-1-7.8,1.7
		c-0.6,2.5-1.2,5.3-1.9,8.5C149.4,46.5,153.2,41.3,152.7,39.6z"/>
	<path class="st1" d="M161.8,34c-0.4-1.2-0.1-1.5,0.8-1.8c4.1-1.7,11.7-3.6,17.3-4.5c1.3-0.2,2.1,0.3,2.6,1.4
		c0.6,1.2,0.9,2.1,1.2,3.3c0.2,1.3-0.1,1.9-1.4,2.2c-2.8,0.7-6.2,1.5-9.4,2.5c-0.6,2.6-1.3,5.6-2.1,8.7c1.5-0.4,3-0.7,4.6-1
		c1.3-0.2,2.1,0,2.7,1.1c0.6,1.2,1,2.2,1.3,3.4c0.3,1.3,0,1.7-1.3,2.2c-3,1-6.4,2.1-9.4,3.3c-0.4,2-0.9,3.9-1.2,5.8
		c2.4-0.8,4.6-1.4,7.2-1.9c1.3-0.3,2.2-0.1,2.7,1c0.6,1.2,1.1,2.3,1.4,3.5c0.3,1.3,0.1,1.8-1.2,2.3c-3.4,1.2-7.2,2.6-10.3,3.9
		c-1.8,0.7-2.7,0.6-3.9-0.2c-0.9-0.6-1.8-1.3-2.8-2.3c-0.8-0.8-1.4-2.1-1.2-3.9c0.5-5.6,2.7-16.7,4.4-25
		C163,36.8,162.2,35.1,161.8,34z"/>
	<path class="st1" d="M185.3,31.1c-0.4-1.2-0.1-1.5,0.8-1.8c4.1-1.7,11.7-3.6,17.3-4.5c1.3-0.2,2.1,0.3,2.6,1.4
		c0.6,1.2,0.9,2.1,1.2,3.3c0.2,1.3-0.1,1.9-1.4,2.2c-2.8,0.7-6.2,1.5-9.4,2.5c-0.6,2.6-1.3,5.6-2.1,8.7c1.5-0.4,3-0.7,4.6-1
		c1.3-0.2,2.1,0,2.7,1.1c0.6,1.2,1,2.2,1.3,3.4c0.3,1.3,0,1.7-1.3,2.2c-3,1-6.4,2.1-9.4,3.3c-0.4,2-0.9,3.9-1.2,5.8
		c2.4-0.8,4.6-1.4,7.2-1.9c1.3-0.3,2.2-0.1,2.7,1c0.6,1.2,1.1,2.3,1.4,3.5c0.3,1.3,0.1,1.8-1.2,2.3c-3.4,1.2-7.2,2.6-10.3,3.9
		c-1.8,0.7-2.7,0.6-3.9-0.2c-0.9-0.6-1.8-1.3-2.8-2.3c-0.8-0.8-1.4-2.1-1.2-3.9c0.5-5.6,2.7-16.7,4.4-25
		C186.4,33.9,185.6,32.2,185.3,31.1z"/>
	<path class="st1" d="M205.4,59.1c0.7-2.5,2.7-4.3,5.5-3.7c2.7,0.6,3.4,2.9,3,5.2c-0.6,3.1-3,4.7-5.5,4.3
		C206.1,64.5,204.6,62.1,205.4,59.1z"/>
	<path class="st1" d="M238.1,53.5c-0.9,2.5-2.6,4.8-4,6.4c-1.5,1.7-4.3,2.9-6.7,2.9c-2.5,0.1-4.7-0.6-6.2-1.3
		c-1.4-0.6-3.1-2-3.9-3.7c-3.7-8.1,0.4-25.5,8-33.9c2-2.2,4.1-2.9,5.9-2.9c2.7-0.1,5.9,0.9,7.6,2.1c1.9,1.4,2.4,3,2.6,5.2
		c0.2,2.4,0,6-0.6,8c-0.2,1-0.5,1.7-2.1,1.6c-3.3-0.3-4.6-1.8-5-4.6c-0.3-2.1,0.3-5-1.1-5.4c-1.9-0.5-5.8,8.3-7.2,14.1
		c-1.5,6.3-1.6,13.4,0.6,14c1.2,0.3,2.7-1,4.8-4.1c1.5-2.1,3.7-2.9,6.1-2.4C239.1,49.9,238.9,51.3,238.1,53.5z"/>
	<path class="st1" d="M267.5,25.9c1.5,8.2-0.3,21.9-6.4,29.6c-2,2.5-4.5,3.5-7.5,3.5c-2,0-4.4-0.4-6.1-1.3c-1.3-0.7-2.9-2.2-3.7-4
		c-3.7-8.4-0.3-24.5,7.3-32.6c1.6-1.7,4.2-2.8,6.2-2.7c2.6,0,5.4,0.8,6.9,2C266.2,21.8,267.1,23.6,267.5,25.9z M251.8,38.1
		c-1.4,5.9-1.6,13.8,0.7,14.4c2.3,0.6,5.1-5.1,6.7-12.6c1.2-5.8,1.5-14.4-0.5-14.7C256.7,24.8,253.3,32.1,251.8,38.1z"/>
	<path class="st1" d="M280.1,29.1c-1.1,6.3-3.2,18.4-4.1,25.6c-0.2,1.6-0.8,2-2.3,1.6c-0.8-0.2-1.8-0.5-2.6-0.9
		c-1.6-0.7-2-1.7-1.8-4.3c0.7-8.3,3.8-25.4,5.4-33c0.4-1.5,0.9-2,2.1-2.2c1.6-0.2,4.7,0.4,6.2,1c2,0.7,2.5,1.4,2.8,3.4l0.3,3.3
		l1,8.2l0.5,3.8c2.2-6.5,6.5-16.3,8.6-20.7c0.7-1.5,1.7-1.9,3.3-1.9c1.4,0.1,4.3,0.6,6.7,1.5c1.4,0.5,1.7,1.3,1.4,3.3
		c-1.3,8.6-4.6,26-5.6,33.8c-0.2,1-0.6,1.6-1.3,1.6c-0.9,0.1-2.5-0.4-3.5-0.8c-1.6-0.7-2.2-1.5-1.9-4.5c0.4-4.9,1.9-14.5,3.5-22.3
		c-2.6,6.3-6.7,16.6-9.4,24.2c-0.4,1.2-0.7,1.6-1.4,1.7c-0.7,0.1-1.9-0.1-3.2-0.5c-1.3-0.4-1.9-1.1-2.3-3.1
		C281.7,44.2,280.6,34.3,280.1,29.1z"/>
</g>
<g class="st0">
	<path class="st2" d="M13.6,87.7c-0.3,1.3-0.7,1.7-2,1.5c-1.2-0.2-2.8-0.6-3.9-1.3c-1.1-0.7-1.4-1.5-1.3-3.2
		c0.5-5.7,2.4-16.8,4-25.9C10,58,9.2,56.9,8.7,55.9c-0.8-1.4-0.8-2.2,0.4-3.1c5.6-4.1,16.7-8.4,20.9-4.4c1.7,1.6,3.3,3.8,4.2,7.2
		c0.8,3.4-0.6,6.3-2.5,9c-3.2,4.5-10,9.4-16.2,12.1C14.8,80.5,14.1,84.3,13.6,87.7z M27.1,55.8c-0.3-1.3-3.9-0.9-7.5,1.3
		c-0.7,3.1-1.5,6.7-2.3,10.6C24.4,64,27.9,58.2,27.1,55.8z"/>
	<path class="st2" d="M38.4,77.4c-1,2.7-2,5.2-2.7,7.4c-0.5,1.4-1,1.5-2.2,1.1c-1.1-0.3-2.2-0.8-3.2-1.6c-1-0.9-1.1-1.7-0.6-3.5
		c2.9-9.5,9.1-25.3,13.2-34.1c0.8-1.6,1.8-2.6,3.9-2.8c2.5-0.2,5.9,0.2,8,0.7c1.5,0.4,1.8,1.3,1.8,2.9c-0.1,7.8,0.3,22.7,0.9,34
		c0.1,1.4-0.2,1.8-1.5,2c-1.3,0.2-3,0.1-3.8-0.1c-1.3-0.3-1.7-1-2-2.9c-0.2-2-0.4-4.3-0.6-6.9C45.7,74.9,41.4,76.2,38.4,77.4z
		 M49,66.2c-0.2-4.9-0.4-9.9-0.4-14.3C46.7,56.2,44.3,62.1,42,68C44.3,67.3,46.7,66.7,49,66.2z"/>
	<path class="st2" d="M64.9,72c4,2.7,7.6,3.3,8.9,1.8c1.6-1.7-5.2-4.7-8.9-8.1c-2.6-2.3-4.2-6.2-2.7-10.9c1.2-4.2,4.4-9.2,7.8-12
		c1.3-1,3.5-2.2,6.2-1.6c2,0.5,4.4,1.6,5.7,2.8c1.9,1.7,2,3.8,2,5.4c-0.1,2.9-1,7.8-2,10.5c-0.5,1.2-1,1.6-2.2,1.2
		c-3.3-1-4.9-2.7-4.7-5.2c0.2-2.3,1.5-7.1,0.7-7.4c-1.4-0.6-8.2,8.4-4.4,12.5c4.2,4.3,12.4,6.4,10.3,12.3c-1.6,4.3-4.6,7.7-9.6,8.3
		c-4,0.5-8.2-0.9-12.2-5.4c-2.1-2.3-1.9-3.2-0.9-4C60.8,71.2,63.4,71.1,64.9,72z"/>
	<path class="st2" d="M102.1,44.8c-2.1,9.9-4.4,22.7-5.9,32.6c-0.2,1.3-0.6,1.6-1.9,1.4s-2.8-0.6-4-1.3C89,76.9,88.8,76,89,74.2
		c0.5-6.6,2.5-18.9,4.1-27c-1.4,0.4-2.9,0.9-3.7,1.2c-1.2,0.4-1.9,0.4-2.7-0.7c-0.9-1.1-1.9-3-2.2-4.2c-0.4-1.2,0-1.5,0.9-1.9
		c5.6-2,14.5-4,20.1-4.8c1.4-0.2,1.9,0.1,2.4,0.7c0.9,1.1,1.7,2.7,2,3.8c0.3,1.3,0.3,1.6-1.2,1.9C106.7,43.8,104.2,44.3,102.1,44.8z
		"/>
	<path class="st2" d="M110.9,40.3c-0.4-1.2-0.1-1.5,0.8-1.8c4.1-1.7,11.7-3.6,17.3-4.5c1.3-0.2,2.1,0.3,2.6,1.4
		c0.6,1.2,0.9,2.1,1.2,3.3c0.2,1.3-0.1,1.9-1.4,2.2c-2.8,0.7-6.2,1.5-9.4,2.5c-0.6,2.6-1.3,5.6-2.1,8.7c1.5-0.4,3-0.7,4.6-1
		c1.3-0.2,2.1,0,2.7,1.1c0.6,1.2,1,2.2,1.3,3.4c0.3,1.3,0,1.7-1.3,2.2c-3,1-6.4,2.1-9.4,3.3c-0.4,2-0.9,3.9-1.2,5.8
		c2.4-0.8,4.6-1.4,7.2-1.9c1.3-0.3,2.2-0.1,2.7,1c0.6,1.2,1.1,2.3,1.4,3.5c0.3,1.3,0.1,1.8-1.2,2.3c-3.4,1.2-7.2,2.6-10.3,3.9
		c-1.8,0.7-2.7,0.6-3.9-0.2c-0.9-0.6-1.8-1.3-2.8-2.3c-0.8-0.8-1.4-2.1-1.2-3.9c0.5-5.6,2.7-16.7,4.4-25
		C112.1,43.1,111.3,41.4,110.9,40.3z"/>
	<path class="st2" d="M156.9,57.4c0.4,2.9-0.5,4.9-2.4,7.1c-2.7,3.2-8,6.9-11.7,8.5c-2.1,1-2.9,1-4.5,0.1c-1.7-1-2.6-1.7-4.1-3
		c-1.6-1.4-1.9-2-1.6-4.4c0.7-6.2,2.6-15.7,4-23.3c-0.5-0.7-1.1-1.7-1.6-2.6c-0.7-1.5-0.8-2.3,0.5-3.1c5.6-4,17-7.7,21-4
		c1.7,1.6,3,3.6,3.6,6.5c0.6,3.2-1,6.4-3.1,8.8c-1.1,1.2-2.4,2.5-4,3.8C155.1,52.8,156.5,55,156.9,57.4z M140,65.5
		c5.6-2.5,9.3-6.2,8.8-8.3c-0.3-1.3-3.3-1.8-7.4,0.4C141,60.3,140.4,62.9,140,65.5z M152.7,39.6c-0.3-1.3-3.7-1-7.8,1.7
		c-0.6,2.5-1.2,5.3-1.9,8.5C149.4,46.5,153.2,41.3,152.7,39.6z"/>
	<path class="st2" d="M161.8,34c-0.4-1.2-0.1-1.5,0.8-1.8c4.1-1.7,11.7-3.6,17.3-4.5c1.3-0.2,2.1,0.3,2.6,1.4
		c0.6,1.2,0.9,2.1,1.2,3.3c0.2,1.3-0.1,1.9-1.4,2.2c-2.8,0.7-6.2,1.5-9.4,2.5c-0.6,2.6-1.3,5.6-2.1,8.7c1.5-0.4,3-0.7,4.6-1
		c1.3-0.2,2.1,0,2.7,1.1c0.6,1.2,1,2.2,1.3,3.4c0.3,1.3,0,1.7-1.3,2.2c-3,1-6.4,2.1-9.4,3.3c-0.4,2-0.9,3.9-1.2,5.8
		c2.4-0.8,4.6-1.4,7.2-1.9c1.3-0.3,2.2-0.1,2.7,1c0.6,1.2,1.1,2.3,1.4,3.5c0.3,1.3,0.1,1.8-1.2,2.3c-3.4,1.2-7.2,2.6-10.3,3.9
		c-1.8,0.7-2.7,0.6-3.9-0.2c-0.9-0.6-1.8-1.3-2.8-2.3c-0.8-0.8-1.4-2.1-1.2-3.9c0.5-5.6,2.7-16.7,4.4-25
		C163,36.8,162.2,35.1,161.8,34z"/>
	<path class="st2" d="M185.3,31.1c-0.4-1.2-0.1-1.5,0.8-1.8c4.1-1.7,11.7-3.6,17.3-4.5c1.3-0.2,2.1,0.3,2.6,1.4
		c0.6,1.2,0.9,2.1,1.2,3.3c0.2,1.3-0.1,1.9-1.4,2.2c-2.8,0.7-6.2,1.5-9.4,2.5c-0.6,2.6-1.3,5.6-2.1,8.7c1.5-0.4,3-0.7,4.6-1
		c1.3-0.2,2.1,0,2.7,1.1c0.6,1.2,1,2.2,1.3,3.4c0.3,1.3,0,1.7-1.3,2.2c-3,1-6.4,2.1-9.4,3.3c-0.4,2-0.9,3.9-1.2,5.8
		c2.4-0.8,4.6-1.4,7.2-1.9c1.3-0.3,2.2-0.1,2.7,1c0.6,1.2,1.1,2.3,1.4,3.5c0.3,1.3,0.1,1.8-1.2,2.3c-3.4,1.2-7.2,2.6-10.3,3.9
		c-1.8,0.7-2.7,0.6-3.9-0.2c-0.9-0.6-1.8-1.3-2.8-2.3c-0.8-0.8-1.4-2.1-1.2-3.9c0.5-5.6,2.7-16.7,4.4-25
		C186.4,33.9,185.6,32.2,185.3,31.1z"/>
	<path class="st2" d="M205.4,59.1c0.7-2.5,2.7-4.3,5.5-3.7c2.7,0.6,3.4,2.9,3,5.2c-0.6,3.1-3,4.7-5.5,4.3
		C206.1,64.5,204.6,62.1,205.4,59.1z"/>
	<path class="st2" d="M238.1,53.5c-0.9,2.5-2.6,4.8-4,6.4c-1.5,1.7-4.3,2.9-6.7,2.9c-2.5,0.1-4.7-0.6-6.2-1.3
		c-1.4-0.6-3.1-2-3.9-3.7c-3.7-8.1,0.4-25.5,8-33.9c2-2.2,4.1-2.9,5.9-2.9c2.7-0.1,5.9,0.9,7.6,2.1c1.9,1.4,2.4,3,2.6,5.2
		c0.2,2.4,0,6-0.6,8c-0.2,1-0.5,1.7-2.1,1.6c-3.3-0.3-4.6-1.8-5-4.6c-0.3-2.1,0.3-5-1.1-5.4c-1.9-0.5-5.8,8.3-7.2,14.1
		c-1.5,6.3-1.6,13.4,0.6,14c1.2,0.3,2.7-1,4.8-4.1c1.5-2.1,3.7-2.9,6.1-2.4C239.1,49.9,238.9,51.3,238.1,53.5z"/>
	<path class="st2" d="M267.5,25.9c1.5,8.2-0.3,21.9-6.4,29.6c-2,2.5-4.5,3.5-7.5,3.5c-2,0-4.4-0.4-6.1-1.3c-1.3-0.7-2.9-2.2-3.7-4
		c-3.7-8.4-0.3-24.5,7.3-32.6c1.6-1.7,4.2-2.8,6.2-2.7c2.6,0,5.4,0.8,6.9,2C266.2,21.8,267.1,23.6,267.5,25.9z M251.8,38.1
		c-1.4,5.9-1.6,13.8,0.7,14.4c2.3,0.6,5.1-5.1,6.7-12.6c1.2-5.8,1.5-14.4-0.5-14.7C256.7,24.8,253.3,32.1,251.8,38.1z"/>
	<path class="st2" d="M280.1,29.1c-1.1,6.3-3.2,18.4-4.1,25.6c-0.2,1.6-0.8,2-2.3,1.6c-0.8-0.2-1.8-0.5-2.6-0.9
		c-1.6-0.7-2-1.7-1.8-4.3c0.7-8.3,3.8-25.4,5.4-33c0.4-1.5,0.9-2,2.1-2.2c1.6-0.2,4.7,0.4,6.2,1c2,0.7,2.5,1.4,2.8,3.4l0.3,3.3
		l1,8.2l0.5,3.8c2.2-6.5,6.5-16.3,8.6-20.7c0.7-1.5,1.7-1.9,3.3-1.9c1.4,0.1,4.3,0.6,6.7,1.5c1.4,0.5,1.7,1.3,1.4,3.3
		c-1.3,8.6-4.6,26-5.6,33.8c-0.2,1-0.6,1.6-1.3,1.6c-0.9,0.1-2.5-0.4-3.5-0.8c-1.6-0.7-2.2-1.5-1.9-4.5c0.4-4.9,1.9-14.5,3.5-22.3
		c-2.6,6.3-6.7,16.6-9.4,24.2c-0.4,1.2-0.7,1.6-1.4,1.7c-0.7,0.1-1.9-0.1-3.2-0.5c-1.3-0.4-1.9-1.1-2.3-3.1
		C281.7,44.2,280.6,34.3,280.1,29.1z"/>
</g>
</svg>
