<?xml version="1.0" encoding="utf-8"?>
<!-- Generator: Adobe Illustrator 24.2.0, SVG Export Plug-In . SVG Version: 6.00 Build 0)  -->
<svg version="1.1" id="Layer_1" xmlns="http://www.w3.org/2000/svg" xmlns:xlink="http://www.w3.org/1999/xlink" x="0px" y="0px"
	 viewBox="0 0 300.6 105.6" style="enable-background:new 0 0 300.6 105.6;" xml:space="preserve">
<style type="text/css">
	.st0{enable-background:new    ;}
	.st1{fill:#FFFFFF;}
	.st2{fill:none;stroke:#000000;stroke-width:1;stroke-miterlimit:9.9999;}
</style>
<g class="st0">
	<path d="M15.4,89.2c-0.3,1.3-0.7,1.7-2,1.5c-1.2-0.2-2.8-0.6-3.9-1.3c-1.1-0.7-1.4-1.5-1.3-3.2c0.5-5.7,2.4-16.8,4-25.9
		c-0.5-0.8-1.3-1.9-1.8-2.9C9.8,56,9.8,55.2,11,54.3c5.6-4.1,16.7-8.4,20.9-4.4c1.7,1.6,3.3,3.8,4.2,7.2c0.8,3.4-0.6,6.3-2.5,9
		c-3.2,4.5-10,9.4-16.2,12.1C16.7,82,15.9,85.8,15.4,89.2z M29,57.3c-0.3-1.3-3.9-0.9-7.5,1.3c-0.7,3.1-1.5,6.7-2.3,10.6
		C26.3,65.5,29.7,59.7,29,57.3z"/>
	<path d="M40.2,78.9c-1,2.7-2,5.2-2.7,7.4c-0.5,1.4-1,1.5-2.2,1.1c-1.1-0.3-2.2-0.8-3.2-1.6c-1-0.9-1.1-1.7-0.6-3.5
		c2.9-9.5,9.1-25.3,13.2-34.1c0.8-1.6,1.8-2.6,3.9-2.8c2.5-0.2,5.9,0.2,8,0.7c1.5,0.4,1.8,1.3,1.8,2.9c-0.1,7.8,0.3,22.7,0.9,34
		c0.1,1.4-0.2,1.8-1.5,2c-1.3,0.2-3,0.1-3.8-0.1c-1.3-0.3-1.7-1-2-2.9c-0.2-2-0.4-4.3-0.6-6.9C47.5,76.4,43.2,77.7,40.2,78.9z
		 M50.8,67.7c-0.2-4.9-0.4-9.9-0.4-14.3c-1.9,4.3-4.3,10.2-6.7,16.1C46.1,68.9,48.5,68.2,50.8,67.7z"/>
	<path d="M66.7,73.5c4,2.7,7.6,3.3,8.9,1.8c1.6-1.7-5.2-4.7-8.9-8.1c-2.6-2.3-4.2-6.2-2.7-10.9c1.2-4.2,4.4-9.2,7.8-12
		c1.3-1,3.5-2.2,6.2-1.6c2,0.5,4.4,1.6,5.7,2.8c1.9,1.7,2,3.8,2,5.4c-0.1,2.9-1,7.8-2,10.5c-0.5,1.2-1,1.6-2.2,1.2
		c-3.3-1-4.9-2.7-4.7-5.2c0.2-2.3,1.5-7.1,0.7-7.4c-1.4-0.6-8.2,8.4-4.4,12.5c4.2,4.3,12.4,6.4,10.3,12.3c-1.6,4.3-4.6,7.7-9.6,8.3
		c-4,0.5-8.2-0.9-12.2-5.4c-2.1-2.3-1.9-3.2-0.9-4C62.6,72.7,65.3,72.6,66.7,73.5z"/>
	<path d="M103.9,46.4c-2.1,9.9-4.4,22.7-5.9,32.6c-0.2,1.3-0.6,1.6-1.9,1.4c-1.3-0.2-2.8-0.6-4-1.3c-1.2-0.7-1.4-1.6-1.3-3.3
		c0.5-6.6,2.5-18.9,4.1-27c-1.4,0.4-2.9,0.9-3.7,1.2c-1.2,0.4-1.9,0.4-2.7-0.7c-0.9-1.1-1.9-3-2.2-4.2c-0.4-1.2,0-1.5,0.9-1.9
		c5.6-2,14.5-4,20.1-4.8c1.4-0.2,1.9,0.1,2.4,0.7c0.9,1.1,1.7,2.7,2,3.8c0.3,1.3,0.3,1.6-1.2,1.9C108.6,45.3,106,45.8,103.9,46.4z"
		/>
	<path d="M112.8,41.9c-0.4-1.2-0.1-1.5,0.8-1.8c4.1-1.7,11.7-3.6,17.3-4.5c1.3-0.2,2.1,0.3,2.6,1.4c0.6,1.2,0.9,2.1,1.2,3.3
		c0.2,1.3-0.1,1.9-1.4,2.2c-2.8,0.7-6.2,1.5-9.4,2.5c-0.6,2.6-1.3,5.6-2.1,8.7c1.5-0.4,3-0.7,4.6-1c1.3-0.2,2.1,0,2.7,1.1
		c0.6,1.2,1,2.2,1.3,3.4c0.3,1.3,0,1.7-1.3,2.2c-3,1-6.4,2.1-9.4,3.3c-0.4,2-0.9,3.9-1.2,5.8c2.4-0.8,4.6-1.4,7.2-1.9
		c1.3-0.3,2.2-0.1,2.7,1c0.6,1.2,1.1,2.3,1.4,3.5c0.3,1.3,0.1,1.8-1.2,2.3c-3.4,1.2-7.2,2.6-10.3,3.9c-1.8,0.7-2.7,0.6-3.9-0.2
		c-0.9-0.6-1.8-1.3-2.8-2.3c-0.8-0.8-1.4-2.1-1.2-3.9c0.5-5.6,2.7-16.7,4.4-25C113.9,44.6,113.1,42.9,112.8,41.9z"/>
	<path d="M158.7,58.9c0.4,2.9-0.5,4.9-2.4,7.1c-2.7,3.2-8,6.9-11.7,8.5c-2.1,1-2.9,1-4.5,0.1c-1.7-1-2.6-1.7-4.1-3
		c-1.6-1.4-1.9-2-1.6-4.4c0.7-6.2,2.6-15.7,4-23.3c-0.5-0.7-1.1-1.7-1.6-2.6c-0.7-1.5-0.8-2.3,0.5-3.1c5.6-4,17-7.7,21-4
		c1.7,1.6,3,3.6,3.6,6.5c0.6,3.2-1,6.4-3.1,8.8c-1.1,1.2-2.4,2.5-4,3.8C156.9,54.3,158.4,56.5,158.7,58.9z M141.9,67
		c5.6-2.5,9.3-6.2,8.8-8.3c-0.3-1.3-3.3-1.8-7.4,0.4C142.8,61.8,142.3,64.4,141.9,67z M154.6,41.1c-0.3-1.3-3.7-1-7.8,1.7
		c-0.6,2.5-1.2,5.3-1.9,8.5C151.3,48,155.1,42.8,154.6,41.1z"/>
	<path d="M163.7,35.5c-0.4-1.2-0.1-1.5,0.8-1.8c4.1-1.7,11.7-3.6,17.3-4.5c1.3-0.2,2.1,0.3,2.6,1.4c0.6,1.2,0.9,2.1,1.2,3.3
		c0.2,1.3-0.1,1.9-1.4,2.2c-2.8,0.7-6.2,1.5-9.4,2.5c-0.6,2.6-1.3,5.6-2.1,8.7c1.5-0.4,3-0.7,4.6-1c1.3-0.2,2.1,0,2.7,1.1
		c0.6,1.2,1,2.2,1.3,3.4c0.3,1.3,0,1.7-1.3,2.2c-3,1-6.4,2.1-9.4,3.3c-0.4,2-0.9,3.9-1.2,5.8c2.4-0.8,4.6-1.4,7.2-1.9
		c1.3-0.3,2.2-0.1,2.7,1c0.6,1.2,1.1,2.3,1.4,3.5c0.3,1.3,0.1,1.8-1.2,2.3c-3.4,1.2-7.2,2.6-10.3,3.9c-1.8,0.7-2.7,0.6-3.9-0.2
		c-0.9-0.6-1.8-1.3-2.8-2.3c-0.8-0.8-1.4-2.1-1.2-3.9c0.5-5.6,2.7-16.7,4.4-25C164.8,38.3,164,36.6,163.7,35.5z"/>
	<path d="M187.1,32.6c-0.4-1.2-0.1-1.5,0.8-1.8c4.1-1.7,11.7-3.6,17.3-4.5c1.3-0.2,2.1,0.3,2.6,1.4c0.6,1.2,0.9,2.1,1.2,3.3
		c0.2,1.3-0.1,1.9-1.4,2.2c-2.8,0.7-6.2,1.5-9.4,2.5c-0.6,2.6-1.3,5.6-2.1,8.7c1.5-0.4,3-0.7,4.6-1c1.3-0.2,2.1,0,2.7,1.1
		c0.6,1.2,1,2.2,1.3,3.4c0.3,1.3,0,1.7-1.3,2.2c-3,1-6.4,2.1-9.4,3.3c-0.4,2-0.9,3.9-1.2,5.8c2.4-0.8,4.6-1.4,7.2-1.9
		c1.3-0.3,2.2-0.1,2.7,1c0.6,1.2,1.1,2.3,1.4,3.5c0.3,1.3,0.1,1.8-1.2,2.3c-3.4,1.2-7.2,2.6-10.3,3.9c-1.8,0.7-2.7,0.6-3.9-0.2
		c-0.9-0.6-1.8-1.3-2.8-2.3c-0.8-0.8-1.4-2.1-1.2-3.9c0.5-5.6,2.7-16.7,4.4-25C188.3,35.4,187.5,33.7,187.1,32.6z"/>
	<path d="M207.2,60.6c0.7-2.5,2.7-4.3,5.5-3.7c2.7,0.6,3.4,2.9,3,5.2c-0.6,3.1-3,4.7-5.5,4.3C208,66,206.4,63.6,207.2,60.6z"/>
	<path d="M221.6,28.4c-0.4-1.2-0.1-1.5,0.8-1.8c4.1-1.7,11.7-3.6,17.3-4.5c1.3-0.2,2.1,0.3,2.6,1.4c0.6,1.2,0.9,2.1,1.2,3.3
		c0.2,1.3-0.1,1.9-1.4,2.2c-2.8,0.7-6.2,1.5-9.4,2.5c-0.6,2.6-1.3,5.6-2.1,8.7c1.5-0.4,3-0.7,4.6-1c1.3-0.2,2.1,0,2.7,1.1
		c0.6,1.2,1,2.2,1.3,3.4c0.3,1.3,0,1.7-1.3,2.2c-3,1-6.4,2.1-9.4,3.3c-0.4,2-0.9,3.9-1.2,5.8c2.4-0.8,4.6-1.4,7.2-1.9
		c1.3-0.3,2.2-0.1,2.7,1c0.6,1.2,1.1,2.3,1.4,3.5c0.3,1.3,0.1,1.8-1.2,2.3c-3.4,1.2-7.2,2.6-10.3,3.9c-1.8,0.7-2.7,0.6-3.9-0.2
		c-0.9-0.6-1.8-1.3-2.8-2.3c-0.8-0.8-1.4-2.1-1.2-3.9c0.5-5.6,2.7-16.7,4.4-25C222.7,31.1,222,29.4,221.6,28.4z"/>
	<path d="M261.9,26.8c-2.1,9.9-4.4,22.7-5.9,32.6c-0.2,1.3-0.6,1.6-1.9,1.4c-1.3-0.2-2.8-0.6-4-1.3c-1.2-0.7-1.4-1.6-1.3-3.3
		c0.5-6.6,2.5-18.9,4.1-27c-1.4,0.4-2.9,0.9-3.7,1.2c-1.2,0.4-1.9,0.4-2.7-0.7c-0.9-1.1-1.9-3-2.2-4.2c-0.4-1.2,0-1.5,0.9-1.9
		c5.6-2,14.5-4,20.1-4.8c1.4-0.2,1.9,0.1,2.4,0.7c0.9,1.1,1.7,2.7,2,3.8c0.3,1.3,0.3,1.6-1.2,1.9C266.6,25.7,264,26.3,261.9,26.8z"
		/>
	<path d="M288.7,55.2c-0.2,1.4-0.6,1.7-1.9,1.5c-1.3-0.2-2.8-0.6-3.9-1.2c-1.1-0.7-1.4-1.4-1.3-3.2c0.2-2.4,0.6-5.8,1.2-9.4
		c-1.9,0.5-4.3,1.3-6.4,2c-0.8,4.6-1.5,8.8-2,12.2c-0.2,1.4-0.7,1.7-2,1.5c-1.3-0.2-2.9-0.7-4-1.3c-1.2-0.7-1.5-1.4-1.3-3.2
		c0.2-2.3,0.6-5.8,1.2-9.8c-0.5-0.9-1-1.9-1.3-2.6c-0.3-1.1-0.2-1.5,0.8-1.9c0.4-0.2,0.8-0.3,1.2-0.5c1.1-7.1,2.4-14.7,3.4-19
		c0.4-1.7,1.1-1.9,2.5-1.6c1.4,0.3,3.4,1.1,4.6,1.8c1.3,0.8,1.5,1.4,1.2,2.8c-0.8,3.3-1.8,8.1-2.7,13.3c2-0.5,4.5-1.1,6.1-1.4
		c1.1-6.3,2.3-12.8,3.2-17.4c0.3-1.7,1.1-1.9,2.5-1.6c1.3,0.3,3,0.9,4.4,1.7c1.2,0.7,1.5,1.4,1.2,2.8C293.3,29,290.5,44,288.7,55.2z
		"/>
</g>
<g class="st0">
	<path class="st1" d="M13.6,86c-0.3,1.3-0.7,1.7-2,1.5c-1.2-0.2-2.8-0.6-3.9-1.3c-1.1-0.7-1.4-1.5-1.3-3.2c0.5-5.7,2.4-16.8,4-25.9
		c-0.5-0.8-1.3-1.9-1.8-2.9C7.9,52.7,8,52,9.1,51.1c5.6-4.1,16.7-8.4,20.9-4.4c1.7,1.6,3.3,3.8,4.2,7.2c0.8,3.4-0.6,6.3-2.5,9
		c-3.2,4.5-10,9.4-16.2,12.1C14.8,78.8,14.1,82.5,13.6,86z M27.1,54.1c-0.3-1.3-3.9-0.9-7.5,1.3c-0.7,3.1-1.5,6.7-2.3,10.6
		C24.4,62.2,27.9,56.4,27.1,54.1z"/>
	<path class="st1" d="M38.4,75.7c-1,2.7-2,5.2-2.7,7.4c-0.5,1.4-1,1.5-2.2,1.1c-1.1-0.3-2.2-0.8-3.2-1.6c-1-0.9-1.1-1.7-0.6-3.5
		c2.9-9.5,9.1-25.3,13.2-34.1c0.8-1.6,1.8-2.6,3.9-2.8c2.5-0.2,5.9,0.2,8,0.7c1.5,0.4,1.8,1.3,1.8,2.9c-0.1,7.8,0.3,22.7,0.9,34
		c0.1,1.4-0.2,1.8-1.5,2c-1.3,0.2-3,0.1-3.8-0.1c-1.3-0.3-1.7-1-2-2.9c-0.2-2-0.4-4.3-0.6-6.9C45.7,73.2,41.4,74.4,38.4,75.7z
		 M49,64.5c-0.2-4.9-0.4-9.9-0.4-14.3c-1.9,4.3-4.3,10.2-6.7,16.1C44.3,65.6,46.7,64.9,49,64.5z"/>
	<path class="st1" d="M64.9,70.3c4,2.7,7.6,3.3,8.9,1.8c1.6-1.7-5.2-4.7-8.9-8.1c-2.6-2.3-4.2-6.2-2.7-10.9c1.2-4.2,4.4-9.2,7.8-12
		c1.3-1,3.5-2.2,6.2-1.6c2,0.5,4.4,1.6,5.7,2.8c1.9,1.7,2,3.8,2,5.4c-0.1,2.9-1,7.8-2,10.5c-0.5,1.2-1,1.6-2.2,1.2
		c-3.3-1-4.9-2.7-4.7-5.2c0.2-2.3,1.5-7.1,0.7-7.4c-1.4-0.6-8.2,8.4-4.4,12.5c4.2,4.3,12.4,6.4,10.3,12.3C80,76,77.1,79.4,72.1,80
		c-4,0.5-8.2-0.9-12.2-5.4c-2.1-2.3-1.9-3.2-0.9-4C60.8,69.4,63.4,69.4,64.9,70.3z"/>
	<path class="st1" d="M102.1,43.1c-2.1,9.9-4.4,22.7-5.9,32.6c-0.2,1.3-0.6,1.6-1.9,1.4s-2.8-0.6-4-1.3c-1.2-0.7-1.4-1.6-1.3-3.3
		c0.5-6.6,2.5-18.9,4.1-27c-1.4,0.4-2.9,0.9-3.7,1.2c-1.2,0.4-1.9,0.4-2.7-0.7c-0.9-1.1-1.9-3-2.2-4.2c-0.4-1.2,0-1.5,0.9-1.9
		c5.6-2,14.5-4,20.1-4.8c1.4-0.2,1.9,0.1,2.4,0.7c0.9,1.1,1.7,2.7,2,3.8c0.3,1.3,0.3,1.6-1.2,1.9C106.7,42,104.2,42.6,102.1,43.1z"
		/>
	<path class="st1" d="M110.9,38.6c-0.4-1.2-0.1-1.5,0.8-1.8c4.1-1.7,11.7-3.6,17.3-4.5c1.3-0.2,2.1,0.3,2.6,1.4
		c0.6,1.2,0.9,2.1,1.2,3.3c0.2,1.3-0.1,1.9-1.4,2.2c-2.8,0.7-6.2,1.5-9.4,2.5c-0.6,2.6-1.3,5.6-2.1,8.7c1.5-0.4,3-0.7,4.6-1
		c1.3-0.2,2.1,0,2.7,1.1c0.6,1.2,1,2.2,1.3,3.4c0.3,1.3,0,1.7-1.3,2.2c-3,1-6.4,2.1-9.4,3.3c-0.4,2-0.9,3.9-1.2,5.8
		c2.4-0.8,4.6-1.4,7.2-1.9c1.3-0.3,2.2-0.1,2.7,1c0.6,1.2,1.1,2.3,1.4,3.5c0.3,1.3,0.1,1.8-1.2,2.3c-3.4,1.2-7.2,2.6-10.3,3.9
		c-1.8,0.7-2.7,0.6-3.9-0.2c-0.9-0.6-1.8-1.3-2.8-2.3c-0.8-0.8-1.4-2.1-1.2-3.9c0.5-5.6,2.7-16.7,4.4-25
		C112.1,41.4,111.3,39.7,110.9,38.6z"/>
	<path class="st1" d="M156.9,55.6c0.4,2.9-0.5,4.9-2.4,7.1c-2.7,3.2-8,6.9-11.7,8.5c-2.1,1-2.9,1-4.5,0.1c-1.7-1-2.6-1.7-4.1-3
		c-1.6-1.4-1.9-2-1.6-4.4c0.7-6.2,2.6-15.7,4-23.3c-0.5-0.7-1.1-1.7-1.6-2.6c-0.7-1.5-0.8-2.3,0.5-3.1c5.6-4,17-7.7,21-4
		c1.7,1.6,3,3.6,3.6,6.5c0.6,3.2-1,6.4-3.1,8.8c-1.1,1.2-2.4,2.5-4,3.8C155.1,51,156.5,53.2,156.9,55.6z M140,63.8
		c5.6-2.5,9.3-6.2,8.8-8.3c-0.3-1.3-3.3-1.8-7.4,0.4C141,58.5,140.4,61.2,140,63.8z M152.7,37.8c-0.3-1.3-3.7-1-7.8,1.7
		c-0.6,2.5-1.2,5.3-1.9,8.5C149.4,44.7,153.2,39.5,152.7,37.8z"/>
	<path class="st1" d="M161.8,32.3c-0.4-1.2-0.1-1.5,0.8-1.8c4.1-1.7,11.7-3.6,17.3-4.5c1.3-0.2,2.1,0.3,2.6,1.4
		c0.6,1.2,0.9,2.1,1.2,3.3c0.2,1.3-0.1,1.9-1.4,2.2c-2.8,0.7-6.2,1.5-9.4,2.5c-0.6,2.6-1.3,5.6-2.1,8.7c1.5-0.4,3-0.7,4.6-1
		c1.3-0.2,2.1,0,2.7,1.1c0.6,1.2,1,2.2,1.3,3.4c0.3,1.3,0,1.7-1.3,2.2c-3,1-6.4,2.1-9.4,3.3c-0.4,2-0.9,3.9-1.2,5.8
		c2.4-0.8,4.6-1.4,7.2-1.9c1.3-0.3,2.2-0.1,2.7,1c0.6,1.2,1.1,2.3,1.4,3.5c0.3,1.3,0.1,1.8-1.2,2.3c-3.4,1.2-7.2,2.6-10.3,3.9
		c-1.8,0.7-2.7,0.6-3.9-0.2c-0.9-0.6-1.8-1.3-2.8-2.3c-0.8-0.8-1.4-2.1-1.2-3.9c0.5-5.6,2.7-16.7,4.4-25
		C163,35.1,162.2,33.4,161.8,32.3z"/>
	<path class="st1" d="M185.3,29.4c-0.4-1.2-0.1-1.5,0.8-1.8c4.1-1.7,11.7-3.6,17.3-4.5c1.3-0.2,2.1,0.3,2.6,1.4
		c0.6,1.2,0.9,2.1,1.2,3.3c0.2,1.3-0.1,1.9-1.4,2.2c-2.8,0.7-6.2,1.5-9.4,2.5c-0.6,2.6-1.3,5.6-2.1,8.7c1.5-0.4,3-0.7,4.6-1
		c1.3-0.2,2.1,0,2.7,1.1c0.6,1.2,1,2.2,1.3,3.4c0.3,1.3,0,1.7-1.3,2.2c-3,1-6.4,2.1-9.4,3.3c-0.4,2-0.9,3.9-1.2,5.8
		c2.4-0.8,4.6-1.4,7.2-1.9c1.3-0.3,2.2-0.1,2.7,1c0.6,1.2,1.1,2.3,1.4,3.5c0.3,1.3,0.1,1.8-1.2,2.3c-3.4,1.2-7.2,2.6-10.3,3.9
		c-1.8,0.7-2.7,0.6-3.9-0.2c-0.9-0.6-1.8-1.3-2.8-2.3c-0.8-0.8-1.4-2.1-1.2-3.9c0.5-5.6,2.7-16.7,4.4-25
		C186.4,32.1,185.6,30.4,185.3,29.4z"/>
	<path class="st1" d="M205.4,57.3c0.7-2.5,2.7-4.3,5.5-3.7c2.7,0.6,3.4,2.9,3,5.2c-0.6,3.1-3,4.7-5.5,4.3
		C206.1,62.7,204.6,60.3,205.4,57.3z"/>
	<path class="st1" d="M219.8,25.1c-0.4-1.2-0.1-1.5,0.8-1.8c4.1-1.7,11.7-3.6,17.3-4.5c1.3-0.2,2.1,0.3,2.6,1.4
		c0.6,1.2,0.9,2.1,1.2,3.3c0.2,1.3-0.1,1.9-1.4,2.2c-2.8,0.7-6.2,1.5-9.4,2.5c-0.6,2.6-1.3,5.6-2.1,8.7c1.5-0.4,3-0.7,4.6-1
		c1.3-0.2,2.1,0,2.7,1.1c0.6,1.2,1,2.2,1.3,3.4c0.3,1.3,0,1.7-1.3,2.2c-3,1-6.4,2.1-9.4,3.3c-0.4,2-0.9,3.9-1.2,5.8
		c2.4-0.8,4.6-1.4,7.2-1.9c1.3-0.3,2.2-0.1,2.7,1c0.6,1.2,1.1,2.3,1.4,3.5c0.3,1.3,0.1,1.8-1.2,2.3c-3.4,1.2-7.2,2.6-10.3,3.9
		c-1.8,0.7-2.7,0.6-3.9-0.2c-0.9-0.6-1.8-1.3-2.8-2.3c-0.8-0.8-1.4-2.1-1.2-3.9c0.5-5.6,2.7-16.7,4.4-25
		C220.9,27.9,220.1,26.2,219.8,25.1z"/>
	<path class="st1" d="M260.1,23.5c-2.1,9.9-4.4,22.7-5.9,32.6c-0.2,1.3-0.6,1.6-1.9,1.4s-2.8-0.6-4-1.3c-1.2-0.7-1.4-1.6-1.3-3.3
		c0.5-6.6,2.5-18.9,4.1-27c-1.4,0.4-2.9,0.9-3.7,1.2c-1.2,0.4-1.9,0.4-2.7-0.7c-0.9-1.1-1.9-3-2.2-4.2c-0.4-1.2,0-1.5,0.9-1.9
		c5.6-2,14.5-4,20.1-4.8c1.4-0.2,1.9,0.1,2.4,0.7c0.9,1.1,1.7,2.7,2,3.8c0.3,1.3,0.3,1.6-1.2,1.9C264.7,22.4,262.2,23,260.1,23.5z"
		/>
	<path class="st1" d="M286.8,51.9c-0.2,1.4-0.6,1.7-1.9,1.5s-2.8-0.6-3.9-1.2c-1.1-0.7-1.4-1.4-1.3-3.2c0.2-2.4,0.6-5.8,1.2-9.4
		c-1.9,0.5-4.3,1.3-6.4,2c-0.8,4.6-1.5,8.8-2,12.2c-0.2,1.4-0.7,1.7-2,1.5c-1.3-0.2-2.9-0.7-4-1.3c-1.2-0.7-1.5-1.4-1.3-3.2
		c0.2-2.3,0.6-5.8,1.2-9.8c-0.5-0.9-1-1.9-1.3-2.6c-0.3-1.1-0.2-1.5,0.8-1.9c0.4-0.2,0.8-0.3,1.2-0.5c1.1-7.1,2.4-14.7,3.4-19
		c0.4-1.7,1.1-1.9,2.5-1.6c1.4,0.3,3.4,1.1,4.6,1.8c1.3,0.8,1.5,1.4,1.2,2.8C278,23,277,27.8,276,33c2-0.5,4.5-1.1,6.1-1.4
		c1.1-6.3,2.3-12.8,3.2-17.4c0.3-1.7,1.1-1.9,2.5-1.6c1.3,0.3,3,0.9,4.4,1.7c1.2,0.7,1.5,1.4,1.2,2.8
		C291.4,25.8,288.6,40.7,286.8,51.9z"/>
</g>
<g class="st0">
	<path class="st2" d="M13.6,86c-0.3,1.3-0.7,1.7-2,1.5c-1.2-0.2-2.8-0.6-3.9-1.3c-1.1-0.7-1.4-1.5-1.3-3.2c0.5-5.7,2.4-16.8,4-25.9
		c-0.5-0.8-1.3-1.9-1.8-2.9C7.9,52.7,8,52,9.1,51.1c5.6-4.1,16.7-8.4,20.9-4.4c1.7,1.6,3.3,3.8,4.2,7.2c0.8,3.4-0.6,6.3-2.5,9
		c-3.2,4.5-10,9.4-16.2,12.1C14.8,78.8,14.1,82.5,13.6,86z M27.1,54.1c-0.3-1.3-3.9-0.9-7.5,1.3c-0.7,3.1-1.5,6.7-2.3,10.6
		C24.4,62.2,27.9,56.4,27.1,54.1z"/>
	<path class="st2" d="M38.4,75.7c-1,2.7-2,5.2-2.7,7.4c-0.5,1.4-1,1.5-2.2,1.1c-1.1-0.3-2.2-0.8-3.2-1.6c-1-0.9-1.1-1.7-0.6-3.5
		c2.9-9.5,9.1-25.3,13.2-34.1c0.8-1.6,1.8-2.6,3.9-2.8c2.5-0.2,5.9,0.2,8,0.7c1.5,0.4,1.8,1.3,1.8,2.9c-0.1,7.8,0.3,22.7,0.9,34
		c0.1,1.4-0.2,1.8-1.5,2c-1.3,0.2-3,0.1-3.8-0.1c-1.3-0.3-1.7-1-2-2.9c-0.2-2-0.4-4.3-0.6-6.9C45.7,73.2,41.4,74.4,38.4,75.7z
		 M49,64.5c-0.2-4.9-0.4-9.9-0.4-14.3c-1.9,4.3-4.3,10.2-6.7,16.1C44.3,65.6,46.7,64.9,49,64.5z"/>
	<path class="st2" d="M64.9,70.3c4,2.7,7.6,3.3,8.9,1.8c1.6-1.7-5.2-4.7-8.9-8.1c-2.6-2.3-4.2-6.2-2.7-10.9c1.2-4.2,4.4-9.2,7.8-12
		c1.3-1,3.5-2.2,6.2-1.6c2,0.5,4.4,1.6,5.7,2.8c1.9,1.7,2,3.8,2,5.4c-0.1,2.9-1,7.8-2,10.5c-0.5,1.2-1,1.6-2.2,1.2
		c-3.3-1-4.9-2.7-4.7-5.2c0.2-2.3,1.5-7.1,0.7-7.4c-1.4-0.6-8.2,8.4-4.4,12.5c4.2,4.3,12.4,6.4,10.3,12.3C80,76,77.1,79.4,72.1,80
		c-4,0.5-8.2-0.9-12.2-5.4c-2.1-2.3-1.9-3.2-0.9-4C60.8,69.4,63.4,69.4,64.9,70.3z"/>
	<path class="st2" d="M102.1,43.1c-2.1,9.9-4.4,22.7-5.9,32.6c-0.2,1.3-0.6,1.6-1.9,1.4s-2.8-0.6-4-1.3c-1.2-0.7-1.4-1.6-1.3-3.3
		c0.5-6.6,2.5-18.9,4.1-27c-1.4,0.4-2.9,0.9-3.7,1.2c-1.2,0.4-1.9,0.4-2.7-0.7c-0.9-1.1-1.9-3-2.2-4.2c-0.4-1.2,0-1.5,0.9-1.9
		c5.6-2,14.5-4,20.1-4.8c1.4-0.2,1.9,0.1,2.4,0.7c0.9,1.1,1.7,2.7,2,3.8c0.3,1.3,0.3,1.6-1.2,1.9C106.7,42,104.2,42.6,102.1,43.1z"
		/>
	<path class="st2" d="M110.9,38.6c-0.4-1.2-0.1-1.5,0.8-1.8c4.1-1.7,11.7-3.6,17.3-4.5c1.3-0.2,2.1,0.3,2.6,1.4
		c0.6,1.2,0.9,2.1,1.2,3.3c0.2,1.3-0.1,1.9-1.4,2.2c-2.8,0.7-6.2,1.5-9.4,2.5c-0.6,2.6-1.3,5.6-2.1,8.7c1.5-0.4,3-0.7,4.6-1
		c1.3-0.2,2.1,0,2.7,1.1c0.6,1.2,1,2.2,1.3,3.4c0.3,1.3,0,1.7-1.3,2.2c-3,1-6.4,2.1-9.4,3.3c-0.4,2-0.9,3.9-1.2,5.8
		c2.4-0.8,4.6-1.4,7.2-1.9c1.3-0.3,2.2-0.1,2.7,1c0.6,1.2,1.1,2.3,1.4,3.5c0.3,1.3,0.1,1.8-1.2,2.3c-3.4,1.2-7.2,2.6-10.3,3.9
		c-1.8,0.7-2.7,0.6-3.9-0.2c-0.9-0.6-1.8-1.3-2.8-2.3c-0.8-0.8-1.4-2.1-1.2-3.9c0.5-5.6,2.7-16.7,4.4-25
		C112.1,41.4,111.3,39.7,110.9,38.6z"/>
	<path class="st2" d="M156.9,55.6c0.4,2.9-0.5,4.9-2.4,7.1c-2.7,3.2-8,6.9-11.7,8.5c-2.1,1-2.9,1-4.5,0.1c-1.7-1-2.6-1.7-4.1-3
		c-1.6-1.4-1.9-2-1.6-4.4c0.7-6.2,2.6-15.7,4-23.3c-0.5-0.7-1.1-1.7-1.6-2.6c-0.7-1.5-0.8-2.3,0.5-3.1c5.6-4,17-7.7,21-4
		c1.7,1.6,3,3.6,3.6,6.5c0.6,3.2-1,6.4-3.1,8.8c-1.1,1.2-2.4,2.5-4,3.8C155.1,51,156.5,53.2,156.9,55.6z M140,63.8
		c5.6-2.5,9.3-6.2,8.8-8.3c-0.3-1.3-3.3-1.8-7.4,0.4C141,58.5,140.4,61.2,140,63.8z M152.7,37.8c-0.3-1.3-3.7-1-7.8,1.7
		c-0.6,2.5-1.2,5.3-1.9,8.5C149.4,44.7,153.2,39.5,152.7,37.8z"/>
	<path class="st2" d="M161.8,32.3c-0.4-1.2-0.1-1.5,0.8-1.8c4.1-1.7,11.7-3.6,17.3-4.5c1.3-0.2,2.1,0.3,2.6,1.4
		c0.6,1.2,0.9,2.1,1.2,3.3c0.2,1.3-0.1,1.9-1.4,2.2c-2.8,0.7-6.2,1.5-9.4,2.5c-0.6,2.6-1.3,5.6-2.1,8.7c1.5-0.4,3-0.7,4.6-1
		c1.3-0.2,2.1,0,2.7,1.1c0.6,1.2,1,2.2,1.3,3.4c0.3,1.3,0,1.7-1.3,2.2c-3,1-6.4,2.1-9.4,3.3c-0.4,2-0.9,3.9-1.2,5.8
		c2.4-0.8,4.6-1.4,7.2-1.9c1.3-0.3,2.2-0.1,2.7,1c0.6,1.2,1.1,2.3,1.4,3.5c0.3,1.3,0.1,1.8-1.2,2.3c-3.4,1.2-7.2,2.6-10.3,3.9
		c-1.8,0.7-2.7,0.6-3.9-0.2c-0.9-0.6-1.8-1.3-2.8-2.3c-0.8-0.8-1.4-2.1-1.2-3.9c0.5-5.6,2.7-16.7,4.4-25
		C163,35.1,162.2,33.4,161.8,32.3z"/>
	<path class="st2" d="M185.3,29.4c-0.4-1.2-0.1-1.5,0.8-1.8c4.1-1.7,11.7-3.6,17.3-4.5c1.3-0.2,2.1,0.3,2.6,1.4
		c0.6,1.2,0.9,2.1,1.2,3.3c0.2,1.3-0.1,1.9-1.4,2.2c-2.8,0.7-6.2,1.5-9.4,2.5c-0.6,2.6-1.3,5.6-2.1,8.7c1.5-0.4,3-0.7,4.6-1
		c1.3-0.2,2.1,0,2.7,1.1c0.6,1.2,1,2.2,1.3,3.4c0.3,1.3,0,1.7-1.3,2.2c-3,1-6.4,2.1-9.4,3.3c-0.4,2-0.9,3.9-1.2,5.8
		c2.4-0.8,4.6-1.4,7.2-1.9c1.3-0.3,2.2-0.1,2.7,1c0.6,1.2,1.1,2.3,1.4,3.5c0.3,1.3,0.1,1.8-1.2,2.3c-3.4,1.2-7.2,2.6-10.3,3.9
		c-1.8,0.7-2.7,0.6-3.9-0.2c-0.9-0.6-1.8-1.3-2.8-2.3c-0.8-0.8-1.4-2.1-1.2-3.9c0.5-5.6,2.7-16.7,4.4-25
		C186.4,32.1,185.6,30.4,185.3,29.4z"/>
	<path class="st2" d="M205.4,57.3c0.7-2.5,2.7-4.3,5.5-3.7c2.7,0.6,3.4,2.9,3,5.2c-0.6,3.1-3,4.7-5.5,4.3
		C206.1,62.7,204.6,60.3,205.4,57.3z"/>
	<path class="st2" d="M219.8,25.1c-0.4-1.2-0.1-1.5,0.8-1.8c4.1-1.7,11.7-3.6,17.3-4.5c1.3-0.2,2.1,0.3,2.6,1.4
		c0.6,1.2,0.9,2.1,1.2,3.3c0.2,1.3-0.1,1.9-1.4,2.2c-2.8,0.7-6.2,1.5-9.4,2.5c-0.6,2.6-1.3,5.6-2.1,8.7c1.5-0.4,3-0.7,4.6-1
		c1.3-0.2,2.1,0,2.7,1.1c0.6,1.2,1,2.2,1.3,3.4c0.3,1.3,0,1.7-1.3,2.2c-3,1-6.4,2.1-9.4,3.3c-0.4,2-0.9,3.9-1.2,5.8
		c2.4-0.8,4.6-1.4,7.2-1.9c1.3-0.3,2.2-0.1,2.7,1c0.6,1.2,1.1,2.3,1.4,3.5c0.3,1.3,0.1,1.8-1.2,2.3c-3.4,1.2-7.2,2.6-10.3,3.9
		c-1.8,0.7-2.7,0.6-3.9-0.2c-0.9-0.6-1.8-1.3-2.8-2.3c-0.8-0.8-1.4-2.1-1.2-3.9c0.5-5.6,2.7-16.7,4.4-25
		C220.9,27.9,220.1,26.2,219.8,25.1z"/>
	<path class="st2" d="M260.1,23.5c-2.1,9.9-4.4,22.7-5.9,32.6c-0.2,1.3-0.6,1.6-1.9,1.4s-2.8-0.6-4-1.3c-1.2-0.7-1.4-1.6-1.3-3.3
		c0.5-6.6,2.5-18.9,4.1-27c-1.4,0.4-2.9,0.9-3.7,1.2c-1.2,0.4-1.9,0.4-2.7-0.7c-0.9-1.1-1.9-3-2.2-4.2c-0.4-1.2,0-1.5,0.9-1.9
		c5.6-2,14.5-4,20.1-4.8c1.4-0.2,1.9,0.1,2.4,0.7c0.9,1.1,1.7,2.7,2,3.8c0.3,1.3,0.3,1.6-1.2,1.9C264.7,22.4,262.2,23,260.1,23.5z"
		/>
	<path class="st2" d="M286.8,51.9c-0.2,1.4-0.6,1.7-1.9,1.5s-2.8-0.6-3.9-1.2c-1.1-0.7-1.4-1.4-1.3-3.2c0.2-2.4,0.6-5.8,1.2-9.4
		c-1.9,0.5-4.3,1.3-6.4,2c-0.8,4.6-1.5,8.8-2,12.2c-0.2,1.4-0.7,1.7-2,1.5c-1.3-0.2-2.9-0.7-4-1.3c-1.2-0.7-1.5-1.4-1.3-3.2
		c0.2-2.3,0.6-5.8,1.2-9.8c-0.5-0.9-1-1.9-1.3-2.6c-0.3-1.1-0.2-1.5,0.8-1.9c0.4-0.2,0.8-0.3,1.2-0.5c1.1-7.1,2.4-14.7,3.4-19
		c0.4-1.7,1.1-1.9,2.5-1.6c1.4,0.3,3.4,1.1,4.6,1.8c1.3,0.8,1.5,1.4,1.2,2.8C278,23,277,27.8,276,33c2-0.5,4.5-1.1,6.1-1.4
		c1.1-6.3,2.3-12.8,3.2-17.4c0.3-1.7,1.1-1.9,2.5-1.6c1.3,0.3,3,0.9,4.4,1.7c1.2,0.7,1.5,1.4,1.2,2.8
		C291.4,25.8,288.6,40.7,286.8,51.9z"/>
</g>
</svg>
