<?xml version="1.0" encoding="utf-8"?>
<!-- Generator: Adobe Illustrator 24.2.0, SVG Export Plug-In . SVG Version: 6.00 Build 0)  -->
<svg version="1.1" id="Layer_1" xmlns="http://www.w3.org/2000/svg" xmlns:xlink="http://www.w3.org/1999/xlink" x="0px" y="0px"
	 viewBox="0 0 50 29.7" style="enable-background:new 0 0 50 29.7;" xml:space="preserve">
<style type="text/css">
	.st0{enable-background:new    ;}
</style>
<g class="st0">
	<path d="M18.5,9.1c0.2-0.5,0.4-0.6,0.9-0.4c0.3,0.1,0.6,0.3,0.9,0.4c0.4,0.3,0.6,0.5,0.4,1.2c-0.9,2.9-2.4,7.6-3.2,10.7
		c-0.1,0.5-0.4,0.6-0.9,0.5c-0.4-0.1-0.8-0.3-1.1-0.5c-0.4-0.2-0.6-0.5-0.7-1c-0.3-1.5-0.6-3.5-0.7-6.1c-0.5,1.6-1.4,4.4-2.2,7.2
		c-0.1,0.4-0.3,0.5-0.8,0.4c-0.3-0.1-0.6-0.3-0.9-0.4c-0.4-0.3-0.6-0.5-0.4-1.3c0.4-2,2.2-7.7,3.1-10.6c0.1-0.4,0.3-0.5,0.6-0.5
		c0.3,0,1.1,0.3,1.7,0.6c0.5,0.2,0.6,0.5,0.6,1c0.1,1.9,0.3,4.2,0.4,6.3C16.8,14.4,17.8,11,18.5,9.1z"/>
	<path d="M21.5,9.8c-0.1-0.4,0-0.5,0.3-0.6c1.4-0.4,3.9-0.7,5.8-0.8c0.4,0,0.7,0.2,0.8,0.6c0.1,0.4,0.2,0.7,0.2,1.1
		c0,0.4-0.1,0.6-0.5,0.6c-0.9,0.1-2.1,0.2-3.1,0.4c-0.3,0.8-0.7,1.8-1,2.7c0.5-0.1,1-0.1,1.5-0.1c0.4,0,0.7,0.1,0.8,0.5
		c0.1,0.4,0.2,0.8,0.3,1.2c0.1,0.4-0.1,0.6-0.5,0.7c-1,0.2-2.2,0.4-3.2,0.7c-0.2,0.6-0.4,1.2-0.6,1.8c0.8-0.2,1.5-0.3,2.4-0.3
		c0.4,0,0.7,0.1,0.8,0.4c0.2,0.4,0.3,0.8,0.3,1.2c0.1,0.4,0,0.6-0.5,0.7c-1.1,0.3-2.4,0.5-3.5,0.8c-0.6,0.2-0.9,0.1-1.3-0.2
		c-0.3-0.2-0.5-0.5-0.8-0.9c-0.2-0.3-0.4-0.7-0.2-1.3c0.4-1.8,1.5-5.3,2.4-7.9C21.8,10.7,21.6,10.1,21.5,9.8z"/>
	<path d="M35,21.6c-1.3-0.4-1.7-0.6-1.7-1.5c0-0.8,0.3-3.6,0.4-5.3c-1.1,2.1-2.8,5.4-3.3,6.4c-0.3,0.5-0.5,0.5-1.1,0.4
		c-0.3-0.1-0.8-0.2-1.1-0.4c-0.3-0.2-0.4-0.4-0.4-0.8c0-1.9,0.8-7.5,1.5-11.2c0.1-0.4,0.2-0.6,0.5-0.6c0.4,0,1.2,0.3,1.6,0.5
		c0.3,0.2,0.4,0.5,0.3,1.1c-0.2,1-1,4.8-1.4,7.2c1.2-2.5,3.2-6.5,3.7-7.3c0.3-0.4,0.4-0.5,1-0.3c0.3,0.1,0.7,0.2,0.9,0.4
		c0.3,0.2,0.4,0.5,0.3,1c-0.1,0.5-0.5,4.1-0.8,6.5c1.2-3.1,3.3-7.6,3.9-8.7c0.3-0.5,0.5-0.5,1-0.3c0.4,0.2,0.8,0.5,1,0.8
		c0.3,0.4,0.2,0.7,0,1.2c-1.3,2.6-3.9,7.8-5.1,10.6C36,21.7,35.7,21.8,35,21.6z"/>
</g>
</svg>
