<?xml version="1.0" encoding="utf-8"?>
<!-- Generator: Adobe Illustrator 24.2.0, SVG Export Plug-In . SVG Version: 6.00 Build 0)  -->
<svg version="1.1" id="Layer_1" xmlns="http://www.w3.org/2000/svg" xmlns:xlink="http://www.w3.org/1999/xlink" x="0px" y="0px"
	 viewBox="0 0 78.3 29.7" style="enable-background:new 0 0 78.3 29.7;" xml:space="preserve">
<style type="text/css">
	.st0{enable-background:new    ;}
</style>
<g class="st0">
	<path d="M20.3,20.6C20.2,21,20,21.2,19.6,21c-0.4-0.1-0.9-0.3-1.2-0.6c-0.3-0.3-0.4-0.5-0.3-1.1c0.4-1.8,1.4-5.3,2.3-8.2
		c-0.1-0.3-0.3-0.7-0.5-1c-0.2-0.5-0.2-0.7,0.3-1c2-1.1,5.8-2.1,7-0.6c0.5,0.6,0.9,1.4,1.1,2.5c0.1,1.1-0.4,2-1.2,2.8
		c-1.2,1.3-3.6,2.6-5.7,3.3C21,18.3,20.6,19.5,20.3,20.6z M26,10.8c-0.1-0.4-1.2-0.5-2.5,0.1c-0.4,1-0.8,2.1-1.2,3.3
		C24.8,13.4,26.1,11.6,26,10.8z"/>
	<path d="M28.7,18.3c-0.4,0.8-0.8,1.6-1.2,2.3c-0.2,0.4-0.4,0.4-0.8,0.3c-0.3-0.1-0.7-0.3-1-0.7c-0.3-0.3-0.3-0.6,0-1.2
		c1.3-2.9,3.9-7.8,5.6-10.5c0.3-0.5,0.7-0.8,1.4-0.7c0.8,0,1.9,0.3,2.5,0.6c0.5,0.2,0.5,0.5,0.5,1c-0.4,2.5-0.8,7.4-1.1,11.1
		c0,0.5-0.1,0.6-0.6,0.6s-1-0.1-1.2-0.2c-0.4-0.1-0.5-0.4-0.5-1c0-0.6,0-1.4,0.1-2.3C31.2,17.8,29.8,18,28.7,18.3z M32.6,15.1
		c0.1-1.6,0.3-3.2,0.5-4.6c-0.8,1.3-1.8,3.1-2.8,4.9C31.1,15.3,31.9,15.1,32.6,15.1z"/>
	<path d="M37.5,17.6c1.2,1,2.3,1.4,2.8,0.9c0.6-0.5-1.5-1.7-2.6-3c-0.7-0.9-1.1-2.2-0.4-3.6c0.6-1.3,1.8-2.8,3-3.6
		c0.5-0.3,1.2-0.6,2.1-0.3c0.6,0.2,1.4,0.7,1.7,1.1c0.6,0.6,0.5,1.3,0.4,1.8c-0.1,0.9-0.6,2.5-1.1,3.3c-0.2,0.4-0.4,0.5-0.8,0.3
		c-1-0.4-1.5-1.1-1.3-1.9c0.2-0.7,0.8-2.2,0.5-2.4c-0.4-0.2-3,2.4-1.9,3.9c1.2,1.6,3.8,2.6,2.8,4.4C42.2,20,41.1,21,39.5,21
		c-1.3,0-2.6-0.6-3.7-2.2c-0.6-0.8-0.5-1.1-0.1-1.3C36.3,17.2,37.1,17.2,37.5,17.6z"/>
	<path d="M50.7,10.3c-1.1,3.1-2.3,7.2-3.2,10.3c-0.1,0.4-0.3,0.5-0.7,0.4s-0.9-0.3-1.2-0.6s-0.4-0.6-0.3-1.1c0.4-2.1,1.6-6,2.4-8.6
		c-0.5,0.1-1,0.2-1.3,0.2c-0.4,0.1-0.6,0-0.9-0.3c-0.2-0.4-0.5-1.1-0.6-1.4c-0.1-0.4,0.1-0.5,0.4-0.6c1.9-0.4,4.8-0.7,6.7-0.8
		c0.5,0,0.6,0.1,0.8,0.3c0.3,0.4,0.4,0.9,0.5,1.3c0.1,0.4,0,0.5-0.5,0.6C52.2,10.1,51.4,10.2,50.7,10.3z"/>
	<path d="M53.7,9.2c-0.1-0.4,0-0.5,0.3-0.6c1.4-0.4,3.9-0.7,5.8-0.8c0.4,0,0.7,0.2,0.8,0.6c0.1,0.4,0.2,0.7,0.2,1.1
		c0,0.4-0.1,0.6-0.5,0.6c-0.9,0.1-2.1,0.2-3.1,0.4c-0.3,0.8-0.7,1.8-1,2.7c0.5-0.1,1-0.1,1.5-0.1c0.4,0,0.7,0.1,0.8,0.5
		c0.1,0.4,0.2,0.8,0.3,1.2c0.1,0.4-0.1,0.6-0.5,0.7c-1,0.2-2.2,0.4-3.2,0.7c-0.2,0.6-0.4,1.2-0.6,1.8c0.8-0.2,1.5-0.3,2.4-0.3
		c0.4,0,0.7,0.1,0.8,0.4c0.2,0.4,0.3,0.8,0.3,1.2c0.1,0.4,0,0.6-0.5,0.7c-1.1,0.3-2.4,0.5-3.5,0.8c-0.6,0.2-0.9,0.1-1.3-0.2
		c-0.3-0.2-0.5-0.5-0.8-0.9c-0.2-0.3-0.4-0.7-0.2-1.3c0.4-1.8,1.5-5.3,2.4-7.9C54,10.1,53.8,9.5,53.7,9.2z"/>
</g>
</svg>
