<?xml version="1.0" encoding="utf-8"?>
<!-- Generator: Adobe Illustrator 24.2.0, SVG Export Plug-In . SVG Version: 6.00 Build 0)  -->
<svg version="1.1" id="Layer_1" xmlns="http://www.w3.org/2000/svg" xmlns:xlink="http://www.w3.org/1999/xlink" x="0px" y="0px"
	 viewBox="0 0 59.1 59.3" style="enable-background:new 0 0 59.1 59.3;" xml:space="preserve">
<style type="text/css">
	.st0{fill:#F9B233;}
	.st1{fill:#FFFFFF;stroke:#000000;stroke-width:2;stroke-miterlimit:10;}
	.st2{fill:#FFFFFF;stroke:#000000;stroke-miterlimit:10;}
	.st3{fill:none;stroke:#000000;stroke-miterlimit:10;}
	.st4{fill:none;stroke:#000000;stroke-miterlimit:10;stroke-dasharray:4.988,4.988;}
	.st5{fill:none;stroke:#000000;stroke-miterlimit:10;stroke-dasharray:5.0122,5.0122;}
	.st6{font-family:'HouseSlant-Regular';}
	.st7{font-size:8.5679px;}
	.st8{font-size:17.8076px;}
</style>
<g>
	<polygon class="st2" points="47.4,6.5 48.6,12.6 54.6,14.4 53.5,20.5 58.4,24.4 55.2,29.7 58.4,35.1 53.4,38.9 54.5,45 48.5,46.8 
		47.3,52.9 41,52.4 37.7,57.7 32.1,55 27,58.6 22.8,54.1 16.7,55.7 14.4,49.9 8.2,49.2 8.1,43 2.6,40.1 4.8,34.3 0.7,29.6 4.8,24.9 
		2.7,19.1 8.2,16.2 8.3,10 14.5,9.3 16.9,3.6 22.9,5.2 27.2,0.7 32.2,4.4 37.8,1.7 41.2,6.9 	"/>
	<text transform="matrix(0.9961 -8.795000e-02 8.795000e-02 0.9961 10.9297 24.147)" class="st6 st7">powered by</text>
	<text transform="matrix(1 0 0 1 6.7173 39.2695)" class="st6 st8">Swarm</text>
</g>
</svg>
