<?xml version="1.0" encoding="utf-8"?>
<!-- Generator: Adobe Illustrator 24.2.0, SVG Export Plug-In . SVG Version: 6.00 Build 0)  -->
<svg version="1.1" id="Layer_1" xmlns="http://www.w3.org/2000/svg" xmlns:xlink="http://www.w3.org/1999/xlink" x="0px" y="0px"
	 viewBox="0 0 59.1 59.3" style="enable-background:new 0 0 59.1 59.3;" xml:space="preserve">
<style type="text/css">
	.st0{fill:#FFFFFF;stroke:#000000;stroke-miterlimit:10;}
	.st1{enable-background:new    ;}
</style>
<g>
	<g>
		<polygon class="st0" points="47.4,6.5 48.6,12.6 54.6,14.4 53.5,20.5 58.4,24.4 55.2,29.7 58.4,35.1 53.4,38.9 54.5,45 48.5,46.8 
			47.3,52.9 41,52.4 37.7,57.7 32.1,55 27,58.6 22.8,54.1 16.7,55.7 14.4,49.9 8.2,49.2 8.1,43 2.6,40.1 4.8,34.3 0.7,29.6 
			4.8,24.9 2.7,19.1 8.2,16.2 8.3,10 14.5,9.3 16.9,3.6 22.9,5.2 27.2,0.7 32.2,4.4 37.8,1.7 41.2,6.9 		"/>
		<g class="st1">
			<path d="M11.7,22.4c0,0.2-0.1,0.2-0.3,0.2c-0.2,0-0.4-0.1-0.5-0.2c-0.2-0.1-0.2-0.2-0.2-0.5c0.1-0.8,0.4-2.3,0.7-3.6
				c-0.1-0.1-0.2-0.3-0.2-0.4c-0.1-0.2-0.1-0.3,0.1-0.4c0.8-0.5,2.4-1.1,2.9-0.5c0.2,0.2,0.4,0.5,0.5,1c0.1,0.5-0.1,0.9-0.4,1.2
				c-0.5,0.6-1.4,1.3-2.3,1.6C12,21.4,11.8,21.9,11.7,22.4z M13.8,18c0-0.2-0.5-0.2-1.1,0.1c-0.1,0.4-0.2,0.9-0.4,1.5
				C13.4,19.1,13.9,18.3,13.8,18z"/>
			<path d="M18.5,17.6c0.2,1.2-0.2,3.1-1,4.1c-0.3,0.3-0.6,0.5-1.1,0.4c-0.3,0-0.6-0.1-0.8-0.2c-0.2-0.1-0.4-0.3-0.5-0.6
				c-0.5-1.2,0.1-3.4,1.2-4.5c0.2-0.2,0.6-0.4,0.9-0.3c0.4,0,0.7,0.1,1,0.3C18.3,17,18.4,17.2,18.5,17.6z M16.2,19.2
				c-0.2,0.8-0.3,1.9,0,2c0.3,0.1,0.7-0.7,1-1.7c0.2-0.8,0.3-2,0-2.1C17,17.3,16.4,18.3,16.2,19.2z"/>
			<path d="M21.9,21.6c-0.6-0.1-0.7-0.2-0.8-0.6c0-0.3,0-1.5,0-2.3c-0.4,0.9-1,2.4-1.2,2.9c-0.1,0.2-0.2,0.2-0.5,0.2
				c-0.1,0-0.3-0.1-0.5-0.1c-0.2-0.1-0.2-0.2-0.2-0.3c-0.1-0.8,0.1-3.2,0.2-4.8c0-0.2,0.1-0.3,0.2-0.3c0.2,0,0.5,0.1,0.7,0.2
				c0.1,0.1,0.2,0.2,0.2,0.5c0,0.4-0.2,2.1-0.3,3.1c0.4-1.1,1.1-2.9,1.3-3.3c0.1-0.2,0.2-0.2,0.4-0.2c0.1,0,0.3,0.1,0.4,0.1
				c0.2,0.1,0.2,0.2,0.2,0.4c0,0.2-0.1,1.8-0.1,2.8c0.4-1.4,1.1-3.4,1.3-3.9c0.1-0.2,0.2-0.2,0.4-0.2c0.2,0.1,0.4,0.2,0.5,0.3
				c0.1,0.1,0.1,0.3,0,0.5c-0.5,1.2-1.4,3.5-1.8,4.7C22.4,21.7,22.3,21.7,21.9,21.6z"/>
			<path d="M24.5,16.3c0-0.2,0-0.2,0.1-0.3c0.6-0.2,1.7-0.4,2.4-0.5c0.2,0,0.3,0.1,0.4,0.2c0.1,0.2,0.1,0.3,0.1,0.5
				c0,0.2,0,0.3-0.2,0.3c-0.4,0.1-0.9,0.2-1.3,0.3c-0.1,0.4-0.2,0.8-0.3,1.2c0.2-0.1,0.4-0.1,0.7-0.1c0.2,0,0.3,0,0.4,0.2
				c0.1,0.2,0.1,0.3,0.2,0.5c0,0.2,0,0.2-0.2,0.3c-0.4,0.1-0.9,0.3-1.3,0.4c-0.1,0.3-0.1,0.5-0.2,0.8c0.3-0.1,0.6-0.2,1-0.2
				c0.2,0,0.3,0,0.4,0.2c0.1,0.2,0.1,0.3,0.2,0.5c0,0.2,0,0.2-0.2,0.3c-0.5,0.2-1,0.3-1.5,0.5c-0.3,0.1-0.4,0.1-0.5,0
				c-0.1-0.1-0.2-0.2-0.4-0.3c-0.1-0.1-0.2-0.3-0.2-0.5c0.1-0.8,0.5-2.3,0.7-3.5C24.6,16.7,24.5,16.5,24.5,16.3z"/>
			<path d="M28.2,20.9c0,0.2-0.1,0.2-0.3,0.2c-0.2,0-0.4-0.1-0.5-0.2c-0.2-0.1-0.2-0.2-0.2-0.5c0.1-0.8,0.4-2.3,0.7-3.6
				c-0.1-0.1-0.2-0.3-0.2-0.4c-0.1-0.2-0.1-0.3,0.1-0.4c0.8-0.5,2.4-1.1,2.9-0.5c0.2,0.2,0.4,0.6,0.5,1c0.1,0.5-0.1,0.9-0.4,1.2
				c-0.3,0.4-0.8,0.7-1.3,1.1c0.3,0.4,0.8,1,1.2,1.4c0.2,0.1,0.1,0.2,0,0.3c-0.1,0.1-0.2,0.2-0.4,0.2c-0.2,0.1-0.4,0.1-0.6-0.1
				c-0.4-0.3-0.9-0.9-1.3-1.4C28.4,19.8,28.3,20.4,28.2,20.9z M28.9,18.1c1-0.5,1.6-1.3,1.5-1.6c-0.1-0.2-0.6-0.2-1.1,0.1
				C29.1,17,29,17.6,28.9,18.1z"/>
			<path d="M31.7,15.7c0-0.2,0-0.2,0.1-0.3c0.6-0.2,1.7-0.4,2.4-0.5c0.2,0,0.3,0.1,0.4,0.2c0.1,0.2,0.1,0.3,0.1,0.5
				c0,0.2,0,0.3-0.2,0.3c-0.4,0.1-0.9,0.2-1.3,0.3c-0.1,0.4-0.2,0.8-0.3,1.2c0.2-0.1,0.4-0.1,0.7-0.1c0.2,0,0.3,0,0.4,0.2
				c0.1,0.2,0.1,0.3,0.2,0.5c0,0.2,0,0.2-0.2,0.3c-0.4,0.1-0.9,0.3-1.3,0.4c-0.1,0.3-0.1,0.5-0.2,0.8c0.3-0.1,0.6-0.2,1-0.2
				c0.2,0,0.3,0,0.4,0.2c0.1,0.2,0.1,0.3,0.2,0.5c0,0.2,0,0.2-0.2,0.3c-0.5,0.2-1,0.3-1.5,0.5c-0.2,0.1-0.4,0.1-0.5,0
				c-0.1-0.1-0.2-0.2-0.4-0.3c-0.1-0.1-0.2-0.3-0.2-0.5c0.1-0.8,0.5-2.3,0.7-3.5C31.8,16.1,31.7,15.8,31.7,15.7z"/>
			<path d="M35,15.6c-0.1-0.2-0.1-0.3,0.1-0.4c0.8-0.6,2.6-1,3.3,0.4c0.6,1.3-0.1,3.7-2.4,4.8c-0.2,0.1-0.4,0.1-0.6,0
				c-0.2-0.1-0.3-0.2-0.5-0.4c-0.2-0.2-0.3-0.3-0.2-0.7c0.2-0.9,0.4-2.2,0.7-3.2C35.1,15.9,35,15.8,35,15.6z M37.3,16.1
				c-0.1-0.2-0.4-0.4-0.9-0.2c-0.3,1-0.5,2.2-0.8,3.4C37.2,18.3,37.5,16.6,37.3,16.1z"/>
			<path d="M44,17.8c0,0.4-0.1,0.7-0.4,1c-0.4,0.4-1.2,0.9-1.7,1.1c-0.3,0.1-0.4,0.1-0.6,0c-0.2-0.1-0.3-0.2-0.6-0.4
				c-0.2-0.2-0.2-0.3-0.2-0.6c0.1-0.9,0.4-2.2,0.7-3.2c-0.1-0.1-0.2-0.2-0.2-0.4c-0.1-0.2-0.1-0.3,0.1-0.4c0.8-0.5,2.4-1,3-0.5
				c0.2,0.2,0.4,0.5,0.5,0.9c0.1,0.4-0.2,0.9-0.5,1.2c-0.2,0.2-0.3,0.3-0.6,0.5C43.8,17.1,44,17.4,44,17.8z M41.6,18.8
				c0.8-0.3,1.3-0.8,1.3-1.1c0-0.2-0.5-0.3-1,0C41.8,18.1,41.7,18.5,41.6,18.8z M43.5,15.3c0-0.2-0.5-0.2-1.1,0.2
				c-0.1,0.3-0.2,0.7-0.3,1.2C43,16.2,43.6,15.5,43.5,15.3z"/>
			<path d="M46.5,17.7c-0.1,0.6-0.3,1.2-0.4,1.7c0,0.2-0.1,0.2-0.3,0.2c-0.2,0-0.4-0.1-0.5-0.2c-0.2-0.1-0.2-0.2-0.2-0.5
				c0.1-0.4,0.1-1,0.3-1.6c-0.2-1-0.5-2.2-0.7-3.1c0-0.2,0-0.2,0.2-0.3c0.2,0,0.4-0.1,0.6,0s0.3,0.1,0.3,0.4
				c0.1,0.4,0.3,1.1,0.4,1.8c0.4-0.7,0.8-1.5,1.1-2.2c0.1-0.2,0.2-0.2,0.4-0.1c0.2,0.1,0.3,0.2,0.4,0.3c0.1,0.1,0.1,0.3,0,0.5
				C47.9,15.1,47.1,16.5,46.5,17.7z"/>
		</g>
		<g class="st1">
			<path d="M7.8,33.7c1.1,0.9,2.1,1.2,2.5,0.8c0.5-0.4-1.3-1.5-2.3-2.6c-0.7-0.8-1-1.9-0.4-3.2c0.5-1.2,1.6-2.5,2.7-3.2
				c0.4-0.2,1.1-0.5,1.8-0.2c0.6,0.2,1.2,0.6,1.5,1c0.5,0.6,0.4,1.2,0.4,1.6c-0.1,0.8-0.6,2.2-0.9,2.9c-0.2,0.3-0.4,0.4-0.7,0.3
				c-0.9-0.4-1.3-0.9-1.2-1.7c0.1-0.6,0.7-2,0.5-2.1c-0.4-0.2-2.7,2.1-1.7,3.4c1.1,1.4,3.3,2.3,2.5,3.9c-0.6,1.2-1.6,2-3,2
				c-1.2,0-2.3-0.6-3.3-2c-0.5-0.7-0.4-1-0.1-1.2C6.7,33.3,7.5,33.4,7.8,33.7z"/>
			<path d="M20.4,36.8c-1.2-0.3-1.5-0.5-1.5-1.4c0-0.7,0.2-3.2,0.4-4.7c-1,1.9-2.5,4.8-2.9,5.7c-0.2,0.5-0.4,0.5-1,0.3
				c-0.3-0.1-0.7-0.2-1-0.4S14,36,14,35.7c0-1.7,0.7-6.7,1.4-9.9c0.1-0.4,0.2-0.5,0.4-0.5c0.3,0,1.1,0.2,1.4,0.5
				c0.3,0.2,0.4,0.4,0.3,1c-0.2,0.9-0.9,4.3-1.3,6.4c1.1-2.3,2.8-5.8,3.3-6.5c0.2-0.4,0.4-0.4,0.9-0.3c0.3,0.1,0.6,0.2,0.8,0.4
				c0.3,0.2,0.4,0.4,0.3,0.9c-0.1,0.5-0.4,3.6-0.7,5.8c1.1-2.8,2.9-6.8,3.5-7.7c0.2-0.4,0.4-0.5,0.9-0.3c0.3,0.1,0.7,0.4,0.9,0.7
				c0.2,0.3,0.2,0.6,0,1.1c-1.2,2.3-3.4,6.9-4.5,9.4C21.3,36.9,21.1,36.9,20.4,36.8z"/>
			<path d="M26.1,34.3c-0.4,0.7-0.7,1.4-1.1,2c-0.2,0.4-0.3,0.4-0.7,0.2c-0.3-0.1-0.6-0.3-0.9-0.6c-0.2-0.3-0.2-0.5,0-1
				c1.2-2.6,3.5-7,5-9.3c0.3-0.4,0.6-0.7,1.2-0.7c0.7,0,1.7,0.3,2.3,0.5c0.4,0.2,0.5,0.4,0.4,0.9c-0.3,2.2-0.7,6.5-1,9.8
				c0,0.4-0.1,0.5-0.5,0.5c-0.4,0-0.9-0.1-1.1-0.2c-0.4-0.1-0.5-0.4-0.5-0.9c0-0.6,0-1.2,0.1-2C28.3,33.9,27.1,34.1,26.1,34.3z
				 M29.6,31.5c0.1-1.4,0.2-2.9,0.4-4.1c-0.7,1.2-1.6,2.8-2.5,4.4C28.2,31.6,28.9,31.5,29.6,31.5z"/>
			<path d="M34.2,36.3c-0.1,0.4-0.2,0.4-0.6,0.4c-0.4-0.1-0.7-0.2-1-0.4c-0.3-0.2-0.4-0.5-0.3-1c0.3-1.6,1.3-4.8,2.1-7.3
				c-0.1-0.3-0.3-0.6-0.4-0.9c-0.2-0.4-0.1-0.7,0.2-0.9c1.7-1,5.1-1.8,6.2-0.5c0.4,0.5,0.8,1.3,0.9,2.2c0.1,1-0.3,1.8-1,2.5
				c-0.7,0.7-1.7,1.4-2.9,2c0.6,1,1.5,2.3,2.2,3.1c0.3,0.3,0.2,0.5-0.1,0.7c-0.3,0.2-0.5,0.3-0.8,0.4c-0.3,0.1-0.8,0.1-1.2-0.3
				c-0.7-0.6-1.7-2-2.4-3.1C34.9,34.2,34.5,35.3,34.2,36.3z M36,30.7c2.1-0.8,3.5-2.4,3.3-3c-0.1-0.4-1.1-0.5-2.2,0.1
				C36.8,28.6,36.4,29.6,36,30.7z"/>
			<path d="M44.5,29.1c-0.6,1.8-1.6,5.2-2.1,7.2c-0.1,0.4-0.3,0.5-0.7,0.4c-0.2-0.1-0.5-0.2-0.7-0.4c-0.4-0.3-0.5-0.6-0.4-1.3
				c0.5-2.3,2-7.2,2.7-9.3c0.2-0.4,0.3-0.6,0.7-0.6c0.5,0,1.3,0.3,1.8,0.5c0.6,0.3,0.7,0.5,0.7,1.1l0,1l0,2.4v1.1
				c0.9-1.8,2.4-4.5,3.2-5.6c0.3-0.4,0.6-0.5,1-0.4c0.4,0.1,1.2,0.3,1.9,0.7c0.4,0.2,0.4,0.4,0.3,1c-0.7,2.4-2.2,7.3-2.8,9.5
				c-0.1,0.3-0.2,0.4-0.4,0.4c-0.2,0-0.7-0.2-1-0.4c-0.4-0.3-0.6-0.5-0.4-1.4c0.3-1.4,1.1-4.1,1.8-6.3c-1,1.7-2.5,4.5-3.6,6.6
				c-0.2,0.3-0.3,0.4-0.5,0.4c-0.2,0-0.6-0.1-0.9-0.3c-0.4-0.2-0.5-0.4-0.6-1C44.4,33.5,44.4,30.6,44.5,29.1z"/>
		</g>
	</g>
	<polygon points="28.9,49.7 29,46.6 26.2,44.9 23.3,46.4 23.2,49.5 26,51.2 	"/>
	<polygon points="29.9,46.6 29.8,49.8 32.6,51.5 35.5,50 35.6,46.8 32.9,45.1 	"/>
	<polygon points="31,42.4 30.6,42.1 30.6,41.6 30.7,40 29.7,39.4 26.8,40.9 26.7,44.1 29.5,45.8 32.4,44.3 32.4,43.2 	"/>
	<polygon points="34.5,40 33.1,39.1 31.5,39.9 31.5,39.9 31.5,41.7 32.9,42.5 32.9,42.6 34.5,41.8 	"/>
</g>
</svg>
