<?xml version="1.0" encoding="utf-8"?>
<!-- Generator: Adobe Illustrator 24.2.0, SVG Export Plug-In . SVG Version: 6.00 Build 0)  -->
<svg version="1.1" id="Layer_1" xmlns="http://www.w3.org/2000/svg" xmlns:xlink="http://www.w3.org/1999/xlink" x="0px" y="0px"
	 viewBox="0 0 12.6 12.6" style="enable-background:new 0 0 12.6 12.6;" xml:space="preserve">
<style type="text/css">
	.st0{fill:#F8B133;}
	.st1{fill:#FFFFFF;}
	.st2{fill:#1D1D1B;}
</style>
<g>
	<g>
		<polygon class="st2" points="5.9,10.8 6,7.7 3.2,6 0.4,7.5 0.2,10.6 3.1,12.3 		"/>
		<polygon class="st2" points="7,7.7 6.9,10.9 9.7,12.6 12.5,11.1 12.6,7.9 9.9,6.2 		"/>
		<polygon class="st2" points="8,3.5 7.6,3.2 7.6,2.7 7.7,1.2 6.7,0.5 3.8,2 3.7,5.2 6.5,6.9 9.4,5.4 9.4,4.3 		"/>
		<polygon class="st2" points="11.5,1.2 10.1,0.2 8.5,1.1 8.5,1.1 8.5,2.8 10,3.6 10,3.7 11.5,2.9 		"/>
	</g>
	<g>
		<g>
			<polygon class="st0" points="0.1,10.3 0.2,7.3 3,5.9 5.7,7.5 5.6,10.5 2.8,11.9 			"/>
			<path d="M3,6l2.6,1.5l-0.1,2.9l-2.6,1.4l-2.6-1.5l0.1-2.9L3,6 M3,5.7L0.1,7.2L0,10.4l2.8,1.7l2.9-1.5l0.1-3.2L3,5.7L3,5.7z"/>
		</g>
		<g>
			<polygon class="st0" points="6.7,10.5 6.8,7.5 9.6,6.1 12.3,7.7 12.2,10.7 9.4,12.2 			"/>
			<path d="M9.6,6.2l2.5,1.5L12,10.7L9.4,12l-2.6-1.5L7,7.6L9.6,6.2 M9.6,5.9L6.7,7.4l-0.1,3.2l2.8,1.7l2.9-1.5l0.1-3.2L9.6,5.9
				L9.6,5.9z"/>
		</g>
		<g>
			<polygon class="st0" points="3.6,4.9 3.7,1.9 6.5,0.4 7.3,1 7.2,3 7.7,3.3 9.1,4.1 9,5.1 6.3,6.5 			"/>
			<path d="M6.5,0.6L7.2,1l0,1.4l0,0.5l0,0.1l0.1,0.1l0.4,0.3l1.3,0.8l0,0.8L6.3,6.4L3.7,4.8l0.1-2.9L6.5,0.6 M6.5,0.3L3.6,1.8
				L3.5,4.9l2.8,1.7l2.9-1.5l0-1.1L7.8,3.2L7.4,2.9l0-0.5l0.1-1.6L6.5,0.3L6.5,0.3z"/>
		</g>
		<g>
			<polygon class="st0" points="8.3,2.4 8.4,0.9 9.8,0.1 11.2,1 11.1,2.5 9.7,3.3 			"/>
			<path d="M9.8,0.3L11,1l0,1.4L9.7,3.1L8.5,2.4l0-1.4L9.8,0.3 M9.8,0L8.3,0.8L8.2,2.5l1.5,0.9l0,0l1.5-0.8l0.1-1.7L9.8,0L9.8,0z"/>
		</g>
	</g>
</g>
</svg>
