<?xml version="1.0" encoding="utf-8"?>
<!-- Generator: Adobe Illustrator 24.2.0, SVG Export Plug-In . SVG Version: 6.00 Build 0)  -->
<svg version="1.1" id="Layer_1" xmlns="http://www.w3.org/2000/svg" xmlns:xlink="http://www.w3.org/1999/xlink" x="0px" y="0px"
	 viewBox="0 0 12.6 12.6" style="enable-background:new 0 0 12.6 12.6;" xml:space="preserve">
<style type="text/css">
	.st0{fill:#F8B133;}
	.st1{fill:#FFFFFF;}
	.st2{fill:#1D1D1B;}
</style>
<g>
	<polygon points="5.7,10.6 5.8,7.4 3,5.7 0.1,7.2 0,10.4 2.8,12.1 	"/>
	<polygon points="6.7,7.4 6.6,10.6 9.4,12.3 12.3,10.8 12.4,7.6 9.6,5.9 	"/>
	<polygon points="7.8,3.2 7.4,2.9 7.4,2.5 7.4,0.9 6.5,0.3 3.6,1.8 3.5,4.9 6.3,6.6 9.2,5.1 9.2,4.1 	"/>
	<polygon points="11.3,0.9 9.8,0 8.3,0.8 8.3,0.8 8.2,2.5 9.7,3.4 9.7,3.4 11.2,2.6 	"/>
</g>
</svg>
