<?xml version="1.0" encoding="utf-8"?>
<!-- Generator: Adobe Illustrator 24.2.0, SVG Export Plug-In . SVG Version: 6.00 Build 0)  -->
<svg version="1.1" id="Layer_1" xmlns="http://www.w3.org/2000/svg" xmlns:xlink="http://www.w3.org/1999/xlink" x="0px" y="0px"
	 viewBox="0 0 1224.6 269.4" style="enable-background:new 0 0 1224.6 269.4;" xml:space="preserve">
<style type="text/css">
	.st0{fill:#F9B233;}
	.st1{fill:#FFFFFF;stroke:#000000;stroke-width:2;stroke-miterlimit:10;}
	.st2{fill:#FFFFFF;stroke:#000000;stroke-miterlimit:10;}
	.st3{fill:none;stroke:#000000;stroke-miterlimit:10;}
	.st4{fill:none;stroke:#000000;stroke-miterlimit:10;stroke-dasharray:4.988,4.988;}
	.st5{fill:none;stroke:#000000;stroke-miterlimit:10;stroke-dasharray:5.0122,5.0122;}
</style>
<g>
	<g>
		<path class="st3" d="M226.7,4.3c0.4,0.8,0.7,1.5,1.1,2.2"/>
		<path class="st4" d="M230,11c47,95,71.3,129.1,71.3,129.1s38.9,72.4,135.5,82.9c96.6,10.5,178.8-15.3,188.5,11.9
			c7.9,23.7-3.1,28.1-12.1,28.1s-23.9-13.2-11.6-26.3c12.3-13.2,89.6-58,189.7-38.6c153.7,29.7,171.2,80.1,250.2,65
			c84.1-16.1,90.2-91.4,174.6-134.5"/>
		<path class="st3" d="M1218.4,127.4c0.7-0.4,1.5-0.7,2.3-1.1"/>
	</g>
</g>
</svg>
